<?xml version="1.0" encoding="utf-8"?>
<!-- Generator: Adobe Illustrator 23.0.2, SVG Export Plug-In . SVG Version: 6.00 Build 0)  -->
<svg version="1.1" id="Layer_1" xmlns="http://www.w3.org/2000/svg" xmlns:xlink="http://www.w3.org/1999/xlink" x="0px" y="0px"
	 viewBox="0 0 90.9 51.1" style="enable-background:new 0 0 90.9 51.1;" xml:space="preserve">
<style type="text/css">
	.st0{fill:#FFFFFF;}
</style>
<g>
	<g>
		<g>
			<path class="st0" d="M19.9,50.3L19.9,50.3c3.6-1,5.7-4.7,4.7-8.2l-10-36.5C13.6,2,10-0.2,6.4,0.8l0,0c-3.6,1-5.7,4.7-4.7,8.2
				l10,36.5C12.6,49.1,16.3,51.2,19.9,50.3z"/>
			<path class="st0" d="M41.6,50.3L41.6,50.3c3.6-1,5.7-4.7,4.7-8.2l-10-36.5c-1-3.6-4.7-5.7-8.2-4.7l0,0c-3.6,1-5.7,4.7-4.7,8.2
				l10,36.5C34.3,49.1,38,51.2,41.6,50.3z"/>
			<path class="st0" d="M84.5,50.3L84.5,50.3c3.6-1,5.7-4.7,4.7-8.2l-10-36.5c-1-3.6-4.7-5.7-8.2-4.7l0,0c-3.6,1-5.7,4.7-4.7,8.2
				l10,36.5C77.3,49.1,81,51.2,84.5,50.3z"/>
		</g>
		<circle class="st0" cx="56.5" cy="25.5" r="7"/>
	</g>
</g>
</svg>
