<?xml version="1.0" encoding="utf-8"?>
<!-- Generator: Adobe Illustrator 23.0.2, SVG Export Plug-In . SVG Version: 6.00 Build 0)  -->
<svg version="1.1" id="Layer_1" xmlns="http://www.w3.org/2000/svg" xmlns:xlink="http://www.w3.org/1999/xlink" x="0px" y="0px"
	 viewBox="0 0 572.5 51.1" style="enable-background:new 0 0 572.5 51.1;" xml:space="preserve">
<style type="text/css">
	.st0{fill:#231F20;}
</style>
<g>
	<g>
		<g>
			<path class="st0" d="M19.2,50.4L19.2,50.4c3.6-1,5.7-4.7,4.7-8.2l-10-36.5C13,2.1,9.3,0,5.7,0.9l0,0C2.1,1.9,0,5.6,1,9.2l10,36.5
				C11.9,49.3,15.6,51.4,19.2,50.4z"/>
			<path class="st0" d="M40.9,50.4L40.9,50.4c3.6-1,5.7-4.7,4.7-8.2l-10-36.5c-1-3.6-4.7-5.7-8.2-4.7l0,0c-3.6,1-5.7,4.7-4.7,8.2
				l10,36.5C33.7,49.3,37.3,51.4,40.9,50.4z"/>
			<path class="st0" d="M83.8,50.4L83.8,50.4c3.6-1,5.7-4.7,4.7-8.2l-10-36.5c-1-3.6-4.7-5.7-8.2-4.7l0,0c-3.6,1-5.7,4.7-4.7,8.2
				l10,36.5C76.6,49.3,80.3,51.4,83.8,50.4z"/>
		</g>
		<circle class="st0" cx="55.9" cy="25.7" r="7"/>
	</g>
	<g>
		<path class="st0" d="M147.9,2.4c0.2,0.2,0.2,0.4,0.2,0.6v6.8c0,0.2-0.1,0.4-0.2,0.6c-0.2,0.2-0.4,0.2-0.6,0.2H135
			c-0.2,0-0.3,0.1-0.3,0.3v38.7c0,0.2-0.1,0.4-0.2,0.6c-0.2,0.2-0.4,0.2-0.6,0.2h-8.1c-0.2,0-0.4-0.1-0.6-0.2
			c-0.2-0.2-0.2-0.4-0.2-0.6V10.9c0-0.2-0.1-0.3-0.3-0.3h-12c-0.2,0-0.4-0.1-0.6-0.2c-0.2-0.2-0.2-0.4-0.2-0.6V3
			c0-0.2,0.1-0.4,0.2-0.6c0.2-0.2,0.4-0.2,0.6-0.2h34.8C147.6,2.2,147.8,2.2,147.9,2.4z"/>
		<path class="st0" d="M179.7,17.8c2.3,2.3,3.4,5.3,3.4,9.2v22.6c0,0.2-0.1,0.4-0.2,0.6c-0.2,0.2-0.4,0.2-0.6,0.2h-8.1
			c-0.2,0-0.4-0.1-0.6-0.2s-0.2-0.4-0.2-0.6V29c0-1.8-0.5-3.3-1.5-4.5c-1-1.1-2.4-1.7-4.1-1.7c-1.7,0-3.1,0.6-4.1,1.7
			c-1,1.2-1.6,2.6-1.6,4.5v20.6c0,0.2-0.1,0.4-0.2,0.6c-0.2,0.2-0.4,0.2-0.6,0.2h-8.1c-0.2,0-0.4-0.1-0.6-0.2s-0.2-0.4-0.2-0.6V3
			c0-0.2,0.1-0.4,0.2-0.6c0.2-0.2,0.4-0.2,0.6-0.2h8.1c0.2,0,0.4,0.1,0.6,0.2c0.2,0.2,0.2,0.4,0.2,0.6v15.2c0,0.1,0,0.2,0.1,0.3
			c0.1,0,0.2,0,0.2-0.1c1.9-2.7,4.7-4,8.4-4C174.5,14.4,177.4,15.6,179.7,17.8z"/>
		<path class="st0" d="M219.7,34.9c0,0.6-0.3,0.8-0.9,0.8h-21.3c-0.3,0-0.4,0.1-0.3,0.3c0.1,0.9,0.4,1.8,0.8,2.8
			c1.2,2.6,3.6,3.9,7.3,3.9c2.9,0,5.3-1.2,7-3.6c0.2-0.3,0.4-0.4,0.6-0.4c0.1,0,0.3,0.1,0.5,0.3l5,4.9c0.2,0.2,0.3,0.4,0.3,0.6
			c0,0.1-0.1,0.3-0.3,0.6c-1.5,1.9-3.5,3.3-5.9,4.4c-2.4,1-5,1.6-7.9,1.6c-4,0-7.3-0.9-10-2.7c-2.7-1.8-4.7-4.3-5.9-7.5
			c-1-2.3-1.4-5.3-1.4-9c0-2.5,0.3-4.8,1-6.7c1.1-3.3,2.9-5.9,5.6-7.8c2.6-1.9,5.8-2.9,9.4-2.9c4.6,0,8.3,1.3,11.1,4
			c2.8,2.7,4.5,6.2,5.1,10.7C219.7,30.8,219.8,32.8,219.7,34.9z M197.6,26.9c-0.2,0.6-0.3,1.3-0.5,2.2c0,0.2,0.1,0.3,0.3,0.3h11.9
			c0.3,0,0.4-0.1,0.3-0.3c-0.2-1.3-0.3-2-0.3-1.9c-0.4-1.4-1.1-2.4-2.2-3.2c-1-0.8-2.3-1.1-3.8-1.1
			C200.5,22.8,198.6,24.1,197.6,26.9z"/>
		<path class="st0" d="M231,49.8L218.8,3.1l-0.1-0.3c0-0.4,0.3-0.6,0.8-0.6h8.6c0.5,0,0.8,0.2,0.9,0.7l6.6,28.1
			c0,0.2,0.1,0.3,0.2,0.3c0.1,0,0.2-0.1,0.2-0.3l6.3-28c0.1-0.5,0.4-0.8,0.9-0.8h8.3c0.5,0,0.8,0.2,1,0.7l6.9,28.1
			c0,0.1,0.1,0.2,0.2,0.2c0.1,0,0.2-0.1,0.2-0.2l6.3-28c0.1-0.5,0.4-0.8,0.9-0.8h8.1c0.6,0,0.9,0.3,0.8,0.9l-11.3,46.7
			c-0.1,0.5-0.5,0.7-1,0.7h-8.2c-0.5,0-0.8-0.2-0.9-0.7l-7-29.9c0-0.2-0.1-0.3-0.2-0.3c-0.1,0-0.2,0.1-0.2,0.3l-6.6,29.8
			c-0.1,0.5-0.4,0.8-0.9,0.8H232C231.5,50.4,231.2,50.2,231,49.8z"/>
		<path class="st0" d="M307.6,34.9c0,0.6-0.3,0.8-0.9,0.8h-21.3c-0.3,0-0.4,0.1-0.3,0.3c0.1,0.9,0.4,1.8,0.8,2.8
			c1.2,2.6,3.6,3.9,7.3,3.9c2.9,0,5.3-1.2,7-3.6c0.2-0.3,0.4-0.4,0.6-0.4c0.1,0,0.3,0.1,0.5,0.3l5,4.9c0.2,0.2,0.3,0.4,0.3,0.6
			c0,0.1-0.1,0.3-0.3,0.6c-1.5,1.9-3.5,3.3-5.9,4.4c-2.4,1-5,1.6-7.9,1.6c-4,0-7.3-0.9-10-2.7c-2.7-1.8-4.7-4.3-5.9-7.5
			c-1-2.3-1.4-5.3-1.4-9c0-2.5,0.3-4.8,1-6.7c1.1-3.3,2.9-5.9,5.6-7.8c2.6-1.9,5.8-2.9,9.4-2.9c4.6,0,8.3,1.3,11.1,4
			c2.8,2.7,4.5,6.2,5.1,10.7C307.6,30.8,307.7,32.8,307.6,34.9z M285.5,26.9c-0.2,0.6-0.3,1.3-0.5,2.2c0,0.2,0.1,0.3,0.3,0.3h11.9
			c0.3,0,0.4-0.1,0.3-0.3c-0.2-1.3-0.3-2-0.3-1.9c-0.4-1.4-1.1-2.4-2.2-3.2c-1-0.8-2.3-1.1-3.8-1.1
			C288.4,22.8,286.4,24.1,285.5,26.9z"/>
		<path class="st0" d="M344.8,32.6c0,3.2-0.4,6-1.2,8.3c-1.1,3.1-2.8,5.6-5.1,7.4c-2.3,1.8-5.1,2.7-8.2,2.7c-3.4,0-6-1.3-7.9-3.8
			c-0.1-0.1-0.2-0.1-0.3-0.1c-0.1,0-0.1,0.1-0.1,0.2v2.3c0,0.2-0.1,0.4-0.2,0.6c-0.2,0.2-0.4,0.2-0.6,0.2h-8.1
			c-0.2,0-0.4-0.1-0.6-0.2s-0.2-0.4-0.2-0.6V3c0-0.2,0.1-0.4,0.2-0.6c0.2-0.2,0.4-0.2,0.6-0.2h8.1c0.2,0,0.4,0.1,0.6,0.2
			c0.2,0.2,0.2,0.4,0.2,0.6v14.8c0,0.1,0,0.2,0.1,0.3c0.1,0,0.2,0,0.3-0.1c1.8-2.3,4.3-3.4,7.7-3.4c3.4,0,6.2,0.9,8.5,2.6
			c2.3,1.7,3.9,4.1,5,7C344.4,26.4,344.8,29.3,344.8,32.6z M334.8,32.8c0-3.2-0.6-5.6-1.7-7.3c-1.1-1.8-2.7-2.7-4.9-2.7
			c-2,0-3.6,0.9-4.6,2.7c-1,1.7-1.5,4.2-1.5,7.2c0,3.1,0.5,5.4,1.4,7c1.1,2,2.7,3,4.8,3c2.2,0,3.9-1,5-3
			C334.3,37.9,334.8,35.6,334.8,32.8z"/>
		<path class="st0" d="M379.3,49.8l-2.1-6.8c-0.1-0.2-0.2-0.3-0.3-0.3h-17c-0.1,0-0.3,0.1-0.3,0.3l-2,6.8c-0.1,0.5-0.4,0.7-0.9,0.7
			h-8.8c-0.3,0-0.5-0.1-0.6-0.2c-0.1-0.2-0.2-0.4-0.1-0.7l14.9-46.6c0.1-0.5,0.4-0.7,0.9-0.7h10.8c0.5,0,0.8,0.2,0.9,0.7l14.9,46.6
			c0,0.1,0.1,0.2,0.1,0.3c0,0.4-0.3,0.6-0.8,0.6h-8.8C379.7,50.4,379.4,50.2,379.3,49.8z M362.3,35.2h12.1c0.3,0,0.4-0.1,0.3-0.4
			l-6.2-20.5c0-0.2-0.1-0.3-0.2-0.2c-0.1,0-0.2,0.1-0.2,0.2L362,34.8C362,35.1,362.1,35.2,362.3,35.2z"/>
		<path class="st0" d="M414,2.4c0.2-0.2,0.4-0.2,0.6-0.2h8.1c0.2,0,0.4,0.1,0.6,0.2c0.2,0.2,0.2,0.4,0.2,0.6v46.6
			c0,0.2-0.1,0.4-0.2,0.6c-0.2,0.2-0.4,0.2-0.6,0.2h-8.1c-0.2,0-0.4-0.1-0.6-0.2c-0.2-0.2-0.2-0.4-0.2-0.6v-2.3c0-0.1,0-0.2-0.1-0.2
			c-0.1,0-0.2,0-0.3,0.1c-1.9,2.5-4.6,3.8-7.9,3.8c-3.2,0-6-0.9-8.3-2.7c-2.3-1.8-4-4.3-5-7.4c-0.8-2.4-1.2-5.2-1.2-8.3
			c0-3.3,0.4-6.1,1.2-8.6c1.1-2.9,2.7-5.3,5-7c2.3-1.7,5.1-2.6,8.5-2.6c3.3,0,5.9,1.2,7.7,3.4c0.1,0.1,0.2,0.2,0.3,0.1
			c0.1,0,0.1-0.1,0.1-0.3V3C413.8,2.8,413.9,2.6,414,2.4z M413.7,32.7c0-3.1-0.5-5.5-1.5-7.2c-1.1-1.8-2.6-2.7-4.6-2.7
			c-2.2,0-3.8,0.9-4.9,2.7c-1.2,1.8-1.7,4.2-1.7,7.3c0,2.8,0.5,5.1,1.4,6.9c1.1,2,2.9,3,5.1,3c2.1,0,3.7-1,4.8-3
			C413.3,38,413.7,35.7,413.7,32.7z"/>
		<path class="st0" d="M450.9,2.4c0.2-0.2,0.4-0.2,0.6-0.2h8.1c0.2,0,0.4,0.1,0.6,0.2c0.2,0.2,0.2,0.4,0.2,0.6v46.6
			c0,0.2-0.1,0.4-0.2,0.6c-0.2,0.2-0.4,0.2-0.6,0.2h-8.1c-0.2,0-0.4-0.1-0.6-0.2s-0.2-0.4-0.2-0.6v-2.3c0-0.1,0-0.2-0.1-0.2
			c-0.1,0-0.2,0-0.3,0.1c-1.9,2.5-4.6,3.8-7.9,3.8c-3.2,0-6-0.9-8.3-2.7c-2.3-1.8-4-4.3-5-7.4c-0.8-2.4-1.2-5.2-1.2-8.3
			c0-3.3,0.4-6.1,1.2-8.6c1.1-2.9,2.7-5.3,5-7c2.3-1.7,5.1-2.6,8.5-2.6c3.3,0,5.9,1.2,7.7,3.4c0.1,0.1,0.2,0.2,0.3,0.1
			c0.1,0,0.1-0.1,0.1-0.3V3C450.7,2.8,450.7,2.6,450.9,2.4z M450.6,32.7c0-3.1-0.5-5.5-1.5-7.2c-1.1-1.8-2.6-2.7-4.6-2.7
			c-2.2,0-3.8,0.9-4.9,2.7c-1.2,1.8-1.7,4.2-1.7,7.3c0,2.8,0.5,5.1,1.4,6.9c1.1,2,2.9,3,5.1,3c2.1,0,3.7-1,4.8-3
			C450.1,38,450.6,35.7,450.6,32.7z"/>
		<path class="st0" d="M466.9,9.4c-1-1-1.6-2.3-1.6-3.9c0-1.6,0.5-2.9,1.5-3.9c1-1,2.3-1.5,3.9-1.5s2.9,0.5,3.9,1.5
			c1,1,1.5,2.3,1.5,3.9c0,1.6-0.5,2.9-1.5,3.9c-1,1-2.3,1.6-3.9,1.6C469.2,11,467.9,10.5,466.9,9.4z M466.1,50.2
			c-0.2-0.2-0.2-0.4-0.2-0.6V15.8c0-0.2,0.1-0.4,0.2-0.6s0.4-0.2,0.6-0.2h8.1c0.2,0,0.4,0.1,0.6,0.2c0.2,0.2,0.2,0.4,0.2,0.6v33.9
			c0,0.2-0.1,0.4-0.2,0.6c-0.2,0.2-0.4,0.2-0.6,0.2h-8.1C466.4,50.4,466.2,50.4,466.1,50.2z"/>
		<path class="st0" d="M487.6,48.2c-2.7-1.8-4.6-4.4-5.8-7.6c-0.8-2.3-1.2-5-1.2-8.1c0-3.1,0.4-5.7,1.2-8c1.1-3.1,3-5.6,5.7-7.4
			c2.7-1.8,5.9-2.7,9.6-2.7c3.7,0,6.9,0.9,9.7,2.8c2.8,1.8,4.6,4.2,5.6,7c0.4,1.1,0.6,1.9,0.6,2.5v0.1c0,0.4-0.2,0.7-0.7,0.8
			l-7.9,1.2h-0.1c-0.4,0-0.7-0.2-0.8-0.7l-0.2-1.1c-0.3-1.2-1-2.2-2.1-3c-1.1-0.8-2.4-1.2-3.9-1.2c-1.5,0-2.7,0.4-3.7,1.1
			c-1,0.7-1.7,1.7-2.1,3c-0.5,1.4-0.8,3.3-0.8,5.7c0,2.4,0.2,4.3,0.7,5.7c0.4,1.4,1.1,2.5,2.2,3.2c1,0.8,2.3,1.2,3.8,1.2
			c1.4,0,2.7-0.4,3.8-1.1c1.1-0.8,1.8-1.8,2.2-3.1c0-0.1,0.1-0.2,0.1-0.4c0,0,0.1-0.1,0.1-0.2c0-0.6,0.4-0.8,1-0.7l7.9,1.2
			c0.5,0.1,0.7,0.3,0.7,0.8c0,0.4-0.1,1.1-0.4,2.1c-1,3.1-2.8,5.5-5.6,7.2c-2.8,1.7-6,2.6-9.6,2.6C493.5,51,490.3,50.1,487.6,48.2z"
			/>
		<path class="st0" d="M537.9,22.5c-0.2,0.2-0.4,0.2-0.6,0.2h-6.6c-0.2,0-0.3,0.1-0.3,0.3v14.6c0,1.5,0.3,2.6,0.9,3.4
			c0.6,0.7,1.6,1.1,3,1.1h2.3c0.2,0,0.4,0.1,0.6,0.2c0.2,0.2,0.2,0.4,0.2,0.6v6.6c0,0.5-0.3,0.8-0.8,0.9c-1.9,0.1-3.3,0.1-4.1,0.1
			c-3.8,0-6.7-0.6-8.6-1.9c-1.9-1.3-2.9-3.6-2.9-7.1V23.1c0-0.2-0.1-0.3-0.3-0.3h-3.9c-0.2,0-0.4-0.1-0.6-0.2
			c-0.2-0.2-0.2-0.4-0.2-0.6v-6.1c0-0.2,0.1-0.4,0.2-0.6c0.2-0.2,0.4-0.2,0.6-0.2h3.9c0.2,0,0.3-0.1,0.3-0.3V6.4
			c0-0.2,0.1-0.4,0.2-0.6c0.2-0.2,0.4-0.2,0.6-0.2h7.7c0.2,0,0.4,0.1,0.6,0.2c0.2,0.2,0.2,0.4,0.2,0.6v8.2c0,0.2,0.1,0.3,0.3,0.3
			h6.6c0.2,0,0.4,0.1,0.6,0.2c0.2,0.2,0.2,0.4,0.2,0.6V22C538.2,22.2,538.1,22.4,537.9,22.5z"/>
		<path class="st0" d="M548.8,49.6c-2.3-0.9-4.1-2.1-5.3-3.7c-1.3-1.6-1.9-3.3-1.9-5.3V40c0-0.2,0.1-0.4,0.2-0.6
			c0.2-0.2,0.4-0.2,0.6-0.2h7.7c0.2,0,0.4,0.1,0.6,0.2c0.2,0.2,0.2,0.4,0.2,0.6V40c0,1,0.6,1.9,1.7,2.6s2.5,1.1,4.2,1.1
			c1.6,0,2.8-0.3,3.8-0.9c1-0.6,1.4-1.4,1.4-2.3c0-0.8-0.4-1.4-1.2-1.9c-0.8-0.4-2.2-0.8-4.1-1.3c-2.2-0.6-3.9-1.1-5.1-1.6
			c-2.9-1-5.3-2.3-7-3.7c-1.7-1.5-2.6-3.6-2.6-6.3c0-3.4,1.3-6.1,4-8.1c2.6-2,6.1-3,10.5-3c2.9,0,5.5,0.5,7.7,1.4
			c2.2,0.9,3.9,2.3,5.1,4c1.2,1.7,1.8,3.6,1.8,5.8c0,0.2-0.1,0.4-0.2,0.6c-0.2,0.2-0.4,0.2-0.6,0.2h-7.4c-0.2,0-0.4-0.1-0.6-0.2
			c-0.2-0.2-0.2-0.4-0.2-0.6c0-1-0.5-1.9-1.6-2.6c-1-0.7-2.4-1-4.1-1c-1.5,0-2.8,0.3-3.7,0.8c-1,0.6-1.4,1.3-1.4,2.3
			c0,0.9,0.5,1.6,1.4,2.1c0.9,0.5,2.5,0.9,4.7,1.4c0.5,0.1,1.1,0.3,1.7,0.4c0.6,0.2,1.3,0.4,2.1,0.6c3.3,1,5.8,2.2,7.7,3.7
			c1.9,1.5,2.8,3.7,2.8,6.6c0,3.4-1.3,6.1-4,8c-2.7,1.9-6.3,2.9-10.9,2.9C553.8,50.9,551.1,50.5,548.8,49.6z"/>
	</g>
</g>
</svg>
