<?xml version="1.0" encoding="utf-8"?>
<!-- Generator: Adobe Illustrator 23.0.2, SVG Export Plug-In . SVG Version: 6.00 Build 0)  -->
<svg version="1.1" id="Layer_1" xmlns="http://www.w3.org/2000/svg" xmlns:xlink="http://www.w3.org/1999/xlink" x="0px" y="0px"
	 viewBox="0 0 91.5 51.1" style="enable-background:new 0 0 91.5 51.1;" xml:space="preserve">
<style type="text/css">
	.st0{fill:#231F20;}
</style>
<g>
	<g>
		<g>
			<path class="st0" d="M19.2,50.4L19.2,50.4c3.6-1,5.7-4.7,4.7-8.2l-10-36.5C13,2.1,9.3,0,5.7,0.9l0,0C2.1,1.9,0,5.6,1,9.2l10,36.5
				C11.9,49.3,15.6,51.4,19.2,50.4z"/>
			<path class="st0" d="M40.9,50.4L40.9,50.4c3.6-1,5.7-4.7,4.7-8.2l-10-36.5c-1-3.6-4.7-5.7-8.2-4.7l0,0c-3.6,1-5.7,4.7-4.7,8.2
				l10,36.5C33.7,49.3,37.3,51.4,40.9,50.4z"/>
			<path class="st0" d="M83.8,50.4L83.8,50.4c3.6-1,5.7-4.7,4.7-8.2l-10-36.5c-1-3.6-4.7-5.7-8.2-4.7l0,0c-3.6,1-5.7,4.7-4.7,8.2
				l10,36.5C76.6,49.3,80.3,51.4,83.8,50.4z"/>
		</g>
		<circle class="st0" cx="55.9" cy="25.7" r="7"/>
	</g>
</g>
</svg>
