<svg xmlns="http://www.w3.org/2000/svg" xmlns:xlink="http://www.w3.org/1999/xlink" width="116" height="116" viewBox="0 0 116 116">
  <defs>
    <clipPath id="clip-path">
      <rect id="Rectangle_18081" data-name="Rectangle 18081" width="116" height="116" fill="#fff" stroke="#707070" stroke-width="1"/>
    </clipPath>
    <linearGradient id="linear-gradient" x1="0.902" y1="0.04" x2="0.058" y2="0.955" gradientUnits="objectBoundingBox">
      <stop offset="0" stop-color="#2f2f2d"/>
      <stop offset="1" stop-color="#1578ff"/>
    </linearGradient>
  </defs>
  <g id="Mask_Group_93" data-name="Mask Group 93" clip-path="url(#clip-path)">
    <g id="Group_22155" data-name="Group 22155" transform="translate(24.736 24.736)">
      <path id="Path_75295" data-name="Path 75295" d="M62.983,2H7.544A5.55,5.55,0,0,0,2,7.544V47.46A5.55,5.55,0,0,0,7.544,53H27.121l-2.661,8.87H19.741a1.108,1.108,0,0,0-1.109,1.109,5.55,5.55,0,0,0,5.544,5.544H46.352A5.55,5.55,0,0,0,51.9,62.983a1.108,1.108,0,0,0-1.109-1.109H46.068L43.407,53H62.983a5.55,5.55,0,0,0,5.544-5.544V7.544A5.55,5.55,0,0,0,62.983,2ZM7.544,4.218H62.983A3.33,3.33,0,0,1,66.31,7.544V41.916H4.218V28.611H20.849V29.72a3.33,3.33,0,0,0,3.326,3.326H45.331a7.757,7.757,0,1,0,8.782-8.782V14.2a3.33,3.33,0,0,0-3.326-3.326H31.09L22.454,6.552a1.107,1.107,0,0,0-.8-.074L14.041,8.653H4.218V7.544A3.33,3.33,0,0,1,7.544,4.218ZM45.331,30.829H24.176a1.11,1.11,0,0,1-1.109-1.109V28.611h3.881a3.885,3.885,0,0,0,3.881-3.881,3.841,3.841,0,0,0-.389-1.663H51.9v1.2A7.767,7.767,0,0,0,45.331,30.829Zm-22.264-12.2H51.9v2.218H23.067ZM53,26.393a5.544,5.544,0,1,1-5.544,5.544A5.55,5.55,0,0,1,53,26.393ZM51.9,16.414H23.067V14.2a1.11,1.11,0,0,1,1.109-1.109H50.787A1.11,1.11,0,0,1,51.9,14.2ZM24.176,10.87A3.33,3.33,0,0,0,20.849,14.2v6.653H18.632v2.218h8.316a1.663,1.663,0,0,1,0,3.326H4.218V10.87H14.2a1.076,1.076,0,0,0,.3-.043l7.347-2.1,4.284,2.142ZM46.352,66.31H24.176a3.333,3.333,0,0,1-3.137-2.218H49.488a3.333,3.333,0,0,1-3.137,2.218Zm-2.6-4.435H26.775L29.436,53H41.091ZM62.983,50.787H7.544A3.33,3.33,0,0,1,4.218,47.46V44.134H66.31V47.46A3.33,3.33,0,0,1,62.983,50.787Z" transform="translate(-2 -2)" fill="url(#linear-gradient)"/>
      <path id="Path_75296" data-name="Path 75296" d="M47.294,32.621a1.106,1.106,0,0,0,.784-.325l4.435-4.435-1.568-1.568-3.651,3.651-1.434-1.434-1.568,1.568L46.511,32.3A1.106,1.106,0,0,0,47.294,32.621Z" transform="translate(2.601 0.643)" fill="url(#linear-gradient)"/>
      <path id="Path_75297" data-name="Path 75297" d="M29,23h2.218v2.218H29Z" transform="translate(0.937 0.285)" fill="url(#linear-gradient)"/>
      <path id="Path_75298" data-name="Path 75298" d="M33,23h2.218v2.218H33Z" transform="translate(1.372 0.285)" fill="url(#linear-gradient)"/>
      <path id="Path_75299" data-name="Path 75299" d="M37,23h2.218v2.218H37Z" transform="translate(1.808 0.285)" fill="url(#linear-gradient)"/>
    </g>
  </g>
</svg>
