<svg xmlns="http://www.w3.org/2000/svg" xmlns:xlink="http://www.w3.org/1999/xlink" width="116" height="116" viewBox="0 0 116 116">
  <defs>
    <clipPath id="clip-path">
      <rect id="Rectangle_18081" data-name="Rectangle 18081" width="116" height="116" fill="#fff" stroke="#707070" stroke-width="1"/>
    </clipPath>
    <linearGradient id="linear-gradient" x1="0.902" y1="0.04" x2="0.058" y2="0.955" gradientUnits="objectBoundingBox">
      <stop offset="0" stop-color="#2f2f2d"/>
      <stop offset="1" stop-color="#1578ff"/>
    </linearGradient>
  </defs>
  <g id="Mask_Group_93" data-name="Mask Group 93" clip-path="url(#clip-path)">
    <g id="Mobile_optimize" data-name="Mobile optimize" transform="translate(23.489 23.489)">
      <path id="Path_75295" data-name="Path 75295" d="M65.27,2H35.36a5.759,5.759,0,0,0-5.752,5.752v8.543a12.64,12.64,0,0,0,0,24.328v9.693h-3.3l.665-5.324a3.451,3.451,0,0,0-3.425-3.879H21.556a1.15,1.15,0,0,0-1.143,1.023l-.262,2.351A7.829,7.829,0,0,1,13.5,51.373V50.315a1.15,1.15,0,0,0-1.15-1.15H3.15A1.15,1.15,0,0,0,2,50.315V69.871a1.15,1.15,0,0,0,1.15,1.15h9.2a1.15,1.15,0,0,0,1.15-1.15v-.33a14.911,14.911,0,0,0,6.48,1.481H30.759a3.384,3.384,0,0,0,1.986-.638,5.646,5.646,0,0,0,2.616.638H65.27a5.759,5.759,0,0,0,5.752-5.752V7.752A5.759,5.759,0,0,0,65.27,2ZM22.706,28.458A10.353,10.353,0,1,1,33.06,38.812,10.353,10.353,0,0,1,22.706,28.458ZM36.288,57.217a3.417,3.417,0,0,0-.221-.541,3.178,3.178,0,0,0,.567-.46,3.4,3.4,0,0,0,1.013-2.746,3.36,3.36,0,0,0-1.137-2.235V40.622a12.64,12.64,0,0,0,0-24.328V11.2H64.119V57.217ZM31.909,41.054c.38.035.762.059,1.15.059s.771-.024,1.15-.059v9.273c-.044,0-.085-.012-.129-.012H31.909ZM11.2,68.721H4.3V51.466h6.9Zm19.556,0H19.984A12.6,12.6,0,0,1,13.5,66.94V53.7a10.135,10.135,0,0,0,8.934-8.961l.154-1.328h.965A1.15,1.15,0,0,1,24.7,44.706l-.827,6.617a1.15,1.15,0,0,0,1.135,1.293h9.074A1.246,1.246,0,0,1,35.36,53.66a1.125,1.125,0,0,1-.345.92,1.1,1.1,0,0,1-.805.336H33.06a1.15,1.15,0,1,0,0,2.3,1.15,1.15,0,0,1,1.15,1.15,1.125,1.125,0,0,1-.352.819,1.1,1.1,0,0,1-.8.331h-1.15a1.15,1.15,0,1,0,0,2.3,1.15,1.15,0,0,1,1.15,1.15,1.125,1.125,0,0,1-.352.819,1.1,1.1,0,0,1-.8.331h-1.15a1.15,1.15,0,0,0,0,2.3,1.15,1.15,0,0,1,1.15,1.15,1.125,1.125,0,0,1-.352.819,1.1,1.1,0,0,1-.8.331ZM68.721,65.27a3.451,3.451,0,0,1-3.451,3.451H35.36a3.381,3.381,0,0,1-1.28-.26,3.325,3.325,0,0,0-.314-2.581,3.178,3.178,0,0,0,.567-.46,3.376,3.376,0,0,0,1.027-2.45,3.422,3.422,0,0,0-.444-1.691,3.179,3.179,0,0,0,.567-.46,3.343,3.343,0,0,0,.818-1.3H65.27a1.15,1.15,0,0,0,1.15-1.15V10.053A1.15,1.15,0,0,0,65.27,8.9H35.36a1.15,1.15,0,0,0-1.15,1.15v5.81c-.38-.035-.762-.059-1.15-.059s-.771.024-1.15.059V7.752A3.451,3.451,0,0,1,35.36,4.3H65.27a3.451,3.451,0,0,1,3.451,3.451Z" transform="translate(-2 -2)" fill="url(#linear-gradient)"/>
      <path id="Path_75296" data-name="Path 75296" d="M44.451,53A3.451,3.451,0,1,0,47.9,56.451,3.451,3.451,0,0,0,44.451,53Zm0,4.6a1.15,1.15,0,1,1,1.15-1.15A1.15,1.15,0,0,1,44.451,57.6Z" transform="translate(3.864 5.668)" fill="url(#linear-gradient)"/>
      <path id="Path_75297" data-name="Path 75297" d="M46.752,5h-4.6a1.15,1.15,0,1,0,0,2.3h4.6a1.15,1.15,0,0,0,0-2.3Z" transform="translate(3.864 -1.549)" fill="url(#linear-gradient)"/>
      <path id="Path_75298" data-name="Path 75298" d="M36.585,21.266a1.15,1.15,0,0,0-1.627,0l-7.321,7.321L24.722,25.67A1.15,1.15,0,1,0,23.095,27.3l3.73,3.73a1.15,1.15,0,0,0,1.627,0l8.134-8.134A1.15,1.15,0,0,0,36.585,21.266Z" transform="translate(1.121 0.846)" fill="url(#linear-gradient)"/>
    </g>
  </g>
</svg>
