<svg xmlns="http://www.w3.org/2000/svg" xmlns:xlink="http://www.w3.org/1999/xlink" width="116" height="116" viewBox="0 0 116 116">
  <defs>
    <clipPath id="clip-path">
      <rect id="Rectangle_18081" data-name="Rectangle 18081" width="116" height="116" fill="#fff" stroke="#707070" stroke-width="1"/>
    </clipPath>
    <linearGradient id="linear-gradient" x1="0.902" y1="0.04" x2="0.058" y2="0.955" gradientUnits="objectBoundingBox">
      <stop offset="0" stop-color="#2f2f2d"/>
      <stop offset="1" stop-color="#1578ff"/>
    </linearGradient>
  </defs>
  <g id="Mask_Group_93" data-name="Mask Group 93" clip-path="url(#clip-path)">
    <g id="Group_22155" data-name="Group 22155" transform="translate(24.678 24.678)">
      <path id="Path_75295" data-name="Path 75295" d="M44.99,46.99H58.32a2.222,2.222,0,0,0,2.222-2.222V21.441a3.257,3.257,0,0,0-.959-2.319,3.666,3.666,0,0,0-2.543-1.013H46.1V13.356a2.214,2.214,0,0,0,1.111-1.913V9.222A2.222,2.222,0,0,0,44.99,7H20.552A2.222,2.222,0,0,0,18.33,9.222v2.222a2.214,2.214,0,0,0,1.111,1.913v4.752H8.494a3.555,3.555,0,0,0-2.535,1.009A3.257,3.257,0,0,0,5,21.441V44.768A2.222,2.222,0,0,0,7.222,46.99Zm-10-2.222H30.549V38.1h4.443Zm8.887,0H37.214V38.1a2.222,2.222,0,0,0-2.222-2.222H30.549A2.222,2.222,0,0,0,28.328,38.1v6.665H21.663v-31.1H43.879ZM57.044,20.33h0a1.349,1.349,0,0,1,.966.361,1.034,1.034,0,0,1,.31.75V44.768H46.1V20.33ZM20.552,9.222H44.99v2.222H20.552ZM7.222,21.441a1.034,1.034,0,0,1,.305-.745A1.35,1.35,0,0,1,8.5,20.33H19.441V44.768H7.222Z" transform="translate(0.551 0.773)" fill="url(#linear-gradient)"/>
      <path id="Path_75296" data-name="Path 75296" d="M24.222,22.776h3.333a2.222,2.222,0,0,0,2.222-2.222V17.222A2.222,2.222,0,0,0,27.554,15H24.222A2.222,2.222,0,0,0,22,17.222v3.333A2.222,2.222,0,0,0,24.222,22.776Zm0-5.554h3.333v3.333H24.222Z" transform="translate(2.436 1.66)" fill="url(#linear-gradient)"/>
      <path id="Path_75297" data-name="Path 75297" d="M14.554,21H11.222A2.222,2.222,0,0,0,9,23.222v3.333a2.222,2.222,0,0,0,2.222,2.222h3.333a2.222,2.222,0,0,0,2.222-2.222V23.222A2.222,2.222,0,0,0,14.554,21Zm-3.333,5.554V23.222h3.333v3.333Z" transform="translate(0.995 2.325)" fill="url(#linear-gradient)"/>
      <path id="Path_75298" data-name="Path 75298" d="M14.554,30H11.222A2.222,2.222,0,0,0,9,32.222v3.333a2.222,2.222,0,0,0,2.222,2.222h3.333a2.222,2.222,0,0,0,2.222-2.222V32.222A2.222,2.222,0,0,0,14.554,30Zm-3.333,5.554V32.222h3.333v3.333Z" transform="translate(0.995 3.322)" fill="url(#linear-gradient)"/>
      <path id="Path_75299" data-name="Path 75299" d="M24.222,31.776h3.333a2.222,2.222,0,0,0,2.222-2.222V26.222A2.222,2.222,0,0,0,27.554,24H24.222A2.222,2.222,0,0,0,22,26.222v3.333A2.222,2.222,0,0,0,24.222,31.776Zm0-5.554h3.333v3.333H24.222Z" transform="translate(2.436 2.657)" fill="url(#linear-gradient)"/>
      <path id="Path_75300" data-name="Path 75300" d="M33.222,22.776h3.333a2.222,2.222,0,0,0,2.222-2.222V17.222A2.222,2.222,0,0,0,36.554,15H33.222A2.222,2.222,0,0,0,31,17.222v3.333A2.222,2.222,0,0,0,33.222,22.776Zm0-5.554h3.333v3.333H33.222Z" transform="translate(3.433 1.66)" fill="url(#linear-gradient)"/>
      <path id="Path_75301" data-name="Path 75301" d="M33.222,31.776h3.333a2.222,2.222,0,0,0,2.222-2.222V26.222A2.222,2.222,0,0,0,36.554,24H33.222A2.222,2.222,0,0,0,31,26.222v3.333A2.222,2.222,0,0,0,33.222,31.776Zm0-5.554h3.333v3.333H33.222Z" transform="translate(3.433 2.657)" fill="url(#linear-gradient)"/>
      <path id="Path_75302" data-name="Path 75302" d="M46.222,28.776h3.333a2.222,2.222,0,0,0,2.222-2.222V23.222A2.222,2.222,0,0,0,49.554,21H46.222A2.222,2.222,0,0,0,44,23.222v3.333A2.222,2.222,0,0,0,46.222,28.776Zm0-5.554h3.333v3.333H46.222Z" transform="translate(4.874 2.325)" fill="url(#linear-gradient)"/>
      <path id="Path_75303" data-name="Path 75303" d="M46.222,37.776h3.333a2.222,2.222,0,0,0,2.222-2.222V32.222A2.222,2.222,0,0,0,49.554,30H46.222A2.222,2.222,0,0,0,44,32.222v3.333A2.222,2.222,0,0,0,46.222,37.776Zm0-5.554h3.333v3.333H46.222Z" transform="translate(4.874 3.322)" fill="url(#linear-gradient)"/>
      <path id="Path_75304" data-name="Path 75304" d="M13.2,3.39a2.874,2.874,0,0,0-2.237-1.975L3.4.053A2.865,2.865,0,0,0,.05,3.385l1.366,7.577a2.908,2.908,0,0,0,4.878,1.52l.38-.379,3.759,3.767a2.728,2.728,0,0,0,3.826,0l1.611-1.611a2.735,2.735,0,0,0,0-3.825l-3.761-3.77.371-.371A2.88,2.88,0,0,0,13.2,3.39ZM14.3,12a.487.487,0,0,1,0,.683L12.688,14.3a.484.484,0,0,1-.683,0L7.461,9.744a1.122,1.122,0,0,0-1.572,0L4.723,10.91A.667.667,0,0,1,3.6,10.566L2.232,2.974a.648.648,0,0,1,.756-.738L10.564,3.6a.667.667,0,0,1,.347,1.121L9.755,5.878a1.111,1.111,0,0,0,0,1.57Z" transform="translate(-0.003 -0.002)" fill="url(#linear-gradient)"/>
      <path id="Path_75305" data-name="Path 75305" d="M3.39,48.464A2.874,2.874,0,0,0,1.415,50.7L.053,58.262a2.865,2.865,0,0,0,3.333,3.349l7.577-1.366a2.908,2.908,0,0,0,1.52-4.878l-.379-.38,3.767-3.759a2.728,2.728,0,0,0,0-3.826l-1.611-1.611a2.735,2.735,0,0,0-3.825,0l-3.77,3.761-.371-.371a2.88,2.88,0,0,0-2.9-.718ZM12,47.363a.487.487,0,0,1,.683,0L14.3,48.973a.484.484,0,0,1,0,.683L9.744,54.2a1.122,1.122,0,0,0,0,1.572l1.166,1.166a.667.667,0,0,1-.344,1.121l-7.591,1.37a.648.648,0,0,1-.738-.756L3.6,51.1a.667.667,0,0,1,1.121-.347l1.155,1.155a1.111,1.111,0,0,0,1.57,0Z" transform="translate(-0.002 4.986)" fill="url(#linear-gradient)"/>
      <path id="Path_75306" data-name="Path 75306" d="M48.464,58.271A2.874,2.874,0,0,0,50.7,60.246l7.56,1.362a2.865,2.865,0,0,0,3.349-3.333L60.245,50.7a2.908,2.908,0,0,0-4.878-1.52l-.38.379-3.759-3.767a2.728,2.728,0,0,0-3.826,0L45.792,47.4a2.735,2.735,0,0,0,0,3.825L49.553,55l-.371.371a2.88,2.88,0,0,0-.718,2.9Zm-1.1-8.615a.487.487,0,0,1,0-.683l1.611-1.611a.484.484,0,0,1,.683,0L54.2,51.917a1.122,1.122,0,0,0,1.572,0l1.166-1.166a.667.667,0,0,1,1.121.344l1.37,7.591a.648.648,0,0,1-.756.738L51.1,58.059a.667.667,0,0,1-.347-1.121l1.155-1.155a1.111,1.111,0,0,0,0-1.57Z" transform="translate(4.986 4.986)" fill="url(#linear-gradient)"/>
      <path id="Path_75307" data-name="Path 75307" d="M58.271,13.2a2.874,2.874,0,0,0,1.975-2.237L61.608,3.4A2.865,2.865,0,0,0,58.276.05L50.7,1.416a2.908,2.908,0,0,0-1.52,4.878l.379.38-3.766,3.759a2.728,2.728,0,0,0,0,3.826L47.4,15.869a2.735,2.735,0,0,0,3.825,0L55,12.108l.371.371a2.88,2.88,0,0,0,2.9.718Zm-8.615,1.1a.487.487,0,0,1-.683,0l-1.611-1.611a.484.484,0,0,1,0-.683l4.554-4.543a1.122,1.122,0,0,0,0-1.572L50.751,4.723A.667.667,0,0,1,51.1,3.6l7.591-1.37a.648.648,0,0,1,.738.756l-1.365,7.575a.667.667,0,0,1-1.121.347L55.783,9.755a1.111,1.111,0,0,0-1.57,0Z" transform="translate(4.986 -0.003)" fill="url(#linear-gradient)"/>
    </g>
  </g>
</svg>
