<svg xmlns="http://www.w3.org/2000/svg" xmlns:xlink="http://www.w3.org/1999/xlink" width="33" height="33" viewBox="0 0 33 33">
  <defs>
    <linearGradient id="linear-gradient" x1="1.031" y1="0.075" x2="0.058" y2="0.955" gradientUnits="objectBoundingBox">
      <stop offset="0"/>
      <stop offset="1" stop-color="#1578ff"/>
    </linearGradient>
  </defs>
  <g id="Group_22155" data-name="Group 22155" transform="translate(-1053 -2221)">
    <circle id="Ellipse_60" data-name="Ellipse 60" cx="16.5" cy="16.5" r="16.5" transform="translate(1053 2221)" fill="#fff"/>
    <path id="Icon_ionic-ios-checkmark" data-name="Icon ionic-ios-checkmark" d="M30.8,14.042,29.13,12.32a.36.36,0,0,0-.266-.114h0a.345.345,0,0,0-.266.114L17,24.008l-4.222-4.222a.368.368,0,0,0-.533,0l-1.693,1.693a.379.379,0,0,0,0,.542l5.325,5.325a1.684,1.684,0,0,0,1.113.542,1.765,1.765,0,0,0,1.1-.523h.01L30.813,14.584A.407.407,0,0,0,30.8,14.042Z" transform="translate(1048.826 2217.453)" stroke="rgba(0,0,0,0)" stroke-miterlimit="10" stroke-width="1" fill="url(#linear-gradient)"/>
  </g>
</svg>
