<svg id="Group_22155" data-name="Group 22155" xmlns="http://www.w3.org/2000/svg" xmlns:xlink="http://www.w3.org/1999/xlink" width="83.356" height="80.597" viewBox="0 0 83.356 80.597">
  <defs>
    <clipPath id="clip-path">
      <rect id="Rectangle_7" data-name="Rectangle 7" width="83.356" height="80.597" fill="#fff"/>
    </clipPath>
  </defs>
  <g id="Group_12" data-name="Group 12" clip-path="url(#clip-path)">
    <path id="Path_2" data-name="Path 2" d="M22.739,61.884V55.915H31.21c2.22,0,3.649,1.112,3.649,2.9,0,1.957-1.793,3.068-4.885,3.068Zm0-15.646h5.93c2.723,0,4.267.991,4.267,2.66,0,1.572-1.238,2.538-3.186,2.538H22.739Zm10.8-9.117H48.554L51.378,42c-5.96,1.906-10.154,6.615-10.154,12.211,0,.3.016.593.035.885a6.115,6.115,0,0,0-3.439-2.4,5.039,5.039,0,0,0,2.694-4.056c0-4.275-3.793-6.55-9.669-6.694Zm7.513-13.6,5.29,9.608H35.706Zm1.177,35.4c2.233,4.91,8.013,8.086,15.573,8.086a23.687,23.687,0,0,0,12.306-3.58l-3.063-3.809A14.548,14.548,0,0,1,58.534,62c-5.657,0-9.827-2.9-9.827-7.79s3.982-8.191,9.182-8.191A13.9,13.9,0,0,1,66.272,48.5l2.937-3.805a21.9,21.9,0,0,0-10.816-3.545L44.946,17.8H38.239L24.414,41.94h-8.6V66.151H31.053c6.458,0,10.933-2.568,11.174-7.226M8.376,73.6c-8-9.244,5.091-47.344,17.46-62.145C10.887,27.888-4.615,59.215,1.284,69.423,3.142,72.651,7.93,75.1,14.275,76.8c-2.105-.709-4.822-1.948-5.9-3.2M80.541,50.253C73.784,29.086,54.4,0,42.618,0c-3.729,0-8.256,2.92-12.9,7.571,1.671-1.475,4.1-3.2,5.73-3.508C47.455,1.755,73.9,32.137,80.541,50.253m1.421,5.306c.441,2.181.716,5.156.17,6.714-4,11.545-43.54,19.265-62.542,15.954,21.7,4.733,56.582,2.486,62.482-7.723,1.853-3.221,1.6-8.6-.11-14.945" transform="translate(0)" fill="#fff"/>
  </g>
</svg>
