<svg id="Najjar_Logo" data-name="Najjar Logo" xmlns="http://www.w3.org/2000/svg" width="97.711" height="56.469" viewBox="0 0 97.711 56.469">
  <path id="Path_4" data-name="Path 4" d="M86.4,2.98c.046-.061.177-.076.317-.072a.621.621,0,0,1,.116,0,2.644,2.644,0,0,1,1.156.3,2.933,2.933,0,0,1,1.543,2.777,3.531,3.531,0,0,1-1.535,3.054A4.826,4.826,0,0,1,86.4,9.7L86.4,2.981Zm-5.62.492.015,12.867A4.578,4.578,0,0,1,79.7,19.982l7.8-.011a4.9,4.9,0,0,1-1.086-3.641l-.011-5L88,14.718l.888,1.608c1.3,2.586,2.593,3.8,4.743,3.8h.728l3.351-.522a19.446,19.446,0,0,1-2.7-3.368l-3.541-6.182c2.44-1.1,3.53-2.626,3.528-4.738C94.989,1.877,92.661.208,87.986.064A3.78,3.78,0,0,1,87.561.01l-.221-.02L79.683,0c1.1,1.027,1.1,2.04,1.1,3.473M65.7,11.214l2.037-6.092.068.437L69.87,11.21l-4.167,0Zm-5.272,5.734a14.354,14.354,0,0,1-1.569,2.621V20L64.475,20a3.191,3.191,0,0,1-.879-2.045,2.772,2.772,0,0,1,.3-1.232l.794-2.687,6.04-.011,1.025,2.757a4.018,4.018,0,0,1,.083,1.1,3.172,3.172,0,0,1-1.012,2.115l8.659-.007a11.9,11.9,0,0,1-2.262-3.725L71.591.012,64.519.023a2.809,2.809,0,0,1,.957,1.962,5.15,5.15,0,0,1-.441,1.643L60.427,16.95Zm-10.3,9.194c5.688-1.1,7.644-2.925,7.636-7.737L57.751,3.5A6.14,6.14,0,0,1,58.838.027L51.121.04c.085.1.182.2.28.312a4.621,4.621,0,0,1,.73,3.155l.02,15.72a10.993,10.993,0,0,1-2.022,6.914m-10.051-.066c5.419-1.1,7.282-2.918,7.279-7.657L47.335,3.511c0-1.429.068-2.445,1.167-3.471L40.554.049c.094.09.2.181.286.282.872.926.879,1.877.885,3.189l.015,15.718c.406,2.23-1.661,6.835-1.661,6.835M26.71,11.26l2.109-6.088V5.46l2.011,5.8-4.12,0Zm-5.3,5.734a9.636,9.636,0,0,1-1.895,3.061l5.987-.007A3.149,3.149,0,0,1,24.627,18a2.792,2.792,0,0,1,.286-1.234L25.7,14.08l6.049-.007,1.034,2.755a2.46,2.46,0,0,1,.136,1.1c0,.728-.439,1.25-1.087,2.115l8.237-.013v-.28A14.955,14.955,0,0,1,38.2,16.3L32.608.062l-7.07.013a2.638,2.638,0,0,1,1.027,1.959c0,.509-.372,1.025-.433,1.647L21.4,17ZM1.569,4.337l.013,10.634c0,2.112,0,3.5-1.427,5.112l5.8-.006c-1.228-1.2-1.231-2.4-1.231-3.858L4.715,7.688l5.979,7.866c1.819,2.4,3.207,4.515,7.581,5.024L18.253,4.536A7.708,7.708,0,0,1,19.418.08L13.73.086c.105.166.206.326.3.491l.282.526a6.254,6.254,0,0,1,.839,3.3l.013,7.875L6.081.1,0,.1A5.307,5.307,0,0,1,1.569,4.339" transform="translate(0 0.01)" fill="#fff"/>
  <path id="Path_5" data-name="Path 5" d="M5.671,182.93a5.615,5.615,0,0,1,3.08.7,2.557,2.557,0,0,1,1.073,2.311,2.6,2.6,0,0,1-1.086,2.337A5.623,5.623,0,0,1,5.632,189H5v3H2.98v-8.841a11.091,11.091,0,0,1,1.4-.181c.492-.033.923-.052,1.294-.052m.129,1.721c-.147,0-.291.006-.433.013L5,184.691v2.589h.634a3.443,3.443,0,0,0,1.58-.286,1.093,1.093,0,0,0,.531-1.062,1.29,1.29,0,0,0-.135-.62,1.025,1.025,0,0,0-.389-.395,1.729,1.729,0,0,0-.616-.207,5.079,5.079,0,0,0-.8-.059" transform="translate(-2.431 -149.192)" fill="#fff"/>
  <path id="Path_6" data-name="Path 6" d="M50.815,182.93a5.56,5.56,0,0,1,3.091.717,2.5,2.5,0,0,1,1.075,2.233,2.526,2.526,0,0,1-.433,1.534,2.857,2.857,0,0,1-1.248.926q.271.338.568.771c.2.29.394.592.59.906s.382.644.562.983.35.677.505,1H53.268c-.166-.293-.332-.592-.5-.893s-.341-.6-.518-.882-.354-.555-.525-.808-.347-.485-.518-.692h-1v3.275H48.19v-8.841a11.1,11.1,0,0,1,1.364-.181c.47-.033.89-.052,1.263-.052m.116,1.721c-.147,0-.278.006-.394.013l-.33.026v2.433h.571a3.433,3.433,0,0,0,1.629-.284,1.031,1.031,0,0,0,.492-.972.97.97,0,0,0-.5-.939,3.068,3.068,0,0,0-1.467-.278" transform="translate(-39.308 -149.192)" fill="#fff"/>
  <path id="Path_7" data-name="Path 7" d="M100.557,187.056a5.516,5.516,0,0,1-.343,2.025,4.145,4.145,0,0,1-.938,1.462,3.868,3.868,0,0,1-1.416.887,5.182,5.182,0,0,1-1.766.3,4.98,4.98,0,0,1-1.734-.3,4.007,4.007,0,0,1-1.423-.887,4.132,4.132,0,0,1-.957-1.462,5.443,5.443,0,0,1-.35-2.025,5.234,5.234,0,0,1,.363-2.027,4.31,4.31,0,0,1,.977-1.47,4.017,4.017,0,0,1,1.423-.893,4.878,4.878,0,0,1,1.7-.3,5.114,5.114,0,0,1,1.733.3,3.953,3.953,0,0,1,1.423.893,4.244,4.244,0,0,1,.958,1.47,5.447,5.447,0,0,1,.348,2.027m-6.844,0a4.1,4.1,0,0,0,.162,1.19,2.7,2.7,0,0,0,.464.913,2.038,2.038,0,0,0,.745.59,2.55,2.55,0,0,0,2.011,0,2.06,2.06,0,0,0,.75-.59,2.682,2.682,0,0,0,.464-.913,4.044,4.044,0,0,0,.162-1.19,4.114,4.114,0,0,0-.162-1.2,2.677,2.677,0,0,0-.464-.918,2.055,2.055,0,0,0-.75-.588,2.35,2.35,0,0,0-1-.208,2.305,2.305,0,0,0-1.008.214,2.112,2.112,0,0,0-.745.6,2.694,2.694,0,0,0-.464.918,4.145,4.145,0,0,0-.162,1.186" transform="translate(-74.741 -148.735)" fill="#fff"/>
  <path id="Path_8" data-name="Path 8" d="M149.18,192.46v-8.97h6.005v1.7H151.2v1.876h3.546v1.7H151.2v3.7Z" transform="translate(-121.683 -149.648)" fill="#fff"/>
  <path id="Path_9" data-name="Path 9" d="M189.47,192.46v-8.97h6.057v1.7h-4.038v1.759h3.585V188.6h-3.585v2.161h4.335v1.695Z" transform="translate(-154.547 -149.648)" fill="#fff"/>
  <path id="Path_10" data-name="Path 10" d="M231.993,190a2.86,2.86,0,0,0,.7-.072,1.331,1.331,0,0,0,.448-.194.648.648,0,0,0,.232-.291,1.046,1.046,0,0,0,.065-.376.867.867,0,0,0-.413-.73,5.885,5.885,0,0,0-1.423-.629c-.293-.1-.586-.223-.881-.356a3.2,3.2,0,0,1-.789-.505,2.434,2.434,0,0,1-.57-.738,2.306,2.306,0,0,1-.219-1.055,2.622,2.622,0,0,1,.234-1.119,2.409,2.409,0,0,1,.66-.848,3.029,3.029,0,0,1,1.036-.537,4.635,4.635,0,0,1,1.371-.188,5.6,5.6,0,0,1,1.565.194,5.5,5.5,0,0,1,1.087.428l-.582,1.592a5.628,5.628,0,0,0-.835-.343,3.6,3.6,0,0,0-1.108-.149,2.02,2.02,0,0,0-1.041.2.68.68,0,0,0-.317.616.7.7,0,0,0,.116.413,1.127,1.127,0,0,0,.33.3,2.781,2.781,0,0,0,.492.245c.184.074.389.149.616.227.464.172.87.343,1.215.511a3.191,3.191,0,0,1,.861.59,2.16,2.16,0,0,1,.511.789,3.173,3.173,0,0,1,.168,1.1,2.332,2.332,0,0,1-.881,1.948,4.245,4.245,0,0,1-2.652.692,7.272,7.272,0,0,1-1.073-.07,6.81,6.81,0,0,1-.848-.175,5.1,5.1,0,0,1-.634-.219,4.82,4.82,0,0,1-.446-.219l.57-1.6a5,5,0,0,0,.99.395,5.155,5.155,0,0,0,1.443.175" transform="translate(-186.783 -148.727)" fill="#fff"/>
  <path id="Path_11" data-name="Path 11" d="M272.833,190a2.86,2.86,0,0,0,.7-.072,1.33,1.33,0,0,0,.448-.194.648.648,0,0,0,.232-.291,1.045,1.045,0,0,0,.065-.376.867.867,0,0,0-.413-.73,5.886,5.886,0,0,0-1.423-.629c-.293-.1-.586-.223-.881-.356a3.2,3.2,0,0,1-.789-.505,2.433,2.433,0,0,1-.57-.738,2.306,2.306,0,0,1-.219-1.055,2.622,2.622,0,0,1,.234-1.119,2.408,2.408,0,0,1,.66-.848,3.029,3.029,0,0,1,1.036-.537,4.636,4.636,0,0,1,1.371-.188,5.6,5.6,0,0,1,1.565.194,5.5,5.5,0,0,1,1.087.428l-.582,1.592a5.627,5.627,0,0,0-.835-.343,3.6,3.6,0,0,0-1.108-.149,2.02,2.02,0,0,0-1.041.2.68.68,0,0,0-.317.616.7.7,0,0,0,.116.413,1.127,1.127,0,0,0,.33.3,2.78,2.78,0,0,0,.492.245c.184.074.389.149.616.227.464.172.87.343,1.215.511a3.191,3.191,0,0,1,.861.59,2.16,2.16,0,0,1,.511.789,3.173,3.173,0,0,1,.168,1.1,2.332,2.332,0,0,1-.881,1.948,4.245,4.245,0,0,1-2.652.692,7.272,7.272,0,0,1-1.073-.07,6.81,6.81,0,0,1-.848-.175,5.1,5.1,0,0,1-.634-.219,4.82,4.82,0,0,1-.446-.219l.57-1.6a5,5,0,0,0,.99.395,5.155,5.155,0,0,0,1.443.175" transform="translate(-220.095 -148.727)" fill="#fff"/>
  <rect id="Rectangle_19" data-name="Rectangle 19" width="2.018" height="8.97" transform="translate(57.823 33.842)" fill="#fff"/>
  <path id="Path_12" data-name="Path 12" d="M342.707,187.056a5.515,5.515,0,0,1-.343,2.025,4.145,4.145,0,0,1-.938,1.462,3.867,3.867,0,0,1-1.416.887,5.182,5.182,0,0,1-1.766.3,4.98,4.98,0,0,1-1.734-.3,4.007,4.007,0,0,1-1.423-.887,4.132,4.132,0,0,1-.957-1.462,5.443,5.443,0,0,1-.35-2.025,5.233,5.233,0,0,1,.363-2.027,4.309,4.309,0,0,1,.977-1.47,4.017,4.017,0,0,1,1.423-.893,4.878,4.878,0,0,1,1.7-.3,5.114,5.114,0,0,1,1.733.3,3.954,3.954,0,0,1,1.423.893,4.244,4.244,0,0,1,.958,1.47,5.447,5.447,0,0,1,.348,2.027m-6.844,0a4.1,4.1,0,0,0,.162,1.19,2.7,2.7,0,0,0,.464.913,2.038,2.038,0,0,0,.745.59,2.55,2.55,0,0,0,2.011,0,2.06,2.06,0,0,0,.75-.59,2.682,2.682,0,0,0,.465-.913,4.044,4.044,0,0,0,.162-1.19,4.113,4.113,0,0,0-.162-1.2,2.677,2.677,0,0,0-.465-.918,2.055,2.055,0,0,0-.75-.588,2.35,2.35,0,0,0-1-.208,2.306,2.306,0,0,0-1.008.214,2.112,2.112,0,0,0-.745.6,2.694,2.694,0,0,0-.464.918,4.145,4.145,0,0,0-.162,1.186" transform="translate(-272.258 -148.735)" fill="#fff"/>
  <path id="Path_13" data-name="Path 13" d="M397.346,192.452q-.865-1.541-1.876-3.043a31.134,31.134,0,0,0-2.147-2.835v5.876H391.33v-8.97h1.642c.286.286.6.634.946,1.049s.7.856,1.054,1.326.713.959,1.067,1.462.686.99,1,1.457V183.48h2.005v8.97h-1.7Z" transform="translate(-319.201 -149.64)" fill="#fff"/>
  <path id="Path_14" data-name="Path 14" d="M446.411,192.452c-.1-.312-.208-.633-.323-.961l-.343-.983h-3.5c-.112.328-.227.655-.341.985s-.219.649-.317.959h-2.1q.5-1.45.958-2.68t.888-2.318c.291-.725.575-1.413.857-2.066s.573-1.287.876-1.909h1.913q.442.932.872,1.909t.864,2.066c.291.725.586,1.5.89,2.318s.625,1.713.962,2.68Zm-2.426-6.938c-.044.131-.111.308-.2.531s-.186.483-.3.778-.234.618-.371.972-.276.725-.418,1.112h2.564q-.2-.584-.4-1.116t-.365-.972l-.306-.778q-.13-.335-.21-.526" transform="translate(-358.484 -149.64)" fill="#fff"/>
  <path id="Path_15" data-name="Path 15" d="M500.99,190.725v1.735H495v-8.97h2.02v7.235Z" transform="translate(-403.762 -149.648)" fill="#fff"/>
  <path id="Path_16" data-name="Path 16" d="M69.043,263.059a2.859,2.859,0,0,0,.7-.072,1.331,1.331,0,0,0,.448-.194.648.648,0,0,0,.232-.291,1.045,1.045,0,0,0,.065-.376.867.867,0,0,0-.413-.73,5.886,5.886,0,0,0-1.423-.629c-.293-.1-.586-.223-.881-.356a3.2,3.2,0,0,1-.789-.505,2.433,2.433,0,0,1-.57-.738,2.306,2.306,0,0,1-.219-1.055,2.622,2.622,0,0,1,.234-1.119,2.409,2.409,0,0,1,.66-.848,3.029,3.029,0,0,1,1.036-.537,4.635,4.635,0,0,1,1.371-.188,5.6,5.6,0,0,1,1.565.194,5.5,5.5,0,0,1,1.087.428l-.582,1.592a5.625,5.625,0,0,0-.835-.343,3.6,3.6,0,0,0-1.108-.149,2.02,2.02,0,0,0-1.041.2.68.68,0,0,0-.317.616.7.7,0,0,0,.116.413,1.127,1.127,0,0,0,.33.3,2.784,2.784,0,0,0,.492.245c.184.074.389.149.616.227.464.172.87.343,1.215.511a3.191,3.191,0,0,1,.861.59,2.16,2.16,0,0,1,.511.789,3.173,3.173,0,0,1,.168,1.1,2.332,2.332,0,0,1-.881,1.948,4.245,4.245,0,0,1-2.652.692,7.27,7.27,0,0,1-1.073-.07,6.8,6.8,0,0,1-.848-.175,5.112,5.112,0,0,1-.634-.219,4.827,4.827,0,0,1-.446-.219l.57-1.6a5,5,0,0,0,.99.395,5.154,5.154,0,0,0,1.443.175" transform="translate(-53.868 -208.313)" fill="#fff"/>
  <path id="Path_17" data-name="Path 17" d="M116.737,260.116a5.516,5.516,0,0,1-.343,2.025,4.145,4.145,0,0,1-.938,1.462,3.867,3.867,0,0,1-1.416.887,5.181,5.181,0,0,1-1.766.3,4.979,4.979,0,0,1-1.734-.3,4.007,4.007,0,0,1-1.423-.887,4.132,4.132,0,0,1-.957-1.462,5.443,5.443,0,0,1-.35-2.025,5.234,5.234,0,0,1,.363-2.027,4.31,4.31,0,0,1,.977-1.47,4.017,4.017,0,0,1,1.423-.893,4.878,4.878,0,0,1,1.7-.3,5.114,5.114,0,0,1,1.733.3,3.953,3.953,0,0,1,1.423.893,4.243,4.243,0,0,1,.958,1.47,5.447,5.447,0,0,1,.348,2.027m-6.844,0a4.1,4.1,0,0,0,.162,1.19,2.7,2.7,0,0,0,.464.913,2.077,2.077,0,0,0,.745.59,2.55,2.55,0,0,0,2.011,0,2.06,2.06,0,0,0,.75-.59,2.717,2.717,0,0,0,.464-.913,4.045,4.045,0,0,0,.162-1.19,4.114,4.114,0,0,0-.162-1.2,2.677,2.677,0,0,0-.464-.918,2.055,2.055,0,0,0-.75-.588,2.35,2.35,0,0,0-1-.208,2.306,2.306,0,0,0-1.008.214,2.112,2.112,0,0,0-.745.6,2.694,2.694,0,0,0-.464.918,4.145,4.145,0,0,0-.162,1.186" transform="translate(-87.939 -208.321)" fill="#fff"/>
  <path id="Path_18" data-name="Path 18" d="M171.35,263.787v1.735h-5.99V256.55h2.018v7.237Z" transform="translate(-134.881 -209.234)" fill="#fff"/>
  <path id="Path_19" data-name="Path 19" d="M207.1,265.695a4.511,4.511,0,0,1-1.629-.266,3.025,3.025,0,0,1-1.132-.738,2.935,2.935,0,0,1-.66-1.127,4.644,4.644,0,0,1-.214-1.442v-5.581h2.018v5.411a3.08,3.08,0,0,0,.122.926,1.658,1.658,0,0,0,.337.62,1.186,1.186,0,0,0,.518.343,2.023,2.023,0,0,0,.665.1,1.627,1.627,0,0,0,1.2-.454,2.1,2.1,0,0,0,.461-1.54V256.54H210.8v5.581a4.546,4.546,0,0,1-.219,1.45,2.889,2.889,0,0,1-1.825,1.864,4.753,4.753,0,0,1-1.657.258" transform="translate(-165.967 -209.226)" fill="#fff"/>
  <path id="Path_20" data-name="Path 20" d="M257.006,256.55v1.723h-2.7v7.248h-2.018v-7.248H249.58V256.55Z" transform="translate(-203.578 -209.234)" fill="#fff"/>
  <rect id="Rectangle_20" data-name="Rectangle 20" width="2.018" height="8.97" transform="translate(54.722 47.316)" fill="#fff"/>
  <path id="Path_21" data-name="Path 21" d="M325.9,260.116a5.516,5.516,0,0,1-.343,2.025,4.17,4.17,0,0,1-.938,1.462,3.868,3.868,0,0,1-1.416.887,5.181,5.181,0,0,1-1.766.3,4.979,4.979,0,0,1-1.734-.3,4.007,4.007,0,0,1-1.423-.887,4.132,4.132,0,0,1-.957-1.462,5.443,5.443,0,0,1-.35-2.025,5.233,5.233,0,0,1,.363-2.027,4.31,4.31,0,0,1,.977-1.47,4.018,4.018,0,0,1,1.423-.893,4.878,4.878,0,0,1,1.7-.3,5.114,5.114,0,0,1,1.733.3,3.953,3.953,0,0,1,1.423.893,4.243,4.243,0,0,1,.958,1.47,5.448,5.448,0,0,1,.348,2.027m-6.844,0a4.1,4.1,0,0,0,.162,1.19,2.7,2.7,0,0,0,.464.913,2.077,2.077,0,0,0,.745.59,2.55,2.55,0,0,0,2.011,0,2.059,2.059,0,0,0,.75-.59,2.718,2.718,0,0,0,.465-.913,4.045,4.045,0,0,0,.162-1.19,4.114,4.114,0,0,0-.162-1.2,2.678,2.678,0,0,0-.465-.918,2.055,2.055,0,0,0-.75-.588,2.35,2.35,0,0,0-1-.208,2.306,2.306,0,0,0-1.008.214,2.112,2.112,0,0,0-.745.6,2.693,2.693,0,0,0-.464.918,4.144,4.144,0,0,0-.162,1.186" transform="translate(-258.547 -208.321)" fill="#fff"/>
  <path id="Path_22" data-name="Path 22" d="M380.536,265.522q-.865-1.541-1.876-3.043a31.121,31.121,0,0,0-2.147-2.835v5.876H374.52v-8.97h1.642q.429.426.946,1.049t1.054,1.326q.536.705,1.067,1.462t1,1.457V256.55h2.005v8.97h-1.7Z" transform="translate(-305.489 -209.234)" fill="#fff"/>
  <path id="Path_23" data-name="Path 23" d="M427.563,263.059a2.859,2.859,0,0,0,.7-.072,1.331,1.331,0,0,0,.448-.194.648.648,0,0,0,.232-.291,1.044,1.044,0,0,0,.065-.376.867.867,0,0,0-.413-.73,5.887,5.887,0,0,0-1.423-.629c-.293-.1-.586-.223-.881-.356a3.2,3.2,0,0,1-.789-.505,2.431,2.431,0,0,1-.57-.738,2.305,2.305,0,0,1-.219-1.055,2.621,2.621,0,0,1,.234-1.119,2.409,2.409,0,0,1,.66-.848,3.03,3.03,0,0,1,1.036-.537,4.635,4.635,0,0,1,1.371-.188,5.6,5.6,0,0,1,1.565.194,5.5,5.5,0,0,1,1.087.428l-.582,1.592a5.625,5.625,0,0,0-.835-.343,3.6,3.6,0,0,0-1.108-.149,2.02,2.02,0,0,0-1.041.2.68.68,0,0,0-.317.616.7.7,0,0,0,.116.413,1.126,1.126,0,0,0,.33.3,2.783,2.783,0,0,0,.492.245c.184.074.389.149.616.227.464.172.87.343,1.215.511a3.191,3.191,0,0,1,.861.59,2.16,2.16,0,0,1,.511.789,3.173,3.173,0,0,1,.168,1.1,2.332,2.332,0,0,1-.881,1.948,4.245,4.245,0,0,1-2.652.692,7.269,7.269,0,0,1-1.073-.07,6.8,6.8,0,0,1-.848-.175,5.108,5.108,0,0,1-.634-.219,4.832,4.832,0,0,1-.446-.219l.57-1.6a5,5,0,0,0,.99.395,5.155,5.155,0,0,0,1.443.175" transform="translate(-346.306 -208.313)" fill="#fff"/>
  <rect id="Rectangle_21" data-name="Rectangle 21" width="39.686" height="0.913" transform="translate(57.848 26.293)" fill="#fff"/>
  <rect id="Rectangle_22" data-name="Rectangle 22" width="37.673" height="0.913" transform="translate(0.216 26.293)" fill="#fff"/>
</svg>
