<svg id="Layer_2" data-name="Layer 2" xmlns="http://www.w3.org/2000/svg" width="157.007" height="33.74" viewBox="0 0 157.007 33.74">
  <g id="Logo">
    <path id="Path_5376" data-name="Path 5376" d="M166.13,33.34H175.1v1.739h-7.174v5.568H175.1v1.737h-7.174V51.1h-1.789Z" transform="translate(-126.405 -25.431)" fill="#136982"/>
    <path id="Path_5377" data-name="Path 5377" d="M224.85,31.46h1.71V49.668h-1.7Z" transform="translate(-171.084 -23.997)" fill="#136982"/>
    <path id="Path_5378" data-name="Path 5378" d="M266.3,60.527l1.435.747a7.8,7.8,0,0,1-1.631,2.223,6.533,6.533,0,0,1-2.083,1.286,7.367,7.367,0,0,1-2.618.439,6.348,6.348,0,0,1-5.067-2.107,7.069,7.069,0,0,1-1.829-4.761,6.985,6.985,0,0,1,1.552-4.455,6.352,6.352,0,0,1,5.261-2.489,6.547,6.547,0,0,1,5.406,2.548,7.107,7.107,0,0,1,1.463,4.491h-11.93a5.333,5.333,0,0,0,1.475,3.753,4.719,4.719,0,0,0,3.52,1.464,5.7,5.7,0,0,0,1.978-.349,5.117,5.117,0,0,0,1.626-.928A7.918,7.918,0,0,0,266.3,60.527Zm0-3.54a5.618,5.618,0,0,0-.992-2.161,4.721,4.721,0,0,0-1.724-1.3,5.329,5.329,0,0,0-2.264-.5,4.877,4.877,0,0,0-3.348,1.243,5.6,5.6,0,0,0-1.549,2.716Z" transform="translate(-193.651 -39.214)" fill="#136982"/>
    <path id="Path_5379" data-name="Path 5379" d="M327.554,52.84H329.6l3.522,4.8,3.484-4.8h2.047l-4.5,6.206,5.079,6.932h-2.075l-4.029-5.509-4.008,5.518H327.08L332.1,59.07Z" transform="translate(-248.869 -40.304)" fill="#136982"/>
    <path id="Path_5380" data-name="Path 5380" d="M387.981,52.84h2.045l3.522,4.8,3.484-4.8h2.049l-4.507,6.206,5.079,6.932h-2.076l-4.029-5.509-4.015,5.506H387.5l5.021-6.918Z" transform="translate(-294.842 -40.304)" fill="#136982"/>
    <path id="Path_5381" data-name="Path 5381" d="M457.39,33.34h3.565a20.719,20.719,0,0,1,4.139.266,4.611,4.611,0,0,1,2.506,1.552,4.927,4.927,0,0,1,.017,5.857A4.67,4.67,0,0,1,465,42.566a23.513,23.513,0,0,1-4.543.289h-1.279v8.258H457.39Zm1.789,1.739V41.1l3.03.036a8.02,8.02,0,0,0,2.69-.33,2.758,2.758,0,0,0,1.339-1.075,2.946,2.946,0,0,0,.478-1.661,2.909,2.909,0,0,0-.478-1.632,2.693,2.693,0,0,0-1.289-1.049,7.774,7.774,0,0,0-2.609-.313Z" transform="translate(-348.02 -25.431)" fill="#6fac45"/>
    <path id="Path_5382" data-name="Path 5382" d="M539.717,51.747V64.883h-1.674V62.625a7.345,7.345,0,0,1-2.391,1.945,6.826,6.826,0,0,1-9.706-6.291,6.871,6.871,0,0,1,6.839-6.87,6.31,6.31,0,0,1,2.953.688,6.707,6.707,0,0,1,2.3,2.062v-2.41Zm-6.808,1.291a5.153,5.153,0,0,0-4.543,2.643,5.285,5.285,0,0,0,0,5.3,5.181,5.181,0,0,0,1.927,1.971,5.052,5.052,0,0,0,2.594.712,5.339,5.339,0,0,0,2.65-.7,4.929,4.929,0,0,0,1.927-1.9,5.383,5.383,0,0,0,.688-2.69,5.2,5.2,0,0,0-1.514-3.81A5.041,5.041,0,0,0,532.909,53.038Z" transform="translate(-400.182 -39.212)" fill="#6fac45"/>
    <path id="Path_5383" data-name="Path 5383" d="M604,52.84h1.8l4.543,10.116,4.419-10.116h1.815l-7.891,17.94h-1.8l2.556-5.8Z" transform="translate(-459.573 -40.304)" fill="#6fac45"/>
    <path id="Path_5384" data-name="Path 5384" d="M14.727,33.74,0,25.3V8.434L14.727,0,29.455,8.434V25.3l-.191.112ZM.765,24.867l13.962,8,13.967-8V8.873l-13.967-8-13.962,8Z" fill="#136982"/>
    <path id="Path_5385" data-name="Path 5385" d="M46.678,59.229l.06.036,4.668-2.674V51.244L46.738,48.57,42.07,51.244v.192l4.582,2.712Z" transform="translate(-32.01 -37.047)" fill="none"/>
    <path id="Path_5386" data-name="Path 5386" d="M33.673,28.74,24.9,33.767v.109l4.106,2.434v-.192l4.668-2.674,4.668,2.674v5.347l-4.668,2.674-.06-.036.026,4.719.033.019,8.773-5.022V33.767Z" transform="translate(-18.946 -21.922)" fill="#136982"/>
    <path id="Path_5387" data-name="Path 5387" d="M46.678,68.443l-.026-5.082L42.07,60.65v5.155Z" transform="translate(-32.01 -46.262)" fill="#6fac45"/>
    <path id="Path_5388" data-name="Path 5388" d="M7.171,39.78,1.6,36.48V52.911l14.345,8.218-.033-6.4-8.74-5Z" transform="translate(-1.217 -27.826)" fill="#136982"/>
  </g>
</svg>
