<svg id="logo" xmlns="http://www.w3.org/2000/svg" width="76" height="77.386" viewBox="0 0 76 77.386">
  <rect id="Rectangle_17702" data-name="Rectangle 17702" width="76" height="77.386" transform="translate(0 0)" fill="#00214d"/>
  <g id="Group_42" transform="translate(25.453 8.128)">
    <path id="Path_24" d="M-333.878,37.141c-.466.346-.59.239-1.039.4.05,3.357.241,2.309.881,3.126.6.742,1.3,10.681,1.255,11.621l-.923.52c.565,2.021,2.635,11.7,2.56,13.394-.1,2.293-.274,5.081-.54,7.374-.266,2.326-.79,4.635-1.031,6.928l15.853.041-.765-6.747c.948.52,1.43,1.509,2.211,1.971l4.971-8.99-4.107-2.656c-.615.635-.948,1.435-1.488,2.095a7.286,7.286,0,0,1-1.2-2.087c-.341-.709-.715-1.509-1.106-2.169-.914-1.509-2.893-1.386-3.458-3.357-.5-1.757.266-.792.158-2.615a10.718,10.718,0,0,1-.091-3.019c.324-1.831.648-1.674,2.095-2.837.083-.066.441-.363.449-.371.042-.041.191-.165.233-.214.274-.272.108-.049.333-.371l-3.334.907c-.058-1.419,1.089-2.928,1.322-4.289-.549.784-2.253,3.076-3.026,3.357-.574-.676-.549-2.78-1.031-3.7-.49.949-.391,2.977-1.031,3.687-.748-.132-.507-.148-1.38-1.237-.432-.544-.865-.981-1.264-1.485l1.546,4.2c-.914.206-1.4.289-2.561-1.072-.549-.643-1.779-8.207-1.771-8.33.183-1.617.773.866.773-3.489-.058-.041-.141-.14-.183-.091l-1.072-.322c-.191-2.738,1.147-1.716,1.047-4.305a3.909,3.909,0,0,0-2.369-3.208c-4.148,3.225-.923,5.064-.923,7.341" transform="translate(335.073 -29.8)" fill="#fff" fill-rule="evenodd"/>
    <path id="Path_25" d="M-302.2,428.6l14.116-15.778a2.7,2.7,0,0,0-.64-.825l-13.168,14.739Z" transform="translate(304.933 -380.477)" fill="#a20a1f"/>
    <path id="Path_26" d="M-305.743,450.636l14.681-16.438-.482-1-14.864,16.644-.091.792Z" transform="translate(308.875 -399.928)" fill="#b4002d"/>
    <path id="Path_27" d="M-279.52,472.481l13.019-14.549a6.971,6.971,0,0,1-.54-.932L-280.8,472.481Z" transform="translate(285.312 -421.765)" fill="#ae0018"/>
    <path id="Path_28" d="M-284.368,498.1l.673.5.682-.47-.274.784.673.5-.831-.017-.274.784-.249-.8-.831-.016.682-.47Z" transform="translate(288.979 -459.475)" fill="#0a1b3e"/>
    <path id="Path_29" d="M-248.068,502.3l.673.5.682-.47-.274.784.673.5-.831-.017-.274.784-.249-.8-.831-.016.682-.47Z" transform="translate(255.697 -463.329)" fill="#0a1b3e"/>
    <path id="Path_30" d="M-257.168,536.9l.673.5.682-.47-.274.784.673.5-.831-.016-.274.784-.249-.8-.831-.016.682-.47Z" transform="translate(264.04 -495.075)" fill="#0a1b3e"/>
    <path id="Path_31" d="M-239.668,466.8l.673.5.682-.47-.274.783.673.5-.831-.016-.274.784-.249-.8-.831-.016.682-.47Z" transform="translate(247.995 -430.757)" fill="#0a1b3e"/>
    <path id="Path_32" d="M-212.468,505.6l.673.5.682-.47-.274.784.673.5-.831-.016-.274.784-.249-.8-.831-.017.682-.47Z" transform="translate(223.057 -466.357)" fill="#0a1b3e"/>
  </g>
  <g id="Group_45" transform="translate(6.739 61.857)">
    <path id="Path_42" d="M-622.567,597.4h2.669l.033.495-.632.157c-.008.066-.017.165-.025.313s-.017.313-.017.511-.008.429-.008.7v1.031a2.574,2.574,0,0,0,.158.973,1.289,1.289,0,0,0,.474.594,1.432,1.432,0,0,0,.773.206,1.361,1.361,0,0,0,.765-.2,1.146,1.146,0,0,0,.449-.594,2.91,2.91,0,0,0,.15-1v-.833c0-.3,0-.577-.008-.817-.008-.256-.017-.454-.017-.619a1.016,1.016,0,0,0-.033-.272l-.7-.157.033-.495h2.211l.033.495-.632.157a.981.981,0,0,0-.033.272c-.008.157-.017.363-.017.619s-.008.52-.008.817v1.015a2.945,2.945,0,0,1-.291,1.353,2.047,2.047,0,0,1-.823.874,2.411,2.411,0,0,1-1.264.305,2.674,2.674,0,0,1-1.92-.652,2.472,2.472,0,0,1-.673-1.856v-1.2c0-.28,0-.52-.008-.742s-.017-.4-.017-.536c0-.083-.008-.157-.016-.247l-.64-.157Z" transform="translate(622.6 -597.235)" fill="#fff"/>
    <path id="Path_43" d="M-529.671,602.106a3.823,3.823,0,0,1-.923-.115,2.908,2.908,0,0,1-.856-.322l-.05-1.468.64-.041.341,1.023a1.873,1.873,0,0,0,.474.206,1.871,1.871,0,0,0,.524.074,1.046,1.046,0,0,0,.682-.19.653.653,0,0,0,.241-.5.786.786,0,0,0-.208-.561,1.615,1.615,0,0,0-.54-.355c-.224-.1-.449-.2-.7-.3a4.236,4.236,0,0,1-.7-.346,1.8,1.8,0,0,1-.54-.52,1.641,1.641,0,0,1,.1-1.748,2.025,2.025,0,0,1,.856-.627,3.564,3.564,0,0,1,1.289-.223,3.285,3.285,0,0,1,.49.033,3.435,3.435,0,0,1,.507.091,2.766,2.766,0,0,1,.441.14l.108,1.443-.632.041-.316-.973a1.606,1.606,0,0,0-.706-.157,1.053,1.053,0,0,0-.674.206.662.662,0,0,0-.266.569.712.712,0,0,0,.216.544,1.724,1.724,0,0,0,.54.363c.225.1.449.206.707.305a4.352,4.352,0,0,1,.707.355,1.87,1.87,0,0,1,.549.5,1.448,1.448,0,0,1,.216.784,1.434,1.434,0,0,1-.316.907,2.108,2.108,0,0,1-.873.627A3.474,3.474,0,0,1-529.671,602.106Z" transform="translate(539.073 -596.036)" fill="#fff"/>
    <path id="Path_44" d="M-471.667,601.388l-.033-.495.515-.157,2.028-4.874.823-.462,2.311,5.336.507.157-.033.495H-468.2l-.042-.495.64-.157-.54-1.278-.108-.338-1-2.351.291.074-.823,2.235-.1.3-.466,1.344.64.157-.033.495h-1.912v.016Zm1.563-1.691v-.676c.125.008.274.016.441.025s.391.017.673.017c.266,0,.482-.008.665-.017l.449-.025v.668c-.125,0-.283,0-.457-.008s-.4-.008-.657-.008c-.274,0-.49,0-.673.008-.166.008-.316.008-.441.016Z" transform="translate(484.245 -595.4)" fill="#fff"/>
    <path id="Path_45" d="M-355.647,602.382a4.033,4.033,0,0,1-1.7-.338,2.668,2.668,0,0,1-1.147-.99,2.81,2.81,0,0,1-.416-1.567,3.019,3.019,0,0,1,.258-1.287,2.563,2.563,0,0,1,.732-.973,3.463,3.463,0,0,1,1.106-.618,4.5,4.5,0,0,1,1.4-.215,4.841,4.841,0,0,1,.914.091,3.243,3.243,0,0,1,.773.247l.066,1.509-.615.041-.349-1.039a1.929,1.929,0,0,0-.416-.148,2.235,2.235,0,0,0-.466-.049,1.714,1.714,0,0,0-.981.272,1.776,1.776,0,0,0-.615.759,3.106,3.106,0,0,0-.216,1.163,3.12,3.12,0,0,0,.258,1.32,1.938,1.938,0,0,0,.682.841,1.666,1.666,0,0,0,.964.3,2.036,2.036,0,0,0,.54-.074,1.205,1.205,0,0,0,.449-.223l.357-.916.673.066-.291,1.32a3.943,3.943,0,0,1-.84.355A4.046,4.046,0,0,1-355.647,602.382Z" transform="translate(380.837 -596.311)" fill="#fff"/>
    <path id="Path_46" d="M-286.067,601.388l-.033-.495.515-.157,2.028-4.874.823-.462,2.311,5.336.507.157-.033.495H-282.6l-.042-.495.64-.157-.54-1.278-.108-.338-1-2.351.291.074-.823,2.235-.1.3-.466,1.344.64.157-.033.495h-1.912v.016Zm1.555-1.691v-.676c.125.008.274.016.441.025s.391.017.673.017c.266,0,.482-.008.665-.017l.449-.025v.668c-.125,0-.283,0-.457-.008s-.4-.008-.657-.008c-.274,0-.49,0-.673.008-.158.008-.308.008-.441.016Z" transform="translate(314.074 -595.4)" fill="#fff"/>
    <path id="Path_47" d="M-202.952,602.594a2.436,2.436,0,0,0,.05-.495c.017-.289.017-.635.017-1.031v-1.452c0-.4-.008-.759-.017-1.047a2.338,2.338,0,0,0-.05-.478l-.64-.165.033-.487h2.835a2.849,2.849,0,0,1,1.563.346,1.161,1.161,0,0,1,.515,1.047,1.145,1.145,0,0,1-.474.915,2.194,2.194,0,0,1-1.255.413l.058-.074a2.6,2.6,0,0,1,1.455.421,1.227,1.227,0,0,1,.507,1.039,1.43,1.43,0,0,1-.682,1.254,3.477,3.477,0,0,1-1.92.445h-2.61l-.033-.495Zm1.413-1.1c0,.264,0,.495.008.693s.017.33.017.4a1.6,1.6,0,0,0,.274.05,2.148,2.148,0,0,0,.324.025,1.221,1.221,0,0,0,.84-.264.932.932,0,0,0,.3-.726.99.99,0,0,0-.324-.825,1.61,1.61,0,0,0-1.006-.264h-.308c-.083,0-.183.008-.266.016v-.651c.1.008.191.008.266.016a2.358,2.358,0,0,0,.249.008,1.119,1.119,0,0,0,.815-.264.993.993,0,0,0,.274-.759.95.95,0,0,0-.266-.709,1.085,1.085,0,0,0-.815-.264h-.374c-.008.049-.008.2-.017.412s-.008.487-.008.784Z" transform="translate(238.433 -597.266)" fill="#fff"/>
    <path id="Path_48" d="M-102.175,601.388l-.025-.495.515-.157,2.028-4.874.823-.462,2.311,5.336.507.157-.033.495H-98.7l-.042-.495.64-.157-.54-1.278-.108-.338-1-2.351.291.074-.823,2.235-.1.3-.466,1.344.64.157-.033.495h-1.92v.016Zm1.555-1.691v-.676c.125.008.274.016.441.025s.391.017.673.017c.266,0,.482-.008.665-.017l.449-.025v.668c-.125,0-.283,0-.457-.008s-.4-.008-.657-.008c-.274,0-.49,0-.673.008-.166.008-.308.008-.441.016Z" transform="translate(145.462 -595.4)" fill="#fff"/>
    <path id="Path_49" d="M-19.383,597.4h2.76a3.863,3.863,0,0,1,2.519.742,2.54,2.54,0,0,1,.906,2.087,2.76,2.76,0,0,1-.424,1.534,3,3,0,0,1-1.172,1.056,3.759,3.759,0,0,1-1.713.38h-2.86l-.033-.495.64-.157a2.438,2.438,0,0,0,.05-.495c.017-.289.017-.627.017-1.023v-1.452c0-.4-.008-.759-.017-1.047a2.36,2.36,0,0,0-.05-.487l-.64-.148Zm2.045.66c0,.049,0,.132-.008.264s-.008.3-.008.5-.008.454-.008.759v1.451c0,.165,0,.355.008.544s.008.363.017.52.017.289.025.379c.141.025.3.049.449.066a3.767,3.767,0,0,0,.424.025,1.648,1.648,0,0,0,1.289-.487,2.245,2.245,0,0,0,.432-1.534,3.725,3.725,0,0,0-.158-1.171,2.037,2.037,0,0,0-.441-.783,1.7,1.7,0,0,0-.64-.437,2.018,2.018,0,0,0-.765-.132c-.1,0-.208.008-.308.016s-.208,0-.308.017Z" transform="translate(69.546 -597.235)" fill="#fff"/>
    <path id="Path_50" d="M73.837,602.2a3.825,3.825,0,0,1-.923-.115,2.9,2.9,0,0,1-.856-.322L72,600.3l.64-.041.341,1.023a1.945,1.945,0,0,0,1,.28,1.045,1.045,0,0,0,.682-.19.652.652,0,0,0,.241-.5.753.753,0,0,0-.208-.561,1.615,1.615,0,0,0-.54-.355c-.224-.1-.449-.2-.7-.3a4.215,4.215,0,0,1-.7-.346,1.8,1.8,0,0,1-.54-.52,1.641,1.641,0,0,1,.1-1.748,2.026,2.026,0,0,1,.856-.627,3.557,3.557,0,0,1,1.289-.223,3.247,3.247,0,0,1,.49.033,3.434,3.434,0,0,1,.507.091,2.732,2.732,0,0,1,.441.14l.108,1.443-.632.041-.324-.973a1.607,1.607,0,0,0-.707-.157,1.051,1.051,0,0,0-.673.206.661.661,0,0,0-.266.569.712.712,0,0,0,.216.544,1.719,1.719,0,0,0,.54.363c.224.1.449.206.707.305a4.365,4.365,0,0,1,.707.355,1.872,1.872,0,0,1,.549.5,1.491,1.491,0,0,1-.1,1.691,2.11,2.11,0,0,1-.873.627A3.576,3.576,0,0,1,73.837,602.2Z" transform="translate(-14.256 -596.128)" fill="#fff"/>
  </g>
</svg>
