<svg xmlns="http://www.w3.org/2000/svg" width="115.26" height="41.873" viewBox="0 0 115.26 41.873">
  <g id="Group_22182" data-name="Group 22182" transform="translate(0 0.03)">
    <g id="Group_21469" data-name="Group 21469" transform="translate(0 14.508)">
      <g id="Group_21468" data-name="Group 21468">
        <path id="Path_74818" data-name="Path 74818" d="M1342.022,662.59a7.36,7.36,0,0,0-4.042-1.069,4.943,4.943,0,0,0-5.114,5.3c0,3.053,2.593,5.037,5.485,5.037a9.227,9.227,0,0,0,4.155-.919l.145,4.93a18.124,18.124,0,0,1-5.449.848c-6.377,0-11.233-3.682-11.233-10.009,0-6.363,4.856-10.042,11.233-10.042a12.085,12.085,0,0,1,5.3,1.068l-.484,4.857" transform="translate(-1325.969 -656.665)" fill="#1f1f1f"/>
        <path id="Path_74819" data-name="Path 74819" d="M1406.935,672.3a4.331,4.331,0,0,0,4.119-4.526c-.855-.036-1.819-.108-2.82-.108-2.263,0-4.042.7-4.042,2.542,0,1.32,1.186,2.092,2.743,2.092m4.6,3.974c-.036-1.028-.15-2.024-.15-3.018h-.073a6.635,6.635,0,0,1-6.119,3.462c-3.815,0-7.228-1.877-7.228-6.035,0-5.846,6.413-6.547,9.975-6.547a19.663,19.663,0,0,1,3.115.255c-.041-2.608-2.006-3.309-4.413-3.309a12.653,12.653,0,0,0-6.155,1.433l-.114-4.487a20.133,20.133,0,0,1,7.712-1.362c4.934,0,9.2,2.1,9.2,7.946v7.14a23.1,23.1,0,0,0,.371,4.521Z" transform="translate(-1379.426 -656.664)" fill="#1f1f1f"/>
        <path id="Path_74820" data-name="Path 74820" d="M1499.715,661.741c-2.449,0-4.078,2.132-4.078,5.006,0,2.793,1.851,4.89,4.078,4.89,2.521,0,4.042-2.1,4.042-5.15,0-2.542-1.448-4.746-4.042-4.746m-10.753-4.635h6.155v3.458h.073c1.335-2.685,4.154-3.9,7.2-3.9,5.337,0,8.264,5.04,8.264,9.674,0,5.661-3.072,10.377-8.821,10.377a6.721,6.721,0,0,1-6.119-3.13h-.073V684h-6.675Z" transform="translate(-1446.991 -656.664)" fill="#1f1f1f"/>
        <path id="Path_74821" data-name="Path 74821" d="M1596.206,664.87c0-2.209-1.037-4.014-3.707-4.014-2.409,0-3.558,1.8-3.708,4.014h7.414m-7.341,3.75c.371,2.65,2.412,3.677,5.675,3.677a12.54,12.54,0,0,0,5.893-1.473V675.5a19.413,19.413,0,0,1-7.078,1.217c-6.377,0-11.238-3.717-11.238-10.045s4.34-10.006,10.345-10.006c7.156,0,9.749,5.039,9.749,10.742v1.213Z" transform="translate(-1516.16 -656.665)" fill="#1f1f1f"/>
      </g>
    </g>
    <path id="Path_74822" data-name="Path 74822" d="M7.142,17.121c2.371,1.361,4.052,1.634,5.449,1.4-1.739-3.627.334-6.1,1.55-7.7.428,1.444,3.384,1.993,4.95,1.971,2.517.128,3.109,1.777,3.783,3.48,2.669-3.793-1.412-7.846-4.306-8.7-.647-.287-3.462-1.813-2.048-3.279.731-.515,1.723-1.855.6-4.327v0c-2.721.273-3.391,1.8-3.479,2.678-.574,1.944-3.316.294-3.89-.115C7.562.479,1.974-1-.006,3.191,1.822,2.917,3.562,2.6,4.931,4.7,5.692,6.048,7.65,8.314,9.125,7.959c-.781,1.837-1.908,4.86-5.949,5.179.5,1.316,1.576,2.619,3.951,3.978l.014,0" transform="translate(92.121 0) rotate(13)" fill="#0033a1"/>
  </g>
</svg>
