<svg id="Group_22181" data-name="Group 22181" xmlns="http://www.w3.org/2000/svg" xmlns:xlink="http://www.w3.org/1999/xlink" width="81.747" height="53.335" viewBox="0 0 81.747 53.335">
  <defs>
    <linearGradient id="linear-gradient" y1="0.5" x2="1" y2="0.5" gradientUnits="objectBoundingBox">
      <stop offset="0" stop-color="#09c6f9"/>
      <stop offset="1" stop-color="#045de9"/>
    </linearGradient>
  </defs>
  <path id="Path_74861" data-name="Path 74861" d="M694.346,1749.968" transform="translate(-627.727 -1723.414)" fill="#fff"/>
  <g id="Group_21544" data-name="Group 21544" transform="translate(0.147 0)">
    <g id="Group_21541" data-name="Group 21541" transform="translate(4.995 0.064)">
      <path id="Path_74862" data-name="Path 74862" d="M381.3,1620.3a18.378,18.378,0,0,1-3.409,9.307c-2.344,3.089-5.959,4.655-10.745,4.655s-8.393-1.566-10.718-4.654a15.353,15.353,0,0,1-1.02-1.552l-.832-1.443.074,1.519a.882.882,0,0,0-.183.2,11.279,11.279,0,0,1-4.793,4.233,15.493,15.493,0,0,1-6.643,1.422,15.9,15.9,0,0,1-6.78-1.45,11.717,11.717,0,0,1-4.983-4.422,13.5,13.5,0,0,1-1.9-7.36,18.8,18.8,0,0,1,1.6-7.788,53.887,53.887,0,0,1,4.5-7.844l5.66-8.688h6.39l-8.434,12.573a.581.581,0,0,1,.192-.031c.2,0,.4.034.6.037h.075l.1,0,8.975-13.378h-8.33l-5.894,9.047a54.651,54.651,0,0,0-4.558,7.956,19.589,19.589,0,0,0-1.671,8.114,14.274,14.274,0,0,0,2.025,7.786,12.5,12.5,0,0,0,5.321,4.719,16.7,16.7,0,0,0,7.122,1.525,16.3,16.3,0,0,0,6.987-1.5,12.05,12.05,0,0,0,5-4.326c.247.4.5.772.767,1.121,2.485,3.3,6.308,4.974,11.362,4.974s8.884-1.673,11.388-4.973a19.1,19.1,0,0,0,3.554-9.588C381.814,1620.46,381.56,1620.35,381.3,1620.3Z" transform="translate(-328.558 -1594.882)" fill="url(#linear-gradient)"/>
      <path id="Path_74863" data-name="Path 74863" d="M503.951,1597.367a12.8,12.8,0,0,0-5.289-4.715,15.932,15.932,0,0,0-6.935-1.554,16.668,16.668,0,0,0-7.151,1.526,12.174,12.174,0,0,0-4.8,3.984c-.132-.192-.268-.38-.408-.564-2.486-3.282-6.327-4.946-11.416-4.946-5.053,0-8.875,1.655-11.361,4.918a19.724,19.724,0,0,0-3.651,11.01c-.207-.146-.433-.3-.682-.452a10.573,10.573,0,0,0-2.416-1.113.665.665,0,0,1-.043.136.7.7,0,0,1-.063.67,9.712,9.712,0,0,1,2.092.981,11.238,11.238,0,0,1,1.219.866l.634.53.028-.822c.156-4.65,1.341-8.46,3.524-11.325,2.326-3.053,5.932-4.6,10.719-4.6,4.822,0,8.447,1.557,10.773,4.628.211.278.415.568.606.862l.182,1.1.565-.89a11.39,11.39,0,0,1,4.841-4.25,15.86,15.86,0,0,1,6.806-1.449,15.132,15.132,0,0,1,6.585,1.475,12,12,0,0,1,4.96,4.426,13.15,13.15,0,0,1,1.9,7.222,19.071,19.071,0,0,1-1.6,7.9,56.183,56.183,0,0,1-4.5,7.9l-5.824,8.9h-7.072l11.607-16.238-.811-.6-1.051,1.044a10.581,10.581,0,0,1-2.758,1.824,7.3,7.3,0,0,1-1.919.538l-.034.051a.18.18,0,0,1-.009.141c-.117.229-.252.448-.389.665a8.632,8.632,0,0,0,2.685-.67,11.137,11.137,0,0,0,2-1.17l-10.875,15.214h9.066l6.059-9.265a56.97,56.97,0,0,0,4.557-8.009,19.85,19.85,0,0,0,1.671-8.222A13.927,13.927,0,0,0,503.951,1597.367Z" transform="translate(-429.372 -1591.097)" fill="url(#linear-gradient)"/>
      <path id="Path_74864" data-name="Path 74864" d="M525.367,1630.023a5.423,5.423,0,0,0-5.067,2.883c-1.029,1.836-1.55,4.568-1.55,8.118v5.031c0,3.586.521,6.352,1.548,8.223a5.887,5.887,0,0,0,10.193,0c1.027-1.872,1.548-4.638,1.548-8.223v-5.031c0-3.55-.521-6.281-1.55-8.118A5.471,5.471,0,0,0,525.367,1630.023Zm5.867,11v5.031c0,3.45-.488,6.088-1.45,7.841a4.642,4.642,0,0,1-4.417,2.523A4.6,4.6,0,0,1,521,1653.9c-.962-1.752-1.45-4.39-1.45-7.841v-5.031c0-3.413.487-6.014,1.449-7.73a4.612,4.612,0,0,1,4.364-2.472,4.66,4.66,0,0,1,4.419,2.472C530.747,1635.011,531.235,1637.611,531.235,1641.024Z" transform="translate(-486.785 -1623.533)" fill="url(#linear-gradient)"/>
      <path id="Path_74865" data-name="Path 74865" d="M378.592,1705.929a6.218,6.218,0,0,0-5.14,2.234,8.381,8.381,0,0,0,.029,10.288,6.232,6.232,0,0,0,5.111,2.232,6.36,6.36,0,0,0,5.22-2.231,7.879,7.879,0,0,0,1.779-5.092,8.1,8.1,0,0,0-1.776-5.141A6.3,6.3,0,0,0,378.592,1705.929Zm6.195,7.43a7.1,7.1,0,0,1-1.6,4.591,5.523,5.523,0,0,1-4.594,1.934,5.4,5.4,0,0,1-4.484-1.934,7.175,7.175,0,0,1-1.6-4.645,7.254,7.254,0,0,1,1.576-4.647,5.384,5.384,0,0,1,4.51-1.931,5.459,5.459,0,0,1,4.59,1.984A7.322,7.322,0,0,1,384.786,1713.359Z" transform="translate(-364.451 -1686.782)" fill="url(#linear-gradient)"/>
      <path id="Path_74866" data-name="Path 74866" d="M670.718,1639.624a8.343,8.343,0,0,0-.027-10.259,6.2,6.2,0,0,0-5.113-2.26,6.359,6.359,0,0,0-5.22,2.231,7.875,7.875,0,0,0-1.779,5.092,8.059,8.059,0,0,0,1.778,5.17,6.324,6.324,0,0,0,5.222,2.26A6.218,6.218,0,0,0,670.718,1639.624Zm-9.732-.523a7.285,7.285,0,0,1-1.6-4.673,7.1,7.1,0,0,1,1.6-4.591,5.522,5.522,0,0,1,4.593-1.934,5.366,5.366,0,0,1,4.483,1.958,7.551,7.551,0,0,1,.027,9.267,5.384,5.384,0,0,1-4.51,1.931A5.488,5.488,0,0,1,660.986,1639.1Z" transform="translate(-603.114 -1621.101)" fill="url(#linear-gradient)"/>
    </g>
    <g id="Group_21543" data-name="Group 21543" transform="translate(0)">
      <g id="Group_21542" data-name="Group 21542">
        <path id="Path_74867" data-name="Path 74867" d="M374.018,1596.6a12.88,12.88,0,0,0-5.448-4.509s-2.347-1.7-8.63-1.209a13.46,13.46,0,0,0-10.053,5.883,11.271,11.271,0,0,0-6.352-5.157,17.961,17.961,0,0,0-11.134-.07s-3,.467-5.823,4.078a20.367,20.367,0,0,0-3.337,8.192s-.328,2.342-.344,3.605a11.616,11.616,0,0,0-1.712-1.286c-4.446-2.734-9.577-1.715-11.61-1.187l9-13.412h-7.516l-7.225,11.083s-4.6,5.9-4.886,12.24c0,0-1.065,7.037,3.458,11.632,0,0,8.953,9.4,21,.508a12.978,12.978,0,0,0,2.1-2.57s2.765,4.709,6.336,5.556a18.8,18.8,0,0,0,8.951.779,11.623,11.623,0,0,0,8.871-5.429,13.721,13.721,0,0,0,1.787-3.486,25.166,25.166,0,0,0,1.388-7.327,14.276,14.276,0,0,0,3.728,1.679,23.179,23.179,0,0,0,8.812.409l-9.712,13.587h8.239l7.187-11s3.228-5.406,3.256-5.864a22.763,22.763,0,0,0,1.765-6.122C376.267,1604.7,376.677,1600.487,374.018,1596.6Zm-58.395,27.493s-5.221,1.957-8.1-2.31a8.193,8.193,0,0,1,.446-9.349s1.761-2.778,6.689-1.945c0,0,5.038.81,4.953,7.611A7.142,7.142,0,0,1,315.624,1624.091Zm28.552-7.547a12.786,12.786,0,0,1-.531,2.866,10.552,10.552,0,0,1-2.262,3.784s-2.3,2.157-6.329.471a6.294,6.294,0,0,1-1.173-.887,7.318,7.318,0,0,1-2.074-4.79q-.151-2.322-.3-4.644v-5.137a19.079,19.079,0,0,1,1.067-7.115s1.325-4.876,7.407-3.372c0,0,3.366.887,4.087,7.061.111,1.792.185,3.668.207,5.622A47.989,47.989,0,0,1,344.176,1616.544Zm20.689-5.879s-5.221,1.957-8.1-2.31a8.193,8.193,0,0,1,.446-9.349s1.76-2.778,6.689-1.945c0,0,5.038.81,4.953,7.611A7.142,7.142,0,0,1,364.865,1610.665Z" transform="translate(-298.837 -1590.715)" fill="#1d1d1b"/>
      </g>
    </g>
  </g>
  <rect id="Rectangle_17799" data-name="Rectangle 17799" width="81.747" height="0.886" transform="translate(0 49.538)" fill="url(#linear-gradient)"/>
  <g id="Group_21545" data-name="Group 21545" transform="translate(8.175 46.714)">
    <path id="Path_74868" data-name="Path 74868" d="M347.723,1872.623v1.733h2.634v.88h-2.634v1.844h3.06v.981H346.6v-6.42h4.178v.981Z" transform="translate(-346.604 -1871.513)" fill="#1d1d1b"/>
    <path id="Path_74869" data-name="Path 74869" d="M386.2,1874.852l-2.117-3.21h1.229l1.553,2.43h.055l1.553-2.43h1.239l-2.126,3.21,2.126,3.21H388.47l-1.553-2.43h-.055l-1.553,2.43H384.07Z" transform="translate(-377.773 -1871.513)" fill="#1d1d1b"/>
    <path id="Path_74870" data-name="Path 74870" d="M434.289,1871.954a1.941,1.941,0,0,1,.763.807,2.4,2.4,0,0,1,0,2.1,1.865,1.865,0,0,1-.758.793,2.552,2.552,0,0,1-1.3.3h-1.229v2.1h-1.1v-6.42H433A2.471,2.471,0,0,1,434.289,1871.954Zm-.481,2.8a1.068,1.068,0,0,0,.4-.94,1.039,1.039,0,0,0-.393-.922,1.7,1.7,0,0,0-.985-.271h-1.063v2.412h1.063A1.659,1.659,0,0,0,433.809,1874.755Z" transform="translate(-416.538 -1871.513)" fill="#1d1d1b"/>
    <path id="Path_74871" data-name="Path 74871" d="M472.825,1872.623v1.733h2.634v.88h-2.634v1.844h3.06v.981h-4.178v-6.42h4.178v.981Z" transform="translate(-450.681 -1871.513)" fill="#1d1d1b"/>
    <path id="Path_74872" data-name="Path 74872" d="M513,1875.659h-.952v2.4h-1.118v-6.42h2.329a2.63,2.63,0,0,1,1.294.289,1.856,1.856,0,0,1,.763.752,2.078,2.078,0,0,1,.245.986,1.984,1.984,0,0,1-.36,1.16,1.878,1.878,0,0,1-1.081.72l1.534,2.513h-1.183Zm-.952-.917H513.1a1.818,1.818,0,0,0,.98-.248.9.9,0,0,0,.4-.825.867.867,0,0,0-.393-.812,1.9,1.9,0,0,0-.984-.234H512.05Z" transform="translate(-483.314 -1871.513)" fill="#1d1d1b"/>
    <path id="Path_74873" data-name="Path 74873" d="M553.458,1871.642h1.128v6.42h-1.128Z" transform="translate(-518.693 -1871.513)" fill="#1d1d1b"/>
    <path id="Path_74874" data-name="Path 74874" d="M577.083,1872.623v1.733h2.634v.88h-2.634v1.844h3.06v.981h-4.178v-6.42h4.178v.981Z" transform="translate(-537.416 -1871.513)" fill="#1d1d1b"/>
    <path id="Path_74875" data-name="Path 74875" d="M615.189,1871.642h1.294l2.912,4.686h.027v-4.686h1.109v6.429h-1.294l-2.9-4.586H616.3v4.586h-1.109Z" transform="translate(-570.049 -1871.513)" fill="#1d1d1b"/>
    <path id="Path_74876" data-name="Path 74876" d="M662.375,1877.049a2.835,2.835,0,0,1-1.012-1.2,4.217,4.217,0,0,1,0-3.348,2.733,2.733,0,0,1,2.593-1.632,2.687,2.687,0,0,1,1.839.633,2.98,2.98,0,0,1,.943,1.669h-1.091a1.783,1.783,0,0,0-.592-.958,1.629,1.629,0,0,0-1.082-.372,1.528,1.528,0,0,0-1.331.638,3.379,3.379,0,0,0,0,3.388,1.527,1.527,0,0,0,1.326.642,1.593,1.593,0,0,0,1.035-.344,1.787,1.787,0,0,0,.592-.876h1.091a2.912,2.912,0,0,1-.943,1.591,2.659,2.659,0,0,1-1.793.61A2.775,2.775,0,0,1,662.375,1877.049Z" transform="translate(-608.174 -1870.872)" fill="#1d1d1b"/>
    <path id="Path_74877" data-name="Path 74877" d="M709.831,1872.623v1.733h2.634v.88h-2.634v1.844h3.06v.981h-4.178v-6.42h4.178v.981Z" transform="translate(-647.854 -1871.513)" fill="#1d1d1b"/>
  </g>
</svg>
