<svg xmlns="http://www.w3.org/2000/svg" width="106.827" height="24.985" viewBox="0 0 106.827 24.985">
  <g id="Group_22182" data-name="Group 22182" transform="translate(296.05 -797.063)">
    <path id="Path_1" data-name="Path 1" d="M-270.573,801.342l-9.839,24.141h-5.8l-9.839-24.141h5.833l6.923,17.008,6.923-17.008Z" transform="translate(0 -3.857)" fill="#4361ee"/>
    <rect id="Rectangle_1" data-name="Rectangle 1" width="5.201" height="24.141" transform="translate(-267.656 797.485)" fill="#4361ee"/>
    <path id="Path_2" data-name="Path 2" d="M88.411,806.016h-7.52v-4.674h20.241v4.674h-7.52v19.468h-5.2Z" transform="translate(-339.798 -3.858)" fill="#4361ee"/>
    <path id="Path_3" data-name="Path 3" d="M321.49,820.81h7.52v4.674H308.769V820.81h7.52V801.343h5.2Z" transform="translate(-545.221 -3.858)" fill="#4361ee"/>
    <path id="Path_4" data-name="Path 4" d="M527.734,809.538a12.83,12.83,0,1,1,12.826,12.51,12.83,12.83,0,0,1-12.826-12.51m20.346,0a7.508,7.508,0,1,0-7.52,7.8,7.767,7.767,0,0,0,7.52-7.8" transform="translate(-742.609)" fill="#4361ee"/>
  </g>
</svg>
