<svg id="Group_22182" data-name="Group 22182" xmlns="http://www.w3.org/2000/svg" xmlns:xlink="http://www.w3.org/1999/xlink" width="128.512" height="32.264" viewBox="0 0 128.512 32.264">
  <defs>
    <clipPath id="clip-path">
      <rect id="Rectangle_3" data-name="Rectangle 3" width="128.512" height="32.264" fill="none"/>
    </clipPath>
  </defs>
  <g id="Group_3" data-name="Group 3" transform="translate(0 0)" clip-path="url(#clip-path)">
    <path id="Path_7" data-name="Path 7" d="M22.582,7.242H18.563a.925.925,0,0,0-.923.925V18.947c0,1.544-.591,2.08-1.173,2.4a4.308,4.308,0,0,1-1.723.47H8.783c-1.623,0-2.165-.591-2.479-1.171a4.126,4.126,0,0,1-.44-1.695V5.242a.921.921,0,0,0-.923-.923H.925A.924.924,0,0,0,0,5.242V18.88a9.446,9.446,0,0,0,2.471,6.363,8.5,8.5,0,0,0,6.312,2.438h5.986a10.02,10.02,0,0,0,4.214-1.033,8.145,8.145,0,0,0,4.524-7.7V8.166a.925.925,0,0,0-.925-.925" transform="translate(0 4.478)" fill="#ec4115"/>
    <path id="Path_8" data-name="Path 8" d="M35.728,7.254H31.65a.894.894,0,0,0-.892.892v9.4a.464.464,0,0,1-.318.438.469.469,0,0,1-.517-.163L20.106,4.665a.893.893,0,0,0-.717-.358H14.138a.892.892,0,0,0-.892.892V18.071a.892.892,0,0,0,.892.894h4.078a.893.893,0,0,0,.894-.894V14.525a.463.463,0,0,1,.833-.277l9.848,13.192a.894.894,0,0,0,.713.358h5.224a.9.9,0,0,0,.894-.892V8.148a.9.9,0,0,0-.894-.894" transform="translate(13.733 4.465)" fill="#ec4115"/>
    <path id="Path_9" data-name="Path 9" d="M31.364,0H27.346a.921.921,0,0,0-.921.923V25.431a.923.923,0,0,0,.921.925h4.019a.924.924,0,0,0,.925-.925V.923A.924.924,0,0,0,31.364,0" transform="translate(27.397 0)" fill="#ec4115"/>
    <path id="Path_10" data-name="Path 10" d="M46.522,6.715H36.874V2.9a.924.924,0,0,0-.925-.923H31.933a.922.922,0,0,0-.923.923V29.248a.922.922,0,0,0,.923.923h4.017a.924.924,0,0,0,.925-.923V13.5a.924.924,0,0,1,.923-.925h8.725a.924.924,0,0,0,.925-.923V7.638a.924.924,0,0,0-.925-.923" transform="translate(32.15 2.055)" fill="#ec4115"/>
    <path id="Path_11" data-name="Path 11" d="M57.448,16.013a5.8,5.8,0,0,1-3.99,5.571A5.87,5.87,0,1,1,50.794,10.2a.92.92,0,0,0,.79-.915V5.249a.926.926,0,0,0-1.018-.919A11.729,11.729,0,1,0,63.314,16.015H57.448Z" transform="translate(41.322 4.485)" fill="#ec4115"/>
    <path id="Path_12" data-name="Path 12" d="M72.934,6.314a7.632,7.632,0,0,0-5.1-2.008H52.555a.924.924,0,0,0-.921.925V9.247a.923.923,0,0,0,.921.923H67.889a1.892,1.892,0,0,1,.951.344,1.693,1.693,0,0,1,.277,1.069c0,1.45-1.039,1.5-1.554,1.521H55.479a.92.92,0,0,0-.921.923V26.841a.919.919,0,0,0,.921.923H59.5a.922.922,0,0,0,.923-.923V19.891a.918.918,0,0,1,.923-.923H67.6a8.482,8.482,0,0,0,3.538-.868,6.9,6.9,0,0,0,3.845-6.518,7.093,7.093,0,0,0-2.045-5.269" transform="translate(53.532 4.464)" fill="#ec4115"/>
  </g>
</svg>
