<svg id="Group_22181" data-name="Group 22181" xmlns="http://www.w3.org/2000/svg" xmlns:xlink="http://www.w3.org/1999/xlink" width="96.009" height="45.337" viewBox="0 0 96.009 45.337">
  <defs>
    <linearGradient id="linear-gradient" x1="0.5" y1="1" x2="0.5" gradientUnits="objectBoundingBox">
      <stop offset="0" stop-color="#0467a0"/>
      <stop offset="1" stop-color="#023450"/>
    </linearGradient>
    <clipPath id="clip-path">
      <path id="Path_1" data-name="Path 1" d="M299.68,72.455h0m-2.909,0h0V69.939a5.571,5.571,0,0,1,.571-2.578q-.1.2-.188.413c-.012.033-.023.068-.035.1-.042.113-.082.23-.117.348-.016.054-.029.109-.042.164-.027.1-.051.211-.072.32-.013.059-.023.118-.033.179-.019.114-.033.233-.045.351-.006.056-.013.109-.018.165-.013.175-.022.354-.022.537v2.515m3.234,0h0m.358-.008h.027c.09,0,.179-.006.27-.011h.037q-.168.008-.334.014m.3-.012c-.091,0-.18.008-.27.011.09,0,.179-.006.27-.011m.417-.025.224-.019-.224.019m1.7-.253h0l.036-.009-.036.009m1.369-.5h0m.005,0a4.061,4.061,0,0,0,.7-.464l.007-.006a4.028,4.028,0,0,1-.711.47m-6.811-4.3a4.3,4.3,0,0,1,.457-.708l.016-.012c-.052.063-.1.128-.148.195h0c-.033.045-.066.091-.1.138h0c-.058.088-.112.18-.163.273-.022.038-.045.076-.066.114m2-1.924,0,0a5.628,5.628,0,0,1,1.169-.411h0l-.115.032c-.126.033-.25.068-.371.106-.061.021-.12.043-.179.065-.095.034-.188.07-.278.108-.06.026-.12.053-.178.081l-.046.022" transform="translate(-296.771 -65.021)" stroke="rgba(0,0,0,0)" stroke-width="1" fill="url(#linear-gradient)"/>
    </clipPath>
    <clipPath id="clip-path-2">
      <rect id="Rectangle_14" data-name="Rectangle 14" width="8.094" height="7.434" stroke="rgba(0,0,0,0)" stroke-width="1" fill="url(#linear-gradient)"/>
    </clipPath>
    <clipPath id="clip-path-3">
      <path id="Path_2" data-name="Path 2" d="M32.007,54.87a22.87,22.87,0,0,1-16.156-6.639,22.541,22.541,0,0,1,0-32.058,22.974,22.974,0,0,1,32.312,0c.045.044.085.09.13.135a5.632,5.632,0,0,0-1.169.411,21.716,21.716,0,0,0-30.318.218,21.307,21.307,0,0,0,0,30.3,21.718,21.718,0,0,0,30.541,0,21.364,21.364,0,0,0,4.517-6.566,9.307,9.307,0,0,1-.984-3.761c-.018-.2-.028-.411-.028-.618V32.4c0-.2.01-.419.031-.636a8.418,8.418,0,0,1,2.042-5.258,21.321,21.321,0,0,0-1.255-3.44q.133-.06.261-.127h0l0,0a4.027,4.027,0,0,0,.711-.47h0A22.6,22.6,0,0,1,54.066,26.3,8.912,8.912,0,0,0,51.9,31.865c-.021.23-.031.457-.031.673v4.114h0c0,.218.011.445.031.654a9.842,9.842,0,0,0,1.041,3.979,22.6,22.6,0,0,1-4.779,6.946A22.87,22.87,0,0,1,32.007,54.87M46.684,24.09h-2.75V21.712c0-.174.008-.343.021-.509,0-.053.011-.1.016-.155.011-.113.025-.223.043-.332.009-.056.02-.112.031-.168.019-.1.043-.2.068-.3.013-.051.026-.1.041-.154.032-.113.07-.222.11-.33.011-.031.02-.064.033-.094a4.259,4.259,0,0,1,.178-.392c.02-.038.041-.073.062-.108.049-.089.1-.175.155-.259.029-.044.061-.087.091-.13.051-.073.105-.144.161-.212.034-.042.069-.083.1-.124q.1-.1.195-.2c.033-.032.065-.067.1-.1q.116-.105.239-.2a4.31,4.31,0,0,0-.457.708h0a5.571,5.571,0,0,0-.571,2.578V23.74h3.322l.209,0-.209,0h0l.209,0,.061,0c.111,0,.222-.008.334-.014h.01q.184-.009.369-.023h0q-.186.014-.369.023.184-.009.369-.023l.224-.019.076-.007-.076.007h0l.076-.007.043,0c.1-.011.2-.022.3-.035l.03,0h0l.04-.005a9.492,9.492,0,0,0,.98-.179l0,0,.036-.009q.127-.031.251-.067a5.716,5.716,0,0,1-1.235.44l-.007,0a8.944,8.944,0,0,1-.961.174l-.03,0c-.1.013-.193.023-.288.032l-.04,0c-.212.02-.424.035-.633.045l-.046,0-.254.01-.084,0-.219.005H46.97c-.1,0-.192,0-.286,0m2.824-.459c-.1.013-.2.024-.3.035.1-.011.2-.022.3-.035" transform="translate(-9.159 -9.533)" stroke="rgba(0,0,0,0)" stroke-width="1" fill="url(#linear-gradient)"/>
    </clipPath>
    <clipPath id="clip-path-4">
      <rect id="Rectangle_16" data-name="Rectangle 16" width="44.919" height="45.378" stroke="rgba(0,0,0,0)" stroke-width="1" fill="url(#linear-gradient)"/>
    </clipPath>
    <clipPath id="clip-path-5">
      <path id="Path_4" data-name="Path 4" d="M305.131,69.605a4.408,4.408,0,0,1,1.542-1.219l0,0c-.072.035-.142.072-.211.109-.053.029-.107.057-.158.087-.1.059-.193.121-.286.187-.03.021-.063.041-.092.064a4.184,4.184,0,0,0-.337.278c-.036.034-.07.07-.107.1-.071.07-.139.14-.206.215-.037.043-.074.086-.109.13l-.025.03-.016.012" transform="translate(-305.131 -68.386)" stroke="rgba(0,0,0,0)" stroke-width="1" fill="url(#linear-gradient)"/>
    </clipPath>
    <clipPath id="clip-path-6">
      <path id="Path_7" data-name="Path 7" d="M347.937,121.028h0a6.147,6.147,0,0,0,.717-.25,6.133,6.133,0,0,1-.717.251" transform="translate(-347.937 -120.777)" stroke="rgba(0,0,0,0)" stroke-width="1" fill="url(#linear-gradient)"/>
    </clipPath>
    <clipPath id="clip-path-7">
      <path id="Path_10" data-name="Path 10" d="M320.413,125.907h0" transform="translate(-320.413 -125.907)" stroke="rgba(0,0,0,0)" stroke-width="1" fill="url(#linear-gradient)"/>
    </clipPath>
    <clipPath id="clip-path-8">
      <path id="Path_11" data-name="Path 11" d="M320.413,125.9h0m.129,0h0" transform="translate(-320.413 -125.898)" stroke="rgba(0,0,0,0)" stroke-width="1" fill="url(#linear-gradient)"/>
    </clipPath>
    <clipPath id="clip-path-9">
      <path id="Path_12" data-name="Path 12" d="M334.552,125.034c.1-.011.2-.022.3-.035-.1.013-.2.024-.3.035" transform="translate(-334.552 -124.999)" stroke="rgba(0,0,0,0)" stroke-width="1" fill="url(#linear-gradient)"/>
    </clipPath>
    <clipPath id="clip-path-10">
      <path id="Path_13" data-name="Path 13" d="M323.571,125.881h0" transform="translate(-323.571 -125.881)" stroke="rgba(0,0,0,0)" stroke-width="1" fill="url(#linear-gradient)"/>
    </clipPath>
    <clipPath id="clip-path-11">
      <path id="Path_14" data-name="Path 14" d="M323.767,125.849h0l.209,0-.209,0" transform="translate(-323.767 -125.845)" stroke="rgba(0,0,0,0)" stroke-width="1" fill="url(#linear-gradient)"/>
    </clipPath>
    <clipPath id="clip-path-12">
      <path id="Path_15" data-name="Path 15" d="M331.764,125.39l.224-.019h0l-.224.019h0" transform="translate(-331.764 -125.371)" stroke="rgba(0,0,0,0)" stroke-width="1" fill="url(#linear-gradient)"/>
    </clipPath>
    <clipPath id="clip-path-13">
      <path id="Path_16" data-name="Path 16" d="M328.764,125.362q.184-.009.369-.023h0q-.185.014-.369.023m.593-.042h0l.076-.007-.076.007" transform="translate(-328.764 -125.313)" stroke="rgba(0,0,0,0)" stroke-width="1" fill="url(#linear-gradient)"/>
    </clipPath>
    <clipPath id="clip-path-14">
      <path id="Path_17" data-name="Path 17" d="M337.274,123.646a9.6,9.6,0,0,0,1.019-.184,9.333,9.333,0,0,1-.978.179l-.04.005" transform="translate(-337.274 -123.462)" stroke="rgba(0,0,0,0)" stroke-width="1" fill="url(#linear-gradient)"/>
    </clipPath>
    <clipPath id="clip-path-15">
      <rect id="Rectangle_30" data-name="Rectangle 30" width="1.019" height="0.184" stroke="rgba(0,0,0,0)" stroke-width="1" fill="url(#linear-gradient)"/>
    </clipPath>
    <clipPath id="clip-path-16">
      <path id="Path_18" data-name="Path 18" d="M326.184,125.738c.09,0,.179-.006.27-.011-.091,0-.18.008-.27.011" transform="translate(-326.184 -125.727)" stroke="rgba(0,0,0,0)" stroke-width="1" fill="url(#linear-gradient)"/>
    </clipPath>
    <clipPath id="clip-path-17">
      <path id="Path_19" data-name="Path 19" d="M305.459,77.09c.035-.045.072-.088.109-.13-.037.043-.074.086-.109.13" transform="translate(-305.459 -76.96)" stroke="rgba(0,0,0,0)" stroke-width="1" fill="url(#linear-gradient)"/>
    </clipPath>
    <clipPath id="clip-path-18">
      <path id="Path_20" data-name="Path 20" d="M318.063,67.647c.057-.028.117-.055.178-.081-.06.026-.12.053-.178.081" transform="translate(-318.063 -67.566)" stroke="rgba(0,0,0,0)" stroke-width="1" fill="url(#linear-gradient)"/>
    </clipPath>
    <clipPath id="clip-path-19">
      <rect id="Rectangle_34" data-name="Rectangle 34" width="0.178" height="0.081" stroke="rgba(0,0,0,0)" stroke-width="1" fill="url(#linear-gradient)"/>
    </clipPath>
    <clipPath id="clip-path-20">
      <path id="Path_21" data-name="Path 21" d="M321.767,66.21c.059-.022.118-.044.179-.065-.061.021-.12.043-.179.065" transform="translate(-321.767 -66.145)" stroke="rgba(0,0,0,0)" stroke-width="1" fill="url(#linear-gradient)"/>
    </clipPath>
    <clipPath id="clip-path-21">
      <rect id="Rectangle_36" data-name="Rectangle 36" width="0.179" height="0.065" stroke="rgba(0,0,0,0)" stroke-width="1" fill="url(#linear-gradient)"/>
    </clipPath>
    <clipPath id="clip-path-22">
      <path id="Path_22" data-name="Path 22" d="M314.694,69.392c.051-.03.1-.059.158-.087-.053.029-.107.057-.158.087" transform="translate(-314.694 -69.305)" stroke="rgba(0,0,0,0)" stroke-width="1" fill="url(#linear-gradient)"/>
    </clipPath>
    <clipPath id="clip-path-23">
      <path id="Path_23" data-name="Path 23" d="M311.623,71.614c.029-.022.062-.042.092-.064-.03.021-.063.041-.092.064" transform="translate(-311.623 -71.55)" stroke="rgba(0,0,0,0)" stroke-width="1" fill="url(#linear-gradient)"/>
    </clipPath>
    <clipPath id="clip-path-24">
      <path id="Path_24" data-name="Path 24" d="M345.6,123.34l.055-.013-.019,0-.036.009m.056-.014h0" transform="translate(-345.603 -123.325)" stroke="rgba(0,0,0,0)" stroke-width="1" fill="url(#linear-gradient)"/>
    </clipPath>
    <clipPath id="clip-path-25">
      <rect id="Rectangle_40" data-name="Rectangle 40" width="0.06" height="0.015" stroke="rgba(0,0,0,0)" stroke-width="1" fill="url(#linear-gradient)"/>
    </clipPath>
    <clipPath id="clip-path-26">
      <path id="Path_25" data-name="Path 25" d="M345.893,122.9l.019,0h.005q.115-.029.227-.061h0q-.124.035-.251.067" transform="translate(-345.893 -122.829)" stroke="rgba(0,0,0,0)" stroke-width="1" fill="url(#linear-gradient)"/>
    </clipPath>
    <clipPath id="clip-path-27">
      <rect id="Rectangle_42" data-name="Rectangle 42" width="0.252" height="0.067" stroke="rgba(0,0,0,0)" stroke-width="1" fill="url(#linear-gradient)"/>
    </clipPath>
    <clipPath id="clip-path-28">
      <path id="Path_26" data-name="Path 26" d="M354.6,116.144h0a4.24,4.24,0,0,0,.97-.593,4.06,4.06,0,0,1-.7.464l0,0h0q-.128.067-.261.127" transform="translate(-354.599 -115.551)" stroke="rgba(0,0,0,0)" stroke-width="1" fill="url(#linear-gradient)"/>
    </clipPath>
    <clipPath id="clip-path-29">
      <rect id="Rectangle_44" data-name="Rectangle 44" width="0.97" height="0.593" stroke="rgba(0,0,0,0)" stroke-width="1" fill="url(#linear-gradient)"/>
    </clipPath>
    <clipPath id="clip-path-30">
      <path id="Path_27" data-name="Path 27" d="M354.6,119.48h0q.134-.06.261-.127-.128.067-.261.127m.262-.127,0,0,0,0" transform="translate(-354.599 -119.351)" stroke="rgba(0,0,0,0)" stroke-width="1" fill="url(#linear-gradient)"/>
    </clipPath>
    <clipPath id="clip-path-31">
      <rect id="Rectangle_46" data-name="Rectangle 46" width="0.266" height="0.129" stroke="rgba(0,0,0,0)" stroke-width="1" fill="url(#linear-gradient)"/>
    </clipPath>
    <clipPath id="clip-path-32">
      <path id="Path_28" data-name="Path 28" d="M353.764,120.454l.1-.045h0l-.1.045" transform="translate(-353.764 -120.409)" stroke="rgba(0,0,0,0)" stroke-width="1" fill="url(#linear-gradient)"/>
    </clipPath>
    <clipPath id="clip-path-33">
      <path id="Path_29" data-name="Path 29" d="M347.934,120.705h0a6.126,6.126,0,0,0,.717-.251l.1-.045h0a6,6,0,0,1-.82.3" transform="translate(-347.934 -120.41)" stroke="rgba(0,0,0,0)" stroke-width="1" fill="url(#linear-gradient)"/>
    </clipPath>
    <clipPath id="clip-path-34">
      <path id="Path_30" data-name="Path 30" d="M296.948,99.712c.005-.056.012-.109.018-.165-.006.056-.013.109-.018.165" transform="translate(-296.948 -99.547)" stroke="rgba(0,0,0,0)" stroke-width="1" fill="url(#linear-gradient)"/>
    </clipPath>
    <clipPath id="clip-path-35">
      <rect id="Rectangle_50" data-name="Rectangle 50" width="0.018" height="0.165" stroke="rgba(0,0,0,0)" stroke-width="1" fill="url(#linear-gradient)"/>
    </clipPath>
    <clipPath id="clip-path-36">
      <path id="Path_31" data-name="Path 31" d="M326.231,65.053l.115-.032-.115.032" transform="translate(-326.231 -65.021)" stroke="rgba(0,0,0,0)" stroke-width="1" fill="url(#linear-gradient)"/>
    </clipPath>
    <clipPath id="clip-path-37">
      <rect id="Rectangle_52" data-name="Rectangle 52" width="0.115" height="0.031" stroke="rgba(0,0,0,0)" stroke-width="1" fill="url(#linear-gradient)"/>
    </clipPath>
    <clipPath id="clip-path-38">
      <path id="Path_32" data-name="Path 32" d="M299.6,87.666c.012-.033.023-.068.035-.1-.012.033-.023.068-.035.1" transform="translate(-299.599 -87.565)" stroke="rgba(0,0,0,0)" stroke-width="1" fill="url(#linear-gradient)"/>
    </clipPath>
    <clipPath id="clip-path-39">
      <rect id="Rectangle_54" data-name="Rectangle 54" width="0.035" height="0.101" stroke="rgba(0,0,0,0)" stroke-width="1" fill="url(#linear-gradient)"/>
    </clipPath>
    <clipPath id="clip-path-40">
      <path id="Path_33" data-name="Path 33" d="M298.306,91.41c.014-.055.027-.11.043-.164-.016.054-.029.109-.043.164" transform="translate(-298.306 -91.246)" stroke="rgba(0,0,0,0)" stroke-width="1" fill="url(#linear-gradient)"/>
    </clipPath>
    <clipPath id="clip-path-41">
      <rect id="Rectangle_56" data-name="Rectangle 56" width="0.043" height="0.164" stroke="rgba(0,0,0,0)" stroke-width="1" fill="url(#linear-gradient)"/>
    </clipPath>
    <clipPath id="clip-path-42">
      <path id="Path_34" data-name="Path 34" d="M308.015,74.452c.037-.035.07-.071.107-.1-.036.034-.07.07-.107.1" transform="translate(-308.015 -74.347)" stroke="rgba(0,0,0,0)" stroke-width="1" fill="url(#linear-gradient)"/>
    </clipPath>
    <clipPath id="clip-path-43">
      <path id="Path_35" data-name="Path 35" d="M297.461,95.384c.009-.061.02-.12.032-.179-.013.059-.023.118-.032.179" transform="translate(-297.461 -95.205)" stroke="rgba(0,0,0,0)" stroke-width="1" fill="url(#linear-gradient)"/>
    </clipPath>
    <clipPath id="clip-path-44">
      <rect id="Rectangle_59" data-name="Rectangle 59" width="0.032" height="0.179" stroke="rgba(0,0,0,0)" stroke-width="1" fill="url(#linear-gradient)"/>
    </clipPath>
    <clipPath id="clip-path-45">
      <path id="Path_36" data-name="Path 36" d="M301.414,83.351h0c.022-.038.045-.076.066-.114-.022.038-.045.076-.066.114" transform="translate(-301.414 -83.237)" stroke="rgba(0,0,0,0)" stroke-width="1" fill="url(#linear-gradient)"/>
    </clipPath>
    <clipPath id="clip-path-46">
      <rect id="Rectangle_61" data-name="Rectangle 61" width="0.066" height="0.114" stroke="rgba(0,0,0,0)" stroke-width="1" fill="url(#linear-gradient)"/>
    </clipPath>
    <clipPath id="clip-path-47">
      <path id="Path_37" data-name="Path 37" d="M301.413,84.172h0" transform="translate(-301.413 -84.172)" stroke="rgba(0,0,0,0)" stroke-width="1" fill="url(#linear-gradient)"/>
    </clipPath>
    <clipPath id="clip-path-48">
      <rect id="Rectangle_63" data-name="Rectangle 63" stroke="rgba(0,0,0,0)" stroke-width="1" fill="url(#linear-gradient)"/>
    </clipPath>
    <clipPath id="clip-path-49">
      <path id="Path_38" data-name="Path 38" d="M303.279,80.006c.03-.047.063-.093.1-.138-.033.046-.066.091-.1.138" transform="translate(-303.279 -79.868)" stroke="rgba(0,0,0,0)" stroke-width="1" fill="url(#linear-gradient)"/>
    </clipPath>
    <clipPath id="clip-path-50">
      <path id="Path_42" data-name="Path 42" d="M314.594,83.111h-1.26v-.962c0-2.428,1.591-3.641,3.953-3.641a3.315,3.315,0,0,1,1.667.364,2.588,2.588,0,0,1,.3,1.309c0,2.094-1.553,2.931-4.661,2.931" transform="translate(-313.334 -78.507)" stroke="rgba(0,0,0,0)" stroke-width="1" fill="url(#linear-gradient)"/>
    </clipPath>
    <clipPath id="clip-path-51">
      <path id="Path_47" data-name="Path 47" d="M530.468,159.75a3.356,3.356,0,0,1-2.085-.588,2.734,2.734,0,0,1-.4-.723c-.05.045-.1.09-.154.133a2.81,2.81,0,0,1-.286-.57,6.918,6.918,0,0,1-4.789,1.575,7.2,7.2,0,0,1-5-1.706,7.4,7.4,0,0,1-1.787-4.688c-.015-.15-.02-.3-.023-.449v-4.3c0-.15.008-.3.023-.449a7.319,7.319,0,0,1,1.92-4.83,8.132,8.132,0,0,1,9.85-.637v-1.3h2.637a1.184,1.184,0,0,1,1.481,1.343v17.174l-1.388.017m-9.245-4.55.048.058a3.734,3.734,0,0,0,3.021,1.1,4.69,4.69,0,0,0,2.068-.542,5.094,5.094,0,0,0,1.378-.958v-8.553a4.372,4.372,0,0,0-.44-.386v-.051a5.119,5.119,0,0,0-1.378-.96,4.716,4.716,0,0,0-2.069-.542,3.738,3.738,0,0,0-3.021,1.1,5.249,5.249,0,0,0-.922,3.336v1.184s0,.029,0,.079v.155c0,.05,0,.078,0,.078v1.184a5.248,5.248,0,0,0,.922,3.336,2.561,2.561,0,0,0,.394.379" transform="translate(-515.945 -141.152)" stroke="rgba(0,0,0,0)" stroke-width="1" fill="url(#linear-gradient)"/>
    </clipPath>
    <clipPath id="clip-path-52">
      <path id="Path_49" data-name="Path 49" d="M676.411,161.194H665.272v-2.179c0-.049.006-.091.009-.138a1.949,1.949,0,0,1,.529-1.426l7.841-9.865h-.786l.347-.437h-7.939v-2.179a1.794,1.794,0,0,1,1.794-1.907h12.96l.012.939a4.885,4.885,0,0,1-.028.51,2.816,2.816,0,0,1-.05.362v0a2.865,2.865,0,0,1-.073.289c-.014.051-.03.1-.046.15-.011.031-.025.062-.035.093-.027.067-.051.135-.079.2a5.6,5.6,0,0,1-.875,1.35c-.66.776-4.8,6.025-7.707,9.715h.786l-.345.438h8.136l.012.938c0,2.564-1.734,3.147-3.322,3.147" transform="translate(-665.272 -143.063)" stroke="rgba(0,0,0,0)" stroke-width="1" fill="url(#linear-gradient)"/>
    </clipPath>
    <clipPath id="clip-path-53">
      <path id="Path_51" data-name="Path 51" d="M379.839,169.71h-4.565a3.306,3.306,0,0,1-2.086-.664,4.054,4.054,0,0,1-.777-2.608h6.335a3.2,3.2,0,0,0,3.285-3.267v-4.521q-.212.169-.441.316v-.753a7.091,7.091,0,0,1-4.541,1.364,7.2,7.2,0,0,1-5-1.706,7.388,7.388,0,0,1-1.787-4.688,5.27,5.27,0,0,1-.027-.543v-4.114a5.32,5.32,0,0,1,.027-.543,7.31,7.31,0,0,1,1.92-4.83,8.133,8.133,0,0,1,9.851-.637v-1.3h2.636a1.185,1.185,0,0,1,1.482,1.343v20.62c0,2.459-1.761,6.532-6.311,6.532m-4.324-14.51.048.058a3.736,3.736,0,0,0,3.021,1.1,4.7,4.7,0,0,0,2.069-.542,5.133,5.133,0,0,0,1.379-.958v-8.553a4.421,4.421,0,0,0-.441-.385v-.052a5.127,5.127,0,0,0-1.379-.96,4.72,4.72,0,0,0-2.069-.542,3.737,3.737,0,0,0-3.021,1.1,5.251,5.251,0,0,0-.921,3.336v1.184s0,.029,0,.079v.155c0,.05,0,.078,0,.078v1.184a5.251,5.251,0,0,0,.921,3.336,2.559,2.559,0,0,0,.394.379" transform="translate(-370.234 -141.152)" stroke="rgba(0,0,0,0)" stroke-width="1" fill="url(#linear-gradient)"/>
    </clipPath>
  </defs>
  <g id="Group_122" data-name="Group 122">
    <g id="Group_5" data-name="Group 5" transform="translate(35.394 6.775)">
      <g id="Group_4" data-name="Group 4" clip-path="url(#clip-path)">
        <g id="Group_3" data-name="Group 3" transform="translate(0 0)">
          <g id="Group_2" data-name="Group 2" clip-path="url(#clip-path-2)">
            <rect id="Rectangle_13" data-name="Rectangle 13" width="8.525" height="7.807" transform="translate(-0.236 -0.133)" stroke="rgba(0,0,0,0)" stroke-width="1" fill="url(#linear-gradient)"/>
          </g>
        </g>
      </g>
    </g>
    <g id="Group_9" data-name="Group 9">
      <g id="Group_8" data-name="Group 8" clip-path="url(#clip-path-3)">
        <g id="Group_7" data-name="Group 7" transform="translate(-0.007 -0.002)">
          <g id="Group_6" data-name="Group 6" clip-path="url(#clip-path-4)">
            <rect id="Rectangle_15" data-name="Rectangle 15" width="45.246" height="45.622" transform="translate(-0.144 -0.107)" stroke="rgba(0,0,0,0)" stroke-width="1" fill="url(#linear-gradient)"/>
          </g>
        </g>
      </g>
    </g>
    <g id="Group_13" data-name="Group 13" transform="translate(36.423 7.186)">
      <g id="Group_12" data-name="Group 12" clip-path="url(#clip-path-5)">
        <rect id="Rectangle_18" data-name="Rectangle 18" width="1.852" height="1.504" transform="translate(-0.204 -0.117)" stroke="rgba(0,0,0,0)" stroke-width="1" fill="url(#linear-gradient)"/>
      </g>
    </g>
    <path id="Exclusion_1" data-name="Exclusion 1" d="M23.472,44.176H22.017a24.034,24.034,0,0,1-8.337-1.5,20.578,20.578,0,0,1-7.354-4.639A20.988,20.988,0,0,1,1.581,30.8a22.984,22.984,0,0,1,0-16.756A20.977,20.977,0,0,1,6.325,6.816,24.087,24.087,0,0,1,22.4,0a20.18,20.18,0,0,1,8.074,1.8,25,25,0,0,1,7.141,4.829A4.933,4.933,0,0,0,35.6,8.035c-.061.048-.38.514-.552.765-.063.091-.107.156-.115.167-.055.068-.505,1.362-.524,1.436-.024.1-.091.826-.094.878-.015.186-.033.463-.033.629v1.966l2.4.09h.153c.239,0,.675.007,1.03.007.278,0,.451,0,.513-.009a17.272,17.272,0,0,0,2.487-.5l.9-.353.9-.506.017.027.051.082a5.658,5.658,0,0,1,.336.821v3.428a8.6,8.6,0,0,0-1.38,4.422,1.1,1.1,0,0,1-.2.391.972.972,0,0,0-.194.4V22.5l.391,3.4c0,.051,0,.154,0,.282,0,.379-.011,1.009,0,1.157.014.213.025.428.037.654a9.217,9.217,0,0,0,.617,3.541,21.608,21.608,0,0,1-4.668,6.495,21.589,21.589,0,0,1-6.609,4.639A18.686,18.686,0,0,1,23.472,44.176Zm-16.3-28.85C5.726,15.326,4,15.9,4,18.62v8.861a7.315,7.315,0,0,0,1.643,5.191,6.518,6.518,0,0,0,4.928,1.73,9.43,9.43,0,0,0,3.012-.559A8.078,8.078,0,0,0,16.159,32.5a2.211,2.211,0,0,0,.541.9,3.268,3.268,0,0,0,2.479.9c.016,0,1.592,0,1.611-.012,0,0-.03,0-.223-.005V20.524a5.332,5.332,0,0,1,3.786-1.888,3.759,3.759,0,0,1,3.022,1.1,5.415,5.415,0,0,1,.926,3.5v1.257c0,.05,0,.079,0,.079v9.71h0v.009l.006-.01,1.226.017C30.98,34.3,32.7,33.726,32.7,31V22.57a7.706,7.706,0,0,0-1.947-5.584,7.1,7.1,0,0,0-5.311-2,6.627,6.627,0,0,0-5.3,2.1c0-.018-.384-1.747-1.922-1.747H16.163l0,12.862a3.947,3.947,0,0,1-1.71,1.783,5.35,5.35,0,0,1-2.783.77,3.146,3.146,0,0,1-2.445-.9,3.931,3.931,0,0,1-.815-2.7V25.115c0-.038,0-.062,0-.062v-9.71h0v-.008l-.007.008Zm29.739,0a1.8,1.8,0,0,0-1.923,1.781V34.28l1.386.017c1.447,0,3.172-.572,3.172-3.294V15.326H36.912Z" transform="translate(0.825 0.37)" fill="url(#linear-gradient)"/>
    <g id="Group_19" data-name="Group 19" transform="translate(41.691 13.582)">
      <g id="Group_18" data-name="Group 18" clip-path="url(#clip-path-6)">
        <rect id="Rectangle_21" data-name="Rectangle 21" width="0.951" height="0.515" transform="translate(-0.144 -0.089)" stroke="rgba(0,0,0,0)" stroke-width="1" fill="url(#linear-gradient)"/>
      </g>
    </g>
    <g id="Group_21" data-name="Group 21" transform="translate(38.304 14.208)">
      <g id="Group_20" data-name="Group 20" clip-path="url(#clip-path-7)">
        <rect id="Rectangle_22" data-name="Rectangle 22" width="0.459" height="0.273" transform="translate(-0.2 -0.146)" stroke="rgba(0,0,0,0)" stroke-width="1" fill="url(#linear-gradient)"/>
      </g>
    </g>
    <g id="Group_23" data-name="Group 23" transform="translate(38.304 14.207)">
      <g id="Group_22" data-name="Group 22" clip-path="url(#clip-path-8)">
        <rect id="Rectangle_23" data-name="Rectangle 23" width="0.623" height="0.265" transform="translate(-0.2 -0.145)" stroke="rgba(0,0,0,0)" stroke-width="1" fill="url(#linear-gradient)"/>
      </g>
    </g>
    <g id="Group_25" data-name="Group 25" transform="translate(40.044 14.098)">
      <g id="Group_24" data-name="Group 24" clip-path="url(#clip-path-9)">
        <rect id="Rectangle_24" data-name="Rectangle 24" width="0.5" height="0.248" transform="translate(-0.096 -0.116)" stroke="rgba(0,0,0,0)" stroke-width="1" fill="url(#linear-gradient)"/>
      </g>
    </g>
    <g id="Group_27" data-name="Group 27" transform="translate(38.692 14.205)">
      <g id="Group_26" data-name="Group 26" clip-path="url(#clip-path-10)">
        <rect id="Rectangle_25" data-name="Rectangle 25" width="0.254" height="0.252" transform="translate(-0.138 -0.143)" stroke="rgba(0,0,0,0)" stroke-width="1" fill="url(#linear-gradient)"/>
      </g>
    </g>
    <g id="Group_29" data-name="Group 29" transform="translate(38.716 14.201)">
      <g id="Group_28" data-name="Group 28" clip-path="url(#clip-path-11)">
        <rect id="Rectangle_26" data-name="Rectangle 26" width="0.5" height="0.248" transform="translate(-0.162 -0.138)" stroke="rgba(0,0,0,0)" stroke-width="1" fill="url(#linear-gradient)"/>
      </g>
    </g>
    <g id="Group_31" data-name="Group 31" transform="translate(39.7 14.143)">
      <g id="Group_30" data-name="Group 30" clip-path="url(#clip-path-12)">
        <rect id="Rectangle_27" data-name="Rectangle 27" width="0.541" height="0.358" transform="translate(-0.203 -0.162)" stroke="rgba(0,0,0,0)" stroke-width="1" fill="url(#linear-gradient)"/>
      </g>
    </g>
    <g id="Group_33" data-name="Group 33" transform="translate(39.331 14.136)">
      <g id="Group_32" data-name="Group 32" clip-path="url(#clip-path-13)">
        <rect id="Rectangle_28" data-name="Rectangle 28" width="0.951" height="0.343" transform="translate(-0.162 -0.155)" stroke="rgba(0,0,0,0)" stroke-width="1" fill="url(#linear-gradient)"/>
      </g>
    </g>
    <g id="Group_37" data-name="Group 37" transform="translate(40.378 13.91)">
      <g id="Group_36" data-name="Group 36" clip-path="url(#clip-path-14)">
        <g id="Group_35" data-name="Group 35" transform="translate(0 0)">
          <g id="Group_34" data-name="Group 34" clip-path="url(#clip-path-15)">
            <rect id="Rectangle_29" data-name="Rectangle 29" width="1.639" height="0.569" transform="translate(-0.205 -0.157)" stroke="rgba(0,0,0,0)" stroke-width="1" fill="url(#linear-gradient)"/>
          </g>
        </g>
      </g>
    </g>
    <g id="Group_39" data-name="Group 39" transform="translate(39.014 14.186)">
      <g id="Group_38" data-name="Group 38" clip-path="url(#clip-path-16)">
        <rect id="Rectangle_31" data-name="Rectangle 31" width="0.541" height="0.268" transform="translate(-0.172 -0.124)" stroke="rgba(0,0,0,0)" stroke-width="1" fill="url(#linear-gradient)"/>
      </g>
    </g>
    <g id="Group_41" data-name="Group 41" transform="translate(36.463 8.232)">
      <g id="Group_40" data-name="Group 40" clip-path="url(#clip-path-17)">
        <rect id="Rectangle_32" data-name="Rectangle 32" width="0.377" height="0.374" transform="translate(-0.163 -0.106)" stroke="rgba(0,0,0,0)" stroke-width="1" fill="url(#linear-gradient)"/>
      </g>
    </g>
    <g id="Group_45" data-name="Group 45" transform="translate(38.014 7.085)">
      <g id="Group_44" data-name="Group 44" clip-path="url(#clip-path-18)">
        <g id="Group_43" data-name="Group 43" transform="translate(0 0)">
          <g id="Group_42" data-name="Group 42" clip-path="url(#clip-path-19)">
            <rect id="Rectangle_33" data-name="Rectangle 33" width="0.656" height="0.407" transform="translate(-0.191 -0.161)" stroke="rgba(0,0,0,0)" stroke-width="1" fill="url(#linear-gradient)"/>
          </g>
        </g>
      </g>
    </g>
    <g id="Group_49" data-name="Group 49" transform="translate(38.47 6.912)">
      <g id="Group_48" data-name="Group 48" clip-path="url(#clip-path-20)">
        <g id="Group_47" data-name="Group 47" transform="translate(0 0)">
          <g id="Group_46" data-name="Group 46" clip-path="url(#clip-path-21)">
            <rect id="Rectangle_35" data-name="Rectangle 35" width="0.656" height="0.325" transform="translate(-0.246 -0.081)" stroke="rgba(0,0,0,0)" stroke-width="1" fill="url(#linear-gradient)"/>
          </g>
        </g>
      </g>
    </g>
    <g id="Group_51" data-name="Group 51" transform="translate(37.6 7.298)">
      <g id="Group_50" data-name="Group 50" clip-path="url(#clip-path-22)">
        <rect id="Rectangle_37" data-name="Rectangle 37" width="0.459" height="0.364" transform="translate(-0.152 -0.147)" stroke="rgba(0,0,0,0)" stroke-width="1" fill="url(#linear-gradient)"/>
      </g>
    </g>
    <g id="Group_53" data-name="Group 53" transform="translate(37.222 7.572)">
      <g id="Group_52" data-name="Group 52" clip-path="url(#clip-path-23)">
        <rect id="Rectangle_38" data-name="Rectangle 38" width="0.336" height="0.25" transform="translate(-0.143 -0.096)" stroke="rgba(0,0,0,0)" stroke-width="1" fill="url(#linear-gradient)"/>
      </g>
    </g>
    <g id="Group_57" data-name="Group 57" transform="translate(41.403 13.893)">
      <g id="Group_56" data-name="Group 56" clip-path="url(#clip-path-24)">
        <g id="Group_55" data-name="Group 55" transform="translate(0 0)">
          <g id="Group_54" data-name="Group 54" clip-path="url(#clip-path-25)">
            <rect id="Rectangle_39" data-name="Rectangle 39" width="0.656" height="0.325" transform="translate(-0.209 -0.111)" stroke="rgba(0,0,0,0)" stroke-width="1" fill="url(#linear-gradient)"/>
          </g>
        </g>
      </g>
    </g>
    <g id="Group_61" data-name="Group 61" transform="translate(41.439 13.833)">
      <g id="Group_60" data-name="Group 60" clip-path="url(#clip-path-26)">
        <g id="Group_59" data-name="Group 59" transform="translate(0 0)">
          <g id="Group_58" data-name="Group 58" clip-path="url(#clip-path-27)">
            <rect id="Rectangle_41" data-name="Rectangle 41" width="0.656" height="0.407" transform="translate(-0.176 -0.15)" stroke="rgba(0,0,0,0)" stroke-width="1" fill="url(#linear-gradient)"/>
          </g>
        </g>
      </g>
    </g>
    <g id="Group_65" data-name="Group 65" transform="translate(42.511 12.944)">
      <g id="Group_64" data-name="Group 64" clip-path="url(#clip-path-28)">
        <g id="Group_63" data-name="Group 63" transform="translate(0 0)">
          <g id="Group_62" data-name="Group 62" clip-path="url(#clip-path-29)">
            <rect id="Rectangle_43" data-name="Rectangle 43" width="1.311" height="0.976" transform="translate(-0.176 -0.156)" stroke="rgba(0,0,0,0)" stroke-width="1" fill="url(#linear-gradient)"/>
          </g>
        </g>
      </g>
    </g>
    <g id="Group_69" data-name="Group 69" transform="translate(42.511 13.408)">
      <g id="Group_68" data-name="Group 68" clip-path="url(#clip-path-30)">
        <g id="Group_67" data-name="Group 67" transform="translate(0 0)">
          <g id="Group_66" data-name="Group 66" clip-path="url(#clip-path-31)">
            <rect id="Rectangle_45" data-name="Rectangle 45" width="0.656" height="0.407" transform="translate(-0.195 -0.093)" stroke="rgba(0,0,0,0)" stroke-width="1" fill="url(#linear-gradient)"/>
          </g>
        </g>
      </g>
    </g>
    <g id="Group_71" data-name="Group 71" transform="translate(42.408 13.537)">
      <g id="Group_70" data-name="Group 70" clip-path="url(#clip-path-32)">
        <rect id="Rectangle_47" data-name="Rectangle 47" width="0.459" height="0.364" transform="translate(-0.206 -0.125)" stroke="rgba(0,0,0,0)" stroke-width="1" fill="url(#linear-gradient)"/>
      </g>
    </g>
    <g id="Group_73" data-name="Group 73" transform="translate(41.69 13.537)">
      <g id="Group_72" data-name="Group 72" clip-path="url(#clip-path-33)">
        <rect id="Rectangle_48" data-name="Rectangle 48" width="1.115" height="0.596" transform="translate(-0.144 -0.125)" stroke="rgba(0,0,0,0)" stroke-width="1" fill="url(#linear-gradient)"/>
      </g>
    </g>
    <g id="Group_77" data-name="Group 77" transform="translate(35.416 10.99)">
      <g id="Group_76" data-name="Group 76" clip-path="url(#clip-path-34)">
        <g id="Group_75" data-name="Group 75" transform="translate(0 0)">
          <g id="Group_74" data-name="Group 74" clip-path="url(#clip-path-35)">
            <rect id="Rectangle_49" data-name="Rectangle 49" width="0.656" height="0.488" transform="translate(-0.215 -0.143)" stroke="rgba(0,0,0,0)" stroke-width="1" fill="url(#linear-gradient)"/>
          </g>
        </g>
      </g>
    </g>
    <g id="Group_81" data-name="Group 81" transform="translate(39.02 6.775)">
      <g id="Group_80" data-name="Group 80" clip-path="url(#clip-path-36)">
        <g id="Group_79" data-name="Group 79" transform="translate(0 0)">
          <g id="Group_78" data-name="Group 78" clip-path="url(#clip-path-37)">
            <rect id="Rectangle_51" data-name="Rectangle 51" width="0.656" height="0.325" transform="translate(-0.198 -0.106)" stroke="rgba(0,0,0,0)" stroke-width="1" fill="url(#linear-gradient)"/>
          </g>
        </g>
      </g>
    </g>
    <g id="Group_85" data-name="Group 85" transform="translate(35.742 9.527)">
      <g id="Group_84" data-name="Group 84" clip-path="url(#clip-path-38)">
        <g id="Group_83" data-name="Group 83" transform="translate(0 0)">
          <g id="Group_82" data-name="Group 82" clip-path="url(#clip-path-39)">
            <rect id="Rectangle_53" data-name="Rectangle 53" width="0.656" height="0.407" transform="translate(-0.203 -0.108)" stroke="rgba(0,0,0,0)" stroke-width="1" fill="url(#linear-gradient)"/>
          </g>
        </g>
      </g>
    </g>
    <g id="Group_89" data-name="Group 89" transform="translate(35.583 9.977)">
      <g id="Group_88" data-name="Group 88" clip-path="url(#clip-path-40)">
        <g id="Group_87" data-name="Group 87" transform="translate(0 0)">
          <g id="Group_86" data-name="Group 86" clip-path="url(#clip-path-41)">
            <rect id="Rectangle_55" data-name="Rectangle 55" width="0.656" height="0.488" transform="translate(-0.207 -0.144)" stroke="rgba(0,0,0,0)" stroke-width="1" fill="url(#linear-gradient)"/>
          </g>
        </g>
      </g>
    </g>
    <g id="Group_91" data-name="Group 91" transform="translate(36.778 7.913)">
      <g id="Group_90" data-name="Group 90" clip-path="url(#clip-path-42)">
        <rect id="Rectangle_57" data-name="Rectangle 57" width="0.377" height="0.374" transform="translate(-0.15 -0.112)" stroke="rgba(0,0,0,0)" stroke-width="1" fill="url(#linear-gradient)"/>
      </g>
    </g>
    <g id="Group_95" data-name="Group 95" transform="translate(35.479 10.46)">
      <g id="Group_94" data-name="Group 94" clip-path="url(#clip-path-43)">
        <g id="Group_93" data-name="Group 93" transform="translate(0 0)">
          <g id="Group_92" data-name="Group 92" clip-path="url(#clip-path-44)">
            <rect id="Rectangle_58" data-name="Rectangle 58" width="0.656" height="0.488" transform="translate(-0.241 -0.128)" stroke="rgba(0,0,0,0)" stroke-width="1" fill="url(#linear-gradient)"/>
          </g>
        </g>
      </g>
    </g>
    <g id="Group_99" data-name="Group 99" transform="translate(35.965 8.999)">
      <g id="Group_98" data-name="Group 98" clip-path="url(#clip-path-45)">
        <g id="Group_97" data-name="Group 97" transform="translate(0 0)">
          <g id="Group_96" data-name="Group 96" clip-path="url(#clip-path-46)">
            <rect id="Rectangle_60" data-name="Rectangle 60" width="0.656" height="0.407" transform="translate(-0.22 -0.094)" stroke="rgba(0,0,0,0)" stroke-width="1" fill="url(#linear-gradient)"/>
          </g>
        </g>
      </g>
    </g>
    <g id="Group_103" data-name="Group 103" transform="translate(35.965 9.113)">
      <g id="Group_102" data-name="Group 102" clip-path="url(#clip-path-47)">
        <g id="Group_101" data-name="Group 101">
          <g id="Group_100" data-name="Group 100" clip-path="url(#clip-path-48)">
            <rect id="Rectangle_62" data-name="Rectangle 62" width="0.656" height="0.325" transform="translate(-0.237 -0.097)" stroke="rgba(0,0,0,0)" stroke-width="1" fill="url(#linear-gradient)"/>
          </g>
        </g>
      </g>
    </g>
    <g id="Group_105" data-name="Group 105" transform="translate(36.195 8.587)">
      <g id="Group_104" data-name="Group 104" clip-path="url(#clip-path-49)">
        <rect id="Rectangle_64" data-name="Rectangle 64" width="0.367" height="0.455" transform="translate(-0.14 -0.136)" stroke="rgba(0,0,0,0)" stroke-width="1" fill="url(#linear-gradient)"/>
      </g>
    </g>
    <path id="Path_39" data-name="Path 39" d="M512.332,197.292v4.114c0,.031,0,.062,0,.093v-4.3c0,.03,0,.062,0,.092Z" transform="translate(-450.411 -174.287)" stroke="rgba(0,0,0,0)" stroke-width="1" fill="url(#linear-gradient)"/>
    <path id="Path_40" data-name="Path 40" d="M311.9,73.127c-2.361,0-3.953,1.214-3.953,3.642v1.617l1.922,0c3.109,0,4.661-.837,4.661-2.931q0-2.329-2.631-2.33" transform="translate(-271.179 -65.363)" stroke="rgba(0,0,0,0)" stroke-width="1" fill="url(#linear-gradient)"/>
    <g id="Group_109" data-name="Group 109" transform="translate(37.432 8.421)">
      <g id="Group_108" data-name="Group 108" clip-path="url(#clip-path-50)">
        <rect id="Rectangle_66" data-name="Rectangle 66" width="6.156" height="4.886" transform="translate(-0.107 -0.132)" stroke="rgba(0,0,0,0)" stroke-width="1" fill="url(#linear-gradient)"/>
      </g>
    </g>
    <path id="Path_43" data-name="Path 43" d="M524.155,151.276a5.117,5.117,0,0,1-1.378.959,4.7,4.7,0,0,1-2.069.541,3.734,3.734,0,0,1-3.021-1.1,5.249,5.249,0,0,1-.922-3.336v-1.184s0-.029,0-.078v-.155c0-.05,0-.079,0-.079V145.66a5.249,5.249,0,0,1,.922-3.336,3.737,3.737,0,0,1,3.021-1.1,4.716,4.716,0,0,1,2.069.542,5.121,5.121,0,0,1,1.378.96v8.552m2.636-13.643h-2.636v1.3a8.133,8.133,0,0,0-9.85.639,7.312,7.312,0,0,0-1.92,4.828c-.015.151-.02.3-.023.451v4.3c0,.15.008.3.023.45a7.315,7.315,0,0,0,1.92,4.829,7.065,7.065,0,0,0,5.311,2,6.918,6.918,0,0,0,4.789-1.575,2.755,2.755,0,0,0,2.922,1.748l1.388-.017V139.413a1.791,1.791,0,0,0-1.922-1.78" transform="translate(-450.437 -121.937)" stroke="rgba(0,0,0,0)" stroke-width="1" fill="url(#linear-gradient)"/>
    <path id="Path_44" data-name="Path 44" d="M676.7,142.167c.016-.049.032-.1.046-.15a2.953,2.953,0,0,0,.073-.289v0a2.839,2.839,0,0,0,.051-.362,4.918,4.918,0,0,0,.028-.51l-.018-1.377h-13.4a1.8,1.8,0,0,0-1.794,1.908V144h8.38l-7.842,9.864a1.952,1.952,0,0,0-.529,1.426c0,.047-.008.09-.008.14v2.615h11.58c1.588,0,3.322-.583,3.322-3.147l-.018-1.376H668" transform="translate(-581.388 -123.611)" stroke="rgba(0,0,0,0)" stroke-width="1" fill="url(#linear-gradient)"/>
    <path id="Path_45" data-name="Path 45" d="M378.45,151.276a5.122,5.122,0,0,1-1.379.959,4.7,4.7,0,0,1-2.069.541,3.733,3.733,0,0,1-3.021-1.1,5.249,5.249,0,0,1-.921-3.336v-1.184s0-.029,0-.078v-.155c0-.05,0-.079,0-.079V145.66a5.25,5.25,0,0,1,.921-3.336,3.737,3.737,0,0,1,3.021-1.1,4.721,4.721,0,0,1,2.069.542,5.126,5.126,0,0,1,1.379.96v8.552m2.636-13.643H378.45v1.3a8.133,8.133,0,0,0-9.851.639,7.3,7.3,0,0,0-1.92,4.828,5.141,5.141,0,0,0-.027.543v4.114a5.116,5.116,0,0,0,.027.544,7.3,7.3,0,0,0,1.92,4.829,8.13,8.13,0,0,0,9.851.638v4.521a3.2,3.2,0,0,1-3.286,3.266h-6.334c0,2.606,1.506,3.71,3.3,3.71H376.7c4.55,0,6.311-4.073,6.311-6.532v-20.62a1.791,1.791,0,0,0-1.923-1.78" transform="translate(-322.659 -121.937)" stroke="rgba(0,0,0,0)" stroke-width="1" fill="url(#linear-gradient)"/>
    <g id="Group_113" data-name="Group 113" transform="translate(62.366 16.07)">
      <g id="Group_112" data-name="Group 112" clip-path="url(#clip-path-51)">
        <rect id="Rectangle_68" data-name="Rectangle 68" width="16.19" height="18.916" transform="translate(-0.164 -0.137)" stroke="rgba(0,0,0,0)" stroke-width="1" fill="url(#linear-gradient)"/>
      </g>
    </g>
    <g id="Group_117" data-name="Group 117" transform="translate(80.743 16.303)">
      <g id="Group_116" data-name="Group 116" clip-path="url(#clip-path-52)">
        <rect id="Rectangle_70" data-name="Rectangle 70" width="15.122" height="18.428" transform="translate(-0.261 -0.126)" stroke="rgba(0,0,0,0)" stroke-width="1" fill="url(#linear-gradient)"/>
      </g>
    </g>
    <g id="Group_121" data-name="Group 121" transform="translate(44.435 16.07)">
      <g id="Group_120" data-name="Group 120" clip-path="url(#clip-path-53)">
        <rect id="Rectangle_72" data-name="Rectangle 72" width="16.175" height="28.837" transform="translate(-0.183 -0.137)" stroke="rgba(0,0,0,0)" stroke-width="1" fill="url(#linear-gradient)"/>
      </g>
    </g>
  </g>
</svg>
