<svg xmlns="http://www.w3.org/2000/svg" xmlns:xlink="http://www.w3.org/1999/xlink" width="139.574" height="48.677" viewBox="0 0 139.574 48.677">
  <defs>
    <linearGradient id="linear-gradient" x1="0.5" y1="1" x2="0.5" gradientUnits="objectBoundingBox">
      <stop offset="0.02" stop-color="#812990"/>
      <stop offset="0.04" stop-color="#7a2990"/>
      <stop offset="0.17" stop-color="#5e2c91"/>
      <stop offset="0.28" stop-color="#4d2e91"/>
      <stop offset="0.36" stop-color="#472f92"/>
      <stop offset="0.86" stop-color="#108fcc"/>
      <stop offset="1" stop-color="#00adde"/>
    </linearGradient>
    <linearGradient id="linear-gradient-2" y2="0" xlink:href="#linear-gradient"/>
    <linearGradient id="linear-gradient-3" y2="0" xlink:href="#linear-gradient"/>
    <linearGradient id="linear-gradient-7" x1="0.5" y1="1" x2="0.5" gradientUnits="objectBoundingBox">
      <stop offset="0.02" stop-color="#812990"/>
      <stop offset="0.43" stop-color="#472f92"/>
      <stop offset="0.51" stop-color="#433495"/>
      <stop offset="0.62" stop-color="#3b439e"/>
      <stop offset="0.74" stop-color="#2c5dad"/>
      <stop offset="0.87" stop-color="#1880c3"/>
      <stop offset="1" stop-color="#00adde"/>
    </linearGradient>
    <linearGradient id="linear-gradient-8" x1="0.5" y1="1" x2="0.5" gradientUnits="objectBoundingBox">
      <stop offset="0.02" stop-color="#812990"/>
      <stop offset="0.06" stop-color="#7a2990"/>
      <stop offset="0.27" stop-color="#5e2c91"/>
      <stop offset="0.45" stop-color="#4d2e91"/>
      <stop offset="0.59" stop-color="#472f92"/>
      <stop offset="0.91" stop-color="#108fcc"/>
      <stop offset="1" stop-color="#00adde"/>
    </linearGradient>
    <linearGradient id="linear-gradient-9" y2="0" xlink:href="#linear-gradient"/>
    <linearGradient id="linear-gradient-10" x1="0.5" y1="1" x2="0.5" gradientUnits="objectBoundingBox">
      <stop offset="0.02" stop-color="#812990"/>
      <stop offset="0.09" stop-color="#7a2990"/>
      <stop offset="0.45" stop-color="#5e2c91"/>
      <stop offset="0.77" stop-color="#4d2e91"/>
      <stop offset="1" stop-color="#472f92"/>
    </linearGradient>
    <linearGradient id="linear-gradient-11" x1="0.5" y1="1" x2="0.5" gradientUnits="objectBoundingBox">
      <stop offset="0.02" stop-color="#812990"/>
      <stop offset="0.1" stop-color="#6e2a90"/>
      <stop offset="0.22" stop-color="#5c2c91"/>
      <stop offset="0.37" stop-color="#502e91"/>
      <stop offset="0.56" stop-color="#492e91"/>
      <stop offset="1" stop-color="#472f92"/>
    </linearGradient>
    <linearGradient id="linear-gradient-12" x1="0.5" y1="1" x2="0.5" y2="0" xlink:href="#linear-gradient-11"/>
    <linearGradient id="linear-gradient-13" x1="0.5" y1="1" x2="0.5" y2="0" xlink:href="#linear-gradient-11"/>
    <linearGradient id="linear-gradient-14" x1="0.5" y1="1" x2="0.5" y2="0" xlink:href="#linear-gradient-11"/>
    <linearGradient id="linear-gradient-15" x1="0.5" y1="1" x2="0.5" y2="0" xlink:href="#linear-gradient-11"/>
    <linearGradient id="linear-gradient-18" x1="0.5" y1="1" x2="0.5" y2="0" xlink:href="#linear-gradient-11"/>
  </defs>
  <g id="Asset_2" data-name="Asset 2" style="isolation: isolate">
    <g id="Layer_2" data-name="Layer 2" transform="translate(0 0)">
      <g id="Layer_1" data-name="Layer 1" transform="translate(0 0)">
        <g id="Group_3271" data-name="Group 3271">
          <circle id="Ellipse_59" data-name="Ellipse 59" cx="5.944" cy="5.944" r="5.944" transform="translate(2.508)" fill="url(#linear-gradient)"/>
          <path id="Path_658" data-name="Path 658" d="M140.979,16.777a5.509,5.509,0,1,1,5.509-5.509A5.515,5.515,0,0,1,140.979,16.777Z" transform="translate(-114.257 -4.858)" fill="url(#linear-gradient-2)"/>
          <path id="Path_659" data-name="Path 659" d="M22.193,31.8A5.938,5.938,0,0,1,16.31,25.01,5.945,5.945,0,1,0,27.777,27.9,5.946,5.946,0,0,1,22.193,31.8Z" transform="translate(-13.452 -21.094)" fill="url(#linear-gradient-3)" style="mix-blend-mode: multiply;isolation: isolate"/>
          <path id="Path_660" data-name="Path 660" d="M141.208,34.95a5.515,5.515,0,0,1-5.509-5.509,5.639,5.639,0,0,1,.05-.731,5.508,5.508,0,1,0,10.618,2.66,5.518,5.518,0,0,1-5.159,3.58Z" transform="translate(-114.198 -24.214)" fill="url(#linear-gradient)" style="mix-blend-mode: multiply;isolation: isolate"/>
          <path id="Path_661" data-name="Path 661" d="M50.708,129.247a11.258,11.258,0,0,1-3.168.454h0c-6.209,0-11.717-5.031-11.717-11.243V102.05a5.909,5.909,0,0,0-5.91-5.91h7.605a4.211,4.211,0,0,1,4.212,4.212V118.46c0,2.945,2.862,5.332,5.808,5.332h0a5.258,5.258,0,0,0,1.5-.215,2.883,2.883,0,0,1,.8-.114,2.959,2.959,0,0,1,.871,5.784Z" transform="translate(-25.227 -81.086)" fill="url(#linear-gradient)"/>
          <path id="Path_662" data-name="Path 662" d="M10.593,102.05H2.955a2.955,2.955,0,0,1,0-5.91h1.73a5.909,5.909,0,0,1,5.91,5.91Z" transform="translate(0 -81.086)" fill="url(#linear-gradient)"/>
          <path id="Path_663" data-name="Path 663" d="M33.146,102.05a5.909,5.909,0,0,0-5.91-5.91h-.5S32.249,96.924,33.146,102.05Z" transform="translate(-22.553 -81.086)" fill="url(#linear-gradient-7)" style="mix-blend-mode: multiply;isolation: isolate"/>
          <path id="Path_664" data-name="Path 664" d="M134.166,96.1H128.9a3.781,3.781,0,0,0-3.777,3.777v18.108a2.519,2.519,0,1,0,5.039,0V101.277c0-.039,0-.078,0-.117A5.2,5.2,0,0,1,134.166,96.1Z" transform="translate(-105.528 -81.052)" fill="url(#linear-gradient-8)"/>
          <path id="Path_665" data-name="Path 665" d="M167.123,96.838a2.5,2.5,0,0,0-1.782-.738H161.29a5.2,5.2,0,0,0-4.01,5.059c0,.039,0,.078,0,.117v-.138h8.058a2.519,2.519,0,0,0,1.78-4.3Z" transform="translate(-132.652 -81.052)" fill="url(#linear-gradient-9)"/>
          <path id="Path_666" data-name="Path 666" d="M157.277,101.159a5.2,5.2,0,0,1,4.01-5.059A7.179,7.179,0,0,0,157.277,101.159Z" transform="translate(-132.65 -81.052)" fill="url(#linear-gradient-10)" style="mix-blend-mode: multiply;isolation: isolate"/>
          <g id="Group_3269" data-name="Group 3269" transform="translate(82.841 20.114)">
            <path id="Path_667" data-name="Path 667" d="M549.387,253.58a2.094,2.094,0,0,0-2.717,1.181,5.494,5.494,0,0,1-10.222,0,2.095,2.095,0,0,0-3.9,1.536,9.684,9.684,0,0,0,18.017,0A2.094,2.094,0,0,0,549.387,253.58Z" transform="translate(-531.879 -233.863)" fill="url(#linear-gradient-11)"/>
            <path id="Path_668" data-name="Path 668" d="M538.728,147.813a9.673,9.673,0,0,0,8.161-14.877l.908-.91a2.095,2.095,0,1,0-2.966-2.959l-.9.907a9.678,9.678,0,1,0-5.2,17.84Zm0-15.172a5.491,5.491,0,1,1-5.491,5.491,5.5,5.5,0,0,1,5.491-5.491Z" transform="translate(-529.05 -128.451)" fill="url(#linear-gradient-12)"/>
          </g>
          <path id="Path_669" data-name="Path 669" d="M206.2,148.037a9.624,9.624,0,1,1,9.624-9.624A9.634,9.634,0,0,1,206.2,148.037Zm0-15.082a5.459,5.459,0,1,0,5.459,5.459A5.465,5.465,0,0,0,206.2,132.955Z" transform="translate(-165.798 -108.623)" fill="url(#linear-gradient-13)"/>
          <path id="Path_670" data-name="Path 670" d="M825.135,107.5a5.557,5.557,0,0,1-5.551-5.551V96.715h3.5a2.117,2.117,0,1,0,0-4.234h-3.5V87.787a2.117,2.117,0,0,0-4.234,0v14.165a9.8,9.8,0,0,0,9.785,9.785,2.117,2.117,0,1,0,0-4.234Z" transform="translate(-687.678 -72.255)" fill="url(#linear-gradient-14)"/>
          <path id="Path_671" data-name="Path 671" d="M682.023,92.748a9.615,9.615,0,0,0-5.482,1.711V88.13a2.09,2.09,0,1,0-4.181,0v21.853a2.09,2.09,0,1,0,4.181,0v-7.572a5.482,5.482,0,1,1,10.964,0v7.572a2.09,2.09,0,0,0,4.181,0v-7.572A9.673,9.673,0,0,0,682.023,92.748Z" transform="translate(-567.078 -72.567)" fill="url(#linear-gradient-15)"/>
          <g id="Group_3270" data-name="Group 3270" transform="translate(75.651 15.032)">
            <path id="Path_672" data-name="Path 672" d="M485.227,147.764a2.1,2.1,0,0,1-2.1-2.1v-15.19a2.1,2.1,0,1,1,4.193,0v15.19A2.1,2.1,0,0,1,485.227,147.764Z" transform="translate(-483.13 -123.31)" fill="url(#linear-gradient-13)"/>
            <path id="Path_673" data-name="Path 673" d="M487.529,98.05A2.05,2.05,0,1,1,485.48,96,2.05,2.05,0,0,1,487.529,98.05Z" transform="translate(-483.383 -96)" fill="url(#linear-gradient-13)"/>
          </g>
          <path id="Path_674" data-name="Path 674" d="M348.884,128.64a9.648,9.648,0,0,0-5.537,1.741,2.1,2.1,0,0,0-4.167.359v15.2a2.1,2.1,0,1,0,4.2,0v-7.6a5.5,5.5,0,1,1,11.008,0v7.6a2.1,2.1,0,0,0,4.2,0v-7.6a9.713,9.713,0,0,0-9.7-9.7Z" transform="translate(-286.069 -108.497)" fill="url(#linear-gradient-18)"/>
        </g>
      </g>
    </g>
  </g>
</svg>
