<svg id="Group_22182" data-name="Group 22182" xmlns="http://www.w3.org/2000/svg" xmlns:xlink="http://www.w3.org/1999/xlink" width="110.907" height="28.309" viewBox="0 0 110.907 28.309">
  <defs>
    <clipPath id="clip-path">
      <rect id="Rectangle_77" data-name="Rectangle 77" width="110.907" height="28.309" fill="none"/>
    </clipPath>
  </defs>
  <path id="Path_32" data-name="Path 32" d="M0,0V4.93H7.454V28.309h5.57V4.93h7.454V0Z" fill="#040506"/>
  <g id="Group_156" data-name="Group 156">
    <g id="Group_155" data-name="Group 155" clip-path="url(#clip-path)">
      <path id="Path_33" data-name="Path 33" d="M340.541,0H295.158V17.335L283.856,0h-4.969V28.309h5.57V10.934l11.3,17.375h44.783ZM315.363,20.761a5.065,5.065,0,0,1-2,4.172,9.422,9.422,0,0,1-10.456,0,5.063,5.063,0,0,1-2-4.172V7.752a5.062,5.062,0,0,1,2-4.171,9.422,9.422,0,0,1,10.456,0,5.064,5.064,0,0,1,2,4.171ZM335.076,5.743h-9.848v5.925a3.936,3.936,0,0,1,1.679-1.226,6.462,6.462,0,0,1,2.614-.511,5.666,5.666,0,0,1,3.953,1.311,4.487,4.487,0,0,1,1.445,3.49v5.993a5.186,5.186,0,0,1-1.892,4.239,9.522,9.522,0,0,1-10.413,0,5.185,5.185,0,0,1-1.892-4.239v-.715l4.336-.34v.783a2.357,2.357,0,0,0,2.678,2.656,3.023,3.023,0,0,0,1.976-.579,2.121,2.121,0,0,0,.7-1.737V15.278a1.9,1.9,0,0,0-.638-1.549,2.652,2.652,0,0,0-1.743-.528,3.128,3.128,0,0,0-2.019.63,2.085,2.085,0,0,0-.786,1.72v.409h-4.335V2.338h14.183Z" transform="translate(-229.635)" fill="#040506"/>
      <path id="Path_34" data-name="Path 34" d="M433.83,31.448a3.561,3.561,0,0,0-4,0,2.15,2.15,0,0,0-.723,1.737V46.193a2.15,2.15,0,0,0,.723,1.737,3.561,3.561,0,0,0,4,0,2.153,2.153,0,0,0,.723-1.737V33.185a2.153,2.153,0,0,0-.723-1.737" transform="translate(-353.33 -25.432)" fill="#040506"/>
      <path id="Path_35" data-name="Path 35" d="M164.388,4.931V0H146.449V28.276h.045v.034h17.894v-4.93h-12.97V16.6h12.97v-4.93h-12.97V4.931Z" transform="translate(-120.585 -0.001)" fill="#040506"/>
    </g>
  </g>
</svg>
