<svg xmlns="http://www.w3.org/2000/svg" width="131.206" height="38.098" viewBox="0 0 131.206 38.098">
  <g id="Group_22181" data-name="Group 22181" transform="translate(1)" style="mix-blend-mode: luminosity;isolation: isolate">
    <path id="Path_1" data-name="Path 1" d="M330.031,424.252h-4.742l-7.752,16.481V424.252h-4.332V457.4h4.332v-8.741l3.289-6.427,5.329,15.168h4.925L323.3,437.4Z" transform="translate(-279.244 -419.306)" fill="#050608"/>
    <path id="Path_2" data-name="Path 2" d="M464.966,424.252H462.71V457.4h14.227v-4.1h-9.9V442.993H475.8v-4.1h-8.756V428.356h9.9v-4.1h-11.97Z" transform="translate(-408.027 -419.306)" fill="#050608"/>
    <path id="Path_3" data-name="Path 3" d="M607.918,447.695l-8.367-23.441h-3.785v33.128h4.126v-22.7l8.322,22.7h3.831V424.253h-4.127Z" transform="translate(-522.643 -419.307)" fill="#050608"/>
    <path id="Path_4" data-name="Path 4" d="M762.106,427.945v-3.694H748.974v4.1h8.618l-9.029,25.354V457.4h13.77v-4.1h-9.142Z" transform="translate(-654.263 -419.305)" fill="#050608"/>
    <path id="Path_5" data-name="Path 5" d="M883.093,457.4h4.651l-7.661-33.151h-3.967L868.455,457.4h4.651l1.369-7.227h7.249Zm-7.844-11.309,2.851-15.048,2.851,15.048Z" transform="translate(-757.538 -419.306)" fill="#050608"/>
    <text id="my" transform="translate(0 21)" fill="#5b5b55" font-size="29" font-family="Hesterica"><tspan x="0" y="0">my</tspan></text>
  </g>
</svg>
