<svg id="Group_22182" data-name="Group 22182" xmlns="http://www.w3.org/2000/svg" width="129.511" height="42.197" viewBox="0 0 129.511 42.197">
  <path id="Vector" d="M21.084,13.5a5.251,5.251,0,0,1-1.14,3.382,3.752,3.752,0,0,1-3.079,1.6H0V0H16.866a3.744,3.744,0,0,1,3.079,1.6,5.233,5.233,0,0,1,1.14,3.379,4.935,4.935,0,0,1-2.018,4.263,4.931,4.931,0,0,1,2.016,4.26ZM14.056,5.687a1.244,1.244,0,0,0-1.4-1.416H7.027v2.84h5.624a1.252,1.252,0,0,0,1.4-1.424Zm0,7.11a1.249,1.249,0,0,0-1.4-1.421H7.027v2.848h5.624A1.254,1.254,0,0,0,14.056,12.8Z" transform="translate(0 0)" fill="#43caf4"/>
  <path id="Vector-2" data-name="Vector" d="M19.682,18.487H0V0H19.682V4.263H7.031V7.111h9.843v4.265H7.031v2.848H19.682Z" transform="translate(23.194 0)" fill="#43caf4"/>
  <path id="Vector-3" data-name="Vector" d="M11.376,18.487H0V0H7.023V14.8c0,1.6,1.34,2.2,4.354,2.265Z" transform="translate(44.898 0)" fill="#43caf4"/>
  <path id="Vector-4" data-name="Vector" d="M25.791,18.489H19.68a6.9,6.9,0,0,1-5.623-2.353L10.977,12.8H9.134a1.959,1.959,0,0,0-2.1,1.876v.349c0,.771.562,1.33,1.687,1.687a7.235,7.235,0,0,0,2.577.359v1.421H0V0H16.868a5,5,0,0,1,4.04,1.927A6.875,6.875,0,0,1,22.492,6.4a6.928,6.928,0,0,1-1.125,3.867,5.381,5.381,0,0,1-3.046,2.312l2.452,2.666a6.576,6.576,0,0,0,4.968,1.823ZM14.764,6.4a2.076,2.076,0,0,0-.615-1.507,2.044,2.044,0,0,0-1.5-.628H7.029V8.529h5.618a2.03,2.03,0,0,0,1.5-.62A2.068,2.068,0,0,0,14.764,6.4Z" transform="translate(55.796 0)" fill="#43caf4"/>
  <path id="Vector-5" data-name="Vector" d="M26.751,1.421a7.023,7.023,0,0,0-2.572.362c-1.126.349-1.692.921-1.692,1.689v7.9c0,2.344-1.379,4.184-4.121,5.511a16.061,16.061,0,0,1-7.122,1.6,16.222,16.222,0,0,1-7.154-1.6Q0,14.843,0,11.374V0H7.026V11.374a2.426,2.426,0,0,0,1.5,2.177,5.577,5.577,0,0,0,2.723.673,5.592,5.592,0,0,0,2.724-.673,2.424,2.424,0,0,0,1.494-2.177V0H26.751Z" transform="translate(80.177 0)" fill="#43caf4"/>
  <path id="Vector-6" data-name="Vector" d="M21.087,4.263H13.964v10.53c0,1.475,1.246,2.211,4.265,2.275v1.421H6.939V4.263H0V0H21.087V4.263Z" transform="translate(105.17 0)" fill="#43caf4"/>
  <path id="Vector-7" data-name="Vector" d="M21.2,19.913H0V0H12.165V1.528A7.736,7.736,0,0,0,9.39,1.91C8.176,2.3,7.572,2.9,7.572,3.728V15.315H21.2v4.6Z" transform="translate(0.06 22.284)" fill="#43caf4"/>
  <path id="Vector-8" data-name="Vector" d="M12.265,19.913H0V0H7.577V15.943c0,1.567,1.433,2.379,4.688,2.435Z" transform="translate(23.013 22.284)" fill="#43caf4"/>
  <path id="Vector-9" data-name="Vector" d="M27.924,0,17.794,19.911H13.152c-2.431,0-4.267-1.741-5.485-4.12L0,0H5.119A11.386,11.386,0,0,1,7.677.327a4.058,4.058,0,0,1,2.982,2.2l5,10.394L22.23,0Z" transform="translate(32.729 22.284)" fill="#43caf4"/>
  <path id="Vector-10" data-name="Vector" d="M12.259,19.913H0V0H7.574V15.943c0,1.628,1.433,2.379,4.685,2.435Z" transform="translate(62.407 22.284)" fill="#43caf4"/>
  <path id="Vector-11" data-name="Vector" d="M28.73,1.53c-2.651-.034-4.5.655-4.5,1.964V19.913H19.692A8.384,8.384,0,0,1,14.3,17.375L4.542,6.366V19.913H0V0H8.372L19.693,12.851V0h9.039V1.53Z" transform="translate(73.709 22.284)" fill="#43caf4"/>
  <path id="Vector-12" data-name="Vector" d="M28.494,19.911h-8.8l-.282-1.533a16.738,16.738,0,0,1-7.289,1.533,17.621,17.621,0,0,1-7.715-1.725Q0,15.987,0,12.254v-4.6Q0,3.927,4.408,1.722A17.547,17.547,0,0,1,12.122,0a17.226,17.226,0,0,1,6.909,1.386Q23.006,3.068,24,6.123H16.1a5,5,0,0,0-3.975-1.53,6.049,6.049,0,0,0-2.935.723A2.606,2.606,0,0,0,7.575,7.654v4.6A2.613,2.613,0,0,0,9.188,14.6a6.049,6.049,0,0,0,2.935.716A6.084,6.084,0,0,0,15.06,14.6a2.61,2.61,0,0,0,1.6-2.345H10.608V8.661H24.24v7.521c0,.828.6,1.437,1.8,1.815a5.928,5.928,0,0,0,2.458.381v1.533Z" transform="translate(101.015 22.286)" fill="#43caf4"/>
</svg>
