<svg id="Group_22182" data-name="Group 22182" xmlns="http://www.w3.org/2000/svg" xmlns:xlink="http://www.w3.org/1999/xlink" width="123.39" height="66.598" viewBox="0 0 123.39 66.598">
  <defs>
    <clipPath id="clip-path">
      <rect id="Rectangle_29" data-name="Rectangle 29" width="123.39" height="66.598" fill="none"/>
    </clipPath>
  </defs>
  <path id="Path_1" data-name="Path 1" d="M137.183,14.456h25.96l-3.1-6.66Z" transform="translate(-88.468 -5.028)" fill="#d1d7db"/>
  <path id="Path_2" data-name="Path 2" d="M127.44,43.086l33.372.125-2.967-6.724Z" transform="translate(-82.185 -23.53)" fill="#d1d7db"/>
  <path id="Path_3" data-name="Path 3" d="M114.807,72.348h41.852l-2.949-6.742Z" transform="translate(-74.038 -42.309)" fill="#d1d7db"/>
  <path id="Path_4" data-name="Path 4" d="M103.56,101.5H153.4l-2.935-6.754Z" transform="translate(-66.785 -61.099)" fill="#d1d7db"/>
  <path id="Path_5" data-name="Path 5" d="M173.735,0V6.134l12.98,3.3-2.621-6.8Z" transform="translate(-112.04 0)" fill="#00637b"/>
  <path id="Path_6" data-name="Path 6" d="M173.735,26.045v6.134l16.933,4.3-2.621-6.8Z" transform="translate(-112.041 -16.796)" fill="#00637b"/>
  <path id="Path_7" data-name="Path 7" d="M173.735,52.36v6.134l20.926,5.312-2.621-6.8Z" transform="translate(-112.041 -33.767)" fill="#00637b"/>
  <path id="Path_8" data-name="Path 8" d="M173.735,78.676V84.81l24.92,6.326-2.621-6.8Z" transform="translate(-112.041 -50.737)" fill="#00637b"/>
  <path id="Path_9" data-name="Path 9" d="M150.163,0l-12.98,9.429,12.98-3.3Z" transform="translate(-88.468 0)" fill="#2495a5"/>
  <path id="Path_10" data-name="Path 10" d="M142.985,26.045v6.134l-16.933,4.3Z" transform="translate(-81.29 -16.796)" fill="#2495a5"/>
  <path id="Path_11" data-name="Path 11" d="M135.733,52.36v6.134l-20.926,5.312Z" transform="translate(-74.038 -33.767)" fill="#2495a5"/>
  <path id="Path_12" data-name="Path 12" d="M128.48,78.676V84.81l-24.92,6.326Z" transform="translate(-66.785 -50.737)" fill="#2495a5"/>
  <g id="Group_2" data-name="Group 2">
    <g id="Group_1" data-name="Group 1" clip-path="url(#clip-path)">
      <path id="Path_13" data-name="Path 13" d="M3.544,143.174H2.564l-.954-2.848H.881v2.848H0v-6.537H1.772a1.764,1.764,0,0,1,1.224.42,1.774,1.774,0,0,1,.531,1.392,1.653,1.653,0,0,1-.99,1.718Zm-.927-4.7q0-.953-.918-.953H.881v1.924H1.7q.917,0,.918-.971" transform="translate(0.001 -88.116)" fill="#00637b"/>
      <path id="Path_14" data-name="Path 14" d="M16,143.174H12.921v-6.537h2.961v.887H13.8v1.746h1.359v.878H13.8v2.138H16Z" transform="translate(-8.333 -88.116)" fill="#00637b"/>
      <path id="Path_15" data-name="Path 15" d="M27.052,143.174h-.963l-.369-1.728H24.353l-.36,1.728h-.936l1.548-6.537h.909Zm-1.512-2.6-.234-1.1q-.045-.2-.27-1.429-.09.5-.27,1.429l-.234,1.1Z" transform="translate(-14.869 -88.116)" fill="#00637b"/>
      <path id="Path_16" data-name="Path 16" d="M39.61,143.174h-2.9v-6.537H37.6v5.641H39.61Z" transform="translate(-23.676 -88.116)" fill="#00637b"/>
      <path id="Path_17" data-name="Path 17" d="M55.955,143.174H52.878v-6.537h2.961v.887H53.76v1.746h1.359v.878H53.76v2.138h2.2Z" transform="translate(-34.1 -88.116)" fill="#00637b"/>
      <path id="Path_18" data-name="Path 18" d="M66.472,141.291a1.85,1.85,0,0,1-.45,1.3,1.63,1.63,0,0,1-1.268.494,1.847,1.847,0,0,1-1.665-1.059l.693-.576a1.238,1.238,0,0,0,1.026.728q.755,0,.756-.831a1.073,1.073,0,0,0-.211-.663,3.843,3.843,0,0,0-.846-.714,3.735,3.735,0,0,1-.9-.789,1.942,1.942,0,0,1-.369-1.2,1.642,1.642,0,0,1,.432-1.181,1.529,1.529,0,0,1,1.161-.453,1.766,1.766,0,0,1,1.529.887l-.648.6a1.694,1.694,0,0,0-.428-.448.889.889,0,0,0-.481-.121q-.657,0-.657.69a.978.978,0,0,0,.194.615,3.138,3.138,0,0,0,.724.606,4.289,4.289,0,0,1,1,.849,2.008,2.008,0,0,1,.4,1.268" transform="translate(-40.686 -87.93)" fill="#00637b"/>
      <path id="Path_19" data-name="Path 19" d="M77.643,137.534H76.483v5.641H75.6v-5.641H74.44v-.9h3.2Z" transform="translate(-48.006 -88.116)" fill="#00637b"/>
      <path id="Path_20" data-name="Path 20" d="M88.925,143.174h-.963l-.369-1.728H86.226l-.36,1.728H84.93l1.548-6.537h.909Zm-1.512-2.6-.234-1.1q-.045-.2-.27-1.429-.09.5-.27,1.429l-.234,1.1Z" transform="translate(-54.771 -88.116)" fill="#00637b"/>
      <path id="Path_21" data-name="Path 21" d="M100.852,137.534H99.691v5.641H98.81v-5.641h-1.16v-.9h3.2Z" transform="translate(-62.973 -88.116)" fill="#00637b"/>
      <path id="Path_22" data-name="Path 22" d="M112.355,143.174h-3.077v-6.537h2.961v.887H110.16v1.746h1.359v.878H110.16v2.138h2.2Z" transform="translate(-70.473 -88.116)" fill="#00637b"/>
      <path id="Path_23" data-name="Path 23" d="M128.446,141.291a1.85,1.85,0,0,1-.45,1.3,1.63,1.63,0,0,1-1.268.494,1.847,1.847,0,0,1-1.665-1.059l.693-.576a1.238,1.238,0,0,0,1.026.728q.755,0,.756-.831a1.073,1.073,0,0,0-.211-.663,3.844,3.844,0,0,0-.846-.714,3.735,3.735,0,0,1-.9-.789,1.942,1.942,0,0,1-.369-1.2,1.642,1.642,0,0,1,.432-1.181,1.529,1.529,0,0,1,1.161-.453,1.766,1.766,0,0,1,1.529.887l-.648.6a1.694,1.694,0,0,0-.428-.448.889.889,0,0,0-.481-.121q-.657,0-.657.69a.978.978,0,0,0,.194.615,3.138,3.138,0,0,0,.724.606,4.289,4.289,0,0,1,1,.849,2.008,2.008,0,0,1,.4,1.268" transform="translate(-80.652 -87.93)" fill="#00637b"/>
      <path id="Path_24" data-name="Path 24" d="M140.176,136.637l-1.556,3.614v2.923h-.882v-2.895l-1.6-3.642h1l.558,1.364a12.259,12.259,0,0,1,.495,1.363,12.9,12.9,0,0,1,.486-1.373l.54-1.354Z" transform="translate(-87.793 -88.116)" fill="#00637b"/>
      <path id="Path_25" data-name="Path 25" d="M153.369,143.174h-.719l-1.521-3.5q-.18-.449-.441-1.074.018.486.018,1.307v3.269h-.864v-6.537h.882l1.359,3.11.441,1.074q-.018-.486-.018-1.308v-2.876h.864Z" transform="translate(-96.632 -88.116)" fill="#00637b"/>
      <path id="Path_26" data-name="Path 26" d="M166.849,139.878a4.807,4.807,0,0,1-.495,2.372,1.655,1.655,0,0,1-1.5.925h-1.53v-6.538h1.53a1.653,1.653,0,0,1,1.521.887,4.777,4.777,0,0,1,.477,2.353m-.909,0q0-2.344-1.116-2.344H164.2v4.744h.648q.585,0,.864-.766a4.917,4.917,0,0,0,.225-1.634" transform="translate(-105.325 -88.116)" fill="#00637b"/>
      <rect id="Rectangle_25" data-name="Rectangle 25" width="0.882" height="6.537" transform="translate(62.604 48.521)" fill="#00637b"/>
      <path id="Path_27" data-name="Path 27" d="M185.345,141.436q-.333,1.645-1.673,1.645a1.533,1.533,0,0,1-1.44-.979,5.615,5.615,0,0,1-.414-2.378,5.392,5.392,0,0,1,.441-2.4,1.544,1.544,0,0,1,1.439-.979q1.377,0,1.638,1.6l-.891.233a1.535,1.535,0,0,0-.252-.672.619.619,0,0,0-.522-.233q-.945,0-.945,2.433a5.393,5.393,0,0,0,.216,1.678q.261.773.792.774a.608.608,0,0,0,.495-.232,2.311,2.311,0,0,0,.3-.758Z" transform="translate(-117.253 -87.93)" fill="#00637b"/>
      <path id="Path_28" data-name="Path 28" d="M197.468,143.174h-.963l-.369-1.728h-1.368l-.36,1.728h-.936l1.548-6.537h.909Zm-1.512-2.6-.234-1.1q-.045-.2-.27-1.429-.09.5-.27,1.429l-.234,1.1Z" transform="translate(-124.769 -88.116)" fill="#00637b"/>
      <path id="Path_29" data-name="Path 29" d="M209.4,137.534h-1.161v5.641h-.882v-5.641h-1.161v-.9h3.2Z" transform="translate(-132.972 -88.116)" fill="#00637b"/>
      <path id="Path_30" data-name="Path 30" d="M220.9,143.174h-3.077v-6.537h2.96v.887H218.7v1.746h1.359v.878H218.7v2.138h2.2Z" transform="translate(-140.472 -88.116)" fill="#00637b"/>
      <path id="Path_31" data-name="Path 31" d="M237.844,139.705a5.256,5.256,0,0,1-.459,2.4,1.58,1.58,0,0,1-1.458.979,1.544,1.544,0,0,1-1.44-.97,5.278,5.278,0,0,1-.45-2.387,5.339,5.339,0,0,1,.45-2.4,1.562,1.562,0,0,1,1.448-.979,1.58,1.58,0,0,1,1.458.97,5.284,5.284,0,0,1,.45,2.387m-.9.023a5.3,5.3,0,0,0-.225-1.69q-.27-.775-.8-.775-.981,0-.98,2.447a5.3,5.3,0,0,0,.225,1.691q.261.775.792.775.99,0,.99-2.447" transform="translate(-150.929 -87.93)" fill="#00637b"/>
      <path id="Path_32" data-name="Path 32" d="M250.673,137.524H248.55v1.793h1.358v.878H248.55v2.979h-.882v-6.538h3.005Z" transform="translate(-159.719 -88.116)" fill="#00637b"/>
      <path id="Path_33" data-name="Path 33" d="M266.983,143.174h-2.9v-6.537h.882v5.641h2.015Z" transform="translate(-170.307 -88.116)" fill="#00637b"/>
      <path id="Path_34" data-name="Path 34" d="M277.755,143.174h-3.077v-6.537h2.96v.887H275.56v1.746h1.359v.878H275.56v2.138h2.2Z" transform="translate(-177.138 -88.116)" fill="#00637b"/>
      <path id="Path_35" data-name="Path 35" d="M289.389,141.2a2.06,2.06,0,0,1-.477,1.462,1.679,1.679,0,0,1-1.287.509h-1.674v-6.537h1.584a1.807,1.807,0,0,1,1.251.411,1.687,1.687,0,0,1,.495,1.317,1.707,1.707,0,0,1-.18.784,1.226,1.226,0,0,1-.558.57,1.182,1.182,0,0,1,.621.547,1.874,1.874,0,0,1,.225.939m-1.008-2.811q0-.868-.819-.869h-.738V139.3h.719a.825.825,0,0,0,.6-.229.906.906,0,0,0,.234-.677m.108,2.811q0-1.027-.963-1.027h-.7v2.11h.792q.872,0,.873-1.083" transform="translate(-184.408 -88.116)" fill="#00637b"/>
      <path id="Path_36" data-name="Path 36" d="M301.4,143.174h-.963l-.369-1.728H298.7l-.36,1.728H297.4l1.548-6.537h.909Zm-1.512-2.6-.234-1.1q-.045-.2-.27-1.429-.09.5-.27,1.429l-.234,1.1Z" transform="translate(-191.794 -88.116)" fill="#00637b"/>
      <path id="Path_37" data-name="Path 37" d="M314.588,143.174h-.72l-1.521-3.5q-.18-.449-.441-1.074.018.486.018,1.307v3.269h-.864v-6.537h.882l1.358,3.11.441,1.074q-.018-.486-.018-1.308v-2.876h.864Z" transform="translate(-200.601 -88.116)" fill="#00637b"/>
      <path id="Path_38" data-name="Path 38" d="M327.714,139.705a5.255,5.255,0,0,1-.459,2.4,1.58,1.58,0,0,1-1.458.979,1.544,1.544,0,0,1-1.44-.97,5.279,5.279,0,0,1-.45-2.387,5.339,5.339,0,0,1,.45-2.4,1.562,1.562,0,0,1,1.448-.979,1.579,1.579,0,0,1,1.458.97,5.284,5.284,0,0,1,.45,2.387m-.9.023a5.3,5.3,0,0,0-.225-1.69q-.27-.775-.8-.775-.981,0-.98,2.447a5.3,5.3,0,0,0,.225,1.691q.261.775.792.775.99,0,.989-2.447" transform="translate(-208.885 -87.93)" fill="#00637b"/>
      <path id="Path_39" data-name="Path 39" d="M341.065,143.174h-.72l-1.521-3.5q-.18-.449-.441-1.074.018.486.018,1.307v3.269h-.864v-6.537h.882l1.358,3.11.441,1.074q-.018-.486-.018-1.308v-2.876h.864Z" transform="translate(-217.675 -88.116)" fill="#00637b"/>
      <path id="Path_40" data-name="Path 40" d="M3.68,172.324a2.5,2.5,0,0,1-.127.86,1.341,1.341,0,0,1-.366.553,1.391,1.391,0,0,1-.584.3,3.155,3.155,0,0,1-.776.088,1.939,1.939,0,0,1-1.367-.429A1.646,1.646,0,0,1,0,172.428V171.4H.873v.994a.977.977,0,0,0,.231.7,1,1,0,0,0,.753.242,1.087,1.087,0,0,0,.726-.206.874.874,0,0,0,.237-.69v-1.76h.866Zm-2.29-2a.441.441,0,0,1,.141-.327.479.479,0,0,1,.672,0,.45.45,0,0,1,0,.654.479.479,0,0,1-.672,0,.441.441,0,0,1-.141-.327" transform="translate(0 -109.539)" fill="#607380"/>
      <path id="Path_41" data-name="Path 41" d="M14.238,170.414a.539.539,0,0,1-.064.308.232.232,0,0,1-.2.085h-.282a1.674,1.674,0,0,1-.42-.049.825.825,0,0,1-.329-.163.755.755,0,0,1-.215-.3,1.254,1.254,0,0,1-.077-.471v-3.684h.873V169.7c0,.153.028.25.084.291a.393.393,0,0,0,.238.062h.128a.5.5,0,0,1,.1.01.173.173,0,0,1,.084.046.24.24,0,0,1,.057.108.753.753,0,0,1,.02.2" transform="translate(-8.16 -107.139)" fill="#607380"/>
      <path id="Path_42" data-name="Path 42" d="M16.294,170.91a.547.547,0,0,0,.319-.069c.06-.046.091-.149.091-.311v-1.472h.873v1.4a.512.512,0,0,0,.094.347.576.576,0,0,0,.416.1.481.481,0,0,1,.1.01.171.171,0,0,1,.084.046.238.238,0,0,1,.057.108.753.753,0,0,1,.02.2.541.541,0,0,1-.064.308.233.233,0,0,1-.2.085,1.149,1.149,0,0,1-.376-.062.568.568,0,0,1-.3-.272.656.656,0,0,1-.195.18.909.909,0,0,1-.242.1,1.5,1.5,0,0,1-.265.042q-.138.01-.272.01h-.551a.482.482,0,0,1-.1-.01.167.167,0,0,1-.084-.045.24.24,0,0,1-.057-.108.753.753,0,0,1-.02-.2.538.538,0,0,1,.064-.308.232.232,0,0,1,.2-.085Zm.363-2.983a.441.441,0,0,1,.141-.327.479.479,0,0,1,.672,0,.45.45,0,0,1,0,.654.479.479,0,0,1-.672,0,.442.442,0,0,1-.141-.327" transform="translate(-10.074 -107.995)" fill="#607380"/>
      <path id="Path_43" data-name="Path 43" d="M22.5,173.809a.551.551,0,0,0,.319-.069q.091-.069.091-.311v-1.472h.873v1.4a.513.513,0,0,0,.094.347.576.576,0,0,0,.416.1.48.48,0,0,1,.1.01.165.165,0,0,1,.084.046.238.238,0,0,1,.057.108.752.752,0,0,1,.02.2.536.536,0,0,1-.064.308.232.232,0,0,1-.2.085,1.149,1.149,0,0,1-.376-.062.569.569,0,0,1-.3-.272.657.657,0,0,1-.195.18.911.911,0,0,1-.242.1,1.5,1.5,0,0,1-.265.042q-.138.01-.272.01h-.551a.478.478,0,0,1-.1-.01.165.165,0,0,1-.084-.046.236.236,0,0,1-.057-.108.757.757,0,0,1-.02-.2.536.536,0,0,1,.064-.307.232.232,0,0,1,.2-.085Zm.369,1.832a.44.44,0,0,1,.141-.327.479.479,0,0,1,.672,0,.45.45,0,0,1,0,.654.479.479,0,0,1-.672,0,.441.441,0,0,1-.141-.327" transform="translate(-14.075 -110.894)" fill="#607380"/>
      <path id="Path_44" data-name="Path 44" d="M29.062,170.054v-3.919h.873v4.671H28.29a.481.481,0,0,1-.1-.01.165.165,0,0,1-.084-.046.238.238,0,0,1-.057-.108.756.756,0,0,1-.02-.2.538.538,0,0,1,.064-.308.232.232,0,0,1,.2-.085Z" transform="translate(-18.075 -107.139)" fill="#607380"/>
      <path id="Path_45" data-name="Path 45" d="M44.29,177.235c.009.039.017.083.024.131a1.3,1.3,0,0,1,.01.17,1.147,1.147,0,0,1-.1.491.933.933,0,0,1-.366.386,2.181,2.181,0,0,1-.705.255,5.686,5.686,0,0,1-1.121.092,4.062,4.062,0,0,1-1.085-.121,1.8,1.8,0,0,1-.678-.334,1.15,1.15,0,0,1-.353-.5,1.84,1.84,0,0,1-.1-.618V176.1h.873v1.06a.67.67,0,0,0,.316.618,2.1,2.1,0,0,0,1.041.193,4.371,4.371,0,0,0,.755-.052,1.734,1.734,0,0,0,.444-.131.49.49,0,0,0,.208-.163.309.309,0,0,0,.05-.151.194.194,0,0,0-.091-.154,1.094,1.094,0,0,0-.259-.134,3.909,3.909,0,0,0-.4-.127q-.235-.062-.524-.134v-.778q.443.137.85.235a3.119,3.119,0,0,0,.722.1h.839a.5.5,0,0,1,.1.01.17.17,0,0,1,.084.046.237.237,0,0,1,.057.108.753.753,0,0,1,.02.2.541.541,0,0,1-.064.308.233.233,0,0,1-.2.085ZM41,179.7a.441.441,0,0,1,.141-.327.479.479,0,0,1,.672,0,.45.45,0,0,1,0,.654.479.479,0,0,1-.672,0A.441.441,0,0,1,41,179.7m1.095,0a.441.441,0,0,1,.141-.327.479.479,0,0,1,.672,0,.45.45,0,0,1,0,.654.479.479,0,0,1-.672,0,.441.441,0,0,1-.141-.327" transform="translate(-25.674 -113.567)" fill="#607380"/>
      <path id="Path_46" data-name="Path 46" d="M53.5,170.91a.85.85,0,0,1-.077-.265,2.073,2.073,0,0,1-.024-.3,1.456,1.456,0,0,1,.091-.5,1.361,1.361,0,0,1,.262-.442,1.288,1.288,0,0,1,.428-.311,1.388,1.388,0,0,1,.586-.118,1.331,1.331,0,0,1,.633.134,1.1,1.1,0,0,1,.391.34,1.324,1.324,0,0,1,.2.458,2.185,2.185,0,0,1,.057.488v1.269H52.914a.482.482,0,0,1-.1-.01.17.17,0,0,1-.084-.045.243.243,0,0,1-.057-.108.77.77,0,0,1-.02-.2.541.541,0,0,1,.064-.308.232.232,0,0,1,.2-.085Zm.745-.6a.579.579,0,0,0,.161.471.6.6,0,0,0,.39.131h.376v-.5a1.859,1.859,0,0,0-.016-.252.611.611,0,0,0-.067-.213.4.4,0,0,0-.138-.147.405.405,0,0,0-.221-.055.484.484,0,0,0-.232.049.437.437,0,0,0-.148.128.482.482,0,0,0-.081.18.912.912,0,0,0-.023.206m.013-2.381a.44.44,0,0,1,.141-.327.479.479,0,0,1,.672,0,.45.45,0,0,1,0,.654.479.479,0,0,1-.672,0,.441.441,0,0,1-.141-.327" transform="translate(-33.955 -107.995)" fill="#607380"/>
      <path id="Path_47" data-name="Path 47" d="M72.672,173.979a1,1,0,0,1-.255-.046.474.474,0,0,1-.255-.17,2.521,2.521,0,0,1-.144.841,1.339,1.339,0,0,1-.366.54,1.378,1.378,0,0,1-.575.288,3.163,3.163,0,0,1-.769.085,1.95,1.95,0,0,1-1.367-.425,1.645,1.645,0,0,1-.46-1.269v-.9h.873v.864a.949.949,0,0,0,.242.7.985.985,0,0,0,.725.242,1.116,1.116,0,0,0,.742-.206.87.87,0,0,0,.239-.69V172.2h.866v.569a.5.5,0,0,0,.043.219.391.391,0,0,0,.114.141.457.457,0,0,0,.161.075.752.752,0,0,0,.185.023.506.506,0,0,1,.1.01.171.171,0,0,1,.084.046.237.237,0,0,1,.057.108.753.753,0,0,1,.02.2.536.536,0,0,1-.064.307.232.232,0,0,1-.2.085m-2.767-2.46a.441.441,0,0,1,.141-.327.479.479,0,0,1,.672,0,.45.45,0,0,1,0,.654.479.479,0,0,1-.672,0,.441.441,0,0,1-.141-.327" transform="translate(-44.163 -110.311)" fill="#607380"/>
      <path id="Path_48" data-name="Path 48" d="M82.21,174.561a1.641,1.641,0,0,1-.2-.013.982.982,0,0,1-.208-.049.771.771,0,0,1-.191-.1.532.532,0,0,1-.151-.17.657.657,0,0,1-.195.18.9.9,0,0,1-.242.1,1.464,1.464,0,0,1-.265.043q-.138.01-.272.01h-.678a.478.478,0,0,1-.1-.01.165.165,0,0,1-.084-.046.238.238,0,0,1-.057-.108.755.755,0,0,1-.02-.2.537.537,0,0,1,.064-.308.232.232,0,0,1,.2-.085h.537a.551.551,0,0,0,.319-.069q.091-.069.091-.311v-1.472h.873v1.4a.418.418,0,0,0,.131.347.74.74,0,0,0,.453.1.5.5,0,0,1,.1.01.173.173,0,0,1,.084.046.24.24,0,0,1,.057.108.752.752,0,0,1,.02.2.536.536,0,0,1-.064.308.232.232,0,0,1-.2.085m-2.23,1.1a.442.442,0,0,1,.141-.327.479.479,0,0,1,.672,0,.45.45,0,0,1,0,.654.479.479,0,0,1-.672,0,.442.442,0,0,1-.141-.327m1.095,0a.441.441,0,0,1,.141-.327.479.479,0,0,1,.672,0,.45.45,0,0,1,0,.654.479.479,0,0,1-.672,0,.441.441,0,0,1-.141-.327" transform="translate(-51.297 -110.894)" fill="#607380"/>
      <path id="Path_49" data-name="Path 49" d="M86.577,174.561a.366.366,0,0,1-.1-.013.2.2,0,0,1-.084-.049.236.236,0,0,1-.057-.107.743.743,0,0,1-.02-.195.53.53,0,0,1,.064-.3.232.232,0,0,1,.2-.085h1.061v-1.852h.88v2.6Zm.074,1.1a.441.441,0,0,1,.141-.327.479.479,0,0,1,.672,0,.45.45,0,0,1,0,.654.479.479,0,0,1-.672,0,.441.441,0,0,1-.141-.327m1.095,0a.441.441,0,0,1,.141-.327.479.479,0,0,1,.672,0,.45.45,0,0,1,0,.654.479.479,0,0,1-.672,0,.441.441,0,0,1-.141-.327" transform="translate(-55.664 -110.894)" fill="#607380"/>
      <path id="Path_50" data-name="Path 50" d="M94.621,172.768h.873v1.95a3.674,3.674,0,0,1-.074.8,1.165,1.165,0,0,1-.259.533,1.045,1.045,0,0,1-.51.3,3.3,3.3,0,0,1-.83.1v-.8a1.556,1.556,0,0,0,.433-.059.456.456,0,0,0,.238-.167.644.644,0,0,0,.1-.288,3.157,3.157,0,0,0,.023-.415Z" transform="translate(-60.505 -111.417)" fill="#607380"/>
      <path id="Path_51" data-name="Path 51" d="M102.386,170.414a.539.539,0,0,1-.064.308.232.232,0,0,1-.2.085h-.282a1.674,1.674,0,0,1-.42-.049.825.825,0,0,1-.329-.163.756.756,0,0,1-.215-.3,1.254,1.254,0,0,1-.077-.471v-3.684h.873V169.7c0,.153.028.25.084.291a.393.393,0,0,0,.238.062h.128a.5.5,0,0,1,.1.01.173.173,0,0,1,.084.046.24.24,0,0,1,.057.108.753.753,0,0,1,.02.2" transform="translate(-65.006 -107.139)" fill="#607380"/>
      <path id="Path_52" data-name="Path 52" d="M104.624,170.91a.849.849,0,0,1-.077-.265,2.02,2.02,0,0,1-.023-.3,1.464,1.464,0,0,1,.091-.5,1.373,1.373,0,0,1,.262-.442,1.294,1.294,0,0,1,.423-.311,1.358,1.358,0,0,1,.581-.118,1.323,1.323,0,0,1,.631.134,1.088,1.088,0,0,1,.39.34,1.317,1.317,0,0,1,.2.458,2.208,2.208,0,0,1,.057.488v.517h.517a.482.482,0,0,1,.1.01.168.168,0,0,1,.084.046.235.235,0,0,1,.057.108.739.739,0,0,1,.02.2.538.538,0,0,1-.064.308.233.233,0,0,1-.2.085h-3.64a.479.479,0,0,1-.1-.01.17.17,0,0,1-.084-.045.243.243,0,0,1-.057-.108.769.769,0,0,1-.02-.2.541.541,0,0,1,.064-.308.233.233,0,0,1,.2-.085Zm.181-2.983a.441.441,0,0,1,.141-.327.479.479,0,0,1,.672,0,.451.451,0,0,1,0,.654.479.479,0,0,1-.672,0,.442.442,0,0,1-.141-.327m.558,2.381a.579.579,0,0,0,.161.471.6.6,0,0,0,.39.131h.383v-.5a1.861,1.861,0,0,0-.017-.252.619.619,0,0,0-.067-.213.4.4,0,0,0-.138-.147.419.419,0,0,0-.228-.055.482.482,0,0,0-.232.049.435.435,0,0,0-.148.128.493.493,0,0,0-.081.18.911.911,0,0,0-.023.206m.537-2.381a.44.44,0,0,1,.141-.327.479.479,0,0,1,.671,0,.451.451,0,0,1,0,.654.479.479,0,0,1-.671,0,.441.441,0,0,1-.141-.327" transform="translate(-66.921 -107.995)" fill="#607380"/>
      <path id="Path_53" data-name="Path 53" d="M114.746,173.655c.089,0,.188,0,.3-.007a1.971,1.971,0,0,0,.3-.033l-.672-.785a1.427,1.427,0,0,1,.057-.18c.024-.063.05-.124.077-.183a1.282,1.282,0,0,1,.087-.16,1.068,1.068,0,0,1,.087-.118,1.583,1.583,0,0,1,.521-.344,1.7,1.7,0,0,1,.662-.128,1.659,1.659,0,0,1,.537.078,1.17,1.17,0,0,1,.379.206.826.826,0,0,1,.225.291.808.808,0,0,1,.074.334,1.091,1.091,0,0,1-.158.51,1.649,1.649,0,0,1-.46.517h1.081a.505.505,0,0,1,.1.01.17.17,0,0,1,.084.046.24.24,0,0,1,.057.108.76.76,0,0,1,.02.2.536.536,0,0,1-.064.308.231.231,0,0,1-.2.085h-1.081a1.612,1.612,0,0,1-.393-.055,1.166,1.166,0,0,1-.4-.187,4.564,4.564,0,0,1-.594.177,2.706,2.706,0,0,1-.594.065h-.49a.5.5,0,0,1-.1-.01.168.168,0,0,1-.084-.046.24.24,0,0,1-.057-.108.757.757,0,0,1-.02-.2.538.538,0,0,1,.064-.308.232.232,0,0,1,.2-.085Zm1.383-1.2a1.231,1.231,0,0,0-.4.055,1.072,1.072,0,0,0-.255.121q.06.085.141.183c.054.065.109.131.168.2s.115.129.171.19a2.034,2.034,0,0,0,.158.157.841.841,0,0,0,.289-.291.634.634,0,0,0,.108-.311.442.442,0,0,0-.013-.1.212.212,0,0,0-.054-.1.312.312,0,0,0-.118-.072.558.558,0,0,0-.2-.029" transform="translate(-73.531 -110.739)" fill="#607380"/>
      <path id="Path_54" data-name="Path 54" d="M125.059,170.054v-3.919h.873v4.671h-1.646a.481.481,0,0,1-.1-.01.165.165,0,0,1-.084-.046.238.238,0,0,1-.057-.108.758.758,0,0,1-.02-.2.538.538,0,0,1,.064-.308.232.232,0,0,1,.2-.085Z" transform="translate(-79.983 -107.139)" fill="#607380"/>
      <rect id="Rectangle_26" data-name="Rectangle 26" width="0.873" height="4.671" transform="translate(46.762 58.996)" fill="#607380"/>
      <path id="Path_55" data-name="Path 55" d="M144.707,173.979a1,1,0,0,1-.256-.046.473.473,0,0,1-.255-.17,2.53,2.53,0,0,1-.145.841,1.339,1.339,0,0,1-.366.54,1.378,1.378,0,0,1-.574.288,3.168,3.168,0,0,1-.769.085,1.95,1.95,0,0,1-1.367-.425,1.645,1.645,0,0,1-.46-1.269v-.9h.873v.864a.948.948,0,0,0,.242.7.984.984,0,0,0,.726.242,1.115,1.115,0,0,0,.741-.206.869.869,0,0,0,.239-.69V172.2h.866v.569a.5.5,0,0,0,.043.219.4.4,0,0,0,.114.141.462.462,0,0,0,.162.075.747.747,0,0,0,.185.023.509.509,0,0,1,.1.01.171.171,0,0,1,.083.046.237.237,0,0,1,.058.108.771.771,0,0,1,.02.2.539.539,0,0,1-.064.307.232.232,0,0,1-.2.085m-2.767-2.46a.441.441,0,0,1,.141-.327.479.479,0,0,1,.672,0,.449.449,0,0,1,0,.654.479.479,0,0,1-.672,0,.441.441,0,0,1-.141-.327" transform="translate(-90.618 -110.311)" fill="#607380"/>
      <path id="Path_56" data-name="Path 56" d="M154.246,174.561a1.641,1.641,0,0,1-.2-.013.982.982,0,0,1-.208-.049.772.772,0,0,1-.191-.1.532.532,0,0,1-.151-.17.656.656,0,0,1-.195.18.9.9,0,0,1-.242.1,1.463,1.463,0,0,1-.265.043q-.138.01-.272.01h-.678a.478.478,0,0,1-.1-.01.165.165,0,0,1-.084-.046.238.238,0,0,1-.057-.108.755.755,0,0,1-.02-.2.538.538,0,0,1,.064-.308.232.232,0,0,1,.2-.085h.537a.551.551,0,0,0,.319-.069q.091-.069.091-.311v-1.472h.873v1.4a.418.418,0,0,0,.131.347.74.74,0,0,0,.453.1.5.5,0,0,1,.1.01.173.173,0,0,1,.084.046.239.239,0,0,1,.057.108.752.752,0,0,1,.02.2.536.536,0,0,1-.064.308.232.232,0,0,1-.2.085m-2.23,1.1a.442.442,0,0,1,.141-.327.479.479,0,0,1,.672,0,.45.45,0,0,1,0,.654.479.479,0,0,1-.672,0,.442.442,0,0,1-.141-.327m1.095,0a.441.441,0,0,1,.141-.327.479.479,0,0,1,.672,0,.45.45,0,0,1,0,.654.479.479,0,0,1-.672,0,.441.441,0,0,1-.141-.327" transform="translate(-97.753 -110.894)" fill="#607380"/>
      <path id="Path_57" data-name="Path 57" d="M158.613,174.561a.366.366,0,0,1-.1-.013.2.2,0,0,1-.084-.049.236.236,0,0,1-.057-.107.744.744,0,0,1-.02-.195.53.53,0,0,1,.064-.3.232.232,0,0,1,.2-.085h1.061v-1.852h.88v2.6Zm.074,1.1a.441.441,0,0,1,.141-.327.479.479,0,0,1,.672,0,.45.45,0,0,1,0,.654.479.479,0,0,1-.672,0,.441.441,0,0,1-.141-.327m1.095,0a.441.441,0,0,1,.141-.327.479.479,0,0,1,.671,0,.45.45,0,0,1,0,.654.479.479,0,0,1-.671,0,.441.441,0,0,1-.141-.327" transform="translate(-102.119 -110.894)" fill="#607380"/>
      <path id="Path_58" data-name="Path 58" d="M166.657,172.768h.873v1.95a3.676,3.676,0,0,1-.074.8,1.165,1.165,0,0,1-.259.533,1.045,1.045,0,0,1-.51.3,3.3,3.3,0,0,1-.83.1v-.8a1.556,1.556,0,0,0,.433-.059.456.456,0,0,0,.238-.167.639.639,0,0,0,.1-.288,3.089,3.089,0,0,0,.024-.415Z" transform="translate(-106.96 -111.417)" fill="#607380"/>
      <path id="Path_59" data-name="Path 59" d="M174.422,170.414a.539.539,0,0,1-.064.308.232.232,0,0,1-.2.085h-.282a1.674,1.674,0,0,1-.42-.049.825.825,0,0,1-.329-.163.755.755,0,0,1-.215-.3,1.254,1.254,0,0,1-.077-.471v-3.684h.873V169.7c0,.153.028.25.084.291a.393.393,0,0,0,.238.062h.128a.5.5,0,0,1,.1.01.172.172,0,0,1,.084.046.24.24,0,0,1,.057.108.753.753,0,0,1,.02.2" transform="translate(-111.461 -107.139)" fill="#607380"/>
      <path id="Path_60" data-name="Path 60" d="M176.3,169.187c.1,0,.18,0,.245-.006a.381.381,0,0,0,.158-.039.189.189,0,0,0,.087-.095.451.451,0,0,0,.027-.173v-1.25h.873v1.112a.457.457,0,0,0,.117.331.474.474,0,0,0,.357.121.849.849,0,0,0,.337-.059.247.247,0,0,0,.137-.255v-1.25h.873v1.112a.485.485,0,0,0,.1.34.452.452,0,0,0,.343.111.621.621,0,0,0,.3-.062q.113-.062.113-.271v-1.518h.873v1.4a.488.488,0,0,0,.1.347.617.617,0,0,0,.43.1.481.481,0,0,1,.1.01.168.168,0,0,1,.084.046.238.238,0,0,1,.057.108.755.755,0,0,1,.02.2.539.539,0,0,1-.064.308.232.232,0,0,1-.2.085,1.107,1.107,0,0,1-.383-.068.594.594,0,0,1-.309-.278.821.821,0,0,1-.2.193.9.9,0,0,1-.212.1.84.84,0,0,1-.215.043c-.072,0-.141.006-.208.006a1.754,1.754,0,0,1-.256-.02,1.52,1.52,0,0,1-.262-.062,1.271,1.271,0,0,1-.235-.1.5.5,0,0,1-.168-.154.934.934,0,0,1-.42.281,1.712,1.712,0,0,1-.461.059,1.182,1.182,0,0,1-.948-.34.769.769,0,0,1-.471.285,4.054,4.054,0,0,1-.739.055h-.222a.471.471,0,0,1-.1-.01.169.169,0,0,1-.084-.045.24.24,0,0,1-.057-.108.75.75,0,0,1-.02-.2.541.541,0,0,1,.064-.308.233.233,0,0,1,.2-.085Zm1.752-2.983a.44.44,0,0,1,.141-.327.479.479,0,0,1,.672,0,.45.45,0,0,1,0,.654.479.479,0,0,1-.672,0,.441.441,0,0,1-.141-.327m.564-.949a.441.441,0,0,1,.141-.327.479.479,0,0,1,.672,0,.45.45,0,0,1,0,.654.479.479,0,0,1-.672,0,.44.44,0,0,1-.141-.327m.531.949a.44.44,0,0,1,.141-.327.479.479,0,0,1,.672,0,.45.45,0,0,1,0,.654.479.479,0,0,1-.672,0,.441.441,0,0,1-.141-.327" transform="translate(-113.376 -106.272)" fill="#607380"/>
      <path id="Path_61" data-name="Path 61" d="M192.534,170.91a.549.549,0,0,0,.319-.069q.091-.069.091-.311v-1.472h.873v1.4a.512.512,0,0,0,.094.347.576.576,0,0,0,.416.1.483.483,0,0,1,.1.01.168.168,0,0,1,.084.046.238.238,0,0,1,.057.108.754.754,0,0,1,.02.2.538.538,0,0,1-.064.308.232.232,0,0,1-.2.085,1.147,1.147,0,0,1-.376-.062.568.568,0,0,1-.3-.272.657.657,0,0,1-.195.18.907.907,0,0,1-.241.1,1.5,1.5,0,0,1-.266.042q-.137.01-.272.01h-.55a.48.48,0,0,1-.1-.01.167.167,0,0,1-.084-.045.24.24,0,0,1-.057-.108.75.75,0,0,1-.02-.2.537.537,0,0,1,.064-.308.232.232,0,0,1,.2-.085Zm-.235-2.983a.441.441,0,0,1,.141-.327.479.479,0,0,1,.672,0,.45.45,0,0,1,0,.654.479.479,0,0,1-.672,0,.442.442,0,0,1-.141-.327m1.095,0a.44.44,0,0,1,.141-.327.479.479,0,0,1,.672,0,.45.45,0,0,1,0,.654.479.479,0,0,1-.672,0,.441.441,0,0,1-.141-.327" transform="translate(-123.73 -107.995)" fill="#607380"/>
      <path id="Path_62" data-name="Path 62" d="M198.6,173.809c.1,0,.18,0,.245-.007a.389.389,0,0,0,.158-.039.194.194,0,0,0,.087-.095.453.453,0,0,0,.027-.173v-1.25h.86v1.112a.454.454,0,0,0,.117.33.492.492,0,0,0,.366.121.84.84,0,0,0,.332-.059.247.247,0,0,0,.138-.255v-1.25h.873v1.112q0,.451.4.451h.417v-1.852h.873v2.6h-1.027a1.358,1.358,0,0,1-.537-.082.767.767,0,0,1-.309-.258.832.832,0,0,1-.215.193.929.929,0,0,1-.235.1,1.13,1.13,0,0,1-.238.039c-.078,0-.153.007-.225.007a1.36,1.36,0,0,1-.574-.108.936.936,0,0,1-.333-.232.764.764,0,0,1-.47.284,4.041,4.041,0,0,1-.739.056h-.262a.475.475,0,0,1-.1-.01.167.167,0,0,1-.084-.046.241.241,0,0,1-.057-.108.752.752,0,0,1-.02-.2.538.538,0,0,1,.064-.308.232.232,0,0,1,.2-.085Z" transform="translate(-127.731 -110.894)" fill="#607380"/>
      <path id="Path_63" data-name="Path 63" d="M218.951,166.135v4.671h-3.9v-.752h1.289v-2.31h.873v2.31h.866v-3.919Zm-1.545,6.372H216.1v-.458h.275a.3.3,0,0,1-.047-.128.863.863,0,0,1-.013-.134.656.656,0,0,1,.05-.265.557.557,0,0,1,.138-.193.585.585,0,0,1,.2-.118.67.67,0,0,1,.225-.039.889.889,0,0,1,.195.02,1.058,1.058,0,0,1,.155.046v.438a1.332,1.332,0,0,0-.249-.039.249.249,0,0,0-.185.059.2.2,0,0,0-.057.144.212.212,0,0,0,.056.147.287.287,0,0,0,.216.063h.352Z" transform="translate(-138.683 -107.139)" fill="#607380"/>
      <rect id="Rectangle_27" data-name="Rectangle 27" width="0.873" height="4.671" transform="translate(81.08 58.996)" fill="#607380"/>
      <path id="Path_64" data-name="Path 64" d="M235.052,174.109a2.3,2.3,0,0,1-.121.789,1.263,1.263,0,0,1-.38.546,1.644,1.644,0,0,1-.665.317,4.094,4.094,0,0,1-.977.1H232.7v-.8h.154a3.425,3.425,0,0,0,.608-.046,1.277,1.277,0,0,0,.39-.128.552.552,0,0,0,.211-.2.611.611,0,0,0,.081-.252,1.761,1.761,0,0,1-.49.059,1.869,1.869,0,0,1-.5-.065,1.044,1.044,0,0,1-.406-.213,1.029,1.029,0,0,1-.272-.38,1.4,1.4,0,0,1-.1-.559,1.535,1.535,0,0,1,.091-.517,1.465,1.465,0,0,1,.262-.458,1.252,1.252,0,0,1,.426-.324,1.367,1.367,0,0,1,.591-.121,1.4,1.4,0,0,1,.621.124,1.019,1.019,0,0,1,.4.35,1.543,1.543,0,0,1,.218.537,3.241,3.241,0,0,1,.067.684Zm-1.82-.9a.577.577,0,0,0,.134.448.552.552,0,0,0,.37.115.922.922,0,0,0,.443-.092v-.32a1.172,1.172,0,0,0-.1-.53.371.371,0,0,0-.363-.2.411.411,0,0,0-.373.17.726.726,0,0,0-.111.406" transform="translate(-149.855 -110.834)" fill="#607380"/>
      <path id="Path_65" data-name="Path 65" d="M249.1,175.274h-2.169v-.752h.343a.775.775,0,0,1-.074-.2.9.9,0,0,1-.027-.2,1.107,1.107,0,0,1,.091-.461,1.009,1.009,0,0,1,.239-.333.962.962,0,0,1,.339-.2,1.2,1.2,0,0,1,.393-.065,1.565,1.565,0,0,1,.346.036c.105.024.2.049.279.075v.687q-.168-.039-.279-.055a1.236,1.236,0,0,0-.171-.016q-.437,0-.436.379a.293.293,0,0,0,.128.281.677.677,0,0,0,.336.072h.665Z" transform="translate(-159.246 -111.607)" fill="#607380"/>
      <path id="Path_66" data-name="Path 66" d="M256.33,170.414a.539.539,0,0,1-.064.308.232.232,0,0,1-.2.085h-.282a1.674,1.674,0,0,1-.42-.049.826.826,0,0,1-.329-.163.756.756,0,0,1-.215-.3,1.254,1.254,0,0,1-.077-.471v-3.684h.873V169.7c0,.153.028.25.084.291a.393.393,0,0,0,.238.062h.128a.5.5,0,0,1,.1.01.174.174,0,0,1,.084.046.24.24,0,0,1,.057.108.756.756,0,0,1,.02.2" transform="translate(-164.283 -107.139)" fill="#607380"/>
      <path id="Path_67" data-name="Path 67" d="M258.776,170.054v-3.919h.873v2.728a2.187,2.187,0,0,1,.648-.533,1.681,1.681,0,0,1,.823-.213,1.339,1.339,0,0,1,1.058.406,1.617,1.617,0,0,1,.36,1.112v.419h.523a.507.507,0,0,1,.1.01.175.175,0,0,1,.084.046.24.24,0,0,1,.057.108.755.755,0,0,1,.02.2.54.54,0,0,1-.064.308.231.231,0,0,1-.2.085h-5.084a.474.474,0,0,1-.1-.01.162.162,0,0,1-.084-.046.234.234,0,0,1-.057-.108.756.756,0,0,1-.02-.2.538.538,0,0,1,.063-.308.233.233,0,0,1,.2-.085Zm2.888,0v-.373a.981.981,0,0,0-.144-.543.564.564,0,0,0-.512-.223.917.917,0,0,0-.4.092,1.465,1.465,0,0,0-.365.249,2.281,2.281,0,0,0-.552.8Z" transform="translate(-166.198 -107.139)" fill="#607380"/>
      <path id="Path_68" data-name="Path 68" d="M272.549,173.809c.1,0,.18,0,.245-.007a.39.39,0,0,0,.158-.039.2.2,0,0,0,.087-.095.455.455,0,0,0,.026-.173v-1.25h.86v1.112a.453.453,0,0,0,.118.33.49.49,0,0,0,.366.121.837.837,0,0,0,.332-.059.247.247,0,0,0,.138-.255v-1.25h.873v1.112q0,.451.4.451h.417v-1.852h.873v2.6h-1.027a1.357,1.357,0,0,1-.537-.082.764.764,0,0,1-.309-.258.827.827,0,0,1-.216.193.924.924,0,0,1-.235.1,1.137,1.137,0,0,1-.238.039c-.079,0-.153.007-.225.007a1.361,1.361,0,0,1-.574-.108.936.936,0,0,1-.333-.232.765.765,0,0,1-.47.284,4.041,4.041,0,0,1-.739.056h-.262a.472.472,0,0,1-.1-.01.166.166,0,0,1-.084-.046.238.238,0,0,1-.057-.108.756.756,0,0,1-.02-.2.541.541,0,0,1,.064-.308.232.232,0,0,1,.2-.085Z" transform="translate(-175.418 -110.894)" fill="#607380"/>
      <path id="Path_69" data-name="Path 69" d="M291.56,174.5a1.365,1.365,0,0,1-.6,1.037,2.867,2.867,0,0,1-1.522.324h-.208v-.8h.155a3.616,3.616,0,0,0,.584-.039,1.4,1.4,0,0,0,.386-.114.607.607,0,0,0,.225-.177.522.522,0,0,0,.094-.232h-.417a2.134,2.134,0,0,1-.544-.065,1.132,1.132,0,0,1-.43-.213.983.983,0,0,1-.282-.38,1.4,1.4,0,0,1-.1-.559,1.535,1.535,0,0,1,.091-.517,1.427,1.427,0,0,1,.265-.458,1.281,1.281,0,0,1,.429-.324,1.344,1.344,0,0,1,.583-.121,1.391,1.391,0,0,1,.62.124,1.039,1.039,0,0,1,.405.35,1.5,1.5,0,0,1,.221.537,3.237,3.237,0,0,1,.067.684v.19h.49a.5.5,0,0,1,.1.01.168.168,0,0,1,.084.046.24.24,0,0,1,.057.108.77.77,0,0,1,.02.2.537.537,0,0,1-.064.308.232.232,0,0,1-.2.085Zm-1.8-1.3a.538.538,0,0,0,.138.429.554.554,0,0,0,.366.114h.443v-.392a1.182,1.182,0,0,0-.1-.52.379.379,0,0,0-.376-.206.4.4,0,0,0-.359.163.72.72,0,0,0-.111.412" transform="translate(-186.309 -110.834)" fill="#607380"/>
      <path id="Path_70" data-name="Path 70" d="M298.142,170.054v-3.919h.873v4.671H297.37a.481.481,0,0,1-.1-.01.165.165,0,0,1-.084-.046.239.239,0,0,1-.057-.108.774.774,0,0,1-.02-.2.538.538,0,0,1,.064-.308.232.232,0,0,1,.2-.085Z" transform="translate(-191.602 -107.139)" fill="#607380"/>
      <rect id="Rectangle_28" data-name="Rectangle 28" width="0.873" height="4.671" transform="translate(108.225 58.996)" fill="#607380"/>
      <path id="Path_71" data-name="Path 71" d="M316.326,171.068a2.087,2.087,0,0,1-.313-.023,1.038,1.038,0,0,1-.279-.082.739.739,0,0,1-.225-.161.683.683,0,0,1-.151-.265q-.114.026-.235.043a1.775,1.775,0,0,1-.242.016,1.833,1.833,0,0,1-.39-.049,1.239,1.239,0,0,1-.42-.18,1.086,1.086,0,0,1-.336-.363,1.158,1.158,0,0,1-.138-.6,1.3,1.3,0,0,1,.131-.609,1.21,1.21,0,0,1,.336-.406,1.306,1.306,0,0,1,.457-.226,1.872,1.872,0,0,1,.493-.068h1.142v1.956a.376.376,0,0,0,.04.206c.027.037.09.056.188.056h.161a.5.5,0,0,1,.1.01.173.173,0,0,1,.084.046.24.24,0,0,1,.057.108.759.759,0,0,1,.02.2.54.54,0,0,1-.064.308.231.231,0,0,1-.2.085Zm-2.277-4.063a.441.441,0,0,1,.141-.327.479.479,0,0,1,.672,0,.45.45,0,0,1,0,.654.479.479,0,0,1-.672,0,.44.44,0,0,1-.141-.327m.4,2.359a.741.741,0,0,0,.02.166.391.391,0,0,0,.074.156.416.416,0,0,0,.145.114.511.511,0,0,0,.231.045q.087,0,.178-.006a.723.723,0,0,0,.185-.039v-.9h-.336a.5.5,0,0,0-.373.127.458.458,0,0,0-.124.335m.692-2.359a.441.441,0,0,1,.141-.327.479.479,0,0,1,.672,0,.45.45,0,0,1,0,.654.479.479,0,0,1-.672,0,.44.44,0,0,1-.141-.327" transform="translate(-202.237 -107.401)" fill="#607380"/>
      <path id="Path_72" data-name="Path 72" d="M322.2,173.809v-1.852h.873v2.6h-1.645a.477.477,0,0,1-.1-.01.167.167,0,0,1-.084-.046.239.239,0,0,1-.057-.108.754.754,0,0,1-.02-.2.536.536,0,0,1,.064-.307.231.231,0,0,1,.2-.085Zm-.107,1.832a.441.441,0,0,1,.141-.327.479.479,0,0,1,.671,0,.449.449,0,0,1,0,.654.479.479,0,0,1-.671,0,.442.442,0,0,1-.141-.327" transform="translate(-207.116 -110.894)" fill="#607380"/>
      <path id="Path_73" data-name="Path 73" d="M330.409,170.414a.539.539,0,0,1-.064.308.232.232,0,0,1-.2.085h-.282a1.674,1.674,0,0,1-.42-.049.825.825,0,0,1-.329-.163.756.756,0,0,1-.215-.3,1.255,1.255,0,0,1-.077-.471v-3.684h.873V169.7c0,.153.028.25.084.291a.394.394,0,0,0,.239.062h.127a.5.5,0,0,1,.1.01.174.174,0,0,1,.084.046.24.24,0,0,1,.057.108.756.756,0,0,1,.02.2" transform="translate(-212.056 -107.139)" fill="#607380"/>
      <path id="Path_74" data-name="Path 74" d="M332.646,170.91a.848.848,0,0,1-.077-.265,2.082,2.082,0,0,1-.023-.3,1.465,1.465,0,0,1,.09-.5,1.374,1.374,0,0,1,.262-.442,1.3,1.3,0,0,1,.423-.311,1.359,1.359,0,0,1,.581-.118,1.323,1.323,0,0,1,.631.134,1.088,1.088,0,0,1,.39.34,1.32,1.32,0,0,1,.2.458,2.214,2.214,0,0,1,.057.488v.517h.517a.481.481,0,0,1,.1.01.168.168,0,0,1,.084.046.238.238,0,0,1,.057.108.754.754,0,0,1,.02.2.538.538,0,0,1-.064.308.232.232,0,0,1-.2.085h-3.64a.479.479,0,0,1-.1-.01.169.169,0,0,1-.084-.045.239.239,0,0,1-.057-.108.749.749,0,0,1-.02-.2.54.54,0,0,1,.064-.308.233.233,0,0,1,.2-.085Zm.181-2.983a.441.441,0,0,1,.141-.327.479.479,0,0,1,.672,0,.45.45,0,0,1,0,.654.479.479,0,0,1-.672,0,.442.442,0,0,1-.141-.327m.558,2.381a.579.579,0,0,0,.161.471.6.6,0,0,0,.39.131h.383v-.5a1.846,1.846,0,0,0-.017-.252.617.617,0,0,0-.067-.213.4.4,0,0,0-.138-.147.421.421,0,0,0-.228-.055.483.483,0,0,0-.232.049.435.435,0,0,0-.148.128.5.5,0,0,0-.081.18.911.911,0,0,0-.023.206m.537-2.381a.44.44,0,0,1,.141-.327.479.479,0,0,1,.671,0,.45.45,0,0,1,0,.654.479.479,0,0,1-.671,0,.441.441,0,0,1-.141-.327" transform="translate(-213.97 -107.995)" fill="#607380"/>
      <path id="Path_75" data-name="Path 75" d="M343.057,170.91v-1.852h.873v2.6h-1.646a.476.476,0,0,1-.1-.01.169.169,0,0,1-.084-.045.241.241,0,0,1-.057-.108.768.768,0,0,1-.02-.2.54.54,0,0,1,.064-.308.232.232,0,0,1,.2-.085ZM343,167.926a.44.44,0,0,1,.141-.327.479.479,0,0,1,.671,0,.45.45,0,0,1,0,.654.479.479,0,0,1-.671,0,.441.441,0,0,1-.141-.327" transform="translate(-220.568 -107.995)" fill="#607380"/>
    </g>
  </g>
</svg>
