<svg id="Group_22182" data-name="Group 22182" xmlns="http://www.w3.org/2000/svg" width="148.375" height="50.586" viewBox="0 0 148.375 50.586">
  <path id="Path_700" data-name="Path 700" d="M697.192,98.616a11.444,11.444,0,0,0,3.8.571,14.785,14.785,0,0,0,5.618-1.115c2.045-.857,3.083-2.229,3.083-4.144a5.27,5.27,0,0,0-.807-2.743c.2-.03.75-.058,1.758-.086.692-.029,1.038-.058,1.038-.173,0-.084-.086-.114-.317-.114-1.182.03-2.133.03-2.8.03-2.3-3.032-4.062-5.231-5.186-6.6a6.8,6.8,0,0,1-1.412-3.459,3.637,3.637,0,0,1,1.728-2.916,14.555,14.555,0,0,1,8.76-2.545,12.564,12.564,0,0,1,3.456.4,3.784,3.784,0,0,1,1.988,1.257,3.877,3.877,0,0,1,.807,2.459c0,.628-.144,1.287-.115,1.428h.115a1.105,1.105,0,0,0,.23-.4,4.336,4.336,0,0,0,.317-1.658,3.626,3.626,0,0,0-2.535-3.6,11.042,11.042,0,0,0-3.486-.428,18.218,18.218,0,0,0-10,2.716,3.747,3.747,0,0,0-2.017,3.2A6.751,6.751,0,0,0,702.9,84.61c1.872,2.486,3.4,4.573,4.7,6.288a33.363,33.363,0,0,0-10.228,2.315c-1.7.744-2.536,1.659-2.536,2.773,0,1.2.779,2.086,2.363,2.63m.576-4.774a21.9,21.9,0,0,1,5.618-1.829c1.067-.229,2.565-.486,4.437-.714a4.016,4.016,0,0,1,.979,2.6c0,1.429-.864,2.6-2.564,3.459a12.647,12.647,0,0,1-5.59,1.287,13.434,13.434,0,0,1-3.4-.4,3.144,3.144,0,0,1-1.182-.628,1.752,1.752,0,0,1-.75-1.258c0-.857.836-1.714,2.45-2.515" transform="translate(-692.4 -74.777)" fill="#51957d"/>
  <path id="Path_701" data-name="Path 701" d="M710.753,83.234a2.364,2.364,0,0,0-1.066.772c-.461.457-.662.8-.662,1.057,0,.229.2.4.635.487.288.056.633-.116,1.065-.515a2.193,2.193,0,0,0,.806-1.115c.117-.343-.374-.771-.777-.686" transform="translate(-688.02 -72.258)" fill="#51957d"/>
  <path id="Path_702" data-name="Path 702" d="M742.41,93.935c-.259,0-.692.171-.692.4,0,.2.865-.086.865.715,0,.943-.923,2.172-2.738,3.716a12.548,12.548,0,0,1-4.119,2.543,2.806,2.806,0,0,1-.836.114,2.049,2.049,0,0,1-1.583-.628,2.6,2.6,0,0,1-.548-2.029,11,11,0,0,1,.469-2.229c.875,0,1.558.029,2.1.057.951.086,1.412.457,1.412,1.143a4.213,4.213,0,0,1-1.7,2.83c-.2.143-.288.257-.288.371l.058.029c.115,0,.23-.057.432-.229a7.368,7.368,0,0,0,1.873-1.886,1.446,1.446,0,0,0,.144-.628,2.479,2.479,0,0,0-1.873-2.116,13.4,13.4,0,0,0-1.971-.139,26.081,26.081,0,0,1,1.047-2.576,31.734,31.734,0,0,1,3.688-6c.288-.343.288-.571.029-.657a1.205,1.205,0,0,0-1.008.114,2.189,2.189,0,0,0-.721.457,15.05,15.05,0,0,0-2.909,2c-1.239,1-2.421,2-3.486,3.03a.494.494,0,0,1-.347.2c-.143,0-.23-.086-.23-.314l.115-.371a20.2,20.2,0,0,1,3.256-5.031l.086-.2h-.2a.949.949,0,0,0-.72.371c-.75.914-1.642,2.115-2.651,3.63a33.621,33.621,0,0,0-2.247,3.8c-.115.23-.144.371-.058.457.029.116.144.144.346.116a2.7,2.7,0,0,0,1.469-.63,37.274,37.274,0,0,1,6.6-6.2.865.865,0,0,1,.461-.144c.345,0,.518.144.518.458l-.086.286a34.607,34.607,0,0,0-2.967,4.888q-.642,1.254-1.065,2.336a49.56,49.56,0,0,0-7.462.752c1.182-3.4,2.045-6.032,2.651-7.833a1.433,1.433,0,0,0,.317-.685.855.855,0,0,0-.6-.686l-.174-.058a11.731,11.731,0,0,0-6.309,2.059,15.311,15.311,0,0,0-2.963,2.382,20.564,20.564,0,0,1-5.477,3.218c-.75.173-1.872.173-.922-1.742,1.383-2.83-.72,1.085,3.2-6.26.749-1.4-.979-1.629-1.123-.714-.086.486-3.112,5.888-3.141,7.746a1.9,1.9,0,0,0,2.161,1.715,28.008,28.008,0,0,0,4.214-2.617,9.639,9.639,0,0,0-.672,1.131,1.826,1.826,0,0,0-.259.887.913.913,0,0,0,1.038,1.028,1.6,1.6,0,0,0,.547-.084,31.026,31.026,0,0,0,4.9-2.973,39.286,39.286,0,0,0,3.544-2.659c-.144.457-.259,1-.461,1.658a37.888,37.888,0,0,1-1.556,4.66,91.428,91.428,0,0,0-16.538,4.744c-7.721,3.03-12.331,6.232-13.8,9.662a5.519,5.519,0,0,0-.461,2.143c0,2.259,1.182,4.287,3.486,6.089a10.907,10.907,0,0,0,7.607,2.486c8.095-.486,14.923-8.775,20.6-24.81a38.306,38.306,0,0,1,7.454-.678,9.5,9.5,0,0,0-.542,2.278,3.469,3.469,0,0,0,.663,2.687,2.232,2.232,0,0,0,1.9.628,10.036,10.036,0,0,0,5.992-3.059,9.687,9.687,0,0,0,2.594-3.659,2.821,2.821,0,0,0,.173-.828c0-.43-.173-.658-.49-.658M725.3,90.476c-.806.657-1.958,1.572-3.515,2.687-1.929,1.371-3.139,2.086-3.542,2.086-.491,0-.692-.314-.692-.915a2.479,2.479,0,0,1,.058-.457,7.762,7.762,0,0,1,2.8-3.487,10.915,10.915,0,0,1,4.177-2.058,3.172,3.172,0,0,1,1.326-.143c.144.029.2.2.2.543l-.029.114.029.057a2.212,2.212,0,0,1-.807,1.572m-8.037,20.695q-6.265,10.076-13.253,10.347a10.838,10.838,0,0,1-7.2-2.258,6.692,6.692,0,0,1-3.024-5.345,5,5,0,0,1,.346-1.829q1.9-4.76,11.322-9.062a85.684,85.684,0,0,1,18.209-5.688,63.162,63.162,0,0,1-6.4,13.835" transform="translate(-692.973 -71.468)" fill="#51957d"/>
  <path id="Path_703" data-name="Path 703" d="M729.6,87.842l.057.257c-2.563,3.116-3.831,5.459-3.86,7a1.2,1.2,0,0,0,1.3,1.03c1.7-.229,3.659-1.344,5.906-3.259,2.276-1.944,3.4-3.6,3.515-5.031l-.086-.314v-.171c.173-.23.547-.343,1.152-.343.289,0,.433-.086.433-.173,0-.057-.144-.114-.433-.114-1.614-.057-2.88-.086-3.745-.114l-.2-.114a2.725,2.725,0,0,0-1.3-.514,2.051,2.051,0,0,0-1.267.628.7.7,0,0,1-.317.114,7.949,7.949,0,0,0-1.1.029c-.892.029-.835.287-.835.4,0,.228.432.486.777.685m1.844,0c.259-.171.432-.286.49-.257a5.076,5.076,0,0,1,2.421-.257c.835.086,1.238.4,1.094,1-.288,1.372-1.383,2.916-3.313,4.631-1.844,1.686-3.4,2.6-4.7,2.8-.606.116-.923-.056-.923-.514a1.294,1.294,0,0,1,.173-.628,19.546,19.546,0,0,1,4.754-6.774" transform="translate(-682.845 -71.435)" fill="#51957d"/>
  <path id="Path_704" data-name="Path 704" d="M736.2,88.356a1.954,1.954,0,0,1-.173.714,47.839,47.839,0,0,1-3.8,6.6l-.027.286h.173a8.461,8.461,0,0,1,1.18-.571c.173-.086.23-.171.23-.2a21.1,21.1,0,0,1,7.607-7.775,1.828,1.828,0,0,1,1.556-.257c.23.143.835-.486.835-.743l-.029-.057a2.774,2.774,0,0,0-1.326-.171,13.245,13.245,0,0,0-2.88,1.915,21.048,21.048,0,0,0-2.91,2.772.805.805,0,0,1-.345.229c-.23.086-.317.057-.317-.027l.086-.287a32.492,32.492,0,0,1,2.535-3.744l.029-.314-.23-.143-.115.057q-1.816,1.071-2.161,1.2v.2a1.294,1.294,0,0,1,.086.314" transform="translate(-680.868 -71.377)" fill="#51957d"/>
  <path id="Path_705" data-name="Path 705" d="M749.224,98.616a11.444,11.444,0,0,0,3.8.571,14.784,14.784,0,0,0,5.618-1.115c2.045-.857,3.083-2.229,3.083-4.144a5.269,5.269,0,0,0-.808-2.743c.2-.03.749-.058,1.758-.086.692-.029,1.038-.058,1.038-.173,0-.084-.086-.114-.317-.114-1.182.03-2.133.03-2.8.03-2.3-3.032-4.062-5.231-5.186-6.6a6.813,6.813,0,0,1-1.412-3.459,3.637,3.637,0,0,1,1.729-2.916,14.554,14.554,0,0,1,8.758-2.545,12.583,12.583,0,0,1,3.459.4,3.794,3.794,0,0,1,1.988,1.257,3.884,3.884,0,0,1,.806,2.459c0,.628-.144,1.287-.115,1.428h.115a1.1,1.1,0,0,0,.23-.4,4.338,4.338,0,0,0,.317-1.658,3.626,3.626,0,0,0-2.535-3.6,11.037,11.037,0,0,0-3.486-.428,18.224,18.224,0,0,0-10,2.716,3.747,3.747,0,0,0-2.017,3.2,6.751,6.751,0,0,0,1.671,3.917c1.873,2.486,3.4,4.573,4.7,6.288A33.373,33.373,0,0,0,749.4,93.213c-1.7.744-2.536,1.659-2.536,2.773,0,1.2.779,2.086,2.363,2.63m.576-4.774a21.9,21.9,0,0,1,5.618-1.829c1.067-.229,2.565-.486,4.437-.714a4.015,4.015,0,0,1,.979,2.6c0,1.429-.864,2.6-2.564,3.459a12.645,12.645,0,0,1-5.589,1.287,13.446,13.446,0,0,1-3.4-.4,3.145,3.145,0,0,1-1.182-.628,1.749,1.749,0,0,1-.748-1.258c0-.857.835-1.714,2.448-2.515" transform="translate(-676.344 -74.777)" fill="#51957d"/>
  <path id="Path_706" data-name="Path 706" d="M767.6,91.087a3.174,3.174,0,0,0,.691,1.544l.921,1.228a27.257,27.257,0,0,0-3.889,2.945c-.144.228-.115.343.173.371a3.277,3.277,0,0,0,1.038-.114,1.808,1.808,0,0,0,.6.086,6.977,6.977,0,0,0,2.622-.714c1.268-.544,1.9-1.058,1.9-1.6a2.814,2.814,0,0,0-.692-1.344,33.73,33.73,0,0,1,5.375-2.52l.008.119a3.185,3.185,0,0,0,.691,1.544l.923,1.228A27.173,27.173,0,0,0,774.08,96.8c-.144.228-.115.343.173.371a3.271,3.271,0,0,0,1.036-.114,1.809,1.809,0,0,0,.606.086,6.974,6.974,0,0,0,2.621-.714c1.268-.544,1.9-1.058,1.9-1.6a2.821,2.821,0,0,0-.691-1.344,29.6,29.6,0,0,1,7.677-3.208,14.7,14.7,0,0,0-1.519,4.323,1.9,1.9,0,0,0,2.162,1.715,29.318,29.318,0,0,0,5.819-3.916c.432-.43.491-1-.173-.344a20.757,20.757,0,0,1-5.819,3.516c-.75.171-1.873.171-.923-1.744,1.383-2.829-.72,1.087,3.2-6.259.748-1.4-.979-1.629-1.123-.715-.045.243-.821,1.712-1.59,3.353a26.591,26.591,0,0,0-8.057,2.878,3.27,3.27,0,0,1-.979-1.058,3.844,3.844,0,0,1-.633-1.458v-.057c.6-.17,1.184-.317,1.764-.428l-.029-.029c-.574.1-1.154.216-1.738.345-.024-.9.83-1.932,2.539-3.089a11.832,11.832,0,0,1,3.8-1.916,4,4,0,0,1,.633-.057,6.593,6.593,0,0,1,1.9.4c.259.087,1.037-.428,1.3-.8.086-.086.086-.2,0-.371l-.318-.171a14.662,14.662,0,0,0-7.347,2.372c-2.524,1.488-3.845,2.807-3.924,3.983a25.669,25.669,0,0,0-5.721,2.334,3.259,3.259,0,0,1-.979-1.058,3.852,3.852,0,0,1-.635-1.458c-.144-.943.721-2.029,2.536-3.257a11.828,11.828,0,0,1,3.8-1.916,4,4,0,0,1,.633-.057,6.577,6.577,0,0,1,1.9.4c.259.087,1.038-.428,1.3-.8.086-.086.086-.2,0-.371l-.317-.171a14.657,14.657,0,0,0-7.346,2.372c-2.766,1.629-4.092,3.059-3.918,4.317M779.034,95.4l-.115.314a3.416,3.416,0,0,1-1.5.8,3.62,3.62,0,0,1-1.759.314c-.2-.029-.258-.143-.115-.314a6.109,6.109,0,0,1,1.412-1.2c.663-.486,1.124-.8,1.412-.971a1.628,1.628,0,0,1,.662,1.057m-8.752,0-.115.314a3.414,3.414,0,0,1-1.5.8,3.617,3.617,0,0,1-1.758.314c-.2-.029-.259-.143-.115-.314a6.114,6.114,0,0,1,1.412-1.2c.662-.486,1.124-.8,1.412-.971a1.629,1.629,0,0,1,.662,1.057" transform="translate(-670.671 -71.907)" fill="#51957d"/>
  <path id="Path_707" data-name="Path 707" d="M784.448,85.55c.288.057.633-.114,1.066-.514a2.212,2.212,0,0,0,.806-1.115c.115-.343-.374-.771-.779-.687a2.375,2.375,0,0,0-1.065.772c-.461.457-.664.8-.664,1.057,0,.23.2.4.635.487" transform="translate(-664.941 -72.258)" fill="#51957d"/>
  <path id="Path_708" data-name="Path 708" d="M724.663,105.724a1.39,1.39,0,0,0-.317-.2,1.391,1.391,0,0,0,.845-.365.987.987,0,0,0,.273-.706,1.114,1.114,0,0,0-.166-.593.881.881,0,0,0-.441-.375,2.373,2.373,0,0,0-.806-.105h-1.76v3.936h.526v-1.749h.609a1.531,1.531,0,0,1,.292.019l.241.105a1.179,1.179,0,0,1,.266.262c.1.126.225.306.38.543l.525.819h.661l-.691-1.071a2.732,2.732,0,0,0-.436-.524m-.717-.6h-1.128v-1.3h1.255a.955.955,0,0,1,.645.18.58.58,0,0,1,.206.458.632.632,0,0,1-.106.353.594.594,0,0,1-.309.236,1.7,1.7,0,0,1-.563.074" transform="translate(-683.925 -66.244)" fill="#51957d"/>
  <rect id="Rectangle_577" data-name="Rectangle 577" width="0.525" height="3.936" transform="translate(43.283 37.139)" fill="#51957d"/>
  <path id="Path_709" data-name="Path 709" d="M730.138,105.262a5.19,5.19,0,0,0-.878-.251,2.113,2.113,0,0,1-.792-.28.446.446,0,0,1-.155-.349.519.519,0,0,1,.219-.418,1.113,1.113,0,0,1,.694-.173,1.079,1.079,0,0,1,.692.191.8.8,0,0,1,.273.563l.5-.038a1.182,1.182,0,0,0-.195-.621,1.117,1.117,0,0,0-.518-.414,1.985,1.985,0,0,0-.777-.142,1.932,1.932,0,0,0-.729.134,1.057,1.057,0,0,0-.5.395.994.994,0,0,0-.171.557.892.892,0,0,0,.14.489,1.079,1.079,0,0,0,.424.367,3.628,3.628,0,0,0,.765.245,6.594,6.594,0,0,1,.705.192.8.8,0,0,1,.359.232.5.5,0,0,1,.107.323.554.554,0,0,1-.112.336.722.722,0,0,1-.342.243,1.454,1.454,0,0,1-.531.09,1.52,1.52,0,0,1-.608-.117.9.9,0,0,1-.4-.306,1.088,1.088,0,0,1-.164-.486l-.495.044a1.324,1.324,0,0,0,.217.708,1.262,1.262,0,0,0,.57.467,2.3,2.3,0,0,0,.9.156,1.813,1.813,0,0,0,.764-.155,1.182,1.182,0,0,0,.521-.431,1.061,1.061,0,0,0,.182-.592.975.975,0,0,0-.165-.561,1.219,1.219,0,0,0-.512-.4" transform="translate(-682.27 -66.26)" fill="#51957d"/>
  <path id="Path_710" data-name="Path 710" d="M731.025,103.847h1.307v3.472h.525v-3.472h1.312v-.465h-3.144Z" transform="translate(-681.231 -66.245)" fill="#51957d"/>
  <path id="Path_711" data-name="Path 711" d="M737.168,103.589a1.909,1.909,0,0,0-.991-.26,1.809,1.809,0,0,0-1.37.554,2.125,2.125,0,0,0-.53,1.533,2.209,2.209,0,0,0,.228.984,1.733,1.733,0,0,0,.667.732,1.888,1.888,0,0,0,1,.269,1.983,1.983,0,0,0,.963-.243,1.659,1.659,0,0,0,.69-.717,2.3,2.3,0,0,0,.244-1.07,2.338,2.338,0,0,0-.232-1.057,1.708,1.708,0,0,0-.671-.727m-.021,2.954a1.351,1.351,0,0,1-1.943,0,1.571,1.571,0,0,1-.386-1.12,1.69,1.69,0,0,1,.4-1.268,1.347,1.347,0,0,1,.961-.38,1.311,1.311,0,0,1,.708.2,1.258,1.258,0,0,1,.479.556,2.013,2.013,0,0,1,.164.839,1.665,1.665,0,0,1-.383,1.174" transform="translate(-680.227 -66.26)" fill="#51957d"/>
  <path id="Path_712" data-name="Path 712" d="M740.706,105.724a1.394,1.394,0,0,0-.317-.2,1.383,1.383,0,0,0,.844-.365.987.987,0,0,0,.273-.706,1.111,1.111,0,0,0-.165-.593.881.881,0,0,0-.441-.375,2.379,2.379,0,0,0-.806-.105h-1.76v3.936h.525v-1.749h.61a1.529,1.529,0,0,1,.292.019l.239.105a1.18,1.18,0,0,1,.267.262q.149.189.378.543l.526.819h.66l-.69-1.071a2.734,2.734,0,0,0-.436-.524m-.717-.6H738.86v-1.3h1.256a.955.955,0,0,1,.645.18.584.584,0,0,1,.205.458.632.632,0,0,1-.106.353.6.6,0,0,1-.309.236,1.7,1.7,0,0,1-.563.074" transform="translate(-678.975 -66.244)" fill="#51957d"/>
  <path id="Path_713" data-name="Path 713" d="M743.213,103.382l-1.523,3.936h.558l.436-1.192h1.659l.462,1.192h.6l-1.623-3.936Zm-.378,2.32.436-1.154a4.986,4.986,0,0,0,.213-.752c.061.213.156.484.281.817l.415,1.089Z" transform="translate(-677.939 -66.245)" fill="#51957d"/>
  <path id="Path_714" data-name="Path 714" d="M748.1,106.473l-2.083-3.09h-.539v3.936h.5v-3.094l2.083,3.094h.539v-3.936h-.5Z" transform="translate(-676.77 -66.244)" fill="#51957d"/>
  <path id="Path_715" data-name="Path 715" d="M748.95,103.847h1.307v3.472h.525v-3.472h1.313v-.465H748.95Z" transform="translate(-675.699 -66.245)" fill="#51957d"/>
  <path id="Path_716" data-name="Path 716" d="M752.933,105.515h2.195v-.462h-2.195v-1.2h2.344v-.465h-2.868v3.936h2.96v-.465h-2.435Z" transform="translate(-674.632 -66.244)" fill="#51957d"/>
  <rect id="Rectangle_578" data-name="Rectangle 578" width="0.525" height="3.936" transform="translate(84.753 37.139)" fill="#51957d"/>
  <path id="Path_717" data-name="Path 717" d="M759.257,103.847h1.307v3.472h.525v-3.472H762.4v-.465h-3.145Z" transform="translate(-672.518 -66.245)" fill="#51957d"/>
  <path id="Path_718" data-name="Path 718" d="M763.582,103.382l-1.523,3.936h.557l.436-1.192h1.659l.462,1.192h.6l-1.623-3.936Zm-.378,2.32.436-1.154a4.979,4.979,0,0,0,.213-.752c.062.213.156.484.281.817l.415,1.089Z" transform="translate(-671.654 -66.245)" fill="#51957d"/>
  <path id="Path_719" data-name="Path 719" d="M766.361,103.383h-.525v3.936h2.478v-.465h-1.954Z" transform="translate(-670.488 -66.244)" fill="#51957d"/>
  <rect id="Rectangle_579" data-name="Rectangle 579" width="0.525" height="3.936" transform="translate(99.372 37.139)" fill="#51957d"/>
  <path id="Path_720" data-name="Path 720" d="M771.845,103.382l-1.523,3.936h.557l.436-1.192h1.659l.463,1.192h.6l-1.623-3.936Zm-.378,2.32.436-1.154a4.965,4.965,0,0,0,.213-.752c.062.213.156.484.283.817l.413,1.089Z" transform="translate(-669.104 -66.245)" fill="#51957d"/>
  <path id="Path_721" data-name="Path 721" d="M776.734,106.473l-2.083-3.09h-.539v3.936h.5v-3.094l2.083,3.094h.539v-3.936h-.5Z" transform="translate(-667.934 -66.244)" fill="#51957d"/>
  <path id="Path_722" data-name="Path 722" d="M780.577,103.589a1.906,1.906,0,0,0-.991-.26,1.808,1.808,0,0,0-1.369.554,2.126,2.126,0,0,0-.53,1.533,2.224,2.224,0,0,0,.227.984,1.734,1.734,0,0,0,.669.732,1.887,1.887,0,0,0,1,.269,1.984,1.984,0,0,0,.964-.243,1.66,1.66,0,0,0,.69-.717,2.3,2.3,0,0,0,.243-1.07,2.338,2.338,0,0,0-.232-1.057,1.7,1.7,0,0,0-.673-.727m-.02,2.954a1.351,1.351,0,0,1-1.943,0,1.571,1.571,0,0,1-.386-1.12,1.685,1.685,0,0,1,.4-1.268,1.342,1.342,0,0,1,.959-.38,1.315,1.315,0,0,1,.708.2,1.258,1.258,0,0,1,.479.556,2.013,2.013,0,0,1,.164.839,1.664,1.664,0,0,1-.384,1.174" transform="translate(-666.831 -66.26)" fill="#51957d"/>
  <path id="Path_723" data-name="Path 723" d="M800.195,91.25a4.381,4.381,0,0,0-1.237-.275,11.316,11.316,0,0,1,1.237.275" transform="translate(-660.267 -69.945)" fill="#51957d"/>
  <path id="Path_724" data-name="Path 724" d="M820.711,92.916c6.447,2.26,22.414,17.55-22.007,9.522-6.326-1.143-12.081-2.08-17.322-2.846a20.367,20.367,0,0,0,2.873-3.37.6.6,0,0,0,.115-.313l-.029-.087c-.086,0-.173.087-.346.286a24.631,24.631,0,0,1-3.227,3.4q-4.409-.639-8.328-1.115a34.229,34.229,0,0,1,3.086-7.6c1.036-1.686,2.16-3.373,3.255-5.059.029-.084-.115-.343-.259-.343l-.173.057a1.238,1.238,0,0,1-.749.371,1.98,1.98,0,0,1-.548-.027,4.717,4.717,0,0,0-1.383-.258,3.1,3.1,0,0,0-1.18.229,16.34,16.34,0,0,0-5.186,3.716c-2.132,2.116-3.2,3.86-3.2,5.2,0,.685.23,1,.72,1a1.234,1.234,0,0,0,.663-.229,31.954,31.954,0,0,0,4.35-3.173,34.985,34.985,0,0,0,3.889-3.744l.088-.057c.173,0,.173.086.029.314a24.874,24.874,0,0,0-1.93,3.544,37.051,37.051,0,0,0-2.031,5.986c-27.047-3.263-37.079-1.154-39.408.232,3.863-.726,13.2-3.159,39.3.226a9.137,9.137,0,0,0-.228,1.5,2.358,2.358,0,0,0,.951,2.229,4.4,4.4,0,0,0,2.3.743,5.218,5.218,0,0,0,1.671-.286,14.566,14.566,0,0,0,3.947-2.515c.143-.119.277-.241.415-.362,5.077.8,10.669,1.8,16.843,3.024,42.622,8.264,32.77-7.483,23.029-10.2m-51.926,1.3a.955.955,0,0,1-.432.143c-.346,0-.518-.2-.518-.685a1.86,1.86,0,0,1,.115-.657,15.46,15.46,0,0,1,2.738-4,8.16,8.16,0,0,1,3.428-2.6,2.633,2.633,0,0,1,.662-.086c.777,0,1.326.428,1.326.857l-.088.2a34.128,34.128,0,0,1-7.231,6.832m7.492,8.175a6.411,6.411,0,0,1-2.047.343c-1.382,0-2.247-.628-2.247-1.915a3.626,3.626,0,0,1,.029-.543c.064-.405.169-.891.307-1.431q3.708.489,7.869,1.137a14.126,14.126,0,0,1-3.911,2.408" transform="translate(-680.783 -71.612)" fill="#51957d"/>
</svg>
