<svg xmlns="http://www.w3.org/2000/svg" xmlns:xlink="http://www.w3.org/1999/xlink" width="116.095" height="79.286" viewBox="0 0 116.095 79.286">
  <defs>
    <clipPath id="clip-path">
      <rect id="Rectangle_2" data-name="Rectangle 2" width="116.095" height="79.286" fill="none"/>
    </clipPath>
  </defs>
  <g id="Group_22181" data-name="Group 22181" transform="translate(0 0)">
    <g id="Group_1" data-name="Group 1" transform="translate(0 0)" clip-path="url(#clip-path)">
      <path id="Path_1" data-name="Path 1" d="M19.516,26.16a11.2,11.2,0,0,0,1.466-.128c4.843-.381,12.3-1.018,19.116-1.018a54.668,54.668,0,0,1,10.258.764c.511.065.829-.191.766-.7A4.158,4.158,0,0,0,49.657,23.8a46.617,46.617,0,0,0-9.241-.7c-6.244,0-13.51.574-18.925.955-.637.063-1.275.128-1.847.128.255-4.971.636-9.94,1.082-13.127-.19-1.275-2.676-1.656-2.613-.637-.253,3.951-.572,8.985-.827,13.956A164.121,164.121,0,0,0,.4,26.352c-1.083.255.255,1.912,1.464,1.721,5.1-.892,10.068-1.275,15.357-1.721-.19,3.888-.318,7.647-.381,10.641-.065,2.486-.128,5.926-.128,9.622,0,8.539.255,18.416.957,20.647.444,1.338,2.42,2.676,2.23,1.21-.829-3-1.083-9.24-1.083-15.74,0-5.8.191-11.787.255-15.866Z" transform="translate(0 6.535)" fill="#cf9ea4"/>
      <path id="Path_2" data-name="Path 2" d="M49.542,26.064c-3.229-.528-7.48,2.566-9.376,4.65.042-.538-.414-.4-.414-.4l.042-1.568a1.858,1.858,0,0,0-.957-1.34c-.637-.318-1.275-.318-1.275.128-.24,2.158-.4,3.844-.513,5.186a13.76,13.76,0,0,1-7.579,3.225c-1.784-.191-2.23-1.721-2.485-3.25a22.549,22.549,0,0,1,.126-2.611c.128-.957-2.1-2.1-2.295-1.212-.509,2.293-4.778,9.048-7.391,7.264a3.008,3.008,0,0,1-.957-2.613c0-1.656.574-3.5,1.466-4.079.318-.19.446-.572-.063-1.082a1.946,1.946,0,0,0-1.721-.766,2.537,2.537,0,0,0-1.275,1.4,6.111,6.111,0,0,0-.7,3,7.705,7.705,0,0,0,.383,2.421,5.576,5.576,0,0,0,4.969,3.824c2.613,0,4.462-2.232,5.736-4.079a5.786,5.786,0,0,0,5.352,3.633,9.108,9.108,0,0,0,6.259-2.223,5.712,5.712,0,0,0,.176,2.223c.255.955,2.358,1.784,2.295.955A14.749,14.749,0,0,1,39.794,36c1.529-4.4,6.818-8.284,10-8.219l-.063.509c-.063.511.829.892,1.721-.126.446-.511-.446-1.849-1.912-2.1" transform="translate(9.416 17.272)" fill="#cf9ea4"/>
      <path id="Path_3" data-name="Path 3" d="M85.811,39.446c-2.295,2.55-7.775,5.8-11.025,5.162-1.145-.32-1.464-1.593-1.4-2.676a15.629,15.629,0,0,1,1.02-3.313c.446-.764-1.721-2.167-2.1-1.466l-1.083,1.466h-.065a12.906,12.906,0,0,0-5.159-1.083,11.052,11.052,0,0,0-6.118,1.721,5.436,5.436,0,0,0-1.786,1.905c-1.834-.325-3.951-.571-5.6-.707-.538-.043-1.015-.083-1.426-.108-.369-.022-.687-.033-.93-.023l-.577.017,1.155-.8A21.475,21.475,0,0,0,54.6,35.068,29.448,29.448,0,0,0,58.51,24.2c.131-.82.195-1.583.258-2.345a20.081,20.081,0,0,0-.438-7.069,5.141,5.141,0,0,0-1.5-2.683c-.657-.566-1.726-.782-3.248-.141-.065,0-.133.052-.2.11-2.107,1.514-3.545,4.353-4.533,7.752a56.463,56.463,0,0,0-1.8,10.779c-.3,3.62-.394,7.063-.421,9.684l-1.12.419a2.012,2.012,0,0,0-.88.413c-.682.557-.784,1.413.23,1.258l1.574-.181c-.015.195-.028.4-.042.6l-.082.6c-.047.682-.083,1.646-.113,2.774-.063,2.455-.09,5.713-.073,8.7a48.807,48.807,0,0,0,.85,7.78c.706,3.448,1.9,6.375,3.868,8.05.065.063.128.126.191.126,1.464.766,2.55.639,3.25.128A5.159,5.159,0,0,0,56,68.4a20.117,20.117,0,0,0,1.018-7.01c0-.764,0-1.528-.063-2.356a29.362,29.362,0,0,0-3-11.152,21.529,21.529,0,0,0-3.5-4.78l-1.085-.892.574.063c.276.035.654.05,1.1.058q.562.007,1.261.007c1.583,0,3.611-.062,5.41-.218a4.093,4.093,0,0,0-.13,1.02,4.312,4.312,0,0,0,1.912,3.5,4.158,4.158,0,0,0,2.293.639c3.378,0,7.582-3.25,9.366-4.844a6,6,0,0,0,4.525,4.014c2.678.637,7.074-1.4,8.667-2.994,3.5-3.5,2.55-5.1,1.466-4.016m-36.73-9.5c.17-2.029.414-4.109.764-6.1.742-4.242,1.954-8.08,3.909-10.137l.211-.238-.133.052c.667-.328,1.726.015,2.3,2.365A16.289,16.289,0,0,1,56.583,22c-.075.889-.221,1.9-.366,2.847A27.462,27.462,0,0,1,52.7,34.91a19.1,19.1,0,0,1-3.184,3.7l-.742.451c-.013-.582-.018-1.222-.015-1.9.01-2.1.11-4.626.325-7.214m2.966,17.942a27.516,27.516,0,0,1,2.676,10.323c.063.957.126,1.975.126,2.867a16.29,16.29,0,0,1-.955,6.054c-.764,2.293-1.847,2.548-2.485,2.167l.128.063-.191-.255c-1.413-1.756-2.263-4.593-2.749-7.835a60.423,60.423,0,0,1-.566-8.734,89.1,89.1,0,0,1,.448-9.111l.1.072.6.438a19.168,19.168,0,0,1,2.867,3.951m8.594-2.638a1.159,1.159,0,0,1-1.147-1.529c.7-2.931,4.906-4.142,8.093-4.142a9.126,9.126,0,0,1,2.485.318c-2.23,2.36-6.372,4.971-9.431,5.354" transform="translate(29.29 7.687)" fill="#cf9ea4"/>
      <path id="Path_11" data-name="Path 11" d="M44.658,40.6c-.536-.045-1.013-.083-1.425-.108-.371-.023-.687-.033-.93-.023l-.577.015,1.155-.8a21.475,21.475,0,0,0,3.888-4.473,29.394,29.394,0,0,0,3.906-10.865c.133-.819.195-1.583.258-2.345a20.085,20.085,0,0,0-.436-7.069,5.164,5.164,0,0,0-1.5-2.683c-.657-.566-1.726-.782-3.25-.141-.063,0-.131.053-.2.112-2.105,1.513-3.545,4.352-4.533,7.75a56.507,56.507,0,0,0-1.8,10.779c-.3,3.62-.394,7.064-.421,9.684l-1.12.419a2.014,2.014,0,0,0-.88.414c-.684.556-.785,1.411.23,1.258l1.573-.181c-.013.195-.028.394-.042.6l-.082.6c-.045.682-.082,1.644-.112,2.774-.063,2.453-.09,5.711-.073,8.7a48.829,48.829,0,0,0,.85,7.782c.706,3.446,1.9,6.375,3.868,8.05.063.063.126.126.191.126,1.464.766,2.548.637,3.248.128a5.166,5.166,0,0,0,1.722-2.55,20.168,20.168,0,0,0,1.018-7.01c0-.764,0-1.529-.063-2.358a29.407,29.407,0,0,0-3-11.15,21.494,21.494,0,0,0-3.5-4.781l-1.083-.89.574.062a10.231,10.231,0,0,0,1.1.058c.374,0,.794.007,1.261.007,1.571,0,3.581-.06,5.37-.215a4.557,4.557,0,0,0,.408-.965c-1.832-.323-3.944-.567-5.587-.7m-.448,7.429a27.469,27.469,0,0,1,2.676,10.323c.063.955.128,1.975.128,2.866a16.284,16.284,0,0,1-.955,6.054c-.766,2.295-1.849,2.55-2.486,2.167l.128.063-.191-.255c-1.411-1.756-2.262-4.593-2.748-7.833a60.212,60.212,0,0,1-.566-8.735,89.659,89.659,0,0,1,.446-9.111l.1.072.6.438a19.013,19.013,0,0,1,2.867,3.952M40.937,39.2c-.013-.581-.02-1.22-.015-1.9.01-2.1.11-4.625.325-7.214.168-2.029.414-4.107.762-6.1.742-4.244,1.955-8.081,3.909-10.138l.213-.238L46,13.659c.667-.326,1.724.017,2.3,2.366a16.315,16.315,0,0,1,.451,6.111c-.073.89-.221,1.9-.364,2.847a27.482,27.482,0,0,1-3.52,10.067,19.122,19.122,0,0,1-3.185,3.7Z" transform="translate(24.086 7.78)" fill="#cf9ea4"/>
      <g id="Group_8" data-name="Group 8" transform="translate(43.419 0.001)">
        <path id="Path_12" data-name="Path 12" d="M30.05,8.306c-.582-.354-1.113.559-.533.912L33.8,11.824a.53.53,0,0,0,.533,0Q39.037,9.113,43.739,6.4c-.263-.253-.519-.513-.772-.774q-4.448,2.564-8.893,5.131L30.05,8.306" transform="translate(-23.981 3.736)" fill="#cf9ea4"/>
        <path id="Path_13" data-name="Path 13" d="M30.872,3.551a1.763,1.763,0,0,1-1.729-1.308A1.781,1.781,0,0,1,32.148.549c.742.744,1.486,1.484,2.27,2.267.428-.439.845-.87,1.266-1.3.328-.333.656-.666.992-.992a1.779,1.779,0,0,1,2.977,1.719,1.752,1.752,0,0,1-1.729,1.3c-.877,0-6.236,0-7.053,0m4.334-.612c.9,0,1.751,0,2.608,0a1.979,1.979,0,0,0,.261-.023,1.131,1.131,0,0,0,.984-.87A1.157,1.157,0,0,0,38.574.82a1.052,1.052,0,0,0-1.33.057c-.691.654-1.341,1.351-2.039,2.062m-1.593-.02c-.7-.7-1.341-1.373-2.017-2.019A1.089,1.089,0,0,0,30.264.8a1.159,1.159,0,0,0-.539,1.175,1.088,1.088,0,0,0,.984.939c.949.035,1.9.01,2.9.01" transform="translate(-24.104 0)" fill="#cf9ea4"/>
        <path id="Path_14" data-name="Path 14" d="M45.04,10.742c.255.261.509.521.772.774l.02-.012a.531.531,0,0,0,.261-.456V5.467a.541.541,0,0,0-.388-.509l-8.382-2.5a7.324,7.324,0,0,0-.955-.285,2.729,2.729,0,0,0-1.062.221l-4.891,1.38L26.5,4.881a.54.54,0,0,0-.388.509V15.3a9.39,9.39,0,0,0,0,1.2c.06.458.569.641.927.854L32,20.313l4.047,2.408a.522.522,0,0,0,.533,0q2.481-1.543,4.961-3.087,1.58-.986,3.164-1.97c.428-.268,1.316-.607,1.385-1.173a27.785,27.785,0,0,0,0-3.267.528.528,0,0,0-1.055,0v2.991l-8.725,5.434q-4.571-2.721-9.145-5.44V5.79c2.629-.741,9.086-2.541,9.086-2.541l5.319,1.581,3.465,1.032v4.883" transform="translate(-26.09 1.44)" fill="#93a396"/>
        <path id="Path_15" data-name="Path 15" d="M34.051,12.446h0l-.037.02-4.022-2.448a.468.468,0,0,0-.479-.027.537.537,0,0,0-.018.917l4.284,2.608a.527.527,0,0,0,.531,0l9.408-5.427c-.261-.253-.518-.513-.772-.774l-8.893,5.131" transform="translate(-23.995 4.858)" fill="#cf9ea4"/>
      </g>
    </g>
  </g>
</svg>
