<svg id="Group_206" data-name="Group 206" xmlns="http://www.w3.org/2000/svg" xmlns:xlink="http://www.w3.org/1999/xlink" width="151.64" height="151.544" viewBox="0 0 151.64 151.544">
  <defs>
    <linearGradient id="linear-gradient" x1="0.902" y1="0.04" x2="0.058" y2="0.955" gradientUnits="objectBoundingBox">
      <stop offset="0" stop-color="#fff"/>
      <stop offset="1" stop-color="#1578ff"/>
    </linearGradient>
    <clipPath id="clip-path">
      <rect id="Rectangle_178" data-name="Rectangle 178" width="151.64" height="151.544" stroke="rgba(0,0,0,0)" stroke-width="1" fill="url(#linear-gradient)"/>
    </clipPath>
  </defs>
  <g id="Group_205" data-name="Group 205" clip-path="url(#clip-path)">
    <path id="Path_950" data-name="Path 950" d="M71.048,0h9.473c2.142.282,4.294.506,6.426.855C111.074,4.8,129.273,17.4,141.715,38.4a16.438,16.438,0,0,1,1.108,2.087,2.1,2.1,0,0,1-.844,2.83A2.19,2.19,0,0,1,139,42.605c-.31-.442-.537-.94-.8-1.412a68.411,68.411,0,0,0-7.841-11.354l-18.538,7.106a53.1,53.1,0,0,1,16.938,36.5h18.321c0-.335.008-.53,0-.724a73.1,73.1,0,0,0-3.888-20.4c-.624-1.81-.211-3.017,1.114-3.463,1.383-.464,2.473.214,3.06,1.971C153.472,69.088,153.14,87.214,145.7,105A75.776,75.776,0,0,1,1.146,88.848C.677,86.088.378,83.3,0,80.523V71.05c.484-3.357.847-6.736,1.469-10.066C7.112,30.8,32.307,6.147,62.578,1.167,65.389.7,68.225.386,71.048,0M39.7,114.647a48.341,48.341,0,0,1-3.634-3.869c-2.21-2.893-4.314-5.87-6.361-8.882a2.161,2.161,0,0,1,.591-3.233c1.144-.717,2.362-.328,3.23,1.037.186.29.353.593.528.889A48.522,48.522,0,0,0,123.8,68.876c-3.6-25.93-27.8-44.738-53.809-41.208-20.086,2.726-33.624,14.14-40.355,33.258-3.371,9.575-3.159,19.367-.287,29.1.456,1.548-.086,2.694-1.375,3.106-1.238.4-2.4-.3-2.835-1.853-.553-1.991-1.088-4-1.454-6.026-.425-2.357-.658-4.749-.969-7.075H4.468a71.139,71.139,0,0,0,16.767,43.545L39.7,114.647m.057-77.7-18.527-7.1A71.079,71.079,0,0,0,4.47,73.49H22.821A53.114,53.114,0,0,1,39.76,36.95m72.048,77.673,18.53,7.1A71.044,71.044,0,0,0,147.087,78.14H128.736a53.127,53.127,0,0,1-16.928,36.484m15.085-88.018-.041-.662A70.053,70.053,0,0,0,91.794,6.365c8,7.283,12.619,16.619,16.424,26.937l18.676-6.7m-83.4,6.361c3.684-10.1,8.357-19.35,16.649-26.8A71.781,71.781,0,0,0,24.6,26.154a90.031,90.031,0,0,0,18.889,6.811M91.794,145.2a70.28,70.28,0,0,0,35.174-19.784,87.5,87.5,0,0,0-18.542-6.711c-2.379,4.909-4.5,9.671-6.959,14.253A46.644,46.644,0,0,1,91.794,145.2M24.6,125.429a71.97,71.97,0,0,0,35.54,19.965c-8.341-7.476-12.99-16.8-16.658-26.792A89.578,89.578,0,0,0,24.6,125.429m48.881,3.313a54.333,54.333,0,0,1-23.838-6.882,6.2,6.2,0,0,0,.292.932c2.4,4.283,4.548,8.731,7.271,12.8A26.337,26.337,0,0,0,69.9,146.02c1.113.415,2.3.637,3.58.983ZM73.461,4.666c-.591.1-1.068.146-1.531.254a20.816,20.816,0,0,0-8.8,4.623c-6.27,5.334-10.259,12.233-13.355,19.725-.024.058.069.165.132.3a53.482,53.482,0,0,1,23.557-6.755Zm28.379,24.576a58.547,58.547,0,0,0-9.319-15.669A26.9,26.9,0,0,0,82.283,5.778c-1.291-.522-2.671-.818-4.162-1.263V22.477c4.156.806,8.228,1.316,12.127,2.431,3.942,1.128,7.712,2.855,11.593,4.334M78.091,146.97c6.395-1.134,10.946-4.81,14.843-9.465a57.73,57.73,0,0,0,9.1-15.714,54.318,54.318,0,0,1-24.022,6.978c0,5.772,0,11.334,0,16.895,0,.337.04.675.08,1.307" stroke="rgba(0,0,0,0)" stroke-width="1" fill="url(#linear-gradient)"/>
    <rect id="Rectangle_177" data-name="Rectangle 177" width="2.02" height="19.12" transform="translate(56.682 49.731)" stroke="rgba(0,0,0,0)" stroke-width="1" fill="url(#linear-gradient)"/>
    <path id="Path_951" data-name="Path 951" d="M58.463,62.318a7.483,7.483,0,0,1-3.018-1.8l.792-1.557A7.574,7.574,0,0,0,59,60.638a10.08,10.08,0,0,0,3.551.642,6.483,6.483,0,0,0,3.851-.942,2.9,2.9,0,0,0,1.284-2.445,2.443,2.443,0,0,0-.7-1.83,4.692,4.692,0,0,0-1.707-1.052,27.573,27.573,0,0,0-2.812-.806,29.49,29.49,0,0,1-3.442-1.052,5.643,5.643,0,0,1-2.2-1.543,4.1,4.1,0,0,1-.915-2.813,4.759,4.759,0,0,1,.765-2.636,5.234,5.234,0,0,1,2.349-1.9,9.61,9.61,0,0,1,3.932-.71A11.624,11.624,0,0,1,66.166,44a9.23,9.23,0,0,1,2.717,1.243L68.2,46.858a9.4,9.4,0,0,0-2.568-1.188,9.633,9.633,0,0,0-2.678-.4,6.185,6.185,0,0,0-3.782.97,3.008,3.008,0,0,0-1.27,2.5,2.492,2.492,0,0,0,.7,1.844,4.558,4.558,0,0,0,1.747,1.065q1.052.369,2.828.806a28.721,28.721,0,0,1,3.4,1.024,5.589,5.589,0,0,1,2.2,1.53,4.048,4.048,0,0,1,.9,2.772,4.708,4.708,0,0,1-.778,2.636A5.23,5.23,0,0,1,66.506,62.3a9.977,9.977,0,0,1-3.959.7,12.282,12.282,0,0,1-4.083-.683" transform="translate(7.656 6.014)" stroke="rgba(0,0,0,0)" stroke-width="1" fill="url(#linear-gradient)"/>
    <path id="Path_952" data-name="Path 952" d="M75.227,61.731a9.277,9.277,0,0,1-3.605-3.483,10.173,10.173,0,0,1,0-9.942,9.269,9.269,0,0,1,3.605-3.483,11.068,11.068,0,0,1,10.27-.014,9.309,9.309,0,0,1,3.593,3.483,10.139,10.139,0,0,1,0,9.97A9.3,9.3,0,0,1,85.5,61.744a11.077,11.077,0,0,1-10.27-.014m9.246-1.557a7.431,7.431,0,0,0,2.869-2.841,8.444,8.444,0,0,0,0-8.112,7.416,7.416,0,0,0-2.869-2.841,8.725,8.725,0,0,0-8.208,0,7.476,7.476,0,0,0-2.9,2.841,8.348,8.348,0,0,0,0,8.112,7.491,7.491,0,0,0,2.9,2.841,8.742,8.742,0,0,0,8.208,0" transform="translate(9.711 6.014)" stroke="rgba(0,0,0,0)" stroke-width="1" fill="url(#linear-gradient)"/>
    <path id="Path_953" data-name="Path 953" d="M48.453,85.574v1.748H35.042V85.929l7.948-7.785a10.277,10.277,0,0,0,2.035-2.553,4.869,4.869,0,0,0,.533-2.173,3.207,3.207,0,0,0-1.16-2.636,5.15,5.15,0,0,0-3.319-.942,6.551,6.551,0,0,0-5.217,2.13l-1.394-1.2a7.355,7.355,0,0,1,2.855-2.021,10.254,10.254,0,0,1,3.918-.71,7.158,7.158,0,0,1,4.63,1.379A4.6,4.6,0,0,1,47.579,73.2a6.489,6.489,0,0,1-.656,2.841,11.89,11.89,0,0,1-2.484,3.141l-6.5,6.391Z" transform="translate(4.76 9.395)" stroke="rgba(0,0,0,0)" stroke-width="1" fill="url(#linear-gradient)"/>
    <path id="Path_954" data-name="Path 954" d="M62.475,68.183v1.393l-8,17.727h-2.13L60.21,69.931H50.375v3.578H48.436V68.183Z" transform="translate(6.688 9.415)" stroke="rgba(0,0,0,0)" stroke-width="1" fill="url(#linear-gradient)"/>
    <path id="Path_955" data-name="Path 955" d="M66.726,86.311a7.714,7.714,0,0,1-2.7-3.373,14.315,14.315,0,0,1,0-10.352,7.72,7.72,0,0,1,2.7-3.373,7.221,7.221,0,0,1,7.895,0,7.8,7.8,0,0,1,2.717,3.373,14.1,14.1,0,0,1,0,10.352,7.793,7.793,0,0,1-2.717,3.373,7.227,7.227,0,0,1-7.895,0m6.884-1.557a6.01,6.01,0,0,0,1.979-2.7,13.3,13.3,0,0,0,0-8.577,6.01,6.01,0,0,0-1.979-2.7,5.106,5.106,0,0,0-5.873,0,6,6,0,0,0-1.98,2.7,13.3,13.3,0,0,0,0,8.577,6,6,0,0,0,1.98,2.7,5.111,5.111,0,0,0,5.873,0" transform="translate(8.707 9.395)" stroke="rgba(0,0,0,0)" stroke-width="1" fill="url(#linear-gradient)"/>
    <path id="Path_956" data-name="Path 956" d="M82.613,86.311a7.713,7.713,0,0,1-2.7-3.373,14.315,14.315,0,0,1,0-10.352,7.72,7.72,0,0,1,2.7-3.373,7.221,7.221,0,0,1,7.895,0,7.8,7.8,0,0,1,2.717,3.373,14.1,14.1,0,0,1,0,10.352,7.793,7.793,0,0,1-2.717,3.373,7.227,7.227,0,0,1-7.895,0M89.5,84.754a6.01,6.01,0,0,0,1.979-2.7,13.3,13.3,0,0,0,0-8.577,6.009,6.009,0,0,0-1.979-2.7,5.106,5.106,0,0,0-5.873,0,6,6,0,0,0-1.98,2.7,13.3,13.3,0,0,0,0,8.577,6,6,0,0,0,1.98,2.7,5.111,5.111,0,0,0,5.873,0" transform="translate(10.901 9.395)" stroke="rgba(0,0,0,0)" stroke-width="1" fill="url(#linear-gradient)"/>
    <path id="Path_957" data-name="Path 957" d="M100.269,68.183V87.3H98.3V69.931H93.8V68.183Z" transform="translate(12.952 9.415)" stroke="rgba(0,0,0,0)" stroke-width="1" fill="url(#linear-gradient)"/>
  </g>
</svg>
