<svg xmlns="http://www.w3.org/2000/svg" width="20.673" height="20.711" viewBox="0 0 20.673 20.711">
  <path id="Icon_feather-phone" data-name="Icon feather-phone" d="M22.339,17.382v2.892a1.928,1.928,0,0,1-2.1,1.928,19.076,19.076,0,0,1-8.319-2.959,18.8,18.8,0,0,1-5.784-5.784A19.076,19.076,0,0,1,3.176,5.1,1.928,1.928,0,0,1,5.094,3H7.986A1.928,1.928,0,0,1,9.914,4.658a12.377,12.377,0,0,0,.675,2.709A1.928,1.928,0,0,1,10.155,9.4L8.93,10.625a15.423,15.423,0,0,0,5.784,5.784l1.224-1.224a1.928,1.928,0,0,1,2.034-.434,12.377,12.377,0,0,0,2.709.675,1.928,1.928,0,0,1,1.658,1.957Z" transform="translate(-2.417 -2.25)" fill="none" stroke="#fff" stroke-linecap="round" stroke-linejoin="round" stroke-width="1.5"/>
</svg>
