<svg xmlns="http://www.w3.org/2000/svg" xmlns:xlink="http://www.w3.org/1999/xlink" width="129" height="193" viewBox="0 0 129 193">
  <defs>
    <linearGradient id="linear-gradient" x1="0.902" y1="0.04" x2="0.058" y2="0.955" gradientUnits="objectBoundingBox">
      <stop offset="0" stop-color="#e9ebee"/>
      <stop offset="1" stop-color="#e7f0fc"/>
    </linearGradient>
    <clipPath id="clip-path">
      <rect id="Rectangle_18094" data-name="Rectangle 18094" width="129" height="193" rx="10" transform="translate(2654 -3161)" fill="url(#linear-gradient)"/>
    </clipPath>
    <linearGradient id="linear-gradient-2" x1="0.902" y1="0.04" x2="0.058" y2="0.955" gradientUnits="objectBoundingBox">
      <stop offset="0" stop-color="#2f2f2d"/>
      <stop offset="1" stop-color="#1578ff"/>
    </linearGradient>
  </defs>
  <g id="Mask_Group_101" data-name="Mask Group 101" transform="translate(-2654 3161)" clip-path="url(#clip-path)">
    <g id="Group_22180" data-name="Group 22180" transform="translate(2627 -3208.492)">
      <path id="Path_75319" data-name="Path 75319" d="M44.948,333.494a1.948,1.948,0,1,0,0,3.9H61.963a1.948,1.948,0,1,0,0-3.9Z" transform="translate(-31.83 -211.707)" fill="url(#linear-gradient-2)"/>
      <path id="Path_75320" data-name="Path 75320" d="M130.814,136.043l-8.2-8.2,0-65.922a3.251,3.251,0,0,0-3.247-3.247H100.613a40.809,40.809,0,0,0-56.113,0l-18.124,0h0a1.948,1.948,0,0,0,0,3.9l14.5,0A41.083,41.083,0,0,0,37.9,66.717l-34,0V62.559H17.283a1.948,1.948,0,0,0,0-3.9H3.248A3.251,3.251,0,0,0,0,61.91v72.73a3.251,3.251,0,0,0,3.247,3.247l26.4,0a1.948,1.948,0,1,0,0-3.9l-25.751,0,0-63.379,31.844,0a40.524,40.524,0,0,0-2.922,8.181H13.248A1.948,1.948,0,0,0,11.3,80.743V96.33a1.948,1.948,0,0,0,1.948,1.948H32.917a40.515,40.515,0,0,0,1.736,5.325H13.118a1.948,1.948,0,0,0,0,3.9H36.474a40.953,40.953,0,0,0,3.294,5.2H13.118a1.948,1.948,0,0,0,0,3.9H43.066A40.83,40.83,0,0,0,92.69,123.88l3.9,3.9a3.736,3.736,0,0,0,5.038.221l6,6-68.886,0a1.948,1.948,0,0,0,0,3.9h8.5l-1.708,6.232H42.164A8.793,8.793,0,0,0,33.38,152.9v.958a1.948,1.948,0,0,0,1.948,1.948l51.954.008h0a1.948,1.948,0,0,0,1.948-1.948v-.958a8.793,8.793,0,0,0-8.783-8.783H77.079l-1.71-6.236,36.153,0,8.72,8.72a7.475,7.475,0,1,0,10.571-10.571ZM85.233,151.921l-47.855-.007a4.895,4.895,0,0,1,4.785-3.9l38.284.008A4.895,4.895,0,0,1,85.233,151.921Zm-12.194-7.794-23.466,0,1.709-6.232,20.048,0Zm45.678-77.4H107.2a41,41,0,0,0-2.969-4.156h14.488ZM15.2,94.382V82.692H32.084a40.932,40.932,0,0,0,.055,11.69ZM35.589,88.34a36.954,36.954,0,0,1,73.46-5.731,1.948,1.948,0,1,0,3.85-.6,40.6,40.6,0,0,0-3.554-11.392h9.37v53.324l-6.518-6.519a3.732,3.732,0,0,0-.221-5.039l-3.894-3.894a40.639,40.639,0,0,0,5.189-17.044,1.948,1.948,0,1,0-3.886-.293,36.952,36.952,0,0,1-73.8-2.816Zm60.471,33.4a41.091,41.091,0,0,0,9.88-9.876l3.165,3.165-9.878,9.878Zm32,22.12a3.578,3.578,0,0,1-5.061,0l-18.607-18.607,5.061-5.061L128.059,138.8A3.583,3.583,0,0,1,128.059,143.859Z" transform="translate(0 0)" fill="url(#linear-gradient-2)"/>
      <path id="Path_75321" data-name="Path 75321" d="M185.016,77.443a33.069,33.069,0,0,0-19.46,59.805,1.948,1.948,0,0,0,2.3-3.149,29.027,29.027,0,1,1,7.506,3.946,1.948,1.948,0,1,0-1.29,3.677,33.071,33.071,0,1,0,10.948-64.279Z" transform="translate(-112.477 -22.17)" fill="url(#linear-gradient-2)"/>
      <path id="Path_75322" data-name="Path 75322" d="M260.492,174.26a1.948,1.948,0,0,0,0-3.9h-5.883a1.948,1.948,0,0,0-1.948,1.948v13.962a1.948,1.948,0,0,0,1.948,1.948h5.883a1.948,1.948,0,0,0,0-3.9h-3.935v-3.084h3.5a1.948,1.948,0,1,0,0-3.9h-3.5V174.26Z" transform="translate(-187.027 -90.952)" fill="url(#linear-gradient-2)"/>
      <path id="Path_75323" data-name="Path 75323" d="M191.394,184.208a4.717,4.717,0,0,1-3.467-1.449,1.948,1.948,0,1,0-2.887,2.617,8.552,8.552,0,0,0,6.354,2.729,6,6,0,0,0,6.113-4.66c.364-2.039-.552-4.7-4.216-6.051a37.8,37.8,0,0,1-3.842-1.545.55.55,0,0,1-.265-.6,1.343,1.343,0,0,1,1.035-1.1,4.506,4.506,0,0,1,3.706.862,1.948,1.948,0,0,0,2.5-2.992,8.41,8.41,0,0,0-7.326-1.6,5.246,5.246,0,0,0-3.787,4.43,4.417,4.417,0,0,0,2.277,4.419,36.137,36.137,0,0,0,4.357,1.779c.448.165,1.895.776,1.728,1.71A2.19,2.19,0,0,1,191.394,184.208Z" transform="translate(-136.598 -90.771)" fill="url(#linear-gradient-2)"/>
      <path id="Path_75324" data-name="Path 75324" d="M324.978,179.11a8.994,8.994,0,1,0-8.994,8.994A9,9,0,0,0,324.978,179.11Zm-14.091,0a5.1,5.1,0,1,1,5.1,5.1A5.1,5.1,0,0,1,310.888,179.11Z" transform="translate(-227.243 -90.77)" fill="url(#linear-gradient-2)"/>
    </g>
  </g>
</svg>
