<svg xmlns="http://www.w3.org/2000/svg" xmlns:xlink="http://www.w3.org/1999/xlink" width="121.707" height="116.004" viewBox="0 0 121.707 116.004">
  <defs>
    <linearGradient id="linear-gradient" x1="0.902" y1="0.04" x2="0.058" y2="0.955" gradientUnits="objectBoundingBox">
      <stop offset="0" stop-color="#2f2f2d"/>
      <stop offset="1" stop-color="#1578ff"/>
    </linearGradient>
  </defs>
  <g id="Group_22155" data-name="Group 22155" transform="translate(0 -11.996)">
    <path id="Path_74964" data-name="Path 74964" d="M67.775,55.271a8.039,8.039,0,1,0,8.048,8.039A8.049,8.049,0,0,0,67.775,55.271Zm0,11.283a3.244,3.244,0,1,1,3.254-3.244A3.25,3.25,0,0,1,67.775,66.554Z" transform="translate(-45.534 -32.988)" fill="url(#linear-gradient)"/>
    <path id="Path_74965" data-name="Path 74965" d="M295.4,55.271H274.147a8.039,8.039,0,1,0,0,16.077H295.4a8.039,8.039,0,1,0,0-16.077Zm0,11.283H274.147a3.245,3.245,0,1,1,0-6.489H295.4a3.245,3.245,0,1,1,0,6.489Z" transform="translate(-202.849 -32.988)" fill="url(#linear-gradient)"/>
    <path id="Path_74966" data-name="Path 74966" d="M155.447,55.271A8.039,8.039,0,1,0,163.5,63.31,8.049,8.049,0,0,0,155.447,55.271Zm0,11.283A3.245,3.245,0,1,1,158.7,63.31,3.25,3.25,0,0,1,155.447,66.554Z" transform="translate(-112.365 -32.988)" fill="url(#linear-gradient)"/>
    <path id="Path_74967" data-name="Path 74967" d="M140.066,222.231a2.4,2.4,0,0,0-2.889,1.774l-4.756,19.9a2.4,2.4,0,1,0,4.663,1.114l4.756-19.9A2.4,2.4,0,0,0,140.066,222.231Z" transform="translate(-100.893 -160.209)" fill="url(#linear-gradient)"/>
    <path id="Path_74968" data-name="Path 74968" d="M199.24,250.222a2.4,2.4,0,0,0,3.385-.2l6.722-7.546a3.326,3.326,0,0,0,.007-4.4l-6.729-7.554a2.4,2.4,0,0,0-3.58,3.189l5.842,6.558-5.842,6.558a2.4,2.4,0,0,0,.2,3.385Z" transform="translate(-151.267 -165.976)" fill="url(#linear-gradient)"/>
    <path id="Path_74969" data-name="Path 74969" d="M67.995,230.337a2.4,2.4,0,0,0-3.385.2l-6.721,7.545a3.325,3.325,0,0,0-.008,4.4l6.729,7.554a2.4,2.4,0,0,0,3.58-3.189l-5.842-6.558,5.842-6.558a2.4,2.4,0,0,0-.2-3.385Z" transform="translate(-43.492 -165.977)" fill="url(#linear-gradient)"/>
    <path id="Path_74970" data-name="Path 74970" d="M116.333,89.855h-.89a25.239,25.239,0,0,0-1.807-4.361l.635-.637a5.371,5.371,0,0,0,.005-7.6l-1.238-1.237V24.963c0-7.15-5.046-12.967-11.248-12.967H11.248C5.046,12,0,17.813,0,24.963v67c0,7.15,5.046,12.967,11.248,12.967H25.312a2.4,2.4,0,1,0,0-4.794H11.248c-3.5,0-6.454-3.743-6.454-8.172V48.472h103.45V72.7a5.451,5.451,0,0,0-.832-.07H107.4a5.314,5.314,0,0,0-3.783,1.567l-.648.645a25.307,25.307,0,0,0-4.431-1.829v-.854a5.38,5.38,0,0,0-5.374-5.373H88.831a5.376,5.376,0,0,0-5.367,5.373v.912a25.446,25.446,0,0,0-4.328,1.813l-.621-.619a5.322,5.322,0,0,0-3.791-1.575h-.008a5.337,5.337,0,0,0-3.8,1.57L67.851,77.32a5.371,5.371,0,0,0,0,7.589l.662.664a25.314,25.314,0,0,0-1.765,4.281h-.91a5.373,5.373,0,0,0-5.368,5.366v4.342a5.4,5.4,0,0,0,.031.571H46.55a2.4,2.4,0,1,0,0,4.794h20.2a25.166,25.166,0,0,0,1.794,4.315l-.648.645a5.38,5.38,0,0,0,0,7.587l3.066,3.065a5.322,5.322,0,0,0,3.791,1.575h.008a5.336,5.336,0,0,0,3.8-1.57l.642-.642a25.329,25.329,0,0,0,4.332,1.8v.928A5.376,5.376,0,0,0,88.911,128h4.345a5.376,5.376,0,0,0,5.367-5.373V121.7a25.264,25.264,0,0,0,4.351-1.8l.639.637a5.321,5.321,0,0,0,3.791,1.575h.008a5.339,5.339,0,0,0,3.8-1.572l3.058-3.063a5.371,5.371,0,0,0,0-7.6l-.64-.639a25.312,25.312,0,0,0,1.791-4.316h.906a5.376,5.376,0,0,0,5.374-5.366V95.22a5.375,5.375,0,0,0-5.374-5.366ZM4.794,43.678V24.963c0-4.43,2.955-8.172,6.454-8.172h90.543c3.5,0,6.454,3.743,6.454,8.172V43.678H4.794ZM116.913,99.563a.591.591,0,0,1-.58.571h-2.741A2.4,2.4,0,0,0,111.255,102a20.578,20.578,0,0,1-2.643,6.369,2.4,2.4,0,0,0,.335,2.971l1.94,1.939a.575.575,0,0,1,.166.408.556.556,0,0,1-.168.4l-3.063,3.068a.577.577,0,0,1-.41.167h0a.559.559,0,0,1-.406-.17l-1.947-1.939a2.4,2.4,0,0,0-2.968-.331,20.54,20.54,0,0,1-6.4,2.647,2.4,2.4,0,0,0-1.865,2.338v2.76a.591.591,0,0,1-.573.579H88.912a.591.591,0,0,1-.573-.579v-2.767a2.4,2.4,0,0,0-1.868-2.338,20.568,20.568,0,0,1-6.384-2.643,2.4,2.4,0,0,0-2.966.337l-1.939,1.939a.577.577,0,0,1-.41.167h0a.557.557,0,0,1-.4-.167l-3.071-3.07a.59.59,0,0,1,0-.807l1.947-1.939a2.4,2.4,0,0,0,.335-2.979A20.431,20.431,0,0,1,70.927,102a2.4,2.4,0,0,0-2.337-1.862H65.835a.58.58,0,0,1-.573-.571V95.221a.58.58,0,0,1,.573-.572h2.748a2.4,2.4,0,0,0,2.338-1.865,20.564,20.564,0,0,1,2.613-6.339,2.4,2.4,0,0,0-.336-2.962l-1.961-1.967a.55.55,0,0,1-.161-.4.574.574,0,0,1,.166-.408l3.065-3.063a.577.577,0,0,1,.41-.167h0a.56.56,0,0,1,.406.17l1.933,1.925a2.4,2.4,0,0,0,2.975.326,20.679,20.679,0,0,1,6.376-2.673A2.4,2.4,0,0,0,88.257,74.9v-2.74a.584.584,0,0,1,.573-.579h4.338a.587.587,0,0,1,.58.579v2.7a2.4,2.4,0,0,0,1.876,2.34,20.552,20.552,0,0,1,6.468,2.667,2.4,2.4,0,0,0,2.966-.332l1.955-1.947a.552.552,0,0,1,.4-.162h0a.577.577,0,0,1,.41.167l3.065,3.063a.575.575,0,0,1,.166.408.558.558,0,0,1-.169.4l-1.94,1.946a2.4,2.4,0,0,0-.33,2.972,20.518,20.518,0,0,1,2.654,6.4A2.4,2.4,0,0,0,113.6,94.65h2.728a.591.591,0,0,1,.58.572Z" fill="url(#linear-gradient)"/>
    <path id="Path_74971" data-name="Path 74971" d="M336.209,309.652A14.64,14.64,0,1,0,350.852,324.3,14.663,14.663,0,0,0,336.209,309.652Zm0,24.485a9.845,9.845,0,1,1,9.849-9.842A9.86,9.86,0,0,1,336.209,334.137Z" transform="translate(-245.121 -226.9)" fill="url(#linear-gradient)"/>
    <path id="Path_74972" data-name="Path 74972" d="M143.616,382.778h-.047a2.4,2.4,0,1,0,0,4.794h.047a2.4,2.4,0,1,0,0-4.794Z" transform="translate(-107.614 -282.643)" fill="url(#linear-gradient)"/>
  </g>
</svg>
