<svg xmlns="http://www.w3.org/2000/svg" xmlns:xlink="http://www.w3.org/1999/xlink" width="127.495" height="127.5" viewBox="0 0 127.495 127.5">
  <defs>
    <linearGradient id="linear-gradient" x1="0.902" y1="0.04" x2="0.058" y2="0.955" gradientUnits="objectBoundingBox">
      <stop offset="0" stop-color="#2f2f2d"/>
      <stop offset="1" stop-color="#1578ff"/>
    </linearGradient>
  </defs>
  <g id="Outline" transform="translate(-16 -15.981)">
    <g id="Hosting-server-cloud" transform="translate(16 15.981)">
      <path id="Path_74996" data-name="Path 74996" d="M176,160h25.5v4.25H176Z" transform="translate(-133.501 -121.746)" fill="url(#linear-gradient)"/>
      <path id="Path_74997" data-name="Path 74997" d="M288,160h4.25v4.25H288Z" transform="translate(-215.752 -121.746)" fill="url(#linear-gradient)"/>
      <path id="Path_74998" data-name="Path 74998" d="M320,160h4.25v4.25H320Z" transform="translate(-239.253 -121.746)" fill="url(#linear-gradient)"/>
      <path id="Path_74999" data-name="Path 74999" d="M176,224h25.5v4.25H176Z" transform="translate(-133.501 -168.747)" fill="url(#linear-gradient)"/>
      <path id="Path_75000" data-name="Path 75000" d="M288,224h4.25v4.25H288Z" transform="translate(-215.752 -168.747)" fill="url(#linear-gradient)"/>
      <path id="Path_75001" data-name="Path 75001" d="M320,224h4.25v4.25H320Z" transform="translate(-239.253 -168.747)" fill="url(#linear-gradient)"/>
      <path id="Path_75002" data-name="Path 75002" d="M176,288h25.5v4.25H176Z" transform="translate(-133.501 -215.747)" fill="url(#linear-gradient)"/>
      <path id="Path_75003" data-name="Path 75003" d="M288,288h4.25v4.25H288Z" transform="translate(-215.752 -215.747)" fill="url(#linear-gradient)"/>
      <path id="Path_75004" data-name="Path 75004" d="M320,288h4.25v4.25H320Z" transform="translate(-239.253 -215.747)" fill="url(#linear-gradient)"/>
      <path id="Path_75005" data-name="Path 75005" d="M135,103.108a8.515,8.515,0,0,0-8.231,6.375H103.122v-8.5a6.382,6.382,0,0,0,6.375-6.375V88.234h12.75a21.249,21.249,0,1,0-3.465-42.217,40.382,40.382,0,0,0-74.669-8.649,25.837,25.837,0,0,0-2.614-.133,25.5,25.5,0,1,0,0,51H50v6.375a6.382,6.382,0,0,0,6.375,6.375v8.5H32.73a8.5,8.5,0,1,0,0,4.25H58.5a2.125,2.125,0,0,0,2.125-2.125V100.984h4.25v17h-17a2.125,2.125,0,0,0-2.125,2.125v6.644a8.5,8.5,0,1,0,4.25,0v-4.519H67a2.125,2.125,0,0,0,2.125-2.125V100.984h8.5V122.5a8.5,8.5,0,1,0,4.25,0V100.984h8.5v19.124a2.125,2.125,0,0,0,2.125,2.125h17v4.519a8.5,8.5,0,1,0,4.25,0v-6.644a2.125,2.125,0,0,0-2.125-2.125h-17v-17h4.25v10.625A2.125,2.125,0,0,0,101,113.733h25.768A8.5,8.5,0,1,0,135,103.108ZM24.5,115.858a4.25,4.25,0,1,1,4.25-4.25A4.25,4.25,0,0,1,24.5,115.858Zm27.624,19.124a4.25,4.25,0,1,1-4.25-4.25,4.25,4.25,0,0,1,4.25,4.25ZM84,130.733a4.25,4.25,0,1,1-4.25-4.25A4.25,4.25,0,0,1,84,130.733Zm31.874,4.25a4.25,4.25,0,1,1-4.25-4.25A4.25,4.25,0,0,1,115.872,134.982ZM54.249,60.61v-8.5a2.127,2.127,0,0,1,2.125-2.125h46.748a2.127,2.127,0,0,1,2.125,2.125v8.5a2.127,2.127,0,0,1-2.125,2.125H56.374A2.127,2.127,0,0,1,54.249,60.61Zm0,17v-8.5a2.127,2.127,0,0,1,2.125-2.125h46.748a2.127,2.127,0,0,1,2.125,2.125v8.5a2.127,2.127,0,0,1-2.125,2.125H56.374A2.127,2.127,0,0,1,54.249,77.609Zm-34-14.875A21.273,21.273,0,0,1,41.5,41.485a21.515,21.515,0,0,1,3.485.283,2.123,2.123,0,0,0,2.253-1.17,36.133,36.133,0,0,1,67.878,8.371,2.125,2.125,0,0,0,2.645,1.616,17,17,0,1,1,4.487,33.4H109.131a6.379,6.379,0,0,0-1.263-2.125,6.348,6.348,0,0,0,1.628-4.25v-8.5a6.348,6.348,0,0,0-1.628-4.25,6.348,6.348,0,0,0,1.628-4.25v-8.5a6.382,6.382,0,0,0-6.375-6.375H56.374A6.382,6.382,0,0,0,50,52.11v8.5a6.348,6.348,0,0,0,1.628,4.25A6.348,6.348,0,0,0,50,69.11v8.5a6.348,6.348,0,0,0,1.628,4.25,6.379,6.379,0,0,0-1.263,2.125H41.5A21.273,21.273,0,0,1,20.25,62.735Zm34,31.874v-8.5a2.127,2.127,0,0,1,2.125-2.125h46.748a2.127,2.127,0,0,1,2.125,2.125v8.5a2.127,2.127,0,0,1-2.125,2.125H56.374a2.127,2.127,0,0,1-2.125-2.125ZM135,115.858a4.25,4.25,0,1,1,4.25-4.25A4.25,4.25,0,0,1,135,115.858Z" transform="translate(-16 -15.981)" fill="url(#linear-gradient)"/>
    </g>
  </g>
</svg>
