<svg xmlns="http://www.w3.org/2000/svg" xmlns:xlink="http://www.w3.org/1999/xlink" width="125.68" height="127.5" viewBox="0 0 125.68 127.5">
  <defs>
    <linearGradient id="linear-gradient" x1="0.902" y1="0.04" x2="0.058" y2="0.955" gradientUnits="objectBoundingBox">
      <stop offset="0" stop-color="#2f2f2d"/>
      <stop offset="1" stop-color="#1578ff"/>
    </linearGradient>
  </defs>
  <g id="Group_22155" data-name="Group 22155" transform="translate(-1.93 -1.48)">
    <path id="Path_74954" data-name="Path 74954" d="M60.5,14.9A4.793,4.793,0,1,0,55.71,10.1,4.791,4.791,0,0,0,60.5,14.9Zm0-6.169a1.4,1.4,0,0,1,0,2.791,1.4,1.4,0,0,1,0-2.791Z" transform="translate(54.991 3.916)" fill="url(#linear-gradient)"/>
    <path id="Path_74955" data-name="Path 74955" d="M120.814,1.48H22.277a6.81,6.81,0,0,0-6.8,6.8V18.651H8.726a6.81,6.81,0,0,0-6.8,6.8v85.209a6.81,6.81,0,0,0,6.8,6.8H53.889v9.829a1.709,1.709,0,0,0,1.7,1.7H87.5a1.709,1.709,0,0,0,1.7-1.7v-9.829h18.061a6.81,6.81,0,0,0,6.8-6.8V100.28h6.755a6.81,6.81,0,0,0,6.8-6.8V8.276a6.81,6.81,0,0,0-6.8-6.8ZM18.879,8.276a3.405,3.405,0,0,1,3.4-3.4h98.537a3.405,3.405,0,0,1,3.4,3.4V23.182H59.734l-7.584-7.868a3.109,3.109,0,0,0-2.225-.951H33.218a3.107,3.107,0,0,0-3.094,3.094v5.724H18.879ZM8.726,114.074a3.405,3.405,0,0,1-3.4-3.4V25.447a3.405,3.405,0,0,1,3.4-3.4h6.755V93.5a6.81,6.81,0,0,0,6.8,6.8H59.167a7.843,7.843,0,0,1,.849,4.247H57.388a3.5,3.5,0,0,0-3.5,3.5v6.027ZM69.867,78.5a1.923,1.923,0,0,1,1.679-.991,1.9,1.9,0,0,1,1.9,1.9,1.919,1.919,0,0,1-.951,1.658,2.123,2.123,0,0,1-2.2-.1.562.562,0,0,1-.243-.243A2.137,2.137,0,0,1,69.867,78.5Zm-.02-4.065a5.26,5.26,0,0,0-2.933,2.427,5.538,5.538,0,0,0,.283,5.683,4.249,4.249,0,0,0,1.436,1.375,5.994,5.994,0,0,0,2.933.809,5.285,5.285,0,0,0,1.679-10.295V65.7L88.272,92.817a.219.219,0,0,1-.1.081,11.431,11.431,0,0,0-8.515,11.65h-16.2a11.664,11.664,0,0,0-8.616-11.812L69.846,65.7ZM85.8,125.582H57.287l.1-17.657H85.7a.1.1,0,0,1,.1.1Zm24.857-14.926a3.405,3.405,0,0,1-3.4,3.4H89.2v-6.027a3.5,3.5,0,0,0-3.5-3.5H83.074a8.031,8.031,0,0,1,.849-4.247h26.738ZM120.814,96.9H87.22A7.31,7.31,0,0,1,89,96.175a3.6,3.6,0,0,0,2.387-2.043,3.455,3.455,0,0,0-.162-3.054L73.831,59.749a2.573,2.573,0,0,0-2.265-1.355,2.66,2.66,0,0,0-2.306,1.335L51.846,91.078a3.523,3.523,0,0,0,2.225,5.1,7.655,7.655,0,0,1,1.78.728H22.277a3.405,3.405,0,0,1-3.4-3.4V26.58H30.407A3.107,3.107,0,0,0,33.5,23.485V17.761H49.783l7.584,7.868a3.109,3.109,0,0,0,2.225.951h64.62V93.485a3.41,3.41,0,0,1-3.4,3.418Z" fill="url(#linear-gradient)"/>
    <path id="Path_74956" data-name="Path 74956" d="M54.783,14.9A4.793,4.793,0,1,0,49.99,10.1,4.791,4.791,0,0,0,54.783,14.9Zm0-6.169a1.4,1.4,0,0,1,0,2.791,1.4,1.4,0,0,1,0-2.791Z" transform="translate(49.143 3.916)" fill="url(#linear-gradient)"/>
    <path id="Path_74957" data-name="Path 74957" d="M49.053,14.9A4.793,4.793,0,1,0,44.26,10.1,4.791,4.791,0,0,0,49.053,14.9Zm0-6.169a1.4,1.4,0,0,1,0,2.791,1.4,1.4,0,0,1,0-2.791Z" transform="translate(43.283 3.916)" fill="url(#linear-gradient)"/>
    <path id="Path_74958" data-name="Path 74958" d="M91.427,22.417A6.75,6.75,0,0,0,89.566,26H65.8v-2.67a3.3,3.3,0,0,0-3.3-3.3H54.839a3.3,3.3,0,0,0-3.3,3.3V26H27.8a6.743,6.743,0,0,0-1.861-3.6,6.874,6.874,0,0,0-9.465.02,6.689,6.689,0,0,0,0,9.465A6.53,6.53,0,0,0,21.2,33.864a7.292,7.292,0,0,0,3.317-.809,5.965,5.965,0,0,0,2.67-2.751,8.534,8.534,0,0,0,.364-.91H44.039a33.766,33.766,0,0,0-18.061,22.49H23.348a3.3,3.3,0,0,0-3.3,3.3v7.665a3.3,3.3,0,0,0,3.3,3.3h7.665a3.3,3.3,0,0,0,3.3-3.3V55.181a3.3,3.3,0,0,0-3.3-3.3H29.477A30.345,30.345,0,0,1,51.6,30.244v.728a3.3,3.3,0,0,0,3.3,3.3h7.665a3.3,3.3,0,0,0,3.3-3.3v-.728A30.411,30.411,0,0,1,87.988,51.885h-1.4a3.3,3.3,0,0,0-3.3,3.3v7.665a3.3,3.3,0,0,0,3.3,3.3h7.665a3.3,3.3,0,0,0,3.3-3.3V55.181a3.3,3.3,0,0,0-3.3-3.3H91.487a33.833,33.833,0,0,0-18.061-22.49H89.95a6.689,6.689,0,0,0,6.29,4.47,7.292,7.292,0,0,0,3.317-.809,5.965,5.965,0,0,0,2.67-2.751,6.824,6.824,0,0,0-1.234-7.908,7.022,7.022,0,0,0-9.567.02ZM24.1,28.868a2.6,2.6,0,0,1-1.133,1.153,3.375,3.375,0,0,1-4.106-.546,3.208,3.208,0,0,1-.971-2.326,3.359,3.359,0,0,1,.971-2.346,3.321,3.321,0,0,1,4.672-.02A3.525,3.525,0,0,1,24.1,28.868Zm6.877,33.877-7.564.1-.1-7.564h7.564Zm63.224,0-7.564.1-.1-7.564H94.1ZM54.961,30.992l-.04-2.548a1.755,1.755,0,0,0,.02-.566v-.02c0-.061.04-.1.04-.162a1,1,0,0,0-.061-.263l-.061-3.984h7.564l.061,3.984a1.417,1.417,0,0,0-.061.283.476.476,0,0,0,.04.162v.02a1.735,1.735,0,0,0,.04.728l.04,2.285Zm44.111-2.124a2.6,2.6,0,0,1-1.133,1.153,3.375,3.375,0,0,1-4.106-.546,3.208,3.208,0,0,1-.971-2.326,3.359,3.359,0,0,1,.971-2.346,3.321,3.321,0,0,1,4.672-.02A3.525,3.525,0,0,1,99.072,28.868Z" transform="translate(12.863 18.968)" fill="url(#linear-gradient)"/>
  </g>
</svg>
