<svg xmlns="http://www.w3.org/2000/svg" xmlns:xlink="http://www.w3.org/1999/xlink" width="121.707" height="121.707" viewBox="0 0 121.707 121.707">
  <defs>
    <linearGradient id="linear-gradient" x1="0.902" y1="0.04" x2="0.058" y2="0.955" gradientUnits="objectBoundingBox">
      <stop offset="0" stop-color="#2f2f2d"/>
      <stop offset="1" stop-color="#1578ff"/>
    </linearGradient>
  </defs>
  <g id="Group_22155" data-name="Group 22155" transform="translate(-2.171 -2.171)">
    <g id="Group_21614" data-name="Group 21614" transform="translate(2.171 2.171)">
      <path id="Path_75012" data-name="Path 75012" d="M7.458,6.795a2,2,0,0,0-.351.093,1.735,1.735,0,0,0-.313.184,1.11,1.11,0,0,0-.276.222A1.81,1.81,0,0,0,5.963,8.6a1.823,1.823,0,0,0,.555,1.291,1.163,1.163,0,0,0,.276.24,1.725,1.725,0,0,0,.313.166,1.1,1.1,0,0,0,.351.111,2.191,2.191,0,0,0,.349.037,1.839,1.839,0,0,0,1.309-.553A1.882,1.882,0,0,0,9.523,9.3a1.821,1.821,0,0,0,.128-.7,1.792,1.792,0,0,0-.535-1.309A1.84,1.84,0,0,0,7.458,6.795Z" transform="translate(1.523 2.296)" fill="url(#linear-gradient)"/>
      <path id="Path_75013" data-name="Path 75013" d="M12.531,7.071a2.916,2.916,0,0,0-.333-.184,2.279,2.279,0,0,0-.331-.093,1.9,1.9,0,0,0-1.07.093,2.178,2.178,0,0,0-.609.405A1.907,1.907,0,0,0,9.654,8.6,1.826,1.826,0,0,0,11.5,10.446a2.442,2.442,0,0,0,.369-.037A1.14,1.14,0,0,0,12.2,10.3a2.864,2.864,0,0,0,.333-.166l.276-.222a2.128,2.128,0,0,0,.387-.609,1.531,1.531,0,0,0,.148-.7,1.907,1.907,0,0,0-.535-1.309A1.486,1.486,0,0,0,12.531,7.071Z" transform="translate(5.117 2.296)" fill="url(#linear-gradient)"/>
      <path id="Path_75014" data-name="Path 75014" d="M16.479,7.281a1.907,1.907,0,0,0-2.6,0,2.227,2.227,0,0,0-.405.59,1.953,1.953,0,0,0-.13.719,1.781,1.781,0,0,0,.535,1.291,1.874,1.874,0,0,0,1.309.553A1.889,1.889,0,0,0,17.032,8.59a2.019,2.019,0,0,0-.148-.719A1.618,1.618,0,0,0,16.479,7.281Z" transform="translate(8.711 2.308)" fill="url(#linear-gradient)"/>
      <path id="Path_75015" data-name="Path 75015" d="M118.346,2.171h-46.1A5.538,5.538,0,0,0,66.712,7.7V36.778c-.067,0-.132-.018-.2-.018h-7c-.06,0-.116.014-.175.016V7.7A5.538,5.538,0,0,0,53.8,2.171H7.7A5.538,5.538,0,0,0,2.171,7.7V85.744A5.538,5.538,0,0,0,7.7,91.276H30.6a34.025,34.025,0,0,0,2.58,5.793l-3.92,5.312a5.027,5.027,0,0,0-.949,2.707,4.784,4.784,0,0,0,1.43,3.564L34.7,113.59a4.8,4.8,0,0,0,6.272.479l5.339-3.888a33.72,33.72,0,0,0,7.427,3.085l.967,6.559a4.878,4.878,0,0,0,4.8,4.054h7a4.824,4.824,0,0,0,4.781-4.091l1-6.519A35.367,35.367,0,0,0,79.74,110.2l5.343,3.926a4.786,4.786,0,0,0,6.215-.515l5.033-4.983a4.766,4.766,0,0,0,1.095-4.979,3.835,3.835,0,0,0-.657-1.293l-3.906-5.293a35.07,35.07,0,0,0,2.582-5.788h22.9a5.538,5.538,0,0,0,5.532-5.532V7.7a5.538,5.538,0,0,0-5.532-5.532ZM70.4,7.7a1.846,1.846,0,0,1,1.844-1.844h46.1A1.846,1.846,0,0,1,120.19,7.7V20.269H70.4ZM5.859,7.7A1.846,1.846,0,0,1,7.7,5.859H53.8A1.846,1.846,0,0,1,55.648,7.7V20.269H5.859Zm0,78.041V23.957H55.648V38.713a5.033,5.033,0,0,0-.945,2.174l-.96,6.5a27.569,27.569,0,0,0-3.265,1.138c-.29.1-.564.207-.972.38a28.963,28.963,0,0,0-3.227,1.574l-5.305-3.913a4.772,4.772,0,0,0-6.254.492l-4.947,4.949a4.771,4.771,0,0,0-.492,6.3l3.9,5.287a34.081,34.081,0,0,0-3.108,7.452l-6.5,1A4.869,4.869,0,0,0,19.466,76.8v7.054a4.768,4.768,0,0,0,1.784,3.73H7.7A1.845,1.845,0,0,1,5.859,85.744Zm88,18.84a1.79,1.79,0,0,0,.1.33,1.078,1.078,0,0,1-.25,1.12l-5.044,4.994a1.1,1.1,0,0,1-1.417.115l-6.3-4.626a1.846,1.846,0,0,0-2.039-.1,31.626,31.626,0,0,1-8.7,3.585,1.842,1.842,0,0,0-1.381,1.509l-1.192,7.736a1.127,1.127,0,0,1-1.133.94h-7a1.2,1.2,0,0,1-1.16-.954l-1.138-7.711A1.842,1.842,0,0,0,55.83,110a30.049,30.049,0,0,1-8.648-3.6,1.847,1.847,0,0,0-2.057.077L38.789,111.1a1.1,1.1,0,0,1-1.466-.106l-4.976-4.952a1.108,1.108,0,0,1-.348-.816,1.3,1.3,0,0,1,.249-.679l4.626-6.269a1.844,1.844,0,0,0,.086-2.062,30.33,30.33,0,0,1-3.049-6.693c0-.032.018-.059.018-.091a1.8,1.8,0,0,0-.332-1c-.085-.3-.185-.6-.26-.9a1.847,1.847,0,0,0-1.507-1.378l-7.686-1.189a1.136,1.136,0,0,1-.99-1.109V76.8a1.168,1.168,0,0,1,.99-1.111l7.684-1.187a1.844,1.844,0,0,0,1.509-1.381,30.419,30.419,0,0,1,3.623-8.678,1.844,1.844,0,0,0-.086-2.062l-4.63-6.274a1.106,1.106,0,0,1,.1-1.464l5-5a1.112,1.112,0,0,1,1.453-.106l6.27,4.626a1.843,1.843,0,0,0,2.055.092,26.924,26.924,0,0,1,3.791-1.947l.185-.077a5.664,5.664,0,0,1,.56-.216,1.7,1.7,0,0,0,.182-.067,24.4,24.4,0,0,1,3.974-1.293,1.842,1.842,0,0,0,1.4-1.524l1.131-7.668a1.251,1.251,0,0,1,.38-.695c.028-.026.061-.044.088-.071a1.138,1.138,0,0,1,.7-.257h7a1.142,1.142,0,0,1,1.136.99l1.189,7.711a1.841,1.841,0,0,0,1.4,1.513,30.1,30.1,0,0,1,8.694,3.6,1.836,1.836,0,0,0,2.053-.092l6.272-4.628a1.1,1.1,0,0,1,1.446.128l5.019,4.994a1.12,1.12,0,0,1,.081,1.453l-4.626,6.269a1.845,1.845,0,0,0-.088,2.058,30.605,30.605,0,0,1,3.625,8.682,1.842,1.842,0,0,0,1.509,1.381l7.706,1.187A1.16,1.16,0,0,1,102.9,76.8v7.054a1.143,1.143,0,0,1-.965,1.109L94.22,86.156a1.844,1.844,0,0,0-1.509,1.379,31.255,31.255,0,0,1-3.629,8.691,1.84,1.84,0,0,0,.092,2.051Zm26.332-18.84a1.845,1.845,0,0,1-1.844,1.844H104.808a4.779,4.779,0,0,0,1.777-3.73V76.8A4.864,4.864,0,0,0,102.5,72.05a.02.02,0,0,0-.009,0l-6.519-1a34.169,34.169,0,0,0-3.11-7.45l3.9-5.284a4.8,4.8,0,0,0-.457-6.276l-4.972-4.945a4.758,4.758,0,0,0-6.272-.515l-5.294,3.906a33.706,33.706,0,0,0-7.472-3.1l-1-6.481a4.719,4.719,0,0,0-.9-2.163V23.957H120.19Z" transform="translate(-2.171 -2.171)" fill="url(#linear-gradient)"/>
      <path id="Path_75016" data-name="Path 75016" d="M42.221,7.884c-.056-.11-.112-.2-.167-.313a2.731,2.731,0,0,0-.24-.276,1.066,1.066,0,0,0-.276-.222,2.857,2.857,0,0,0-.313-.184,2.528,2.528,0,0,0-.351-.093,1.587,1.587,0,0,0-.719,0,2.529,2.529,0,0,0-.351.093,1.735,1.735,0,0,0-.313.184.814.814,0,0,0-.276.222,3.009,3.009,0,0,0-.241.276c-.054.111-.11.2-.166.313a2.629,2.629,0,0,0-.11.351,2.553,2.553,0,0,0-.038.368,2.313,2.313,0,0,0,.038.35,1.947,1.947,0,0,0,.11.35c.056.111.112.222.166.314a1.169,1.169,0,0,0,.241.276,1.163,1.163,0,0,0,.276.24,1.725,1.725,0,0,0,.313.166,1.259,1.259,0,0,0,.351.111,2.191,2.191,0,0,0,.349.037,2.442,2.442,0,0,0,.369-.037,1.259,1.259,0,0,0,.351-.111,2.779,2.779,0,0,0,.313-.166,1.753,1.753,0,0,0,.276-.24,1.124,1.124,0,0,0,.24-.276c.056-.093.112-.2.167-.314a1.951,1.951,0,0,0,.092-.35,1.16,1.16,0,0,0,.036-.35,1.28,1.28,0,0,0-.036-.368A2.525,2.525,0,0,0,42.221,7.884Z" transform="translate(33.367 2.294)" fill="url(#linear-gradient)"/>
      <path id="Path_75017" data-name="Path 75017" d="M44.9,6.887a1.851,1.851,0,0,0-1.05-.093,1.959,1.959,0,0,0-.351.093,1.735,1.735,0,0,0-.313.184,1.124,1.124,0,0,0-.3.222l-.222.276a1.337,1.337,0,0,0-.166.313,1.483,1.483,0,0,0-.11.351,2.322,2.322,0,0,0-.038.368,1.84,1.84,0,0,0,.148.7,2.128,2.128,0,0,0,.387.609c.092.074.184.148.3.222a1.725,1.725,0,0,0,.313.166,1.887,1.887,0,0,0,.351.111,2.191,2.191,0,0,0,.349.037,1.826,1.826,0,0,0,.7-.148,1.708,1.708,0,0,0,.609-.387,2.128,2.128,0,0,0,.387-.609,1.84,1.84,0,0,0,.148-.7A1.874,1.874,0,0,0,45.5,7.293,1.759,1.759,0,0,0,44.9,6.887Z" transform="translate(36.961 2.296)" fill="url(#linear-gradient)"/>
      <path id="Path_75018" data-name="Path 75018" d="M49.582,7.882a1.273,1.273,0,0,0-.166-.313,3.276,3.276,0,0,0-.24-.276.821.821,0,0,0-.277-.222,1.734,1.734,0,0,0-.313-.184,1.959,1.959,0,0,0-.351-.093,1.851,1.851,0,0,0-1.05.093,1.759,1.759,0,0,0-.609.405,2.977,2.977,0,0,0-.221.276,2.645,2.645,0,0,0-.184.313,3.51,3.51,0,0,0-.094.351,1.28,1.28,0,0,0-.036.368,1.781,1.781,0,0,0,.535,1.291,1.531,1.531,0,0,0,.609.405,1.826,1.826,0,0,0,.7.148,2.191,2.191,0,0,0,.349-.037,1.083,1.083,0,0,0,.351-.111,1.725,1.725,0,0,0,.313-.166,1.173,1.173,0,0,0,.277-.24A1.8,1.8,0,0,0,49.73,8.6a2.321,2.321,0,0,0-.038-.368A1.483,1.483,0,0,0,49.582,7.882Z" transform="translate(40.555 2.296)" fill="url(#linear-gradient)"/>
      <path id="Path_75019" data-name="Path 75019" d="M45.237,29.325a24.7,24.7,0,1,0,24.7,24.7A24.728,24.728,0,0,0,45.237,29.325Zm0,45.71a21.011,21.011,0,1,1,21.012-21.01A21.035,21.035,0,0,1,45.237,75.036Z" transform="translate(15.718 24.275)" fill="url(#linear-gradient)"/>
      <path id="Path_75020" data-name="Path 75020" d="M31.025,37.668a6.105,6.105,0,0,0-6.1,6.1v8.215a1.844,1.844,0,0,0,3.688,0V49.105h4.821v2.878a1.844,1.844,0,0,0,3.688,0V43.768A6.105,6.105,0,0,0,31.025,37.668Zm-2.41,7.749v-1.65a2.41,2.41,0,1,1,4.821,0v1.65Z" transform="translate(19.992 32.4)" fill="url(#linear-gradient)"/>
      <path id="Path_75021" data-name="Path 75021" d="M38.622,37.668H34.1a1.843,1.843,0,0,0-1.844,1.844V51.983a1.844,1.844,0,0,0,3.688,0V48.322h2.68a5.327,5.327,0,1,0,0-10.654Zm0,6.966h-2.68V41.356h2.68a1.639,1.639,0,1,1,0,3.278Z" transform="translate(27.128 32.4)" fill="url(#linear-gradient)"/>
      <path id="Path_75022" data-name="Path 75022" d="M39.54,39.512V51.983a1.844,1.844,0,0,0,3.688,0V39.512a1.844,1.844,0,0,0-3.688,0Z" transform="translate(34.223 32.4)" fill="url(#linear-gradient)"/>
      <path id="Path_75023" data-name="Path 75023" d="M7.812,20.151H22.37a1.844,1.844,0,1,0,0-3.688H7.812a1.844,1.844,0,1,0,0,3.688Z" transform="translate(1.527 11.749)" fill="url(#linear-gradient)"/>
      <path id="Path_75024" data-name="Path 75024" d="M24.214,22.5a1.843,1.843,0,0,0-1.844-1.844H7.812a1.844,1.844,0,1,0,0,3.688H22.37A1.843,1.843,0,0,0,24.214,22.5Z" transform="translate(1.527 15.829)" fill="url(#linear-gradient)"/>
      <path id="Path_75025" data-name="Path 75025" d="M51.947,20.151H66.5a1.844,1.844,0,1,0,0-3.688H51.947a1.844,1.844,0,1,0,0,3.688Z" transform="translate(44.51 11.749)" fill="url(#linear-gradient)"/>
      <path id="Path_75026" data-name="Path 75026" d="M51.947,24.341H66.5a1.844,1.844,0,1,0,0-3.688H51.947a1.844,1.844,0,1,0,0,3.688Z" transform="translate(44.51 15.829)" fill="url(#linear-gradient)"/>
    </g>
  </g>
</svg>
