<svg xmlns="http://www.w3.org/2000/svg" xmlns:xlink="http://www.w3.org/1999/xlink" width="87" height="87" viewBox="0 0 87 87">
  <defs>
    <linearGradient id="linear-gradient" x1="0.902" y1="0.04" x2="0.058" y2="0.955" gradientUnits="objectBoundingBox">
      <stop offset="0" stop-color="#2f2f2d"/>
      <stop offset="1" stop-color="#1578ff"/>
    </linearGradient>
    <clipPath id="clip-path">
      <rect id="Rectangle_176" data-name="Rectangle 176" width="87" height="87" transform="translate(0.161 0.135)" fill="#fff" stroke="#707070" stroke-width="1"/>
    </clipPath>
    <clipPath id="clip-path-2">
      <rect id="Rectangle_179" data-name="Rectangle 179" width="52.912" height="52.903" stroke="rgba(0,0,0,0)" stroke-width="1" fill="url(#linear-gradient)"/>
    </clipPath>
  </defs>
  <g id="Mask_Group_50" data-name="Mask Group 50" transform="translate(-0.161 -0.135)" clip-path="url(#clip-path)">
    <g id="Group_209" data-name="Group 209" transform="translate(17.1 17.105)">
      <g id="Group_208" data-name="Group 208" clip-path="url(#clip-path-2)">
        <path id="Path_958" data-name="Path 958" d="M0,22.319c.507-1.475,1.723-1.744,3.071-1.856,1.251-.1,2.5-.289,3.744-.425a.68.68,0,0,0,.633-.5A13.437,13.437,0,0,1,8.1,17.963a.749.749,0,0,0-.125-.927c-.938-1.168-1.854-2.352-2.78-3.53a2.274,2.274,0,0,1,.19-3.4c.34-.342.675-.69,1.025-1.021a.758.758,0,0,1,1.144-.06.785.785,0,0,1-.049,1.15c-.354.376-.731.73-1.091,1.1-.426.437-.447.691-.073,1.171.952,1.223,1.9,2.451,2.874,3.653a2.112,2.112,0,0,1,.3,2.487A11.987,11.987,0,0,0,8.9,20.064a2.089,2.089,0,0,1-1.892,1.51c-1.522.172-3.041.363-4.563.538-.707.082-.9.276-.9.987q0,3.358,0,6.715c0,.706.191.9.907.979,1.521.175,3.041.365,4.563.538A2.08,2.08,0,0,1,8.89,32.8c.2.565.445,1.118.694,1.665A1.989,1.989,0,0,1,9.3,36.682c-.963,1.214-1.916,2.436-2.872,3.655-.483.616-.476.826.065,1.367q2.355,2.358,4.713,4.712c.527.526.745.541,1.327.086,1.221-.954,2.447-1.9,3.656-2.871a2.021,2.021,0,0,1,2.307-.284c.575.27,1.169.5,1.76.734a1.9,1.9,0,0,1,1.279,1.608q.3,2.355.575,4.713c.091.781.26.95,1.042.95q3.333,0,6.665,0c.706,0,.9-.191.98-.906.175-1.521.366-3.041.539-4.562A2.072,2.072,0,0,1,32.8,44.016a14.813,14.813,0,0,0,1.571-.651,2.06,2.06,0,0,1,2.4.3c1.179.952,2.38,1.875,3.572,2.811.613.482.83.477,1.369-.061q2.358-2.354,4.712-4.713c.526-.528.54-.748.087-1.328-.944-1.207-1.879-2.421-2.842-3.612a2.057,2.057,0,0,1-.294-2.4,15.015,15.015,0,0,0,.65-1.571A2.075,2.075,0,0,1,45.9,31.33c1.522-.172,3.042-.363,4.563-.538.709-.082.9-.276.9-.985q0-3.358,0-6.715c0-.707-.19-.9-.9-.98-1.521-.175-3.041-.365-4.563-.539a2.081,2.081,0,0,1-1.87-1.467c-.209-.581-.464-1.147-.713-1.713a1.935,1.935,0,0,1,.271-2.127c.949-1.2,1.89-2.412,2.836-3.617.57-.726.566-.886-.071-1.523q-2.3-2.3-4.6-4.6c-.576-.575-.777-.586-1.406-.092-1.191.936-2.393,1.859-3.572,2.81a2.063,2.063,0,0,1-2.4.294,15.282,15.282,0,0,0-1.572-.65,2.078,2.078,0,0,1-1.463-1.873c-.172-1.521-.363-3.041-.538-4.562-.082-.709-.275-.9-.984-.9q-3.358,0-6.717,0c-.708,0-.9.189-.98.9-.175,1.521-.365,3.041-.539,4.562A2.081,2.081,0,0,1,20.11,8.888c-.581.209-1.147.464-1.714.712a1.941,1.941,0,0,1-2.128-.27q-1.826-1.438-3.657-2.869c-.67-.526-.856-.52-1.446.065-.33.328-.65.665-.99.982a.783.783,0,0,1-1.149.041A.759.759,0,0,1,9.1,6.406c.356-.375.726-.735,1.094-1.1a2.246,2.246,0,0,1,3.242-.174c1.208.943,2.418,1.883,3.611,2.844a.753.753,0,0,0,.928.122c.521-.261,1.09-.427,1.609-.692a.878.878,0,0,0,.434-.552c.209-1.5.389-3,.549-4.509A2.314,2.314,0,0,1,23.136,0Q26.52,0,29.9,0a2.247,2.247,0,0,1,2.414,2.116c.2,1.518.381,3.039.537,4.562a.822.822,0,0,0,.637.81,12.515,12.515,0,0,1,1.52.639.664.664,0,0,0,.8-.1c1.2-.956,2.407-1.9,3.611-2.844a2.269,2.269,0,0,1,3.359.179q2.4,2.389,4.786,4.786a2.261,2.261,0,0,1,.184,3.32c-.933,1.193-1.863,2.39-2.812,3.57a.747.747,0,0,0-.124.927,13.776,13.776,0,0,1,.652,1.57.684.684,0,0,0,.635.5c1.522.17,3.041.361,4.563.533a2.292,2.292,0,0,1,2.25,2.506q0,3.384,0,6.767a2.293,2.293,0,0,1-2.267,2.492c-1.522.169-3.045.341-4.561.554a.938.938,0,0,0-.589.457c-.276.531-.46,1.111-.713,1.655a.67.67,0,0,0,.1.8c.936,1.169,1.852,2.354,2.78,3.53a2.3,2.3,0,0,1-.184,3.515q-2.336,2.339-4.677,4.675a2.279,2.279,0,0,1-3.4.191c-1.19-.937-2.387-1.865-3.572-2.811a.682.682,0,0,0-.836-.113,15.315,15.315,0,0,1-1.619.669.684.684,0,0,0-.5.633c-.17,1.522-.378,3.04-.527,4.564A2.542,2.542,0,0,1,30.59,52.9H22.322a2.54,2.54,0,0,1-1.755-2.249c-.149-1.522-.357-3.039-.526-4.56a.687.687,0,0,0-.5-.638c-.548-.2-1.091-.421-1.616-.675a.7.7,0,0,0-.84.11c-1.2.956-2.4,1.9-3.609,2.841a2.272,2.272,0,0,1-3.356-.206q-2.376-2.37-4.746-4.745a2.263,2.263,0,0,1-.205-3.354c.945-1.2,1.885-2.413,2.841-3.609a.7.7,0,0,0,.109-.84,17.036,17.036,0,0,1-.675-1.615.682.682,0,0,0-.636-.5c-1.248-.136-2.491-.322-3.741-.425C1.72,32.33.508,32.056,0,30.585Z" transform="translate(0 0)" stroke="rgba(0,0,0,0)" stroke-width="1" fill="url(#linear-gradient)"/>
        <path id="Path_959" data-name="Path 959" d="M43.857,50.653c0,.524.006,1.107,0,1.689-.008.6-.31.962-.779.965s-.763-.352-.768-.959-.023-1.24.006-1.859a.761.761,0,0,0-.453-.807,7.745,7.745,0,0,1-.474-13.126,2.419,2.419,0,0,1,.681-.354,1.333,1.333,0,0,1,1.7,1.346c.015,1.343-.008,2.687.017,4.029a1.124,1.124,0,0,0,.272.667c.5.564,1.046,1.091,1.608,1.668.676-.649,1.315-1.245,1.928-1.868a.763.763,0,0,0,.1-.48c.008-1.291.015-2.583,0-3.874a1.4,1.4,0,0,1,.724-1.38,1.443,1.443,0,0,1,1.553.163,7.758,7.758,0,0,1-.357,13.22.783.783,0,0,0-.454.8c.017,2.118.008,4.236.008,6.354v.571c.191-.046.337-.07.476-.115a12.281,12.281,0,0,0,8.32-12.444,12.584,12.584,0,0,0-2.2-6.25,1.28,1.28,0,0,1-.189-.889.771.771,0,0,1,.585-.463,1.088,1.088,0,0,1,.77.379,12.706,12.706,0,0,1,2.137,4.434A13.808,13.808,0,1,1,43.4,32.092,13.407,13.407,0,0,1,53.953,34.6c.58.424.707.826.412,1.246s-.741.43-1.346-.012a12.258,12.258,0,1,0-11.141,21.5c.112.036.229.055.43.1,0-.409-.006-.778,0-1.147.012-.586.283-.9.769-.893s.762.325.776.9c.012.48,0,.96,0,1.509l1.107.128V56.864c0-1.016,0-2.032,0-3.048,0-.682.255-1,.765-1.009s.779.321.782.991c.006,1.342,0,2.683,0,4.1l1.068-.071V50.653Zm-1.63-12.717c-2.063,1.079-3.179,4.185-2.473,6.731A6.218,6.218,0,0,0,51.9,43.826c.356-2.239-.967-5.2-2.646-5.858,0,1.318-.007,2.622,0,3.925a1.6,1.6,0,0,1-.526,1.239c-.676.638-1.339,1.29-2.018,1.923a1.349,1.349,0,0,1-2.093-.044c-.614-.6-1.209-1.225-1.83-1.82a1.758,1.758,0,0,1-.569-1.379c.02-1.272.006-2.545.006-3.876" transform="translate(-19.284 -19.242)" stroke="rgba(0,0,0,0)" stroke-width="1" fill="url(#linear-gradient)"/>
      </g>
    </g>
  </g>
</svg>
