<svg xmlns="http://www.w3.org/2000/svg" xmlns:xlink="http://www.w3.org/1999/xlink" width="88" height="87" viewBox="0 0 88 87">
  <defs>
    <linearGradient id="linear-gradient" x1="0.902" y1="0.04" x2="0.058" y2="0.955" gradientUnits="objectBoundingBox">
      <stop offset="0" stop-color="#2f2f2d"/>
      <stop offset="1" stop-color="#1578ff"/>
    </linearGradient>
    <clipPath id="clip-path">
      <rect id="Rectangle_18082" data-name="Rectangle 18082" width="88" height="87" transform="translate(-0.405 0.494)" fill="#fff" stroke="#707070" stroke-width="1"/>
    </clipPath>
    <clipPath id="clip-path-2">
      <rect id="Rectangle_18081" data-name="Rectangle 18081" width="49.558" height="49.565" stroke="rgba(0,0,0,0)" stroke-width="1" fill="url(#linear-gradient)"/>
    </clipPath>
  </defs>
  <g id="Mask_Group_93" data-name="Mask Group 93" transform="translate(0.405 -0.494)" clip-path="url(#clip-path)">
    <g id="Group_22156" data-name="Group 22156" transform="translate(18.778 18.774)">
      <g id="Group_22155" data-name="Group 22155" clip-path="url(#clip-path-2)">
        <path id="Path_75295" data-name="Path 75295" d="M85.422,9.39c-.332.4-.635.839-1,1.21-2.179,2.2-4.384,4.373-6.554,6.581a2,2,0,0,1-2,.621c-1.64-.338-3.292-.616-4.937-.934a.952.952,0,0,0-.975.291q-4.732,4.778-9.508,9.511a2.033,2.033,0,0,1-.893.514,1.091,1.091,0,0,1-1.2-.617,1.157,1.157,0,0,1,.134-1.314,4.5,4.5,0,0,1,.367-.385q4.7-4.7,9.416-9.4a.951.951,0,0,0,.285-.976c-.333-1.756-.644-3.517-.973-5.273a1.5,1.5,0,0,1,.435-1.414Q71.669,4.143,75.337.491a4.974,4.974,0,0,1,.7-.491h.775a1.919,1.919,0,0,1,1.21,1.652c.232,1.5.549,2.978.806,4.471A.486.486,0,0,0,79.3,6.6c1.508.258,3.007.575,4.518.815a1.881,1.881,0,0,1,1.6,1.2Zm-13,5.308c1.194.216,2.274.4,3.345.618a.723.723,0,0,0,.76-.225c1.7-1.72,3.416-3.426,5.126-5.138.107-.107.2-.225.364-.4-1.4-.258-2.706-.5-4.015-.74A1.551,1.551,0,0,1,76.612,7.42c-.226-1.219-.449-2.44-.676-3.659a2.925,2.925,0,0,0-.115-.342C73.9,5.335,72.035,7.2,70.17,9.076a.4.4,0,0,0-.112.292c.21,1.182.433,2.361.665,3.6.169-.16.287-.265.4-.377.709-.706,1.407-1.421,2.126-2.116a1.206,1.206,0,0,1,1.47-.187,1.15,1.15,0,0,1,.527,1.336,1.977,1.977,0,0,1-.467.712c-.748.774-1.519,1.526-2.354,2.358" transform="translate(-35.865)" stroke="rgba(0,0,0,0)" stroke-width="1" fill="url(#linear-gradient)"/>
        <path id="Path_75296" data-name="Path 75296" d="M23.54,6.2a29.405,29.405,0,0,1,5.282.694,1.193,1.193,0,0,1,.958,1.029,1.08,1.08,0,0,1-.6,1.168,2.289,2.289,0,0,1-1.165.079,20.163,20.163,0,0,0-10.005.289C9.638,11.983,4.431,17.565,2.764,26.146a21.119,21.119,0,1,0,41.421-.826c-.206-.946.236-1.648,1.06-1.695a1.234,1.234,0,0,1,1.292,1.122,24.113,24.113,0,0,1,.541,5.426A23.537,23.537,0,1,1,19.365,6.666c1.374-.25,2.782-.316,4.175-.467" transform="translate(0 -3.82)" stroke="rgba(0,0,0,0)" stroke-width="1" fill="url(#linear-gradient)"/>
        <path id="Path_75297" data-name="Path 75297" d="M34.305,23.912c1.105.129,2.133.218,3.15.377a1.177,1.177,0,0,1,1.1,1.415,1.192,1.192,0,0,1-1.534.94,14.771,14.771,0,0,0-6.1.183,14.359,14.359,0,1,0,17.4,17.3,14.041,14.041,0,0,0,.2-5.713c-.029-.175-.055-.351-.07-.527a1.182,1.182,0,0,1,1.014-1.312,1.123,1.123,0,0,1,1.332.912,23.924,23.924,0,0,1,.317,3.556,16.765,16.765,0,1,1-20.25-16.679c1.143-.25,2.327-.312,3.43-.454" transform="translate(-10.851 -14.734)" stroke="rgba(0,0,0,0)" stroke-width="1" fill="url(#linear-gradient)"/>
        <path id="Path_75298" data-name="Path 75298" d="M52.861,51.775c0-.242-.006-.484,0-.725a1.2,1.2,0,0,1,1.07-1.178,1.172,1.172,0,0,1,1.279.94,8.181,8.181,0,0,1-.142,3.312,9.878,9.878,0,1,1-8.986-12.015,1.322,1.322,0,0,1,1.34.839,1.185,1.185,0,0,1-1.262,1.581,8.163,8.163,0,0,0-3.733.61A7.457,7.457,0,0,0,44.3,59.349a7.419,7.419,0,0,0,8.56-7.574" transform="translate(-21.907 -25.935)" stroke="rgba(0,0,0,0)" stroke-width="1" fill="url(#linear-gradient)"/>
      </g>
    </g>
  </g>
</svg>
