<svg xmlns="http://www.w3.org/2000/svg" xmlns:xlink="http://www.w3.org/1999/xlink" width="87" height="87" viewBox="0 0 87 87">
  <defs>
    <linearGradient id="linear-gradient" x1="0.902" y1="0.04" x2="0.058" y2="0.955" gradientUnits="objectBoundingBox">
      <stop offset="0" stop-color="#2f2f2d"/>
      <stop offset="1" stop-color="#1578ff"/>
    </linearGradient>
    <clipPath id="clip-path">
      <rect id="Rectangle_18082" data-name="Rectangle 18082" width="87" height="87" transform="translate(-0.103 0.433)" fill="#fff" stroke="#707070" stroke-width="1"/>
    </clipPath>
    <clipPath id="clip-path-2">
      <rect id="Rectangle_18081" data-name="Rectangle 18081" width="54.773" height="55.824" stroke="rgba(0,0,0,0)" stroke-miterlimit="10" stroke-width="1" fill="url(#linear-gradient)"/>
    </clipPath>
  </defs>
  <g id="Mask_Group_93" data-name="Mask Group 93" transform="translate(0.103 -0.433)" clip-path="url(#clip-path)">
    <g id="Group_22156" data-name="Group 22156" transform="translate(13.859 15.644)">
      <g id="Group_22155" data-name="Group 22155" transform="translate(0 0)" clip-path="url(#clip-path-2)">
        <path id="Path_75295" data-name="Path 75295" d="M46.42,52.5c.58,1.8,1.157,3.549,1.708,5.309a1.372,1.372,0,0,1-1.059,1.871,2.067,2.067,0,0,1-1.289-.348c-1.478-1.011-2.91-2.088-4.4-3.17l-2.938,2.128c-.514.373-1.021.755-1.542,1.117a1.444,1.444,0,0,1-2.262-1.644c.553-1.74,1.12-3.476,1.7-5.265-1.306-.948-2.61-1.908-3.935-2.841a1.243,1.243,0,0,0-.643-.1c-.54-.013-1.08,0-1.484,0,0,1.308.031,2.588-.029,3.863-.01.225-.366.562-.619.626a2.422,2.422,0,0,0-1.75,1.7,2.1,2.1,0,0,0,.036,1.965c.407.76.326.974-.273,1.576-.567.569-1.142,1.129-1.7,1.706a.966.966,0,0,1-1.305.245,2.2,2.2,0,0,0-2.279-.055A2.135,2.135,0,0,0,20.884,62.7a1.045,1.045,0,0,1-1.2.855c-.839-.027-1.68-.017-2.52,0a.945.945,0,0,1-1.061-.722,2.279,2.279,0,0,0-1.658-1.71,2.139,2.139,0,0,0-1.97.026c-.783.417-.974.338-1.617-.3-.569-.567-1.132-1.14-1.707-1.7a.937.937,0,0,1-.221-1.261,2.3,2.3,0,0,0,.053-2.324,2.133,2.133,0,0,0-1.553-1.449,1.022,1.022,0,0,1-.808-1.17c.032-.783,0-1.568.013-2.353.007-.328.07-.655.114-1.041H4.142c-1.027,0-2.054,0-3.081,0-.794,0-1.142-.369-1.045-1.154a18.639,18.639,0,0,1,13.7-15.82,9.859,9.859,0,0,1-5.07-8.662A9.449,9.449,0,0,1,11.6,16.883,9.868,9.868,0,1,1,23.415,32.5c1.326.585,2.776,1.089,4.091,1.83a18.158,18.158,0,0,1,8.963,11.634c.129.491.319.706.824.622a2.093,2.093,0,0,1,.559,0c.319.034.452-.1.547-.407.492-1.565,1.01-3.121,1.52-4.68.282-.861.728-1.25,1.436-1.26.736-.009,1.2.383,1.488,1.267.5,1.542,1.013,3.081,1.5,4.63a.549.549,0,0,0,.632.455c1.624-.018,3.249-.01,4.873-.007.9,0,1.411.315,1.633.987a1.464,1.464,0,0,1-.72,1.767c-1.431,1.045-2.865,2.086-4.338,3.159M1.943,47.754c2.293,0,4.549,0,6.8-.008a.41.41,0,0,0,.3-.18c.266-.468.55-.938.139-1.482a3.507,3.507,0,0,1-.26-.556.985.985,0,0,1,.232-1.265c.6-.584,1.19-1.186,1.785-1.778.55-.546.77-.611,1.485-.248a2.148,2.148,0,0,0,2.019.055A2.34,2.34,0,0,0,16.1,40.579a.925.925,0,0,1,1.059-.714c.8.017,1.605,0,2.408,0,.912,0,1.075.068,1.346.937a2.177,2.177,0,0,0,1.331,1.383,2.367,2.367,0,0,0,2.482-.052.839.839,0,0,1,1.078.164q1.037,1.022,2.059,2.06a.9.9,0,0,1,.181,1.08c-.162.357-.328.712-.47,1.076-.155.4.31,1.229.689,1.234.877.011,1.755.013,2.632-.006a.5.5,0,0,0,.379-.217,1.532,1.532,0,0,1,1.617-.95c.608.016,1.217,0,1.84,0A16.745,16.745,0,0,0,1.943,47.754m16.5-31.883A8.043,8.043,0,1,0,26.5,23.907a8.034,8.034,0,0,0-8.056-8.036m7.744,29.314a11.8,11.8,0,0,0-1.112-1.034c-.127-.095-.464-.015-.643.089a1.758,1.758,0,0,1-2.08-.055,3.508,3.508,0,0,0-1.334-.554,1.707,1.707,0,0,1-1.476-1.392c-.049-.189-.161-.5-.272-.513a5.606,5.606,0,0,0-1.556,0c-.166.028-.322.424-.388.677a1.6,1.6,0,0,1-1.307,1.208,5.982,5.982,0,0,0-1.592.664,1.526,1.526,0,0,1-1.725.052c-.219-.13-.582-.332-.706-.247a4.987,4.987,0,0,0-1.123,1.071c-.094.121.047.493.169.7a1.649,1.649,0,0,1-.074,1.929,3.6,3.6,0,0,0-.561,1.332A1.824,1.824,0,0,1,8.894,50.67c-.154.04-.407.137-.414.225a6.3,6.3,0,0,0-.005,1.557c.027.164.425.314.678.385a1.6,1.6,0,0,1,1.212,1.3,5.991,5.991,0,0,0,.69,1.642,1.4,1.4,0,0,1,.051,1.62.877.877,0,0,0,.255,1.4.418.418,0,0,1,.118.119c.315.5.7.5,1.166.206a1.566,1.566,0,0,1,1.827.037,5.876,5.876,0,0,0,1.648.673,1.481,1.481,0,0,1,1.186,1.113c.075.264.182.692.342.726a4.661,4.661,0,0,0,1.546.042c.152-.02.31-.383.374-.615a1.7,1.7,0,0,1,1.415-1.316,6.193,6.193,0,0,0,1.636-.7,1.452,1.452,0,0,1,1.477-.056c.852.414.829.351,1.535-.256a.872.872,0,0,0,.223-1.319,1.468,1.468,0,0,1,.059-1.721,4.538,4.538,0,0,0,.632-1.484,1.706,1.706,0,0,1,1.4-1.465c.189-.047.5-.164.511-.276a5.236,5.236,0,0,0,0-1.556c-.034-.176-.46-.321-.731-.4a1.549,1.549,0,0,1-1.14-1.235,6.7,6.7,0,0,0-.7-1.7,1.481,1.481,0,0,1-.055-1.626c.127-.226.215-.474.364-.809m22.775,3.227c-.34-.018-.516-.035-.693-.036-1.25,0-2.5,0-3.751,0a1.542,1.542,0,0,1-1.762-1.29c-.393-1.2-.777-2.411-1.168-3.616-.05-.157-.118-.308-.229-.592-.5,1.524-.936,2.888-1.384,4.249a1.513,1.513,0,0,1-1.732,1.249c-1.269,0-2.538,0-3.807,0-.167,0-.335.023-.639.045,1.307.951,2.486,1.8,3.657,2.662a1.477,1.477,0,0,1,.617,1.9c-.155.5-.325.992-.485,1.488-.294.913-.586,1.826-.923,2.878,1.271-.921,2.417-1.751,3.561-2.583a1.576,1.576,0,0,1,2.314.008c.574.415,1.145.835,1.72,1.251s1.131.814,1.8,1.3c-.076-.273-.11-.414-.155-.552-.4-1.241-.8-2.481-1.2-3.723a1.511,1.511,0,0,1,.674-2.024l1.811-1.315c.55-.4,1.1-.8,1.776-1.3" transform="translate(0 -7.735)" stroke="rgba(0,0,0,0)" stroke-miterlimit="10" stroke-width="1" fill="url(#linear-gradient)"/>
        <path id="Path_75296" data-name="Path 75296" d="M96.206,2.064,91.164,8c.581,0,1.029,0,1.479,0,.946.006,1.236.295,1.236,1.243q0,7.618,0,15.235a1.824,1.824,0,0,1-.1.655.809.809,0,0,1-.943.528.821.821,0,0,1-.737-.733,3.882,3.882,0,0,1-.018-.615q0-6.889,0-13.779V9.806c-.609,0-1.164-.006-1.719,0a1.353,1.353,0,0,1-1.413-.793,1.4,1.4,0,0,1,.338-1.589C91.216,5.17,93.129,2.9,95.052.641A1.351,1.351,0,0,1,97.331.612c1.953,2.285,3.89,4.582,5.838,6.871a1.361,1.361,0,0,1,.277,1.551,1.309,1.309,0,0,1-1.315.771c-.575,0-1.151,0-1.8,0v9.346c0,.168,0,.336,0,.5-.027.656-.382,1.058-.918,1.045a.918.918,0,0,1-.88-1.027q-.013-5.321,0-10.642c0-.7.342-1.006,1.053-1.025.5-.013,1,0,1.657,0L96.206,2.064" transform="translate(-48.807 0)" stroke="rgba(0,0,0,0)" stroke-miterlimit="10" stroke-width="1" fill="url(#linear-gradient)"/>
        <path id="Path_75297" data-name="Path 75297" d="M66.881,32.821c-.547,0-1.011,0-1.474,0a1.21,1.21,0,0,1-1.172-.713,1.225,1.225,0,0,1,.191-1.408q2.55-3.013,5.11-6.018a1.245,1.245,0,0,1,2.03-.023c1.73,2.008,3.438,4.035,5.149,6.059a1.2,1.2,0,0,1,.194,1.359,1.211,1.211,0,0,1-1.156.742c-.482.007-.964,0-1.512,0v.711q0,5.713,0,11.425a4.062,4.062,0,0,1-.013.56.919.919,0,0,1-.922.808.9.9,0,0,1-.856-.87c-.011-.13-.006-.261-.006-.392q0-6.385,0-12.77c0-1,.262-1.267,1.252-1.274.256,0,.512,0,.915,0l-4.046-4.771L66.514,31.02c.45,0,.767-.008,1.084,0,.774.023,1.08.324,1.082,1.106q.01,3.864,0,7.729c0,.724-.325,1.109-.895,1.107s-.9-.394-.9-1.113c-.007-2.109,0-4.219,0-6.329Z" transform="translate(-35.218 -13.267)" stroke="rgba(0,0,0,0)" stroke-miterlimit="10" stroke-width="1" fill="url(#linear-gradient)"/>
        <path id="Path_75298" data-name="Path 75298" d="M112.15,49.689c0,.409.023.819-.006,1.225a.867.867,0,0,1-.9.868.848.848,0,0,1-.868-.841c-.033-.871-.034-1.746,0-2.618a.837.837,0,0,1,.891-.811.854.854,0,0,1,.867.839c.032.443.007.891.007,1.337Z" transform="translate(-60.635 -26.107)" stroke="rgba(0,0,0,0)" stroke-miterlimit="10" stroke-width="1" fill="url(#linear-gradient)"/>
        <path id="Path_75299" data-name="Path 75299" d="M112.148,60.7c0,.41.025.823-.007,1.231a.867.867,0,0,1-.874.843.853.853,0,0,1-.887-.829c-.035-.856-.035-1.717,0-2.573a.859.859,0,0,1,.9-.822.88.88,0,0,1,.862.862c.031.427.006.858.005,1.287" transform="translate(-60.636 -32.171)" stroke="rgba(0,0,0,0)" stroke-miterlimit="10" stroke-width="1" fill="url(#linear-gradient)"/>
        <path id="Path_75300" data-name="Path 75300" d="M96.055,60.644c0-.411-.019-.823,0-1.232a.859.859,0,0,1,.868-.85.823.823,0,0,1,.888.767,24.282,24.282,0,0,1,0,2.686.883.883,0,0,1-1.757-.083c-.023-.428,0-.859,0-1.289" transform="translate(-52.775 -32.178)" stroke="rgba(0,0,0,0)" stroke-miterlimit="10" stroke-width="1" fill="url(#linear-gradient)"/>
        <path id="Path_75301" data-name="Path 75301" d="M33.594,96.244a6.063,6.063,0,1,1,6.07-6.043,6.064,6.064,0,0,1-6.07,6.043m-.014-1.8a4.262,4.262,0,1,0-4.25-4.281,4.253,4.253,0,0,0,4.25,4.281" transform="translate(-15.123 -46.22)" stroke="rgba(0,0,0,0)" stroke-miterlimit="10" stroke-width="1" fill="url(#linear-gradient)"/>
      </g>
    </g>
  </g>
</svg>
