<svg xmlns="http://www.w3.org/2000/svg" xmlns:xlink="http://www.w3.org/1999/xlink" width="87" height="87" viewBox="0 0 87 87">
  <defs>
    <linearGradient id="linear-gradient" x1="0.902" y1="0.04" x2="0.058" y2="0.955" gradientUnits="objectBoundingBox">
      <stop offset="0" stop-color="#2f2f2d"/>
      <stop offset="1" stop-color="#1578ff"/>
    </linearGradient>
    <clipPath id="clip-path">
      <rect id="Rectangle_18086" data-name="Rectangle 18086" width="87" height="87" transform="translate(0.482 -0.317)" fill="#fff" stroke="#707070" stroke-width="1"/>
    </clipPath>
    <clipPath id="clip-path-2">
      <rect id="Rectangle_18085" data-name="Rectangle 18085" width="59.395" height="59.358" stroke="rgba(0,0,0,0)" stroke-width="1" fill="url(#linear-gradient)"/>
    </clipPath>
  </defs>
  <g id="Mask_Group_94" data-name="Mask Group 94" transform="translate(-0.482 0.317)" clip-path="url(#clip-path)">
    <g id="Group_22158" data-name="Group 22158" transform="translate(13.859 13.878)">
      <g id="Group_22157" data-name="Group 22157" clip-path="url(#clip-path-2)">
        <path id="Path_75303" data-name="Path 75303" d="M27.829,0h3.711c.839.111,1.682.2,2.517.335a29.365,29.365,0,0,1,21.451,14.7,6.439,6.439,0,0,1,.434.818.824.824,0,0,1-.331,1.109.858.858,0,0,1-1.168-.278c-.121-.173-.21-.368-.315-.553a26.8,26.8,0,0,0-3.071-4.447L43.8,14.471a20.8,20.8,0,0,1,6.634,14.3h7.176c0-.131,0-.208,0-.284a28.631,28.631,0,0,0-1.523-7.992c-.244-.709-.082-1.182.436-1.356.542-.182.969.084,1.2.772a29.287,29.287,0,0,1-.647,21.221A29.68,29.68,0,0,1,.449,34.8C.265,33.72.148,32.627,0,31.54V27.829c.189-1.315.332-2.639.575-3.943A29.679,29.679,0,0,1,24.511.457C25.612.276,26.723.151,27.829,0M15.551,44.906a18.934,18.934,0,0,1-1.423-1.516c-.866-1.133-1.69-2.3-2.491-3.479a.846.846,0,0,1,.231-1.266c.448-.281.925-.128,1.265.406.073.114.138.232.207.348A19,19,0,1,0,27.416,10.837c-7.867,1.068-13.17,5.538-15.807,13.027a18.163,18.163,0,0,0-.112,11.4.881.881,0,0,1-.538,1.217.872.872,0,0,1-1.11-.726c-.217-.78-.426-1.565-.57-2.36-.166-.923-.258-1.86-.379-2.771H1.75A27.864,27.864,0,0,0,8.318,47.677l7.234-2.771m.022-30.433L8.317,11.69A27.841,27.841,0,0,0,1.751,28.785H8.939a20.8,20.8,0,0,1,6.635-14.312M43.794,44.9l7.258,2.78a27.827,27.827,0,0,0,6.56-17.07H50.424a20.809,20.809,0,0,1-6.63,14.29M49.7,10.421l-.016-.259A27.439,27.439,0,0,0,35.954,2.493C39.086,5.346,40.9,9,42.387,13.044L49.7,10.421M17.036,12.912c1.443-3.955,3.273-7.579,6.521-10.5a28.116,28.116,0,0,0-13.92,7.83,35.264,35.264,0,0,0,7.4,2.668m18.919,43.96a27.528,27.528,0,0,0,13.777-7.749,34.274,34.274,0,0,0-7.263-2.629c-.932,1.923-1.762,3.788-2.726,5.583a18.27,18.27,0,0,1-3.789,4.8M9.634,49.129a28.19,28.19,0,0,0,13.921,7.82c-3.267-2.928-5.088-6.579-6.525-10.494a35.087,35.087,0,0,0-7.4,2.674m19.146,1.3a21.282,21.282,0,0,1-9.337-2.7,2.427,2.427,0,0,0,.115.365c.939,1.677,1.781,3.42,2.848,5.012a10.316,10.316,0,0,0,4.972,4.086c.436.163.9.25,1.4.385Zm-.007-48.6c-.231.037-.418.057-.6.1a8.153,8.153,0,0,0-3.448,1.811,19.59,19.59,0,0,0-5.231,7.726c-.009.023.027.065.052.119a20.948,20.948,0,0,1,9.227-2.646ZM39.89,11.454a22.932,22.932,0,0,0-3.65-6.137,10.537,10.537,0,0,0-4.011-3.053c-.506-.2-1.046-.321-1.63-.495V8.8c1.628.316,3.223.515,4.75.952,1.544.442,3.021,1.118,4.541,1.7m-9.3,46.113A9.7,9.7,0,0,0,36.4,53.859,22.612,22.612,0,0,0,39.964,47.7a21.276,21.276,0,0,1-9.409,2.733c0,2.261,0,4.439,0,6.617,0,.132.016.264.031.512" stroke="rgba(0,0,0,0)" stroke-width="1" fill="url(#linear-gradient)"/>
        <rect id="Rectangle_18084" data-name="Rectangle 18084" width="0.791" height="7.489" transform="translate(22.202 19.479)" stroke="rgba(0,0,0,0)" stroke-width="1" fill="url(#linear-gradient)"/>
        <path id="Path_75304" data-name="Path 75304" d="M56.627,50.9a2.931,2.931,0,0,1-1.182-.706l.31-.61a2.967,2.967,0,0,0,1.081.658,3.948,3.948,0,0,0,1.391.251,2.539,2.539,0,0,0,1.508-.369,1.137,1.137,0,0,0,.5-.958.957.957,0,0,0-.273-.717,1.838,1.838,0,0,0-.669-.412,10.8,10.8,0,0,0-1.1-.316,11.55,11.55,0,0,1-1.348-.412,2.21,2.21,0,0,1-.861-.6,1.605,1.605,0,0,1-.358-1.1,1.864,1.864,0,0,1,.3-1.032,2.05,2.05,0,0,1,.92-.744,3.764,3.764,0,0,1,1.54-.278,4.553,4.553,0,0,1,1.258.177,3.615,3.615,0,0,1,1.064.487l-.267.631a3.681,3.681,0,0,0-1.006-.465,3.773,3.773,0,0,0-1.049-.155,2.423,2.423,0,0,0-1.481.38,1.178,1.178,0,0,0-.5.979.976.976,0,0,0,.273.722,1.785,1.785,0,0,0,.684.417q.412.144,1.108.316a11.25,11.25,0,0,1,1.332.4,2.189,2.189,0,0,1,.861.6,1.585,1.585,0,0,1,.353,1.086,1.844,1.844,0,0,1-.3,1.032,2.048,2.048,0,0,1-.937.738,3.908,3.908,0,0,1-1.551.273,4.811,4.811,0,0,1-1.6-.267" transform="translate(-30.729 -24.138)" stroke="rgba(0,0,0,0)" stroke-width="1" fill="url(#linear-gradient)"/>
        <path id="Path_75305" data-name="Path 75305" d="M72.244,50.673a3.634,3.634,0,0,1-1.412-1.364,3.984,3.984,0,0,1,0-3.894,3.631,3.631,0,0,1,1.412-1.364,4.335,4.335,0,0,1,4.023-.005,3.646,3.646,0,0,1,1.407,1.364,3.971,3.971,0,0,1,0,3.9,3.643,3.643,0,0,1-1.407,1.364,4.339,4.339,0,0,1-4.023-.005m3.621-.61A2.911,2.911,0,0,0,76.99,48.95a3.308,3.308,0,0,0,0-3.177,2.9,2.9,0,0,0-1.124-1.113,3.418,3.418,0,0,0-3.215,0,2.928,2.928,0,0,0-1.134,1.113,3.27,3.27,0,0,0,0,3.177,2.934,2.934,0,0,0,1.134,1.113,3.424,3.424,0,0,0,3.215,0" transform="translate(-38.975 -24.138)" stroke="rgba(0,0,0,0)" stroke-width="1" fill="url(#linear-gradient)"/>
        <path id="Path_75306" data-name="Path 75306" d="M39.946,74.906v.685H34.693v-.546L37.806,72a4.025,4.025,0,0,0,.8-1,1.907,1.907,0,0,0,.209-.851,1.256,1.256,0,0,0-.454-1.032,2.017,2.017,0,0,0-1.3-.369,2.566,2.566,0,0,0-2.043.834l-.546-.471a2.881,2.881,0,0,1,1.118-.792,4.016,4.016,0,0,1,1.535-.278,2.8,2.8,0,0,1,1.813.54A1.8,1.8,0,0,1,39.6,70.06a2.542,2.542,0,0,1-.257,1.113,4.657,4.657,0,0,1-.973,1.23l-2.546,2.5Z" transform="translate(-19.103 -37.709)" stroke="rgba(0,0,0,0)" stroke-width="1" fill="url(#linear-gradient)"/>
        <path id="Path_75307" data-name="Path 75307" d="M53.935,68.183v.546L50.8,75.672h-.834l3.081-6.8H49.2v1.4h-.76V68.183Z" transform="translate(-26.845 -37.789)" stroke="rgba(0,0,0,0)" stroke-width="1" fill="url(#linear-gradient)"/>
        <path id="Path_75308" data-name="Path 75308" d="M64.492,75.2a3.021,3.021,0,0,1-1.059-1.321,5.607,5.607,0,0,1,0-4.055A3.024,3.024,0,0,1,64.492,68.5a2.828,2.828,0,0,1,3.092,0,3.055,3.055,0,0,1,1.064,1.321,5.523,5.523,0,0,1,0,4.055A3.052,3.052,0,0,1,67.584,75.2a2.831,2.831,0,0,1-3.092,0m2.7-.61a2.354,2.354,0,0,0,.775-1.059,5.21,5.21,0,0,0,0-3.359,2.354,2.354,0,0,0-.775-1.059,2,2,0,0,0-2.3,0,2.351,2.351,0,0,0-.776,1.059,5.21,5.21,0,0,0,0,3.359,2.351,2.351,0,0,0,.776,1.059,2,2,0,0,0,2.3,0" transform="translate(-34.946 -37.709)" stroke="rgba(0,0,0,0)" stroke-width="1" fill="url(#linear-gradient)"/>
        <path id="Path_75309" data-name="Path 75309" d="M80.379,75.2a3.021,3.021,0,0,1-1.059-1.321,5.607,5.607,0,0,1,0-4.055A3.024,3.024,0,0,1,80.379,68.5a2.828,2.828,0,0,1,3.092,0,3.055,3.055,0,0,1,1.064,1.321,5.522,5.522,0,0,1,0,4.055A3.052,3.052,0,0,1,83.471,75.2a2.831,2.831,0,0,1-3.092,0m2.7-.61a2.354,2.354,0,0,0,.775-1.059,5.21,5.21,0,0,0,0-3.359,2.354,2.354,0,0,0-.775-1.059,2,2,0,0,0-2.3,0A2.351,2.351,0,0,0,80,70.167a5.21,5.21,0,0,0,0,3.359,2.351,2.351,0,0,0,.776,1.059,2,2,0,0,0,2.3,0" transform="translate(-43.751 -37.709)" stroke="rgba(0,0,0,0)" stroke-width="1" fill="url(#linear-gradient)"/>
        <path id="Path_75310" data-name="Path 75310" d="M96.331,68.183v7.489h-.771v-6.8H93.8v-.685Z" transform="translate(-51.984 -37.789)" stroke="rgba(0,0,0,0)" stroke-width="1" fill="url(#linear-gradient)"/>
      </g>
    </g>
  </g>
</svg>
