<svg xmlns="http://www.w3.org/2000/svg" xmlns:xlink="http://www.w3.org/1999/xlink" width="87" height="87" viewBox="0 0 87 87">
  <defs>
    <linearGradient id="linear-gradient" x1="0.902" y1="0.04" x2="0.058" y2="0.955" gradientUnits="objectBoundingBox">
      <stop offset="0" stop-color="#2f2f2d"/>
      <stop offset="1" stop-color="#1578ff"/>
    </linearGradient>
    <clipPath id="clip-path">
      <rect id="Rectangle_18082" data-name="Rectangle 18082" width="87" height="87" transform="translate(-0.254 -0.05)" fill="#fff" stroke="#707070" stroke-width="1"/>
    </clipPath>
    <clipPath id="clip-path-2">
      <rect id="Rectangle_18081" data-name="Rectangle 18081" width="50.334" height="41.381" stroke="rgba(0,0,0,0)" stroke-width="1" fill="url(#linear-gradient)"/>
    </clipPath>
  </defs>
  <g id="Mask_Group_93" data-name="Mask Group 93" transform="translate(0.254 0.05)" clip-path="url(#clip-path)">
    <g id="Group_22156" data-name="Group 22156" transform="translate(18.389 22.866)">
      <g id="Group_22155" data-name="Group 22155" transform="translate(0 0)" clip-path="url(#clip-path-2)">
        <path id="Path_75295" data-name="Path 75295" d="M47.9,33.376c.468,0,.861-.006,1.255,0a1.09,1.09,0,0,1,1.162,1.348,8.046,8.046,0,0,1-7.524,6.642c-1.167.027-2.335.009-3.5.009q-15.64,0-31.279,0A7.9,7.9,0,0,1,.154,35.346a5.381,5.381,0,0,1-.143-.674A1.107,1.107,0,0,1,1.1,33.38c.423-.017.848,0,1.331,0V32.7q0-15.544,0-31.088c0-.23-.005-.462.016-.69A.94.94,0,0,1,3.371.01C3.551-.006,3.733,0,3.914,0H46.391C47.667,0,47.9.237,47.9,1.538V33.376ZM4.57,33.337H45.76V2.122H4.57ZM47.9,35.516H2.446c.094.214.153.382.239.536a5.841,5.841,0,0,0,5.438,3.122q17.048.013,34.1,0a7.063,7.063,0,0,0,1.13-.08A5.729,5.729,0,0,0,47.9,35.516" transform="translate(0 0)" stroke="rgba(0,0,0,0)" stroke-width="1" fill="url(#linear-gradient)"/>
        <path id="Path_75296" data-name="Path 75296" d="M49.3,17.055c1.234,0,2.467,0,3.7,0A1.128,1.128,0,0,1,54.27,18.2,2.692,2.692,0,0,0,55.554,20.2a5.207,5.207,0,0,0,2.69.854c.967.064,1.291.449,1.279,1.418a19.947,19.947,0,0,1-2.889,10.56A17.056,17.056,0,0,1,50.326,39a1.948,1.948,0,0,1-2.077-.014,16.811,16.811,0,0,1-7.019-7.328,20.6,20.6,0,0,1-2.106-9.437,1.019,1.019,0,0,1,1.066-1.149,5.641,5.641,0,0,0,2.682-.726A2.822,2.822,0,0,0,44.4,18.017a1.03,1.03,0,0,1,1.159-.96c1.25-.007,2.5,0,3.749,0m-8.088,6.087c.239,1.436.379,2.882.732,4.274a15.049,15.049,0,0,0,6.833,9.465.889.889,0,0,0,1.068.014A14.939,14.939,0,0,0,55.828,30a18.558,18.558,0,0,0,1.493-6.872.646.646,0,0,0-.111-.07c-.078-.024-.158-.045-.239-.061a5.724,5.724,0,0,1-4.637-3.6.469.469,0,0,0-.359-.225c-1.759-.015-3.52-.017-5.279,0a.553.553,0,0,0-.405.295,5.425,5.425,0,0,1-3.358,3.192c-.5.193-1.039.3-1.716.485" transform="translate(-24.159 -10.53)" stroke="rgba(0,0,0,0)" stroke-width="1" fill="url(#linear-gradient)"/>
        <path id="Path_75297" data-name="Path 75297" d="M56.482,41.643c1.426-1.427,2.8-2.8,4.17-4.171a3.4,3.4,0,0,1,.438-.4.982.982,0,0,1,1.265.114,1,1,0,0,1,.173,1.3,2.473,2.473,0,0,1-.323.371q-2.388,2.393-4.78,4.781c-.7.7-1.177.692-1.886-.017-.838-.837-1.678-1.672-2.511-2.513a1.046,1.046,0,0,1-.094-1.6,1.033,1.033,0,0,1,1.567.13c.653.648,1.294,1.307,1.981,2" transform="translate(-32.483 -22.784)" stroke="rgba(0,0,0,0)" stroke-width="1" fill="url(#linear-gradient)"/>
      </g>
    </g>
  </g>
</svg>
