<svg xmlns="http://www.w3.org/2000/svg" xmlns:xlink="http://www.w3.org/1999/xlink" width="266.945" height="27.592" viewBox="0 0 266.945 27.592">
  <defs>
    <clipPath id="clip-path">
      <rect id="Rectangle_18080" data-name="Rectangle 18080" width="266.945" height="27.592" fill="none"/>
    </clipPath>
  </defs>
  <g id="Group_22159" data-name="Group 22159" transform="translate(0 -0.603)">
    <path id="Path_75274" data-name="Path 75274" d="M0,2V28.383H16.208V21.071H7.539V2Z" transform="translate(0 -1.395)"/>
    <g id="Group_22158" data-name="Group 22158" transform="translate(0 0.603)">
      <g id="Group_22144" data-name="Group 22144" clip-path="url(#clip-path)">
        <path id="Path_75275" data-name="Path 75275" d="M80.78,10.856l1.042,3.864c2.341.539,6.96,1.376,9.89,1.9a9.956,9.956,0,0,1-2.691-2.591C87.244,11.491,85.19,2,85.19,2H76.37L73.054,12.407c1.53.465,4.831,1.374,7.792,2.1a6.081,6.081,0,0,1-.6-1.811,2.95,2.95,0,0,1,.538-1.836" transform="translate(-51.003 -1.395)"/>
        <path id="Path_75276" data-name="Path 75276" d="M56.193,70.923h8.1l.9-3.392h7.614l.9,3.392h8.1a3.848,3.848,0,0,1-2.487-2.108c-.906-1.811,1.509-2.948,1.509-2.948S62.379,63.928,58.739,62.93Z" transform="translate(-39.231 -43.935)"/>
        <path id="Path_75277" data-name="Path 75277" d="M144.939,73.08a8.468,8.468,0,0,0,2.2,2.932,12.892,12.892,0,0,0,15.53,0c.885-.773,1.268-1.922,4.286-2.525-6.976.2-15.939-.06-22.014-.406" transform="translate(-101.189 -51.021)"/>
        <path id="Path_75278" data-name="Path 75278" d="M196.1,2H188.56v16.51c2.446.149,6.876.2,9.451.221a4.153,4.153,0,0,1-2.113-2.113c-.632-1.581.2-14.618.2-14.618" transform="translate(-131.643 -1.395)"/>
        <path id="Path_75279" data-name="Path 75279" d="M149.895,2h-7.539V17.027c2.384.36,8.69.828,11.324,1.1a6.7,6.7,0,0,1-3.785-2.935c-1.031-1.755,0-13.193,0-13.193" transform="translate(-99.386 -1.395)"/>
        <path id="Path_75280" data-name="Path 75280" d="M224.773,76.855h7.539s-1.069-2.364-.567-3.617a3.1,3.1,0,0,1,2.113-1.811c-2.519.225-6.584.494-9.085.619Z" transform="translate(-156.925 -49.866)"/>
        <path id="Path_75281" data-name="Path 75281" d="M268.04,71.269h6.031a54.8,54.8,0,0,1,0-5.891,2.135,2.135,0,0,1,1.409-1.952c-3.3.684-8.049,1.678-11.41,2.069Z" transform="translate(-184.36 -44.281)"/>
        <path id="Path_75282" data-name="Path 75282" d="M232.047,15.107s2.288,3.147,2.617,3.116.67-.063,1.005-.1c3.9-.4,9.255-1.148,12.678-1.677,0,0-1.008-.008-1.711-2.033s0-12.417,0-12.417H239.1V14.06L230.8,2h-6.031V18.76c2.473-.04,6.67-.031,9.085-.333a2.145,2.145,0,0,1-1.811-1.207,5.46,5.46,0,0,1,0-2.113" transform="translate(-156.926 -1.395)"/>
        <path id="Path_75283" data-name="Path 75283" d="M315.839,9.2a5.98,5.98,0,0,1,4.523-1.809,6.107,6.107,0,0,1,3.016.754,4.731,4.731,0,0,1,2,2.036l6.559-3.77a12.692,12.692,0,0,0-4.825-4.674A13.564,13.564,0,0,0,320.362,0a13.463,13.463,0,0,0-13.8,13.8c0,.363.015.719.037,1.072a94.144,94.144,0,0,0,9.714-2.363c-1.811,0-2.045-.466-1.837-1.077a5.967,5.967,0,0,1,1.359-2.23" transform="translate(-214.029 0)"/>
        <path id="Path_75284" data-name="Path 75284" d="M312.4,60.235a13.321,13.321,0,0,0,9.876,3.958,13.564,13.564,0,0,0,6.747-1.734,12.6,12.6,0,0,0,4.825-4.712l-6.559-3.77a4.7,4.7,0,0,1-1.979,2.073,6.071,6.071,0,0,1-3.034.754A5.98,5.98,0,0,1,317.748,55c-.467-.487-.729-1.06,1.384-2.57-2.409.739-7.353,2.357-9.831,2.952a13.163,13.163,0,0,0,3.095,4.856" transform="translate(-215.938 -36.601)"/>
        <path id="Path_75285" data-name="Path 75285" d="M404.389,2H396.85v6.82c2.833-1.165,5.329-2.354,7.539-3.531Z" transform="translate(-277.06 -1.395)"/>
        <path id="Path_75286" data-name="Path 75286" d="M410.8,11.346h-6.408s.014-1.675.014-3.484c0-1.509,1.811-2.717,1.811-2.717-2.395,1.449-6.739,4.054-9.363,5.373V28.383h7.539V18.659H410.8v9.725h7.539V2H410.8Z" transform="translate(-277.059 -1.395)"/>
        <path id="Path_75287" data-name="Path 75287" d="M499.6,4.374A8.033,8.033,0,0,0,493.685,2h-9.423V28.384H486.9v-9.8h6.784a8.114,8.114,0,0,0,8.293-8.293A8.032,8.032,0,0,0,499.6,4.374m-1.866,10.083a5.428,5.428,0,0,1-4.052,1.64H486.9V4.487h6.784a5.428,5.428,0,0,1,4.052,1.639,5.717,5.717,0,0,1,1.6,4.165,5.716,5.716,0,0,1-1.6,4.165" transform="translate(-338.087 -1.396)"/>
        <path id="Path_75288" data-name="Path 75288" d="M550.595,2,540.456,28.383h2.789l2.447-6.483h12.522l2.446,6.483h2.789L553.31,2ZM546.63,19.412l5.323-14.107,5.323,14.107Z" transform="translate(-377.318 -1.395)"/>
        <path id="Path_75289" data-name="Path 75289" d="M638.045,2H627.868V28.383h10.177a11.6,11.6,0,0,0,8.914-3.826,13.317,13.317,0,0,0,3.524-9.367,13.318,13.318,0,0,0-3.524-9.367A11.6,11.6,0,0,0,638.045,2M645.151,22.8a9.112,9.112,0,0,1-7.105,3.091h-7.539V4.486h7.539a9.114,9.114,0,0,1,7.105,3.091,10.994,10.994,0,0,1,2.77,7.614,10.993,10.993,0,0,1-2.77,7.614" transform="translate(-438.345 -1.395)"/>
        <path id="Path_75290" data-name="Path 75290" d="M707.787,4.675l1.734,6.295,4.561-1.093V28.384h7.539V2h-6.408Z" transform="translate(-494.14 -1.395)" fill="#ccc"/>
        <path id="Path_75291" data-name="Path 75291" d="M774.725,0a9.786,9.786,0,0,0-8.217,3.751Q763.6,7.5,763.6,13.8t2.9,10.046a10.877,10.877,0,0,0,16.435,0q2.9-3.75,2.9-10.046t-2.9-10.045A9.786,9.786,0,0,0,774.725,0m0,20.279q-3.581,0-3.581-6.483t3.581-6.483q3.58,0,3.581,6.483t-3.581,6.483" transform="translate(-533.109 0)" fill="#ccc"/>
        <path id="Path_75292" data-name="Path 75292" d="M845.955,2l-7.426,2.676,1.734,6.3,4.561-1.093V28.383h7.539V2Z" transform="translate(-585.418 -1.395)" fill="#ccc"/>
      </g>
    </g>
  </g>
</svg>
