<svg id="Group_22155" data-name="Group 22155" xmlns="http://www.w3.org/2000/svg" width="325" height="33.593" viewBox="0 0 325 33.593">
  <path id="Path_75274" data-name="Path 75274" d="M0,2V34.122H19.733v-8.9H9.178V2Z" transform="translate(0 -1.264)" fill="#fff"/>
  <g id="Group_22145" data-name="Group 22145" transform="translate(20.651)">
    <g id="Group_22148" data-name="Group 22148">
      <path id="Path_75275" data-name="Path 75275" d="M82.46,12.783l1.269,4.7c2.85.656,8.474,1.675,12.041,2.309a12.121,12.121,0,0,1-3.276-3.154C90.33,13.555,87.83,2,87.83,2H77.091L73.054,14.671c1.863.566,5.881,1.672,9.487,2.552a7.4,7.4,0,0,1-.735-2.2,3.592,3.592,0,0,1,.655-2.235" transform="translate(-66.858 -1.264)" fill="#fff"/>
      <path id="Path_75276" data-name="Path 75276" d="M56.193,72.661H66.06l1.1-4.13h9.27l1.1,4.13H87.4a4.684,4.684,0,0,1-3.027-2.567c-1.1-2.2,1.837-3.589,1.837-3.589S63.725,64.145,59.293,62.93Z" transform="translate(-56.193 -39.803)" fill="#fff"/>
      <path id="Path_75277" data-name="Path 75277" d="M144.939,73.08a10.31,10.31,0,0,0,2.676,3.569,15.7,15.7,0,0,0,18.907,0c1.077-.942,1.543-2.339,5.218-3.074-8.493.246-19.4-.074-26.8-.495" transform="translate(-112.325 -46.223)" fill="#fff"/>
      <path id="Path_75278" data-name="Path 75278" d="M197.738,2H188.56V22.1c2.978.181,8.372.242,11.506.269a5.056,5.056,0,0,1-2.572-2.572c-.77-1.925.244-17.8.244-17.8" transform="translate(-139.915 -1.264)" fill="#fff"/>
      <path id="Path_75279" data-name="Path 75279" d="M151.534,2h-9.178V20.3c2.9.438,10.58,1.008,13.786,1.337a8.159,8.159,0,0,1-4.608-3.573c-1.256-2.136,0-16.062,0-16.062" transform="translate(-110.691 -1.264)" fill="#fff"/>
      <path id="Path_75280" data-name="Path 75280" d="M224.773,78.035h9.178s-1.3-2.878-.691-4.4a3.774,3.774,0,0,1,2.572-2.2c-3.067.275-8.016.6-11.06.753Z" transform="translate(-162.82 -45.177)" fill="#fff"/>
      <path id="Path_75281" data-name="Path 75281" d="M268.9,72.975h7.343a66.723,66.723,0,0,1,0-7.172,2.6,2.6,0,0,1,1.716-2.377c-4.015.833-9.8,2.043-13.891,2.519Z" transform="translate(-187.676 -40.117)" fill="#fff"/>
      <path id="Path_75282" data-name="Path 75282" d="M233.629,17.958s2.786,3.831,3.186,3.794.815-.077,1.224-.119c4.747-.485,11.268-1.4,15.435-2.042,0,0-1.227-.01-2.083-2.475s0-15.117,0-15.117h-9.178V16.683L232.117,2h-7.343V22.405c3.011-.049,8.12-.037,11.06-.4a2.611,2.611,0,0,1-2.205-1.47,6.647,6.647,0,0,1,0-2.572" transform="translate(-162.821 -1.264)" fill="#fff"/>
      <path id="Path_75283" data-name="Path 75283" d="M317.855,11.2a7.28,7.28,0,0,1,5.507-2.2,7.435,7.435,0,0,1,3.671.918,5.76,5.76,0,0,1,2.432,2.478L337.451,7.8a15.452,15.452,0,0,0-5.874-5.691A16.514,16.514,0,0,0,323.362,0a16.391,16.391,0,0,0-16.8,16.8c0,.442.018.876.046,1.3a114.62,114.62,0,0,0,11.826-2.877c-2.2,0-2.49-.567-2.237-1.311a7.266,7.266,0,0,1,1.654-2.715" transform="translate(-214.555)" fill="#fff"/>
      <path id="Path_75284" data-name="Path 75284" d="M313.069,61.933a16.219,16.219,0,0,0,12.023,4.819,16.514,16.514,0,0,0,8.214-2.111A15.339,15.339,0,0,0,339.18,58.9L331.2,54.315a5.722,5.722,0,0,1-2.409,2.524,7.391,7.391,0,0,1-3.694.918,7.281,7.281,0,0,1-5.507-2.2c-.569-.593-.888-1.291,1.685-3.129-2.933.9-8.952,2.87-11.969,3.594a16.026,16.026,0,0,0,3.768,5.913" transform="translate(-216.284 -33.16)" fill="#fff"/>
      <path id="Path_75285" data-name="Path 75285" d="M406.028,2H396.85v8.3c3.45-1.418,6.487-2.866,9.178-4.3Z" transform="translate(-271.659 -1.264)" fill="#fff"/>
      <path id="Path_75286" data-name="Path 75286" d="M413.829,13.379h-7.8s.017-2.039.017-4.241c0-1.837,2.2-3.307,2.2-3.307-2.916,1.765-8.205,4.935-11.4,6.542v21.75h9.178V22.282h7.8v11.84h9.178V2h-9.178Z" transform="translate(-271.659 -1.264)" fill="#fff"/>
      <path id="Path_75287" data-name="Path 75287" d="M502.94,4.89A9.781,9.781,0,0,0,495.735,2H484.262V34.123h3.213V22.191h8.26a9.879,9.879,0,0,0,10.1-10.1,9.779,9.779,0,0,0-2.891-7.2m-2.271,12.276a6.608,6.608,0,0,1-4.934,2h-8.26V5.028h8.26a6.608,6.608,0,0,1,4.934,2,6.96,6.96,0,0,1,1.95,5.071,6.959,6.959,0,0,1-1.95,5.071" transform="translate(-326.948 -1.264)" fill="#fff"/>
      <path id="Path_75288" data-name="Path 75288" d="M552.8,2,540.456,34.122h3.4l2.979-7.893h15.245l2.978,7.893h3.4L556.106,2Zm-4.827,21.2,6.48-17.175,6.48,17.175Z" transform="translate(-362.491 -1.264)" fill="#fff"/>
      <path id="Path_75289" data-name="Path 75289" d="M640.259,2H627.868V34.122h12.391a14.119,14.119,0,0,0,10.853-4.658,16.214,16.214,0,0,0,4.291-11.4,16.214,16.214,0,0,0-4.291-11.4A14.122,14.122,0,0,0,640.259,2m8.651,25.332a11.093,11.093,0,0,1-8.651,3.763H631.08V5.027h9.178a11.1,11.1,0,0,1,8.651,3.763,13.384,13.384,0,0,1,3.373,9.27,13.383,13.383,0,0,1-3.373,9.27" transform="translate(-417.779 -1.264)" fill="#fff"/>
      <path id="Path_75290" data-name="Path 75290" d="M707.787,5.257,709.9,12.92l5.553-1.331V34.122h9.178V2h-7.8Z" transform="translate(-468.328 -1.264)" fill="#ccc"/>
      <path id="Path_75291" data-name="Path 75291" d="M777.143,0q-6.47,0-10,4.566T763.6,16.8q0,7.665,3.534,12.23t10,4.566q6.47,0,10-4.566t3.533-12.23q0-7.663-3.533-12.23T777.143,0m0,24.69q-4.36,0-4.359-7.893T777.143,8.9q4.359,0,4.36,7.893t-4.36,7.893" transform="translate(-503.633 0)" fill="#ccc"/>
      <path id="Path_75292" data-name="Path 75292" d="M847.57,2l-9.041,3.258,2.111,7.664,5.552-1.331V34.122h9.179V2Z" transform="translate(-551.023 -1.264)" fill="#ccc"/>
    </g>
  </g>
</svg>
