<svg xmlns="http://www.w3.org/2000/svg" xmlns:xlink="http://www.w3.org/1999/xlink" width="80" height="80" viewBox="0 0 80 80">
  <defs>
    <linearGradient id="linear-gradient" x1="0.902" y1="0.04" x2="0.058" y2="0.955" gradientUnits="objectBoundingBox">
      <stop offset="0" stop-color="#2f2f2d"/>
      <stop offset="1" stop-color="#1578ff"/>
    </linearGradient>
    <linearGradient id="linear-gradient-2" x1="0.902" y1="0.04" x2="0.058" y2="0.955" gradientUnits="objectBoundingBox">
      <stop offset="0" stop-color="#e9ebee"/>
      <stop offset="1" stop-color="#e7f0fc"/>
    </linearGradient>
    <clipPath id="clip-path">
      <rect id="Rectangle_63" data-name="Rectangle 63" width="37.75" height="45.617" stroke="rgba(0,0,0,0)" stroke-width="1" fill="url(#linear-gradient)"/>
    </clipPath>
  </defs>
  <g id="Group_22155" data-name="Group 22155" transform="translate(-129 -356)">
    <rect id="Rectangle_232" data-name="Rectangle 232" width="80" height="80" rx="10" transform="translate(129 356)" fill="url(#linear-gradient-2)"/>
    <g id="Group_295" data-name="Group 295" transform="translate(150.125 373.192)">
      <g id="Group_51" data-name="Group 51" transform="translate(0 0)" clip-path="url(#clip-path)">
        <path id="Path_65" data-name="Path 65" d="M4.635,35.641a15.05,15.05,0,0,1,4.741-7.2A14.854,14.854,0,0,1,32.914,35a.912.912,0,0,0,.924.754,3.646,3.646,0,0,1,2.809,1.858,8.635,8.635,0,0,1-.512,9.25,3.427,3.427,0,0,1-4.147,1.352.832.832,0,0,0-1.118.38,14.562,14.562,0,0,1-7.808,5.5c-.4.118-.632.223-.676.723a1.417,1.417,0,0,1-1.546,1.362c-1.292.033-2.587.041-3.879,0-1.145-.037-1.6-.673-1.573-2.038.027-1.164.534-1.7,1.653-1.717a18.467,18.467,0,0,0,5.279-.434,12.185,12.185,0,0,0,8.157-7.272,16.208,16.208,0,0,0,.772-3.93A12.2,12.2,0,0,0,20.518,27.333,12.518,12.518,0,0,0,6.41,38.233a13.247,13.247,0,0,0,.268,3.461c.189,1.482.453,2.954.672,4.432.187,1.262-.108,1.709-1.328,2.055A3.647,3.647,0,0,1,1.39,46.467,8.342,8.342,0,0,1,.747,38.4a4.341,4.341,0,0,1,3.888-2.759" transform="translate(0 -10.585)" stroke="rgba(0,0,0,0)" stroke-width="1" fill="url(#linear-gradient)"/>
        <path id="Path_66" data-name="Path 66" d="M35.32,43.234A10.26,10.26,0,1,1,25.134,32.967,10.162,10.162,0,0,1,35.32,43.234m-5.339-5.09a8.7,8.7,0,0,1-9.862-.01,7.071,7.071,0,0,0-.105,10.13,7.155,7.155,0,0,0,10.381-.3c2.564-2.87,2.355-7.6-.414-9.816" transform="translate(-6.268 -13.962)" stroke="rgba(0,0,0,0)" stroke-width="1" fill="url(#linear-gradient)"/>
        <path id="Path_67" data-name="Path 67" d="M25.957,9.017c.118-.725.239-1.552.394-2.375A.823.823,0,0,0,26.1,5.8c-.553-.528-1.081-1.084-1.6-1.65-.133-.146-.3-.434-.236-.549a.847.847,0,0,1,.558-.321q1.126-.212,2.266-.348a.564.564,0,0,0,.5-.386c.312-.7.626-1.4.974-2.075.1-.2.343-.491.478-.47a.916.916,0,0,1,.526.481c.357.691.655,1.412,1.009,2.105a.7.7,0,0,0,.438.317c.766.144,1.539.239,2.307.368.661.112.762.39.307.887-.506.554-1.026,1.1-1.571,1.613a.85.85,0,0,0-.277.877c.144.736.267,1.477.36,2.221a2.463,2.463,0,0,1-.113.695,2.655,2.655,0,0,1-.682-.143c-.655-.333-1.3-.692-1.932-1.065a.57.57,0,0,0-.667-.01c-.7.41-1.406.8-2.123,1.167-.448.232-.664.09-.668-.5" transform="translate(-10.271 0)" stroke="rgba(0,0,0,0)" stroke-width="1" fill="url(#linear-gradient)"/>
        <path id="Path_68" data-name="Path 68" d="M10.873,16.036c.093-.565.2-1.264.327-1.959a.678.678,0,0,0-.208-.693c-.471-.447-.922-.917-1.364-1.393-.423-.455-.35-.689.252-.8.639-.116,1.286-.184,1.921-.316a.765.765,0,0,0,.462-.349c.311-.585.564-1.2.868-1.79.083-.161.267-.37.408-.372s.334.2.416.362c.31.6.57,1.231.883,1.831a.708.708,0,0,0,.438.315c.679.137,1.368.217,2.048.347.457.087.537.31.228.657-.47.528-.967,1.032-1.467,1.534a.589.589,0,0,0-.2.6c.131.65.231,1.308.308,1.966a2.524,2.524,0,0,1-.1.653,2.838,2.838,0,0,1-.635-.156c-.528-.265-1.046-.553-1.552-.858a.6.6,0,0,0-.71-.009c-.555.337-1.128.643-1.7.945-.473.249-.639.14-.623-.518" transform="translate(-3.964 -3.542)" stroke="rgba(0,0,0,0)" stroke-width="1" fill="url(#linear-gradient)"/>
        <path id="Path_69" data-name="Path 69" d="M42.852,16.126c.11-.7.242-1.436.334-2.18a.738.738,0,0,0-.161-.519c-.452-.506-.945-.974-1.4-1.476-.125-.137-.27-.376-.228-.511s.3-.242.483-.277c.609-.117,1.223-.218,1.839-.28a.649.649,0,0,0,.6-.459c.25-.583.519-1.159.81-1.722.084-.162.271-.371.413-.374s.329.209.412.37c.31.6.57,1.23.885,1.83a.715.715,0,0,0,.44.321c.608.121,1.228.179,1.837.3a2.507,2.507,0,0,1,.591.284,2.6,2.6,0,0,1-.306.589c-.413.462-.847.909-1.3,1.335a.676.676,0,0,0-.217.689c.12.638.235,1.278.311,1.922a2.24,2.24,0,0,1-.118.645,2.7,2.7,0,0,1-.6-.151c-.526-.268-1.047-.552-1.551-.86a.623.623,0,0,0-.745-.009c-.566.345-1.152.658-1.741.963-.4.209-.6.069-.587-.427" transform="translate(-17.529 -3.526)" stroke="rgba(0,0,0,0)" stroke-width="1" fill="url(#linear-gradient)"/>
      </g>
    </g>
  </g>
</svg>
