<svg xmlns="http://www.w3.org/2000/svg" xmlns:xlink="http://www.w3.org/1999/xlink" width="80" height="80" viewBox="0 0 80 80">
  <defs>
    <linearGradient id="linear-gradient" x1="0.902" y1="0.04" x2="0.058" y2="0.955" gradientUnits="objectBoundingBox">
      <stop offset="0" stop-color="#2f2f2d"/>
      <stop offset="1" stop-color="#1578ff"/>
    </linearGradient>
    <linearGradient id="linear-gradient-2" x1="0.902" y1="0.04" x2="0.058" y2="0.955" gradientUnits="objectBoundingBox">
      <stop offset="0" stop-color="#e9ebee"/>
      <stop offset="1" stop-color="#e7f0fc"/>
    </linearGradient>
    <clipPath id="clip-path">
      <rect id="Rectangle_64" data-name="Rectangle 64" width="43.111" height="31.995" stroke="rgba(0,0,0,0)" stroke-width="1" fill="url(#linear-gradient)"/>
    </clipPath>
  </defs>
  <g id="Group_22155" data-name="Group 22155" transform="translate(-129 -356)">
    <rect id="Rectangle_232" data-name="Rectangle 232" width="80" height="80" rx="10" transform="translate(129 356)" fill="url(#linear-gradient-2)"/>
    <g id="Group_294" data-name="Group 294" transform="translate(147.913 380.002)">
      <g id="Group_52" data-name="Group 52" clip-path="url(#clip-path)">
        <path id="Path_70" data-name="Path 70" d="M21.568,46.716H42.259c.793,0,.865.062.851.865a14.4,14.4,0,0,1-.1,2.2A3.2,3.2,0,0,1,40.2,52.332a6.143,6.143,0,0,1-.69.041q-17.964,0-35.927,0A3.232,3.232,0,0,1,.145,49.983,14.017,14.017,0,0,1,.007,47.1c0-.125.239-.29.4-.367a1.179,1.179,0,0,1,.47-.02H21.568" transform="translate(0 -20.379)" stroke="rgba(0,0,0,0)" stroke-width="1" fill="url(#linear-gradient)"/>
        <path id="Path_71" data-name="Path 71" d="M23.784.917C19.008.917,14.23.958,9.455.9a3.325,3.325,0,0,0-3.437,3.44c.047,6.7.018,13.394.018,20.091,0,.1,0,.2,0,.3.013.339-.014.689-.447.694s-.448-.355-.448-.688q0-10.262,0-20.524A4.01,4.01,0,0,1,9.335.008q14.46-.017,28.918,0a4.007,4.007,0,0,1,4.18,4.214q.013,10.262,0,20.524c0,.1.03.23-.02.3-.109.147-.268.374-.392.364a.783.783,0,0,1-.459-.35c-.069-.1-.022-.28-.022-.424q0-10.24,0-20.481A3.117,3.117,0,0,0,39.017.978a4.329,4.329,0,0,0-.86-.059Q30.97.914,23.784.917" transform="translate(-2.243 0)" stroke="rgba(0,0,0,0)" stroke-width="1" fill="url(#linear-gradient)"/>
        <path id="Path_72" data-name="Path 72" d="M20.309,21.829c-1.645,0-3.29,0-4.935,0a1.837,1.837,0,0,1-1.992-2q-.008-4.937,0-9.873A1.855,1.855,0,0,1,15.4,7.967q4.936-.005,9.871,0A1.834,1.834,0,0,1,27.25,9.934q.016,4.959,0,9.916a1.823,1.823,0,0,1-2.006,1.978c-1.645,0-3.29,0-4.936,0M17.952,8.879c-.882,0-1.715,0-2.547,0-.787,0-1.11.321-1.111,1.1q0,4.913,0,9.826c0,.8.337,1.135,1.13,1.135q4.89,0,9.78,0c.816,0,1.145-.338,1.146-1.165q0-2.705,0-5.411c0-1.486,0-2.972,0-4.458a.92.92,0,0,0-1.013-1.025c-.4-.009-.808,0-1.212,0H22.738a.965.965,0,0,0-.04.154c0,.663,0,1.327-.009,1.991a1.608,1.608,0,0,1-1.694,1.683c-.418.007-.837,0-1.255,0A1.631,1.631,0,0,1,17.952,10.9c0-.659,0-1.319,0-2.022" transform="translate(-5.838 -3.475)" stroke="rgba(0,0,0,0)" stroke-width="1" fill="url(#linear-gradient)"/>
        <path id="Path_73" data-name="Path 73" d="M49.125,31.5c.568.558,1.076,1.048,1.574,1.548.359.36.355.546,0,.91q-.576.586-1.162,1.162c-.346.34-.534.344-.874,0-.509-.51-1.007-1.03-1.591-1.628-.388.421-.736.818-1.106,1.193-.428.433-.77.339-.919-.249q-.728-2.868-1.44-5.739c-.146-.588.1-.832.683-.689,1.885.468,3.772.932,5.653,1.42.21.055.5.216.544.384s-.123.446-.27.612c-.323.363-.692.686-1.089,1.071" transform="translate(-19.01 -12.206)" stroke="rgba(0,0,0,0)" stroke-width="1" fill="url(#linear-gradient)"/>
        <path id="Path_74" data-name="Path 74" d="M49.853,8.862q-2.292,0-4.583,0a.871.871,0,0,1-.423-.036c-.14-.087-.32-.262-.313-.39a.76.76,0,0,1,.31-.445c.082-.065.25-.031.379-.032q4.669,0,9.339,0c.115,0,.268-.039.338.019.149.123.339.291.353.454.011.127-.2.309-.349.4-.107.065-.281.028-.424.028H49.853" transform="translate(-19.433 -3.467)" stroke="rgba(0,0,0,0)" stroke-width="1" fill="url(#linear-gradient)"/>
        <path id="Path_75" data-name="Path 75" d="M49.857,14.623H45.23c-.129,0-.3.037-.379-.028-.141-.11-.319-.291-.315-.437s.2-.306.346-.405c.091-.061.252-.024.381-.024h9.253c.13,0,.288-.037.382.023.15.1.365.268.355.393-.012.163-.2.34-.347.457-.082.064-.251.021-.38.021h-4.67" transform="translate(-19.434 -5.986)" stroke="rgba(0,0,0,0)" stroke-width="1" fill="url(#linear-gradient)"/>
        <path id="Path_76" data-name="Path 76" d="M47.421,20.369c-.778,0-1.557,0-2.336,0-.322,0-.6-.07-.584-.462.011-.357.268-.433.575-.432q2.357,0,4.714,0c.333,0,.6.1.591.467-.006.344-.271.431-.582.429-.792-.006-1.585,0-2.379,0" transform="translate(-19.419 -8.498)" stroke="rgba(0,0,0,0)" stroke-width="1" fill="url(#linear-gradient)"/>
      </g>
    </g>
  </g>
</svg>
