<svg xmlns="http://www.w3.org/2000/svg" xmlns:xlink="http://www.w3.org/1999/xlink" width="80" height="80" viewBox="0 0 80 80">
  <defs>
    <linearGradient id="linear-gradient" x1="0.902" y1="0.04" x2="0.058" y2="0.955" gradientUnits="objectBoundingBox">
      <stop offset="0" stop-color="#2f2f2d"/>
      <stop offset="1" stop-color="#1578ff"/>
    </linearGradient>
    <linearGradient id="linear-gradient-2" x1="0.902" y1="0.04" x2="0.058" y2="0.955" gradientUnits="objectBoundingBox">
      <stop offset="0" stop-color="#e9ebee"/>
      <stop offset="1" stop-color="#e7f0fc"/>
    </linearGradient>
    <clipPath id="clip-path">
      <rect id="Rectangle_53" data-name="Rectangle 53" width="37.634" height="47.984" stroke="rgba(0,0,0,0)" stroke-width="1" fill="url(#linear-gradient)"/>
    </clipPath>
  </defs>
  <g id="Group_22155" data-name="Group 22155" transform="translate(-129 -356)">
    <rect id="Rectangle_232" data-name="Rectangle 232" width="80" height="80" rx="10" transform="translate(129 356)" fill="url(#linear-gradient-2)"/>
    <g id="Group_287" data-name="Group 287" transform="translate(150.211 372.059)">
      <g id="Group_38" data-name="Group 38" transform="translate(0 0)" clip-path="url(#clip-path)">
        <path id="Path_33" data-name="Path 33" d="M0,59.722v1.407a4.256,4.256,0,0,0,4.271,4.239H7.525a27.949,27.949,0,0,1-1.466-5.646Z" transform="translate(0 -20.204)" stroke="rgba(0,0,0,0)" stroke-width="1" fill-rule="evenodd" fill="url(#linear-gradient)"/>
        <path id="Path_34" data-name="Path 34" d="M0,12.8V41.024H5.514c-.022-.473-.058-.936-.058-1.409V36.8a9.888,9.888,0,0,1,3.805-7.839l1.65-1.282V20.632a4.776,4.776,0,1,1,9.547,0v1.176a4.651,4.651,0,0,1,2.044-.476,4.791,4.791,0,0,1,4.547,3.41,2.288,2.288,0,0,1,.234-.089V12.8Z" transform="translate(0 -4.331)" stroke="rgba(0,0,0,0)" stroke-width="1" fill-rule="evenodd" fill="url(#linear-gradient)"/>
        <path id="Path_35" data-name="Path 35" d="M4.089,0A4.16,4.16,0,0,0,0,4.236V5.646H27.285V4.236A4.174,4.174,0,0,0,23.187,0Z" transform="translate(0 0)" stroke="rgba(0,0,0,0)" stroke-width="1" fill-rule="evenodd" fill="url(#linear-gradient)"/>
        <path id="Path_36" data-name="Path 36" d="M20.085,21.329A2.044,2.044,0,0,0,18.1,23.441v19a1.329,1.329,0,1,1-2.653,0V34.03a7.113,7.113,0,0,0-2.651,5.593v2.815A27.054,27.054,0,0,0,15.3,53.826c.362.773.594,1.374,1.465,1.374H37.98c.871,0,1.1-.6,1.465-1.374a27.162,27.162,0,0,0,2.517-11.387V34.7a1.994,1.994,0,1,0-3.982,0v4.926a1.328,1.328,0,1,1-2.651,0v-7.74a1.99,1.99,0,1,0-3.973,0V36.81a1.328,1.328,0,1,1-2.651,0V29.07a1.994,1.994,0,1,0-3.982,0v7.74a1.328,1.328,0,1,1-2.651,0V23.441a2.049,2.049,0,0,0-1.986-2.112" transform="translate(-4.328 -7.216)" stroke="rgba(0,0,0,0)" stroke-width="1" fill-rule="evenodd" fill="url(#linear-gradient)"/>
      </g>
    </g>
  </g>
</svg>
