<svg xmlns="http://www.w3.org/2000/svg" xmlns:xlink="http://www.w3.org/1999/xlink" width="80" height="80" viewBox="0 0 80 80">
  <defs>
    <linearGradient id="linear-gradient" x1="0.902" y1="0.04" x2="0.058" y2="0.955" gradientUnits="objectBoundingBox">
      <stop offset="0" stop-color="#2f2f2d"/>
      <stop offset="1" stop-color="#1578ff"/>
    </linearGradient>
    <linearGradient id="linear-gradient-2" x1="0.902" y1="0.04" x2="0.058" y2="0.955" gradientUnits="objectBoundingBox">
      <stop offset="0" stop-color="#e9ebee"/>
      <stop offset="1" stop-color="#e7f0fc"/>
    </linearGradient>
    <clipPath id="clip-path">
      <rect id="Rectangle_61" data-name="Rectangle 61" width="41.457" height="33.011" stroke="rgba(0,0,0,0)" stroke-width="1" fill="url(#linear-gradient)"/>
    </clipPath>
  </defs>
  <g id="Group_22155" data-name="Group 22155" transform="translate(-129 -356)">
    <rect id="Rectangle_232" data-name="Rectangle 232" width="80" height="80" rx="10" transform="translate(129 356)" fill="url(#linear-gradient-2)"/>
    <g id="Group_292" data-name="Group 292" transform="translate(148.066 379.494)">
      <g id="Group_47" data-name="Group 47" transform="translate(0 0)" clip-path="url(#clip-path)">
        <path id="Path_58" data-name="Path 58" d="M37.249,0a4.014,4.014,0,0,0-3.9,2.934L6.772,10.794,4.514,9.64a2.968,2.968,0,0,0-1.358-.329A3.221,3.221,0,0,0,0,12.574v7.861A3.194,3.194,0,0,0,3.2,23.6a3.255,3.255,0,0,0,1.42-.333L6.977,22.11l3.9,1.155a7.723,7.723,0,0,0,7.6,8.8,8.018,8.018,0,0,0,6.977-4.5l8,2.409a4.069,4.069,0,0,0,8.006-1.048V4.191A4.462,4.462,0,0,0,37.249,0m-.206,2.724A1.383,1.383,0,0,1,38.48,3.982V28.82a1.316,1.316,0,0,1-1.437,1.258,1.263,1.263,0,0,1-1.231-1.258V3.982a1.26,1.26,0,0,1,1.231-1.258m-23.6,21.17,9.234,2.831a4.978,4.978,0,0,1-9.234-2.831M3.01,12.118a.409.409,0,0,1,.173.037L5.234,13.2v6.5L3.183,20.75a.3.3,0,0,1-.208.083.422.422,0,0,1-.411-.4V12.574a.433.433,0,0,1,.446-.455" transform="translate(0 0)" stroke="rgba(0,0,0,0)" stroke-width="1" fill-rule="evenodd" fill="url(#linear-gradient)"/>
      </g>
    </g>
  </g>
</svg>
