<svg xmlns="http://www.w3.org/2000/svg" xmlns:xlink="http://www.w3.org/1999/xlink" width="80" height="80" viewBox="0 0 80 80">
  <defs>
    <linearGradient id="linear-gradient" x1="0.902" y1="0.04" x2="0.058" y2="0.955" gradientUnits="objectBoundingBox">
      <stop offset="0" stop-color="#2f2f2d"/>
      <stop offset="1" stop-color="#1578ff"/>
    </linearGradient>
    <linearGradient id="linear-gradient-2" x1="0.902" y1="0.04" x2="0.058" y2="0.955" gradientUnits="objectBoundingBox">
      <stop offset="0" stop-color="#e9ebee"/>
      <stop offset="1" stop-color="#e7f0fc"/>
    </linearGradient>
    <clipPath id="clip-path">
      <rect id="Rectangle_51" data-name="Rectangle 51" width="42.556" height="47.628" stroke="rgba(0,0,0,0)" stroke-miterlimit="10" stroke-width="1" fill="url(#linear-gradient)"/>
    </clipPath>
  </defs>
  <g id="Group_22155" data-name="Group 22155" transform="translate(-129 -356)">
    <rect id="Rectangle_232" data-name="Rectangle 232" width="80" height="80" rx="10" transform="translate(129 356)" fill="url(#linear-gradient-2)"/>
    <g id="Group_286" data-name="Group 286" transform="translate(147.722 372.191)">
      <g id="Group_37" data-name="Group 37" transform="translate(0 0)" clip-path="url(#clip-path)">
        <path id="Path_32" data-name="Path 32" d="M8.219,29.558c.856-.492,1.735-.982,2.594-1.505a.666.666,0,0,0,.28-.478q.026-3.736,0-7.474a.729.729,0,0,0-.307-.518c-.708-.444-1.454-.826-2.16-1.271a.642.642,0,0,0-.847.046,4.9,4.9,0,1,1-.517-8.3,4.966,4.966,0,0,1,2.552,4.913.664.664,0,0,0,.228.531c.771.484,1.563.938,2.365,1.371a.665.665,0,0,0,.553-.006q3.244-1.845,6.462-3.737a.737.737,0,0,0,.287-.53c.031-.8-.013-1.6.024-2.4a.764.764,0,0,0-.531-.849,4.869,4.869,0,0,1-1.422-7.849A4.7,4.7,0,0,1,23.022.345a4.8,4.8,0,0,1,3.15,4.3,4.712,4.712,0,0,1-2.784,4.7.812.812,0,0,0-.545.894c.031.8-.009,1.6.023,2.4a.725.725,0,0,0,.3.513q3.192,1.878,6.413,3.707a.727.727,0,0,0,.6.015c.787-.419,1.539-.905,2.33-1.319.39-.2.264-.5.246-.78a4.909,4.909,0,0,1,9.7-1.378,4.93,4.93,0,0,1-3.754,5.785,4.724,4.724,0,0,1-3.895-.806.685.685,0,0,0-.9-.029c-.677.422-1.374.811-2.071,1.2a.642.642,0,0,0-.389.661q.04,3.623,0,7.246a.636.636,0,0,0,.378.666c.718.39,1.428.8,2.119,1.231a.645.645,0,0,0,.845-.046,4.906,4.906,0,0,1,7.761,3.929,4.9,4.9,0,0,1-9.636,1.313,16.013,16.013,0,0,1-.153-1.862.854.854,0,0,0-.3-.571c-.737-.467-1.5-.9-2.271-1.306a.778.778,0,0,0-.639.025q-3.2,1.809-6.366,3.673a.785.785,0,0,0-.321.559c-.035.854,0,1.712-.023,2.567a.564.564,0,0,0,.424.616,4.913,4.913,0,1,1-4.189.118.939.939,0,0,0,.655-1.062,19.457,19.457,0,0,1-.006-2.166.68.68,0,0,0-.43-.7c-2.1-1.19-4.178-2.413-6.276-3.6a.782.782,0,0,0-.64-.029c-.79.414-1.563.862-2.32,1.335a.664.664,0,0,0-.253.522,4.919,4.919,0,1,1-5.946-4.17,4.773,4.773,0,0,1,3.951.82c.108.076.217.153.326.228a.363.363,0,0,0,.079.025" transform="translate(0 0)" stroke="rgba(0,0,0,0)" stroke-miterlimit="10" stroke-width="1" fill="url(#linear-gradient)"/>
      </g>
    </g>
  </g>
</svg>
