<svg xmlns="http://www.w3.org/2000/svg" width="29.063" height="19.383" viewBox="0 0 29.063 19.383">
  <path id="Icon_ionic-ios-arrow-round-forward" data-name="Icon ionic-ios-arrow-round-forward" d="M26.409,11.623a1.319,1.319,0,0,0-.01,1.857l6.138,6.148H9.177a1.312,1.312,0,0,0,0,2.625H32.526L26.389,28.4a1.329,1.329,0,0,0,.01,1.857,1.307,1.307,0,0,0,1.847-.01l8.318-8.379h0a1.474,1.474,0,0,0,.273-.414,1.252,1.252,0,0,0,.1-.5,1.316,1.316,0,0,0-.374-.919l-8.318-8.379A1.286,1.286,0,0,0,26.409,11.623Z" transform="translate(-7.875 -11.252)" fill="#fff" opacity="0"/>
</svg>
