<svg id="Group_22180" data-name="Group 22180" xmlns="http://www.w3.org/2000/svg" width="163.566" height="14.599" viewBox="0 0 163.566 14.599">
  <g id="Group_188" data-name="Group 188" transform="translate(0 0.173)">
    <g id="Group_187" data-name="Group 187">
      <path id="Path_891" data-name="Path 891" d="M1.429.574h0A1.966,1.966,0,0,1,3.8,1.929L6.646,12.4a1.966,1.966,0,0,1-1.355,2.371h0A1.966,1.966,0,0,1,2.92,13.412L.074,2.945A1.95,1.95,0,0,1,1.429.574Z" transform="translate(-0.01 -0.51)"/>
      <path id="Path_892" data-name="Path 892" d="M19.767.574h0a1.966,1.966,0,0,1,2.371,1.355L24.984,12.4a1.966,1.966,0,0,1-1.355,2.371h0a1.966,1.966,0,0,1-2.371-1.355L18.446,2.945A1.918,1.918,0,0,1,19.767.574Z" transform="translate(-12.149 -0.51)"/>
      <path id="Path_893" data-name="Path 893" d="M56.067.574h0a1.966,1.966,0,0,1,2.371,1.355L61.284,12.4a1.966,1.966,0,0,1-1.355,2.371h0a1.966,1.966,0,0,1-2.371-1.355L54.746,2.945A1.9,1.9,0,0,1,56.067.574Z" transform="translate(-36.154 -0.51)"/>
    </g>
    <circle id="Ellipse_2" data-name="Ellipse 2" cx="1.998" cy="1.998" r="1.998" transform="translate(13.783 5.145)"/>
  </g>
  <g id="Group_189" data-name="Group 189" transform="translate(31.769)">
    <path id="Path_894" data-name="Path 894" d="M104.165,1.768a.259.259,0,0,1,.068.169V3.868A.232.232,0,0,1,104,4.1h-3.523a.09.09,0,0,0-.1.1V15.283a.232.232,0,0,1-.237.237h-2.3a.232.232,0,0,1-.237-.237V4.24a.09.09,0,0,0-.1-.1H94.037A.232.232,0,0,1,93.8,3.9V1.937a.232.232,0,0,1,.237-.237H104A.259.259,0,0,1,104.165,1.768Z" transform="translate(-93.8 -1.124)"/>
    <path id="Path_895" data-name="Path 895" d="M136.024,6.205a3.579,3.579,0,0,1,.982,2.642v6.47a.232.232,0,0,1-.237.237h-2.3a.232.232,0,0,1-.237-.237V9.389a1.86,1.86,0,0,0-.44-1.287,1.637,1.637,0,0,0-2.371,0,1.8,1.8,0,0,0-.44,1.287v5.894a.232.232,0,0,1-.237.237h-2.3a.232.232,0,0,1-.237-.237V1.937a.232.232,0,0,1,.237-.237h2.3a.232.232,0,0,1,.237.237v4.37c0,.034,0,.068.034.068s.034,0,.068-.034a2.822,2.822,0,0,1,2.4-1.152,3.47,3.47,0,0,1,2.54,1.016Z" transform="translate(-116.548 -1.124)"/>
    <path id="Path_896" data-name="Path 896" d="M167.047,17.894c0,.169-.1.237-.271.237h-6.1c-.068,0-.1.034-.068.1a2.929,2.929,0,0,0,.2.779,2.076,2.076,0,0,0,2.1,1.118,2.354,2.354,0,0,0,2-1.016c.068-.068.1-.1.169-.1.034,0,.068.034.135.068l1.456,1.389a.31.31,0,0,1,.1.169c0,.034-.034.068-.068.169a4.269,4.269,0,0,1-1.694,1.253,5.488,5.488,0,0,1-2.236.44,5.219,5.219,0,0,1-2.879-.779,4.2,4.2,0,0,1-1.694-2.168,6.83,6.83,0,0,1-.406-2.574,5.773,5.773,0,0,1,.3-1.931,4.333,4.333,0,0,1,1.592-2.236,4.506,4.506,0,0,1,2.71-.813,4.382,4.382,0,0,1,3.184,1.152,4.988,4.988,0,0,1,1.457,3.049c0,.542.034,1.084,0,1.694Zm-6.3-2.3a2.647,2.647,0,0,0-.135.644.09.09,0,0,0,.1.1h3.421c.068,0,.1-.034.068-.1-.068-.373-.1-.576-.1-.542a1.822,1.822,0,0,0-.61-.915,1.874,1.874,0,0,0-1.084-.339,1.539,1.539,0,0,0-1.66,1.152Z" transform="translate(-136.122 -7.935)"/>
    <path id="Path_897" data-name="Path 897" d="M187.823,15.417l-3.489-13.38-.034-.068c0-.135.068-.169.2-.169h2.439c.136,0,.2.068.271.2l1.863,8.028c0,.068.034.068.068.068s.034-.034.068-.068L191.041,2a.258.258,0,0,1,.271-.2h2.4a.258.258,0,0,1,.271.2l1.965,8.028a.073.073,0,0,0,.068.068c.034,0,.034,0,.068-.068L197.917,2a.258.258,0,0,1,.271-.2h2.337c.169,0,.271.068.2.271l-3.286,13.346a.258.258,0,0,1-.271.2h-2.337c-.135,0-.2-.068-.271-.2l-2-8.536c0-.068-.034-.068-.068-.068s-.034.034-.068.068l-1.863,8.536a.237.237,0,0,1-.271.2h-2.2a.258.258,0,0,1-.271-.2Z" transform="translate(-153.646 -1.19)"/>
    <path id="Path_898" data-name="Path 898" d="M241.281,17.894c0,.169-.1.237-.271.237h-6.1c-.068,0-.1.034-.068.1a2.93,2.93,0,0,0,.2.779,2.076,2.076,0,0,0,2.1,1.118,2.354,2.354,0,0,0,2-1.016c.068-.068.1-.1.169-.1.034,0,.068.034.135.068l1.423,1.389a.309.309,0,0,1,.1.169c0,.034-.034.068-.068.169a4.269,4.269,0,0,1-1.694,1.253,5.488,5.488,0,0,1-2.236.44,5.219,5.219,0,0,1-2.879-.779,4.2,4.2,0,0,1-1.694-2.168A6.829,6.829,0,0,1,232,16.979a5.773,5.773,0,0,1,.3-1.931,4.333,4.333,0,0,1,1.592-2.236,4.506,4.506,0,0,1,2.71-.813,4.382,4.382,0,0,1,3.184,1.152,4.988,4.988,0,0,1,1.457,3.049,13.845,13.845,0,0,1,.034,1.694Zm-6.3-2.3a2.65,2.65,0,0,0-.136.644.09.09,0,0,0,.1.1h3.421c.068,0,.1-.034.068-.1-.068-.373-.1-.576-.1-.542a1.822,1.822,0,0,0-.61-.915,1.874,1.874,0,0,0-1.084-.339,1.562,1.562,0,0,0-1.66,1.152Z" transform="translate(-185.189 -7.935)"/>
    <path id="Path_899" data-name="Path 899" d="M272.715,10.439a7.5,7.5,0,0,1-.339,2.4,4.293,4.293,0,0,1-1.457,2.1,3.833,3.833,0,0,1-2.371.779,2.733,2.733,0,0,1-2.269-1.084.1.1,0,0,0-.068-.034c-.034,0-.034.034-.034.068v.644a.232.232,0,0,1-.237.237h-2.3a.232.232,0,0,1-.237-.237V1.937a.232.232,0,0,1,.237-.237h2.3a.232.232,0,0,1,.237.237V6.171c0,.034,0,.068.034.068s.068,0,.068-.034a2.665,2.665,0,0,1,2.2-.982,3.773,3.773,0,0,1,2.4.745,4.332,4.332,0,0,1,1.423,2,6.751,6.751,0,0,1,.406,2.473Zm-2.879.034a4.016,4.016,0,0,0-.474-2.1,1.538,1.538,0,0,0-1.389-.779,1.471,1.471,0,0,0-1.321.779,3.986,3.986,0,0,0-.44,2.066,3.917,3.917,0,0,0,.406,2,1.478,1.478,0,0,0,1.389.847,1.575,1.575,0,0,0,1.456-.847A4.4,4.4,0,0,0,269.836,10.473Z" transform="translate(-205.953 -1.124)"/>
    <path id="Path_900" data-name="Path 900" d="M301.947,15.417l-.61-1.931c-.034-.068-.068-.068-.1-.068h-4.878c-.034,0-.068.034-.1.068l-.576,1.931a.258.258,0,0,1-.271.2H292.9a.259.259,0,0,1-.169-.068c-.034-.034-.034-.1-.034-.2L296.968,2a.258.258,0,0,1,.271-.2h3.116c.136,0,.2.068.271.2l4.268,13.346c0,.034.034.068.034.1,0,.1-.068.169-.2.169h-2.507c-.136,0-.2-.068-.271-.2ZM297.1,11.25h3.489c.068,0,.1-.034.068-.135l-1.8-5.86c0-.068-.034-.068-.068-.068s-.034.034-.068.068L297,11.115c0,.1.034.135.1.135Z" transform="translate(-225.328 -1.19)"/>
    <path id="Path_901" data-name="Path 901" d="M336.571,1.768a.259.259,0,0,1,.169-.068h2.3a.232.232,0,0,1,.237.237V15.283a.232.232,0,0,1-.237.237h-2.3a.231.231,0,0,1-.237-.237v-.644c0-.034,0-.068-.034-.068s-.068,0-.068.034a2.733,2.733,0,0,1-2.269,1.084,3.7,3.7,0,0,1-2.371-.779,4.032,4.032,0,0,1-1.423-2.1,7.363,7.363,0,0,1-.339-2.4,8.65,8.65,0,0,1,.339-2.439,4.165,4.165,0,0,1,1.423-2,3.773,3.773,0,0,1,2.4-.745,2.665,2.665,0,0,1,2.2.982c.034.034.068.068.068.034.034,0,.034-.034.034-.068V1.937a.739.739,0,0,0,.1-.169Zm-.068,8.705a3.985,3.985,0,0,0-.44-2.066,1.47,1.47,0,0,0-1.321-.779,1.538,1.538,0,0,0-1.389.779,3.777,3.777,0,0,0-.508,2.1,4.224,4.224,0,0,0,.406,1.965,1.575,1.575,0,0,0,1.457.847,1.511,1.511,0,0,0,1.389-.847A4.183,4.183,0,0,0,336.5,10.473Z" transform="translate(-249.994 -1.124)"/>
    <path id="Path_902" data-name="Path 902" d="M367.771,1.768a.259.259,0,0,1,.169-.068h2.3a.232.232,0,0,1,.237.237V15.283a.232.232,0,0,1-.237.237h-2.3a.231.231,0,0,1-.237-.237v-.644c0-.034,0-.068-.034-.068s-.068,0-.068.034a2.733,2.733,0,0,1-2.269,1.084,3.7,3.7,0,0,1-2.371-.779,4.032,4.032,0,0,1-1.423-2.1,7.361,7.361,0,0,1-.339-2.4,8.648,8.648,0,0,1,.339-2.439,4.165,4.165,0,0,1,1.423-2,3.773,3.773,0,0,1,2.4-.745,2.665,2.665,0,0,1,2.2.982c.034.034.068.068.068.034.034,0,.034-.034.034-.068V1.937a.74.74,0,0,0,.1-.169Zm-.1,8.705a3.985,3.985,0,0,0-.44-2.066,1.47,1.47,0,0,0-1.321-.779,1.538,1.538,0,0,0-1.389.779,3.777,3.777,0,0,0-.508,2.1,4.224,4.224,0,0,0,.406,1.965,1.575,1.575,0,0,0,1.456.847,1.511,1.511,0,0,0,1.389-.847A4.183,4.183,0,0,0,367.67,10.473Z" transform="translate(-270.626 -1.124)"/>
    <path id="Path_903" data-name="Path 903" d="M393.24,2.676a1.506,1.506,0,0,1-.44-1.118A1.455,1.455,0,0,1,393.24.44,1.506,1.506,0,0,1,394.358,0a1.456,1.456,0,0,1,1.118.44,1.506,1.506,0,0,1,.44,1.118,1.581,1.581,0,0,1-2.676,1.118ZM393,14.362a.259.259,0,0,1-.068-.169V4.471a.232.232,0,0,1,.237-.237h2.3a.231.231,0,0,1,.237.237v9.687a.231.231,0,0,1-.237.237h-2.3c-.068.034-.1,0-.169-.034Z" transform="translate(-291.522 0)"/>
    <path id="Path_904" data-name="Path 904" d="M407.7,21.787a4.275,4.275,0,0,1-1.66-2.168,6.811,6.811,0,0,1-.339-2.337,6.608,6.608,0,0,1,.339-2.3,4.012,4.012,0,0,1,1.626-2.1,4.919,4.919,0,0,1,2.744-.779,5.115,5.115,0,0,1,2.778.779,3.778,3.778,0,0,1,1.592,2,2.588,2.588,0,0,1,.169.711v.034a.18.18,0,0,1-.2.2l-2.269.339h-.034a.224.224,0,0,1-.237-.2l-.068-.3a1.533,1.533,0,0,0-.61-.847,1.985,1.985,0,0,0-1.118-.339,1.616,1.616,0,0,0-1.66,1.186,5.286,5.286,0,0,0-.2,1.626,5.286,5.286,0,0,0,.2,1.626,1.822,1.822,0,0,0,.61.915,1.9,1.9,0,0,0,2.168,0,1.676,1.676,0,0,0,.644-.915c0-.034.034-.068.034-.1a.118.118,0,0,0,.034-.068c0-.169.1-.237.271-.2l2.269.373q.2.051.2.2a2.207,2.207,0,0,1-.135.61,3.529,3.529,0,0,1-1.626,2.066,5.057,5.057,0,0,1-2.744.745,5.174,5.174,0,0,1-2.778-.745Z" transform="translate(-300.052 -8.001)"/>
    <path id="Path_905" data-name="Path 905" d="M441.834,9.544a.259.259,0,0,1-.169.068h-1.9a.09.09,0,0,0-.1.1v4.2a1.615,1.615,0,0,0,.271.982.973.973,0,0,0,.847.3h.644a.232.232,0,0,1,.237.237V17.3a.258.258,0,0,1-.237.271c-.542.034-.948.034-1.186.034a4.338,4.338,0,0,1-2.439-.542,2.4,2.4,0,0,1-.847-2.032V9.713a.09.09,0,0,0-.1-.1h-1.118a.231.231,0,0,1-.237-.237V7.613a.231.231,0,0,1,.237-.237h1.118a.09.09,0,0,0,.1-.1V4.937a.231.231,0,0,1,.237-.237h2.2a.232.232,0,0,1,.237.237V7.274a.09.09,0,0,0,.1.1h1.9a.232.232,0,0,1,.237.237V9.374c.034.068.034.1-.034.169Z" transform="translate(-319.759 -3.108)"/>
    <path id="Path_906" data-name="Path 906" d="M459.266,22.326a3.41,3.41,0,0,1-1.524-1.05,2.275,2.275,0,0,1-.542-1.524v-.2a.232.232,0,0,1,.237-.237h2.2a.232.232,0,0,1,.237.237v.034a.935.935,0,0,0,.474.745,2.245,2.245,0,0,0,1.219.3,2.051,2.051,0,0,0,1.084-.271.783.783,0,0,0,.406-.677.644.644,0,0,0-.339-.542,9.291,9.291,0,0,0-1.152-.373c-.61-.169-1.118-.3-1.457-.44a7.1,7.1,0,0,1-2.032-1.05,2.192,2.192,0,0,1-.745-1.829,2.641,2.641,0,0,1,1.152-2.3A5.124,5.124,0,0,1,461.5,12.3a5.436,5.436,0,0,1,2.2.406,3.3,3.3,0,0,1,1.457,1.118,2.831,2.831,0,0,1,.508,1.66.231.231,0,0,1-.237.237h-2.1a.231.231,0,0,1-.237-.237.851.851,0,0,0-.44-.745,2.049,2.049,0,0,0-1.186-.3,1.931,1.931,0,0,0-1.05.237.733.733,0,0,0-.406.644.651.651,0,0,0,.406.61,6.029,6.029,0,0,0,1.355.406c.135.034.3.068.508.135.169.034.373.1.61.169a6.668,6.668,0,0,1,2.2,1.05,2.273,2.273,0,0,1,.813,1.9,2.582,2.582,0,0,1-1.152,2.269,5.312,5.312,0,0,1-3.116.813,6.263,6.263,0,0,1-2.371-.339Z" transform="translate(-334.108 -8.134)"/>
  </g>
</svg>
