<svg xmlns="http://www.w3.org/2000/svg" width="103" height="35.864" viewBox="0 0 103 35.864">
  <g id="Group_11" data-name="Group 11" transform="translate(0 35.864) rotate(-90)" style="mix-blend-mode: luminosity;isolation: isolate">
    <path id="Path_1" data-name="Path 1" d="M15.208,3.307v.041a.274.274,0,0,1-.08.2L4.961,13.715a6.035,6.035,0,0,0,3.671,1.291,6,6,0,0,0,3.672-1.13.434.434,0,0,1,.242-.08.348.348,0,0,1,.242.121l.04.041.041.04q.363.28.645.525.242.2.605.524a.315.315,0,0,1,.121.28.384.384,0,0,1-.162.323,8.622,8.622,0,0,1-5.365,1.82H8.471A8.4,8.4,0,0,1,2.9,15.252,8.367,8.367,0,0,1,0,9.4V8.673A8.438,8.438,0,0,1,1.977,3.187,8.327,8.327,0,0,1,7.5.08,10.131,10.131,0,0,1,8.754,0a8.53,8.53,0,0,1,4.881,1.532l.242.2c.187.161.374.336.561.524a4.187,4.187,0,0,1,.484.484l.2.28A.5.5,0,0,1,15.208,3.307ZM3.025,11.376a.51.51,0,0,0,.322.2h.081a.349.349,0,0,0,.242-.121l7.745-7.745a.387.387,0,0,0,.121-.28.05.05,0,0,0,0-.08.287.287,0,0,0-.2-.28A6.12,6.12,0,0,0,8.794,2.51a7.661,7.661,0,0,0-1.331.121A6.115,6.115,0,0,0,4.034,4.608,6.2,6.2,0,0,0,2.539,7.915Q2.5,8.36,2.5,8.763A5.864,5.864,0,0,0,3.025,11.376Z" transform="translate(24.279 0) rotate(90)" fill="#000001"/>
    <path id="Path_2" data-name="Path 2" d="M19.928,9.319v7.745a.387.387,0,0,1-.121.28.316.316,0,0,1-.28.121h-1.7a.413.413,0,0,1-.4-.4V8.754a5.991,5.991,0,0,0-1.815-4.4,5.926,5.926,0,0,0-4.4-1.855V17.024a.413.413,0,0,1-.4.4H8.714V8.272A6.073,6.073,0,0,0,6.777,4.161,6.144,6.144,0,0,0,2.5,2.508V17.065a.434.434,0,0,1-.121.322.387.387,0,0,1-.28.121H.4a.434.434,0,0,1-.322-.121A.57.57,0,0,1,0,17.065V1.01A1.076,1.076,0,0,1,.281.281.984.984,0,0,1,1.01,0H2.5A8.259,8.259,0,0,1,5.933.727a8.39,8.39,0,0,1,2.784,1.9V1.01a1,1,0,0,1,.32-.729A.984.984,0,0,1,9.763,0h1.449a7.547,7.547,0,0,1,4.279,1.291A9.5,9.5,0,0,1,18.6,4.562a9.1,9.1,0,0,1,.968,2.3,8.513,8.513,0,0,1,.362,2.461Z" transform="translate(24.2 32.311) rotate(90)" fill="#000001"/>
    <path id="Path_3" data-name="Path 3" d="M16.732,4.657A9.063,9.063,0,0,0,15.174,2.6,8.567,8.567,0,0,0,8.885,0,8.566,8.566,0,0,0,2.6,2.6,8.565,8.565,0,0,0,0,8.885a8.59,8.59,0,0,0,2.654,6.289,8.5,8.5,0,0,0,6.231,2.6,8.567,8.567,0,0,0,6.288-2.6,9.413,9.413,0,0,0,1.57-2.106A8.5,8.5,0,0,1,15.7,8.885a8.666,8.666,0,0,1,1.035-4.229Z" transform="translate(23.612 53.828) rotate(90)" fill="#ffc200"/>
    <path id="Path_4" data-name="Path 4" d="M14.6,8.69a8.67,8.67,0,0,1,1.013-4.175A9.116,9.116,0,0,0,14.136,2.6,8.567,8.567,0,0,0,7.848,0a8.566,8.566,0,0,0-6.29,2.6A9.063,9.063,0,0,0,0,4.657,8.665,8.665,0,0,1,1.038,8.885,8.65,8.65,0,0,1,.01,13.067a9.423,9.423,0,0,0,1.606,2.107,8.5,8.5,0,0,0,6.232,2.6,8.567,8.567,0,0,0,6.288-2.6,9.412,9.412,0,0,0,1.571-2.11,8.579,8.579,0,0,1-1.105-4.2Z" transform="translate(23.612 70.561) rotate(90)" fill="#adaeae"/>
    <path id="Path_5" data-name="Path 5" d="M1.039,0A8.666,8.666,0,0,0,0,4.229,8.5,8.5,0,0,0,1.05,8.409,8.65,8.65,0,0,0,2.078,4.227,8.665,8.665,0,0,0,1.039,0Z" transform="translate(18.956 69.522) rotate(90)" fill="#ffc200" style="mix-blend-mode: overlay;isolation: isolate"/>
    <path id="Path_6" data-name="Path 6" d="M1.039,0A8.666,8.666,0,0,0,0,4.229,8.5,8.5,0,0,0,1.05,8.409,8.65,8.65,0,0,0,2.078,4.227,8.665,8.665,0,0,0,1.039,0Z" transform="translate(18.956 69.522) rotate(90)" fill="#ffe728"/>
    <path id="Path_7" data-name="Path 7" d="M16.217,0h-.646a1.2,1.2,0,0,0-.888.363,1.2,1.2,0,0,0-.36.847h0V14.2l.008.673c-.147-.151-.3-.3-.458-.447a8.383,8.383,0,0,0-6-2.366,8.661,8.661,0,0,0-6.346,2.654A9.107,9.107,0,0,0,0,16.77a8.639,8.639,0,0,1,1.121,4.367A8.651,8.651,0,0,1,.093,25.319,8.975,8.975,0,0,0,1.7,27.353a8.856,8.856,0,0,0,6.346,2.538h8.192a.549.549,0,0,0,.2-.036.433.433,0,0,0,.308-.12.354.354,0,0,0,.08-.28V0Z" transform="translate(35.864 86.175) rotate(90)" fill="#000001"/>
    <path id="Path_8" data-name="Path 8" d="M1.013,0A8.67,8.67,0,0,0,0,4.175v.173a8.579,8.579,0,0,0,1.105,4.2A8.651,8.651,0,0,0,2.134,4.367,8.639,8.639,0,0,0,1.013,0Z" transform="translate(19.094 85.161) rotate(90)" fill="#adaeae" style="mix-blend-mode: overlay;isolation: isolate"/>
    <path id="Path_9" data-name="Path 9" d="M1.013,0A8.67,8.67,0,0,0,0,4.175v.173a8.579,8.579,0,0,0,1.105,4.2A8.651,8.651,0,0,0,2.134,4.367,8.639,8.639,0,0,0,1.013,0Z" transform="translate(19.094 85.161) rotate(90)" fill="#807f81"/>
    <g id="Group_1" data-name="Group 1" transform="translate(16.027 19.649) rotate(90)">
      <path id="Path_10" data-name="Path 10" d="M1.02,2.56H0V1.3A1.285,1.285,0,0,1,.281.459,1.234,1.234,0,0,1,1.02,0h5.95V1.3a1.392,1.392,0,0,1-.316.917,1.162,1.162,0,0,1-.841.344H1.02Z" transform="translate(0 0)" fill="#000001"/>
    </g>
    <g id="Group_2" data-name="Group 2" transform="translate(3.263 53.913) rotate(90)">
      <path id="Path_11" data-name="Path 11" d="M1.395,0h.323L3.113,3.083H2.739l-.359-.809H.717l-.363.809H0Zm.853,1.962L1.552.4l-.7,1.559Z" transform="translate(0 0.128)" fill="#000001"/>
      <path id="Path_12" data-name="Path 12" d="M.866,2.309A.954.954,0,0,1,.5,2.242.755.755,0,0,1,.23,2.055a.818.818,0,0,1-.171-.28A1.09,1.09,0,0,1,0,1.4V0H.337V1.317a.724.724,0,0,0,.162.5A.586.586,0,0,0,.965,2a.71.71,0,0,0,.269-.05.6.6,0,0,0,.214-.144.692.692,0,0,0,.14-.228.766.766,0,0,0,.052-.288V0h.333V2.26H1.64V1.869a1.063,1.063,0,0,1-.3.313.811.811,0,0,1-.476.127Z" transform="translate(4.936 0.95)" fill="#000001"/>
      <path id="Path_13" data-name="Path 13" d="M0,.049H.336V.443A1.068,1.068,0,0,1,.634.13.812.812,0,0,1,1.111,0a.956.956,0,0,1,.365.065.758.758,0,0,1,.271.187.819.819,0,0,1,.17.287,1.092,1.092,0,0,1,.059.367v1.4H1.64V.992A.724.724,0,0,0,1.478.5.586.586,0,0,0,1.011.308.711.711,0,0,0,.747.361.626.626,0,0,0,.529.505.648.648,0,0,0,.387.73a.8.8,0,0,0-.05.288V2.309H0Z" transform="translate(7.665 0.901)" fill="#000001"/>
      <path id="Path_14" data-name="Path 14" d="M0,0H.385V.374H0ZM.021.866H.358v2.26H.021Z" transform="translate(10.367 0.084)" fill="#000001"/>
      <path id="Path_15" data-name="Path 15" d="M0,0H.374l.761,1.876L1.9,0h.363L1.277,2.278h-.3Z" transform="translate(11.285 0.95)" fill="#000001"/>
      <path id="Path_16" data-name="Path 16" d="M.341,1.317a.9.9,0,0,0,.087.32.765.765,0,0,0,.179.233.775.775,0,0,0,.245.147.81.81,0,0,0,.28.05.867.867,0,0,0,.409-.085,1.2,1.2,0,0,0,.308-.232l.209.187a1.38,1.38,0,0,1-.389.308,1.148,1.148,0,0,1-.542.116,1.121,1.121,0,0,1-.437-.085,1.075,1.075,0,0,1-.359-.24A1.139,1.139,0,0,1,.09,1.661,1.254,1.254,0,0,1,0,1.181,1.308,1.308,0,0,1,.08.72,1.157,1.157,0,0,1,.306.346,1.052,1.052,0,0,1,.649.094,1.028,1.028,0,0,1,1.084,0,1.021,1.021,0,0,1,1.53.094.978.978,0,0,1,1.863.35a1.121,1.121,0,0,1,.206.38,1.531,1.531,0,0,1,.07.467v.05a.625.625,0,0,1,0,.068ZM1.8,1.041A1.057,1.057,0,0,0,1.731.748.814.814,0,0,0,1.588.51.654.654,0,0,0,1.371.346a.683.683,0,0,0-.3-.065A.654.654,0,0,0,.8.337.689.689,0,0,0,.581.5a.881.881,0,0,0-.16.246.973.973,0,0,0-.08.3Z" transform="translate(13.935 0.902)" fill="#000001"/>
      <path id="Path_17" data-name="Path 17" d="M0,.041H.336V.63A1.2,1.2,0,0,1,.49.374,1.034,1.034,0,0,1,.7.17.892.892,0,0,1,.958.041a.924.924,0,0,1,.3-.04V.364H1.233A.927.927,0,0,0,.886.429.789.789,0,0,0,.6.626.934.934,0,0,0,.406.953a1.316,1.316,0,0,0-.07.449v.9H0Z" transform="translate(16.663 0.91)" fill="#000001"/>
      <path id="Path_18" data-name="Path 18" d="M.934,2.343A1.454,1.454,0,0,1,.44,2.25,1.545,1.545,0,0,1,0,2.012l.171-.236a1.5,1.5,0,0,0,.382.214,1.135,1.135,0,0,0,.4.075.555.555,0,0,0,.336-.093.308.308,0,0,0,.131-.263V1.692a.235.235,0,0,0-.046-.144.414.414,0,0,0-.124-.107,1.012,1.012,0,0,0-.181-.08q-.1-.035-.212-.065Q.726,1.256.592,1.209a1.08,1.08,0,0,1-.24-.116A.588.588,0,0,1,.178.918.475.475,0,0,1,.109.654V.648A.613.613,0,0,1,.166.383.6.6,0,0,1,.326.178.734.734,0,0,1,.571.046,1,1,0,0,1,.879,0,1.4,1.4,0,0,1,1.3.068a1.6,1.6,0,0,1,.39.181L1.54.5A1.537,1.537,0,0,0,1.209.344,1.047,1.047,0,0,0,.87.28.5.5,0,0,0,.551.374.288.288,0,0,0,.434.607V.621A.21.21,0,0,0,.481.759a.416.416,0,0,0,.129.1A1.145,1.145,0,0,0,.8.94l.219.07q.131.039.26.088a1.015,1.015,0,0,1,.234.122.6.6,0,0,1,.168.179.49.49,0,0,1,.064.258v.008a.623.623,0,0,1-.064.287.647.647,0,0,1-.17.212.754.754,0,0,1-.253.134,1.056,1.056,0,0,1-.32.045Z" transform="translate(18.246 0.91)" fill="#000001"/>
      <path id="Path_19" data-name="Path 19" d="M.341,1.317a.9.9,0,0,0,.088.32.765.765,0,0,0,.178.233.775.775,0,0,0,.245.147.809.809,0,0,0,.28.05.866.866,0,0,0,.409-.085,1.2,1.2,0,0,0,.308-.232l.21.187a1.378,1.378,0,0,1-.389.308,1.147,1.147,0,0,1-.542.116,1.121,1.121,0,0,1-.437-.085,1.075,1.075,0,0,1-.359-.24,1.144,1.144,0,0,1-.243-.374A1.257,1.257,0,0,1,0,1.181,1.308,1.308,0,0,1,.081.72,1.155,1.155,0,0,1,.306.346,1.051,1.051,0,0,1,.649.094,1.028,1.028,0,0,1,1.084,0,1.021,1.021,0,0,1,1.53.094.978.978,0,0,1,1.863.35a1.121,1.121,0,0,1,.206.38,1.531,1.531,0,0,1,.07.467v.05a.654.654,0,0,1,0,.068ZM1.8,1.041A1.061,1.061,0,0,0,1.731.748.815.815,0,0,0,1.588.51.654.654,0,0,0,1.371.346a.682.682,0,0,0-.3-.065A.654.654,0,0,0,.8.337.69.69,0,0,0,.581.5.884.884,0,0,0,.422.741a.973.973,0,0,0-.081.3Z" transform="translate(20.471 0.902)" fill="#000001"/>
      <path id="Path_20" data-name="Path 20" d="M1.172,2.361A1.152,1.152,0,0,1,.7,2.268a1.185,1.185,0,0,1-.374-.253,1.142,1.142,0,0,1-.245-.374A1.174,1.174,0,0,1,0,1.189V1.181A1.19,1.19,0,0,1,.087.726,1.154,1.154,0,0,1,.706.094,1.176,1.176,0,0,1,1.181,0a1.176,1.176,0,0,1,.841.348,1.146,1.146,0,0,1,.245.374,1.174,1.174,0,0,1,.088.453v.008a1.164,1.164,0,0,1-.093.455,1.2,1.2,0,0,1-.248.374,1.152,1.152,0,0,1-.374.256,1.183,1.183,0,0,1-.468.093Zm.009-.306a.8.8,0,0,0,.336-.07A.816.816,0,0,0,1.78,1.8a.862.862,0,0,0,.17-.276.92.92,0,0,0,.062-.336V1.181a.921.921,0,0,0-.064-.34.871.871,0,0,0-.173-.28A.85.85,0,0,0,1.509.374.789.789,0,0,0,1.172.3a.8.8,0,0,0-.336.07A.789.789,0,0,0,.575.554a.873.873,0,0,0-.168.28.934.934,0,0,0-.061.339v.008a.92.92,0,0,0,.064.343.861.861,0,0,0,.175.28.841.841,0,0,0,.264.187.789.789,0,0,0,.333.064Z" transform="translate(24.372 0.902)" fill="#000001"/>
      <path id="Path_21" data-name="Path 21" d="M.31,1.247H0V.954H.31v-.2a.789.789,0,0,1,.2-.582A.654.654,0,0,1,.992,0a1.361,1.361,0,0,1,.2.013.874.874,0,0,1,.168.044V.351C1.3.334,1.247.32,1.2.309A.8.8,0,0,0,1.036.295q-.393,0-.393.48V.962H1.36V1.25H.647V3.212H.31Z" transform="translate(27.152 0)" fill="#000001"/>
      <path id="Path_22" data-name="Path 22" d="M.934,2.343A1.454,1.454,0,0,1,.44,2.25,1.544,1.544,0,0,1,0,2.012l.171-.236a1.5,1.5,0,0,0,.382.214,1.135,1.135,0,0,0,.4.075.555.555,0,0,0,.336-.093.308.308,0,0,0,.131-.263V1.692a.235.235,0,0,0-.046-.144.414.414,0,0,0-.124-.107,1.012,1.012,0,0,0-.181-.08q-.1-.035-.212-.065Q.726,1.256.592,1.209a1.08,1.08,0,0,1-.24-.116A.588.588,0,0,1,.178.918.475.475,0,0,1,.109.654V.648A.613.613,0,0,1,.166.383.6.6,0,0,1,.326.178.734.734,0,0,1,.571.046,1,1,0,0,1,.879,0,1.4,1.4,0,0,1,1.3.068a1.6,1.6,0,0,1,.39.181L1.54.5A1.537,1.537,0,0,0,1.209.344,1.047,1.047,0,0,0,.87.28.5.5,0,0,0,.551.374.288.288,0,0,0,.434.607V.621A.21.21,0,0,0,.481.759a.417.417,0,0,0,.129.1A1.152,1.152,0,0,0,.8.94l.219.07q.131.039.26.088a1.015,1.015,0,0,1,.234.122.6.6,0,0,1,.168.179.49.49,0,0,1,.064.258v.008a.623.623,0,0,1-.064.287.647.647,0,0,1-.17.212.754.754,0,0,1-.253.134,1.056,1.056,0,0,1-.32.045Z" transform="translate(30.064 0.91)" fill="#000001"/>
      <path id="Path_23" data-name="Path 23" d="M1.172,2.361A1.152,1.152,0,0,1,.7,2.268a1.185,1.185,0,0,1-.374-.253,1.144,1.144,0,0,1-.245-.374A1.174,1.174,0,0,1,0,1.189V1.181A1.19,1.19,0,0,1,.087.726,1.153,1.153,0,0,1,.706.094,1.176,1.176,0,0,1,1.181,0a1.173,1.173,0,0,1,.841.347A1.146,1.146,0,0,1,2.267.72a1.174,1.174,0,0,1,.088.453v.008a1.164,1.164,0,0,1-.093.455,1.2,1.2,0,0,1-.248.374,1.152,1.152,0,0,1-.374.256,1.183,1.183,0,0,1-.468.094Zm.009-.306a.8.8,0,0,0,.336-.07A.816.816,0,0,0,1.78,1.8a.863.863,0,0,0,.17-.276.92.92,0,0,0,.062-.336V1.181a.924.924,0,0,0-.064-.34.874.874,0,0,0-.173-.28A.85.85,0,0,0,1.508.374.789.789,0,0,0,1.172.3a.8.8,0,0,0-.336.07A.789.789,0,0,0,.575.554a.873.873,0,0,0-.168.28.934.934,0,0,0-.061.339v.008a.92.92,0,0,0,.064.343.861.861,0,0,0,.175.28.841.841,0,0,0,.264.187A.789.789,0,0,0,1.181,2.056Z" transform="translate(32.29 0.902)" fill="#000001"/>
      <path id="Path_24" data-name="Path 24" d="M0,0H.336V3.192H0Z" transform="translate(35.285 0.019)" fill="#000001"/>
      <path id="Path_25" data-name="Path 25" d="M.866,2.309A.954.954,0,0,1,.5,2.242.755.755,0,0,1,.23,2.055a.818.818,0,0,1-.171-.28A1.09,1.09,0,0,1,0,1.4V0H.337V1.317a.724.724,0,0,0,.162.5A.586.586,0,0,0,.965,2a.71.71,0,0,0,.269-.05.6.6,0,0,0,.214-.144.692.692,0,0,0,.14-.228.766.766,0,0,0,.052-.288V0h.333V2.26H1.64V1.869a1.063,1.063,0,0,1-.3.313.811.811,0,0,1-.476.127Z" transform="translate(36.369 0.95)" fill="#000001"/>
      <path id="Path_26" data-name="Path 26" d="M.953,2.982A.883.883,0,0,1,.7,2.948a.5.5,0,0,1-.336-.31.8.8,0,0,1-.048-.293V.979H0v-.3H.315V0H.654V.682h.717v.3H.654V2.3a.352.352,0,0,0,.1.292.431.431,0,0,0,.269.083.778.778,0,0,0,.164-.017A.764.764,0,0,0,1.357,2.6v.289a.747.747,0,0,1-.187.072.919.919,0,0,1-.217.024Z" transform="translate(38.901 0.267)" fill="#000001"/>
      <path id="Path_27" data-name="Path 27" d="M0,0H.385V.374H0ZM.021.866H.358v2.26H.021Z" transform="translate(40.873 0.084)" fill="#000001"/>
      <path id="Path_28" data-name="Path 28" d="M1.172,2.361A1.152,1.152,0,0,1,.7,2.268a1.185,1.185,0,0,1-.374-.253,1.142,1.142,0,0,1-.245-.374A1.174,1.174,0,0,1,0,1.189V1.181A1.19,1.19,0,0,1,.088.726,1.153,1.153,0,0,1,.706.094,1.175,1.175,0,0,1,1.181,0a1.176,1.176,0,0,1,.841.348,1.146,1.146,0,0,1,.245.374,1.174,1.174,0,0,1,.088.453v.008a1.164,1.164,0,0,1-.093.455,1.2,1.2,0,0,1-.247.374,1.154,1.154,0,0,1-.374.256,1.183,1.183,0,0,1-.469.093Zm.009-.306a.8.8,0,0,0,.336-.07A.814.814,0,0,0,1.78,1.8a.862.862,0,0,0,.17-.276.92.92,0,0,0,.062-.336V1.181a.921.921,0,0,0-.064-.34.871.871,0,0,0-.173-.28A.851.851,0,0,0,1.509.374.789.789,0,0,0,1.172.3a.8.8,0,0,0-.336.07A.788.788,0,0,0,.575.554a.87.87,0,0,0-.168.28.934.934,0,0,0-.062.339v.008a.92.92,0,0,0,.064.343.864.864,0,0,0,.175.28.841.841,0,0,0,.264.187A.789.789,0,0,0,1.181,2.056Z" transform="translate(41.874 0.902)" fill="#000001"/>
      <path id="Path_29" data-name="Path 29" d="M0,.049H.336V.443A1.065,1.065,0,0,1,.634.13.813.813,0,0,1,1.111,0a.956.956,0,0,1,.365.065.757.757,0,0,1,.271.187.819.819,0,0,1,.17.287,1.091,1.091,0,0,1,.059.367v1.4H1.64V.992A.724.724,0,0,0,1.478.5.585.585,0,0,0,1.011.308.712.712,0,0,0,.747.361.629.629,0,0,0,.529.505.654.654,0,0,0,.387.73a.8.8,0,0,0-.05.288V2.309H0Z" transform="translate(44.838 0.901)" fill="#000001"/>
      <path id="Path_30" data-name="Path 30" d="M.934,2.343A1.454,1.454,0,0,1,.44,2.25,1.545,1.545,0,0,1,0,2.012l.171-.236a1.5,1.5,0,0,0,.382.214,1.135,1.135,0,0,0,.4.075.555.555,0,0,0,.336-.093.308.308,0,0,0,.131-.263V1.692a.235.235,0,0,0-.046-.144.414.414,0,0,0-.124-.107,1.012,1.012,0,0,0-.181-.08q-.1-.035-.212-.065Q.726,1.256.592,1.209a1.08,1.08,0,0,1-.24-.116A.588.588,0,0,1,.178.918.475.475,0,0,1,.109.654V.648A.613.613,0,0,1,.166.383.6.6,0,0,1,.326.178.734.734,0,0,1,.571.046,1,1,0,0,1,.879,0,1.4,1.4,0,0,1,1.3.068a1.6,1.6,0,0,1,.39.181L1.54.5A1.54,1.54,0,0,0,1.209.344,1.047,1.047,0,0,0,.87.28.5.5,0,0,0,.551.374.288.288,0,0,0,.434.607V.621A.21.21,0,0,0,.481.759a.417.417,0,0,0,.129.1A1.152,1.152,0,0,0,.8.94l.219.07q.131.039.26.088a1.015,1.015,0,0,1,.234.122.6.6,0,0,1,.168.179.49.49,0,0,1,.064.258v.008a.623.623,0,0,1-.064.287.654.654,0,0,1-.17.212.754.754,0,0,1-.253.134A1.056,1.056,0,0,1,.934,2.343Z" transform="translate(47.344 0.91)" fill="#000001"/>
    </g>
  </g>
</svg>
