<svg xmlns="http://www.w3.org/2000/svg" xmlns:xlink="http://www.w3.org/1999/xlink" width="107.578" height="51.972" viewBox="0 0 107.578 51.972">
  <defs>
    <clipPath id="clip-path">
      <rect id="Rectangle_145" data-name="Rectangle 145" width="107.578" height="51.972" fill="none"/>
    </clipPath>
  </defs>
  <g id="Group_22180" data-name="Group 22180" transform="translate(0 0)" style="mix-blend-mode: luminosity;isolation: isolate">
    <g id="Group_191" data-name="Group 191" transform="translate(0 0)" clip-path="url(#clip-path)">
      <path id="Path_907" data-name="Path 907" d="M4.439,39.746A3.1,3.1,0,0,0,3.1,39.488,2.346,2.346,0,0,0,.683,42.064,2.321,2.321,0,0,0,3.1,44.639a2.964,2.964,0,0,0,1.335-.256l.034.513a3.228,3.228,0,0,1-1.369.256A2.846,2.846,0,0,1,.093,42.064,2.881,2.881,0,0,1,3.1,38.976a3.843,3.843,0,0,1,1.369.222Z" transform="translate(0.016 6.819)" fill="#040504"/>
      <path id="Path_908" data-name="Path 908" d="M6.782,41.707h.626c.693,0,1.487-.264,1.487-1.1,0-.975-.692-1.035-1.5-1.035h-.61Zm-.589-2.644H7.732c1.061,0,1.755.454,1.755,1.549A1.41,1.41,0,0,1,8.161,41.99v.016c.479.06.582.316.77.719l1.017,2.31H9.3l-.862-2.02c-.342-.77-.6-.8-1.166-.8H6.782v2.815H6.193Z" transform="translate(1.083 6.834)" fill="#040504"/>
      <path id="Path_909" data-name="Path 909" d="M45.841,39.746a3.1,3.1,0,0,0-1.335-.257,2.346,2.346,0,0,0-2.422,2.575,2.32,2.32,0,0,0,2.422,2.575,2.964,2.964,0,0,0,1.335-.256l.034.513a3.232,3.232,0,0,1-1.369.256,2.846,2.846,0,0,1-3.011-3.089,2.881,2.881,0,0,1,3.011-3.088,3.843,3.843,0,0,1,1.369.222Z" transform="translate(7.259 6.819)" fill="#040504"/>
      <path id="Path_910" data-name="Path 910" d="M47.937,42.065c0,1.265.633,2.574,2.036,2.574s2.036-1.309,2.036-2.574-.633-2.575-2.036-2.575-2.036,1.309-2.036,2.575m2.036-3.089c1.8,0,2.644,1.471,2.627,3.089-.018,1.831-.907,3.088-2.627,3.088s-2.61-1.257-2.627-3.088c-.016-1.618.831-3.089,2.627-3.089" transform="translate(8.283 6.819)" fill="#040504"/>
      <path id="Path_911" data-name="Path 911" d="M59.6,44.289a2.355,2.355,0,0,0,1.317.351,1.191,1.191,0,0,0,1.343-1.224c0-1.171-2.738-1.317-2.738-2.883a1.681,1.681,0,0,1,1.892-1.557,3.563,3.563,0,0,1,1.171.2l-.094.538a2.441,2.441,0,0,0-1.087-.222c-.616,0-1.291.257-1.291,1.027,0,1.2,2.738,1.207,2.738,2.951a1.751,1.751,0,0,1-1.959,1.686,3.4,3.4,0,0,1-1.352-.257Z" transform="translate(10.413 6.819)" fill="#040504"/>
      <path id="Path_912" data-name="Path 912" d="M68.68,42.947a2.165,2.165,0,1,1-4.33,0V39.063h.591v3.884a1.578,1.578,0,1,0,3.149,0V39.063h.59Z" transform="translate(11.257 6.834)" fill="#040504"/>
      <path id="Path_913" data-name="Path 913" d="M91.127,42.329H89.741v-.513h1.976v2.969a4.464,4.464,0,0,1-1.856.368,2.846,2.846,0,0,1-3.011-3.089,2.88,2.88,0,0,1,3.011-3.088,4.205,4.205,0,0,1,1.6.282l-.068.548a3.142,3.142,0,0,0-1.532-.317,2.346,2.346,0,0,0-2.422,2.575,2.32,2.32,0,0,0,2.422,2.575,3.048,3.048,0,0,0,1.267-.214Z" transform="translate(15.193 6.819)" fill="#040504"/>
      <path id="Path_914" data-name="Path 914" d="M2.143,15.253A6.4,6.4,0,0,0,.068,19.905a6.055,6.055,0,0,0,2.319,4.762,5.893,5.893,0,0,0,3.235,1.014c.073,0,.146,0,.2-.007l7.99-.008,1.072.231A3.383,3.383,0,0,1,17.1,29.11l-.116.962c-.506,1.758-1.808,2.613-3.981,2.613H0V34.8H13.329l1.477-.074a6.274,6.274,0,0,0,2.856-1.519,6.207,6.207,0,0,0,1.543-3.29l0-1.4-.132-.851a5.559,5.559,0,0,0-1.7-2.748,5.685,5.685,0,0,0-3.155-1.357H5.4a3.806,3.806,0,0,1-1.818-.8,3.7,3.7,0,0,1-1.345-2.79,4.734,4.734,0,0,1,.233-1.354C3.021,17,4.318,16.182,6.331,16.182H19.271V14.006H6.649a7.208,7.208,0,0,0-4.506,1.247" transform="translate(0 2.451)" fill="#040504"/>
      <path id="Path_915" data-name="Path 915" d="M36.045,24.43A8.133,8.133,0,0,1,32.666,31.2a9.231,9.231,0,0,1-4.46,1.355h-.7A8.69,8.69,0,0,1,22.955,31.1a7.667,7.667,0,0,1-3.233-6.353l0-.394,0-.177a8.024,8.024,0,0,1,2.523-5.892,9.26,9.26,0,0,1,5.4-1.972h.374a8.322,8.322,0,0,1,6.255,2.843,8.975,8.975,0,0,1,1.777,5.274m-2.984-9.116A12.112,12.112,0,0,0,28.4,14.068a10.85,10.85,0,0,0-5.78,1.3,7.794,7.794,0,0,0-3.028,2.55V14.006h-2.17V39.521h2.17V31.043a16.582,16.582,0,0,0,1.267,1.319,10.606,10.606,0,0,0,6.714,2.5,14,14,0,0,0,3.675-.53A9.758,9.758,0,0,0,36.9,29.785a9.929,9.929,0,0,0,1.321-5.292,10.7,10.7,0,0,0-.466-3.565,10.18,10.18,0,0,0-4.689-5.615" transform="translate(3.048 2.451)" fill="#040504"/>
      <path id="Path_916" data-name="Path 916" d="M84.733,10.33h.435c.484,0,1.04-.184,1.04-.764,0-.679-.484-.72-1.049-.72h-.425Zm-.411-1.843H85.4c.739,0,1.223.316,1.223,1.08a.979.979,0,0,1-.925.96v.013c.334.042.405.222.537.5l.71,1.611h-.454l-.6-1.409c-.239-.536-.417-.553-.811-.553h-.341v1.962h-.411Z" transform="translate(14.751 1.485)" fill="#040504"/>
      <path id="Path_917" data-name="Path 917" d="M11.244,39.063h2.927v.513H11.834v2.13H14.05v.513H11.834v2.3h2.439v.513H11.244Z" transform="translate(1.967 6.834)" fill="#040504"/>
      <path id="Path_918" data-name="Path 918" d="M18.1,39.628l-1.3,3.293h2.592Zm-.29-.565h.667l2.37,5.972h-.616l-.643-1.6h-3.01l-.643,1.6h-.573Z" transform="translate(2.688 6.834)" fill="#040504"/>
      <path id="Path_919" data-name="Path 919" d="M22.483,39.577H20.721v-.513h4.116v.513H23.073v5.459h-.59Z" transform="translate(3.625 6.834)" fill="#040504"/>
      <rect id="Rectangle_138" data-name="Rectangle 138" width="0.59" height="5.972" transform="translate(30.384 45.898)" fill="#040504"/>
      <path id="Path_920" data-name="Path 920" d="M30.835,45.035H30.2l-2.224-5.972H28.6l1.925,5.382,2-5.382h.58Z" transform="translate(4.894 6.834)" fill="#040504"/>
      <path id="Path_921" data-name="Path 921" d="M34.019,39.063h2.927v.513H34.609v2.13h2.216v.513H34.609v2.3h2.439v.513H34.019Z" transform="translate(5.951 6.834)" fill="#040504"/>
      <path id="Path_922" data-name="Path 922" d="M53.789,39.063h.744l3.037,5.253h.018V39.063h.59v5.972h-.8L54.4,39.884h-.018v5.151h-.59Z" transform="translate(9.41 6.834)" fill="#040504"/>
      <path id="Path_923" data-name="Path 923" d="M70.217,39.063h.59v5.459h2.4v.513H70.217Z" transform="translate(12.284 6.834)" fill="#040504"/>
      <path id="Path_924" data-name="Path 924" d="M75.051,39.577H73.288v-.513H77.4v.513H75.64v5.459h-.59Z" transform="translate(12.821 6.834)" fill="#040504"/>
      <rect id="Rectangle_139" data-name="Rectangle 139" width="0.59" height="5.972" transform="translate(92.156 45.898)" fill="#040504"/>
      <path id="Path_925" data-name="Path 925" d="M81.069,39.063h.744l3.038,5.253h.016V39.063h.591v5.972h-.8l-2.986-5.151h-.018v5.151h-.59Z" transform="translate(14.182 6.834)" fill="#040504"/>
      <rect id="Rectangle_140" data-name="Rectangle 140" width="2.141" height="20.793" transform="translate(42.461 16.457)" fill="#040504"/>
      <path id="Path_926" data-name="Path 926" d="M46.031,14.583a9.062,9.062,0,0,0-5.093,3.6l-.857,1.389a14.016,14.016,0,0,0-1.1,5.291l.385,2.333a11.3,11.3,0,0,0,1.591,3.638,9.786,9.786,0,0,0,7.967,3.961h9.378V32.611h-7.6a12.238,12.238,0,0,1-4.93-.731,7.858,7.858,0,0,1-3.886-4.192,12.714,12.714,0,0,1-.618-3.238,16.371,16.371,0,0,1,.361-2.462A7.437,7.437,0,0,1,45.019,17.5c1-.794,2.89-1.2,5.628-1.2h7.659V14.058H51.089a15.164,15.164,0,0,0-5.058.525" transform="translate(6.82 2.46)" fill="#040504"/>
      <path id="Path_927" data-name="Path 927" d="M58.888,22.849a7.5,7.5,0,0,1,1.6-3.725,10.224,10.224,0,0,1,2.9-2.137A13.6,13.6,0,0,1,66.9,16.3a10.625,10.625,0,0,1,3.252.677,7.37,7.37,0,0,1,3.527,2.749,7.241,7.241,0,0,1,1.2,3.119Zm15.57-5.761a11.176,11.176,0,0,0-7.843-3.028H66.61a21.454,21.454,0,0,0-3.647.725,10.127,10.127,0,0,0-5.214,4.325,12.658,12.658,0,0,0-1.3,5.311,12.064,12.064,0,0,0,1.1,4.975,11,11,0,0,0,2.931,3.486,10.867,10.867,0,0,0,5.916,1.9h1.017a13.232,13.232,0,0,0,3.369-.6,11.019,11.019,0,0,0,4.741-3.569l.036-.061c.056-.1.112-.2.162-.3l.463-.822-2.724-.014-.109.139a8.031,8.031,0,0,1-6.705,3.048,9.337,9.337,0,0,1-2.64-.5,8.79,8.79,0,0,1-3.491-2.29,8.077,8.077,0,0,1-1.773-4.794H77.238v-.8A10.538,10.538,0,0,0,75.511,18.4Z" transform="translate(9.875 2.46)" fill="#040504"/>
      <path id="Path_928" data-name="Path 928" d="M81.49,16.181H94.429V14.006H81.808a7.16,7.16,0,0,0-4.506,1.25,6.394,6.394,0,0,0-2.076,4.649,6.054,6.054,0,0,0,2.325,4.763,5.873,5.873,0,0,0,3.226,1.012c.074,0,.148,0,.2-.006l7.994-.007,1.069.23A3.384,3.384,0,0,1,92.26,29.11l-.114.961c-.509,1.759-1.811,2.614-3.981,2.614h-13V34.8H88.492l1.478-.073a6.255,6.255,0,0,0,2.85-1.52,6.176,6.176,0,0,0,1.544-3.29V28.521l-.129-.854a5.566,5.566,0,0,0-1.708-2.745,5.684,5.684,0,0,0-3.154-1.361l-8.809,0a3.86,3.86,0,0,1-1.818-.8A3.707,3.707,0,0,1,77.4,19.97a4.861,4.861,0,0,1,.23-1.351c.558-1.64,1.819-2.438,3.858-2.438" transform="translate(13.149 2.451)" fill="#040504"/>
      <path id="Path_929" data-name="Path 929" d="M4.206.052H12.1v.94H4A2.527,2.527,0,0,0,1.3,2.706a3.323,3.323,0,0,0-.163.945,2.6,2.6,0,0,0,.942,1.963,2.668,2.668,0,0,0,1.305.571H9.069a3.439,3.439,0,0,1,1.883.822,3.263,3.263,0,0,1,1.021,1.637l.085.533v.859A3.77,3.77,0,0,1,11.116,12a3.825,3.825,0,0,1-1.715.9l-.9.046H.155v-.907h8.14a2.543,2.543,0,0,0,2.78-1.838l.082-.659A2.408,2.408,0,0,0,9.6,7.251l-.737-.164H3.674a3.52,3.52,0,0,1-2.086-.607A3.637,3.637,0,0,1,.2,3.6,3.855,3.855,0,0,1,1.466.784,4.392,4.392,0,0,1,4.206.052" transform="translate(0.027 0.009)" fill="#040504"/>
      <path id="Path_930" data-name="Path 930" d="M23.4.052h.979a18.66,18.66,0,0,1,.9,2.245l3.228,8.766H28.6L32.646.052h1.021v.04L28.884,12.949H28.3c-.1-.141-.544-1.278-1.3-3.4Z" transform="translate(4.094 0.009)" fill="#040504"/>
      <path id="Path_931" data-name="Path 931" d="M44.5,9.688c-.1.209-.2.444-.329.673a6.852,6.852,0,0,1-2.944,2.209,8.32,8.32,0,0,1-2.09.368h-.649A6.749,6.749,0,0,1,34.8,11.75,6.9,6.9,0,0,1,33.01,9.628a7.506,7.506,0,0,1-.7-3.118,7.857,7.857,0,0,1,.817-3.317A6.245,6.245,0,0,1,36.358.535,13.107,13.107,0,0,1,38.649.086a6.933,6.933,0,0,1,4.865,1.879l.657.814a6.519,6.519,0,0,1,1.057,3.608v.286H33.335v.2a5.373,5.373,0,0,0,1.187,3.24,5.8,5.8,0,0,0,2.371,1.549A5.914,5.914,0,0,0,38.649,12a5.329,5.329,0,0,0,4.7-2.305ZM33.416,5.732h10.8V5.69a5.069,5.069,0,0,0-.864-2.337,4.859,4.859,0,0,0-2.37-1.839,6.94,6.94,0,0,0-2.165-.449,9.188,9.188,0,0,0-2.329.449,6.655,6.655,0,0,0-1.963,1.43,4.79,4.79,0,0,0-1.106,2.787" transform="translate(5.653 0.015)" fill="#040504"/>
      <path id="Path_932" data-name="Path 932" d="M23.537,9.688c-.1.209-.2.444-.334.673a6.831,6.831,0,0,1-2.942,2.209,8.348,8.348,0,0,1-2.088.368h-.656a6.743,6.743,0,0,1-3.68-1.188,6.853,6.853,0,0,1-1.8-2.122,7.472,7.472,0,0,1-.7-3.118,7.844,7.844,0,0,1,.819-3.317A6.247,6.247,0,0,1,15.4.535,12.941,12.941,0,0,1,17.685.086a6.927,6.927,0,0,1,4.863,1.879l.656.814a6.507,6.507,0,0,1,1.064,3.608v.286h-11.9v.2a5.383,5.383,0,0,0,1.183,3.24A5.967,5.967,0,0,0,17.685,12a5.337,5.337,0,0,0,4.7-2.305ZM12.451,5.732h10.8V5.69a5.123,5.123,0,0,0-.861-2.337,4.9,4.9,0,0,0-2.37-1.839,6.973,6.973,0,0,0-2.167-.449,9.216,9.216,0,0,0-2.333.449,6.8,6.8,0,0,0-1.965,1.43,4.828,4.828,0,0,0-1.1,2.787" transform="translate(1.985 0.015)" fill="#040504"/>
      <path id="Path_933" data-name="Path 933" d="M4.206.039H12.1V.98H4A2.525,2.525,0,0,0,1.3,2.694a3.3,3.3,0,0,0-.163.943,2.612,2.612,0,0,0,.942,1.969,2.752,2.752,0,0,0,1.305.569H9.069a3.435,3.435,0,0,1,1.883.819,3.271,3.271,0,0,1,1.021,1.64l.085.529v.861a3.807,3.807,0,0,1-.942,1.968,3.782,3.782,0,0,1-1.715.9l-.9.039H.155v-.9h8.14a2.54,2.54,0,0,0,2.78-1.838l.082-.659A2.4,2.4,0,0,0,9.6,7.243l-.737-.166H3.674a3.524,3.524,0,0,1-2.086-.611A3.646,3.646,0,0,1,.2,3.591,3.86,3.86,0,0,1,1.466.771,4.377,4.377,0,0,1,4.206.039" transform="translate(0.027 0.007)" fill="#040504"/>
      <path id="Path_934" data-name="Path 934" d="M23.4.039h.979a19,19,0,0,1,.9,2.245l3.228,8.765H28.6L32.646.039h1.021v.04L28.884,12.934H28.3c-.1-.139-.544-1.277-1.3-3.4Z" transform="translate(4.094 0.007)" fill="#040504"/>
      <path id="Path_935" data-name="Path 935" d="M44.5,9.67c-.1.213-.2.445-.329.677a6.818,6.818,0,0,1-2.944,2.21,8.332,8.332,0,0,1-2.09.369h-.649a6.762,6.762,0,0,1-3.685-1.19A6.9,6.9,0,0,1,33.01,9.614a7.49,7.49,0,0,1-.7-3.118A7.864,7.864,0,0,1,33.13,3.18,6.272,6.272,0,0,1,36.358.516,13.545,13.545,0,0,1,38.649.073a6.92,6.92,0,0,1,4.865,1.881l.657.817a6.48,6.48,0,0,1,1.057,3.6v.288H33.335v.2A5.374,5.374,0,0,0,34.522,10.1a5.8,5.8,0,0,0,2.371,1.55,6.03,6.03,0,0,0,1.757.333,5.326,5.326,0,0,0,4.7-2.311ZM33.416,5.717h10.8V5.682a5.054,5.054,0,0,0-.864-2.338,4.839,4.839,0,0,0-2.37-1.839,7.022,7.022,0,0,0-2.165-.452,9.019,9.019,0,0,0-2.329.452,6.515,6.515,0,0,0-1.963,1.426,4.787,4.787,0,0,0-1.106,2.786" transform="translate(5.653 0.013)" fill="#c40a1e"/>
      <path id="Path_936" data-name="Path 936" d="M23.537,9.67c-.1.213-.2.445-.334.677a6.8,6.8,0,0,1-2.942,2.21,8.36,8.36,0,0,1-2.088.369h-.656a6.756,6.756,0,0,1-3.68-1.19,6.853,6.853,0,0,1-1.8-2.122,7.456,7.456,0,0,1-.7-3.118,7.852,7.852,0,0,1,.819-3.316A6.273,6.273,0,0,1,15.4.516,13.372,13.372,0,0,1,17.685.073a6.914,6.914,0,0,1,4.863,1.881l.656.817a6.467,6.467,0,0,1,1.064,3.6v.288h-11.9v.2A5.384,5.384,0,0,0,13.552,10.1a5.868,5.868,0,0,0,2.377,1.55,6.009,6.009,0,0,0,1.757.333,5.333,5.333,0,0,0,4.7-2.311ZM12.451,5.717h10.8V5.682a5.107,5.107,0,0,0-.861-2.338,4.876,4.876,0,0,0-2.37-1.839,7.056,7.056,0,0,0-2.167-.452,9.047,9.047,0,0,0-2.333.452,6.651,6.651,0,0,0-1.965,1.426,4.825,4.825,0,0,0-1.1,2.786" transform="translate(1.985 0.013)" fill="#040504"/>
      <path id="Path_937" data-name="Path 937" d="M45.3,2.948a7.014,7.014,0,0,1,1.1-1.3A5.414,5.414,0,0,1,47.869.7a7.308,7.308,0,0,1,3.31-.652,7.51,7.51,0,0,1,3.6,1.228,6.25,6.25,0,0,1,2.329,3.473,8.438,8.438,0,0,1,.167,2.006v6.188h-.941v-6.3A5.213,5.213,0,0,0,52.776,1.35a8.265,8.265,0,0,0-1.963-.323,6.978,6.978,0,0,0-2.739.657,5.4,5.4,0,0,0-1.187.857,5.326,5.326,0,0,0-1.431,2.533,13.564,13.564,0,0,0-.16,2.255v5.613h-.941V0H45.3Z" transform="translate(7.76 0)" fill="#040504"/>
      <path id="Path_938" data-name="Path 938" d="M75.476,12.13a1.626,1.626,0,0,0,.918.244.831.831,0,0,0,.939-.852c0-.818-1.91-.92-1.91-2.01A1.171,1.171,0,0,1,76.74,8.427a2.514,2.514,0,0,1,.817.135l-.065.376a1.716,1.716,0,0,0-.758-.154c-.429,0-.9.179-.9.717,0,.835,1.909.839,1.909,2.057a1.222,1.222,0,0,1-1.365,1.176,2.407,2.407,0,0,1-.943-.179Z" transform="translate(13.194 1.475)" fill="#040504"/>
      <rect id="Rectangle_141" data-name="Rectangle 141" width="0.483" height="0.502" transform="translate(91.837 13.635)" fill="#040504"/>
      <path id="Path_939" data-name="Path 939" d="M81.053,8.881l-.907,2.3h1.808Zm-.2-.394h.466l1.652,4.164h-.431l-.446-1.114h-2.1l-.448,1.114h-.4Z" transform="translate(13.846 1.485)" fill="#040504"/>
      <rect id="Rectangle_142" data-name="Rectangle 142" width="0.482" height="0.502" transform="translate(97.475 13.635)" fill="#040504"/>
      <rect id="Rectangle_143" data-name="Rectangle 143" width="0.482" height="0.502" transform="translate(102.45 13.635)" fill="#040504"/>
      <path id="Path_940" data-name="Path 940" d="M88.515,8.487h.412v3.807H90.6v.358H88.515Z" transform="translate(15.485 1.485)" fill="#040504"/>
      <rect id="Rectangle_144" data-name="Rectangle 144" width="0.483" height="0.502" transform="translate(106.755 13.635)" fill="#040504"/>
    </g>
  </g>
</svg>
