<svg xmlns="http://www.w3.org/2000/svg" xmlns:xlink="http://www.w3.org/1999/xlink" width="40.564" height="51.721" viewBox="0 0 40.564 51.721">
  <defs>
    <linearGradient id="linear-gradient" x1="0.902" y1="0.04" x2="0.058" y2="0.955" gradientUnits="objectBoundingBox">
      <stop offset="0" stop-color="#2f2f2d"/>
      <stop offset="1"/>
    </linearGradient>
    <clipPath id="clip-path">
      <rect id="Rectangle_53" data-name="Rectangle 53" width="40.564" height="51.721" stroke="rgba(0,0,0,0)" stroke-width="1" fill="url(#linear-gradient)"/>
    </clipPath>
  </defs>
  <g id="Group_22180" data-name="Group 22180" transform="translate(0 0)">
    <g id="Group_38" data-name="Group 38" transform="translate(0 0)" clip-path="url(#clip-path)">
      <path id="Path_33" data-name="Path 33" d="M0,59.722v1.516a4.587,4.587,0,0,0,4.6,4.569H8.111A30.125,30.125,0,0,1,6.53,59.722Z" transform="translate(0 -17.127)" stroke="rgba(0,0,0,0)" stroke-width="1" fill-rule="evenodd" fill="url(#linear-gradient)"/>
      <path id="Path_34" data-name="Path 34" d="M0,12.8v30.42H5.943c-.024-.51-.063-1.009-.063-1.519V38.671a10.658,10.658,0,0,1,4.1-8.449l1.779-1.382v-7.6a5.148,5.148,0,1,1,10.291,0v1.267a5.013,5.013,0,0,1,2.2-.513,5.164,5.164,0,0,1,4.9,3.675,2.466,2.466,0,0,1,.252-.1V12.8Z" transform="translate(0 -3.671)" stroke="rgba(0,0,0,0)" stroke-width="1" fill-rule="evenodd" fill="url(#linear-gradient)"/>
      <path id="Path_35" data-name="Path 35" d="M4.407,0A4.484,4.484,0,0,0,0,4.566V6.085H29.41V4.566A4.5,4.5,0,0,0,24.993,0Z" transform="translate(0 0)" stroke="rgba(0,0,0,0)" stroke-width="1" fill-rule="evenodd" fill="url(#linear-gradient)"/>
      <path id="Path_36" data-name="Path 36" d="M20.652,21.329A2.2,2.2,0,0,0,18.511,23.6V44.083a1.432,1.432,0,1,1-2.86,0V35.02a7.667,7.667,0,0,0-2.857,6.029v3.034A29.161,29.161,0,0,0,15.5,56.357c.39.833.64,1.481,1.579,1.481H39.941c.939,0,1.19-.648,1.579-1.481a29.277,29.277,0,0,0,2.713-12.274V35.739a2.15,2.15,0,1,0-4.292,0v5.309a1.431,1.431,0,1,1-2.858,0V32.706a2.145,2.145,0,1,0-4.282,0v5.309a1.431,1.431,0,1,1-2.857,0V29.672a2.15,2.15,0,1,0-4.292,0v8.343a1.431,1.431,0,1,1-2.858,0V23.6a2.208,2.208,0,0,0-2.141-2.276" transform="translate(-3.669 -6.117)" stroke="rgba(0,0,0,0)" stroke-width="1" fill-rule="evenodd" fill="url(#linear-gradient)"/>
    </g>
  </g>
</svg>
