<svg id="Group_22180" data-name="Group 22180" xmlns="http://www.w3.org/2000/svg" xmlns:xlink="http://www.w3.org/1999/xlink" width="47.19" height="52.808" viewBox="0 0 47.19 52.808">
  <defs>
    <linearGradient id="linear-gradient" x1="0.902" y1="0.04" x2="0.058" y2="0.955" gradientUnits="objectBoundingBox">
      <stop offset="0" stop-color="#2f2f2d"/>
      <stop offset="1"/>
    </linearGradient>
    <clipPath id="clip-path">
      <rect id="Rectangle_51" data-name="Rectangle 51" width="47.19" height="52.808" stroke="rgba(0,0,0,0)" stroke-miterlimit="10" stroke-width="1" fill="url(#linear-gradient)"/>
    </clipPath>
  </defs>
  <g id="Group_37" data-name="Group 37" transform="translate(0 0)" clip-path="url(#clip-path)">
    <path id="Path_32" data-name="Path 32" d="M9.114,32.773c.95-.546,1.924-1.089,2.877-1.669a.738.738,0,0,0,.31-.53q.029-4.143,0-8.286a.809.809,0,0,0-.341-.574c-.785-.492-1.612-.916-2.4-1.41a.712.712,0,0,0-.939.051,5.437,5.437,0,1,1-.573-9.2,5.506,5.506,0,0,1,2.83,5.448.736.736,0,0,0,.253.589c.855.537,1.733,1.04,2.623,1.52a.738.738,0,0,0,.613-.007q3.6-2.046,7.165-4.144a.817.817,0,0,0,.318-.588c.034-.884-.015-1.772.027-2.656a.847.847,0,0,0-.588-.942,5.4,5.4,0,0,1-1.577-8.7A5.212,5.212,0,0,1,25.529.382a5.322,5.322,0,0,1,3.493,4.762,5.225,5.225,0,0,1-3.087,5.211.9.9,0,0,0-.6.991c.035.885-.01,1.772.026,2.656a.8.8,0,0,0,.336.568q3.539,2.082,7.111,4.11a.806.806,0,0,0,.665.016c.873-.464,1.707-1,2.584-1.462.432-.226.293-.551.273-.865a5.444,5.444,0,0,1,10.759-1.528,5.466,5.466,0,0,1-4.163,6.414,5.239,5.239,0,0,1-4.319-.894.76.76,0,0,0-1-.032c-.751.467-1.523.9-2.3,1.329a.712.712,0,0,0-.431.733q.044,4.017,0,8.033a.706.706,0,0,0,.419.739c.8.433,1.584.882,2.349,1.365a.715.715,0,0,0,.937-.051,5.441,5.441,0,0,1,8.606,4.357A5.434,5.434,0,0,1,36.5,38.292a17.753,17.753,0,0,1-.17-2.064A.947.947,0,0,0,36,35.595c-.818-.518-1.66-1-2.518-1.448a.863.863,0,0,0-.709.028q-3.546,2.006-7.06,4.073a.87.87,0,0,0-.356.62c-.038.947,0,1.9-.026,2.846a.626.626,0,0,0,.47.683,5.447,5.447,0,1,1-4.646.131,1.042,1.042,0,0,0,.726-1.177,21.57,21.57,0,0,1-.007-2.4.754.754,0,0,0-.476-.774c-2.327-1.319-4.633-2.675-6.959-3.995a.867.867,0,0,0-.71-.032c-.876.459-1.734.956-2.573,1.48a.736.736,0,0,0-.28.579,5.454,5.454,0,1,1-6.594-4.624,5.294,5.294,0,0,1,4.382.909c.12.085.24.17.361.253a.4.4,0,0,0,.088.028" transform="translate(0 0)" stroke="rgba(0,0,0,0)" stroke-miterlimit="10" stroke-width="1" fill="url(#linear-gradient)"/>
  </g>
</svg>
